<svg id="图层_1" data-name="图层 1" xmlns="http://www.w3.org/2000/svg" xmlns:xlink="http://www.w3.org/1999/xlink" viewBox="0 0 1190.55 841.89"><defs><style>.cls-1{fill:url(#未命名的渐变_16);}.cls-2{fill:url(#未命名的渐变_16-2);}.cls-3{fill:url(#未命名的渐变_16-3);}.cls-4{fill:url(#未命名的渐变_16-4);}.cls-32,.cls-33,.cls-5{fill:none;}.cls-6{clip-path:url(#clip-path);}.cls-7{clip-path:url(#clip-path-3);}.cls-8{clip-path:url(#clip-path-4);}.cls-25,.cls-27,.cls-9{fill:#fff;}.cls-10{fill:#194e1e;}.cls-11{opacity:0.2;}.cls-11,.cls-12,.cls-15{isolation:isolate;}.cls-12{opacity:0.6;}.cls-13{clip-path:url(#clip-path-6);}.cls-14{clip-path:url(#clip-path-8);}.cls-16,.cls-20,.cls-30{fill:#284d24;}.cls-17{fill:#506459;}.cls-18{fill:#78886e;}.cls-19,.cls-20{font-size:12px;}.cls-19{fill:#888;}.cls-19,.cls-20,.cls-25{font-family:ArialMT, Arial;}.cls-21{letter-spacing:-0.02em;}.cls-22{letter-spacing:-0.02em;}.cls-23{letter-spacing:-0.02em;}.cls-24{letter-spacing:-0.02em;}.cls-25{font-size:14px;}.cls-26{letter-spacing:-0.07em;}.cls-27{font-size:22px;}.cls-27,.cls-30{font-family:Arial-BoldMT, Arial;font-weight:700;}.cls-28{letter-spacing:-0.05em;}.cls-29{letter-spacing:-0.04em;}.cls-30{font-size:28px;}.cls-31{letter-spacing:0.07em;}.cls-32,.cls-33{stroke:#fff;}.cls-32{stroke-linecap:round;stroke-width:2px;}.cls-33{stroke-miterlimit:10;stroke-width:0.5px;}.cls-34{clip-path:url(#clip-path-11);}.cls-35{mask:url(#mask);}.cls-36{fill:url(#未命名的渐变_15);}.cls-37{clip-path:url(#clip-path-12);}.cls-38{mask:url(#mask-2);}.cls-39{fill:url(#未命名的渐变_15-2);}.cls-40{clip-path:url(#clip-path-13);}.cls-41{mask:url(#mask-3);}.cls-42{fill:url(#未命名的渐变_15-3);}.cls-43{clip-path:url(#clip-path-14);}.cls-44{mask:url(#mask-4);}.cls-45{fill:url(#未命名的渐变_15-4);}.cls-46{fill:#164e30;}.cls-47{fill:#bdb955;}.cls-48{fill:#b1af51;}.cls-49{fill:#405f36;}</style><linearGradient id="未命名的渐变_16" x1="167.75" y1="144.13" x2="168.75" y2="144.13" gradientTransform="translate(-9220.46 -15679.93) scale(61.54 114.39)" gradientUnits="userSpaceOnUse"><stop offset="0" stop-color="#fff"/><stop offset="1" stop-color="#fff"/></linearGradient><linearGradient id="未命名的渐变_16-2" x1="167.75" y1="148.16" x2="168.75" y2="148.16" gradientTransform="translate(-9222.34 -9441.3) scale(61.55 69.18)" xlink:href="#未命名的渐变_16"/><linearGradient id="未命名的渐变_16-3" x1="167.75" y1="144.15" x2="168.75" y2="144.15" gradientTransform="translate(-9232.55 -15642.79) scale(61.61 114.12)" xlink:href="#未命名的渐变_16"/><linearGradient id="未命名的渐变_16-4" x1="167.75" y1="144.45" x2="168.75" y2="144.45" gradientTransform="translate(-9229.33 -14898.41) scale(61.59 108.73)" xlink:href="#未命名的渐变_16"/><clipPath id="clip-path"><rect class="cls-5" width="1190.55" height="841.89"/></clipPath><clipPath id="clip-path-3"><rect class="cls-5" x="1190.33" width="0.22" height="841.89"/></clipPath><clipPath id="clip-path-4"><rect class="cls-5" x="-32768" y="-31925.11" width="65535" height="65535"/></clipPath><clipPath id="clip-path-6"><rect class="cls-5" x="1269.33" y="93" width="180" height="243"/></clipPath><clipPath id="clip-path-8"><rect class="cls-5" width="1190.55" height="841.89"/></clipPath><clipPath id="clip-path-11"><path class="cls-5" d="M1115.74,799.6a5.67,5.67,0,0,0-.8-1.3,2.7,2.7,0,0,0-.8-.7,4.46,4.46,0,0,0-2.8-.6,6.07,6.07,0,0,0-1.8.5,8.64,8.64,0,0,0-1.6,1,14.34,14.34,0,0,0-2,2.3,7.71,7.71,0,0,0-1,2.5,6.62,6.62,0,0,0,.1,2.8,6.7,6.7,0,0,0,.7,1.8,5.72,5.72,0,0,0,1.1,1.6,9,9,0,0,0,.9,1l1,1a11.23,11.23,0,0,1,1.8,2c.3.4.5.8.8,1.2.1.2.2.5.3.7a1.73,1.73,0,0,1-.1,1,1.27,1.27,0,0,1-.9.7,1.14,1.14,0,0,1-1.5-.5.35.35,0,0,0-.1-.2,1.8,1.8,0,0,1,.2-1.6c.3-.3.2-.6-.2-.7a4.87,4.87,0,0,0-1.2-.1,1.5,1.5,0,0,0-1.1,1.5v.4a2.66,2.66,0,0,0,2.1,2.2c.2,0,.5.1.7.1a1.7,1.7,0,0,1,.7.1v-.1h.6a5,5,0,0,0,2.4-.6l.9-.6a2.7,2.7,0,0,0,.7-.8,1.74,1.74,0,0,0,.3-1.4,4.87,4.87,0,0,0-.4-1.1,3.51,3.51,0,0,0-.5-.8c-.2-.2-.4-.5-.6-.7l-.8-.8-.8-.8a11.41,11.41,0,0,1-1.1-1.1,11.92,11.92,0,0,1-1.8-2.7,7.49,7.49,0,0,1-.5-1.6c-.1-.4-.1-.7-.2-1.1V803a9.3,9.3,0,0,1,1.8-3.9,2.73,2.73,0,0,1,1.2-.9.77.77,0,0,1,1,.1,1.21,1.21,0,0,1,.5.5,3.81,3.81,0,0,1,.8,1.7,4.1,4.1,0,0,1,.1,1.1c0,.4-.1.8-.1,1.1a8.3,8.3,0,0,1-.6,2.1,7.84,7.84,0,0,1-1.1,1.8l-.3.4c-.2.3-.2.5.2.6a.9.9,0,0,0,.5.1,2.11,2.11,0,0,0,1.8-.6,5.3,5.3,0,0,0,1-1.2,10.09,10.09,0,0,0,.7-1.5,5,5,0,0,0,.2-1.2c0-.4.1-.8.1-1.2a2.77,2.77,0,0,0-.1-.9,4.19,4.19,0,0,0-.4-1.5"/></clipPath><mask id="mask" x="1104.74" y="796.9" width="11.5" height="21.4" maskUnits="userSpaceOnUse"><rect class="cls-1" x="1104.74" y="796.9" width="11.5" height="21.4"/></mask><linearGradient id="未命名的渐变_15" x1="167.75" y1="144.13" x2="168.75" y2="144.13" gradientTransform="translate(-9220.46 -15679.93) scale(61.54 114.39)" gradientUnits="userSpaceOnUse"><stop offset="0" stop-color="#dcd45d"/><stop offset="1" stop-color="#164e30"/></linearGradient><clipPath id="clip-path-12"><path class="cls-5" d="M1136.34,803.3c0-.5-.1-.9-.1-1.4s-.1-.9-.1-1.3a2.92,2.92,0,0,0-.2-.9c-.1-.3-.1-.6-.2-.9a.73.73,0,0,0-.7-.6h-.4c-.4.1-.5.3-.4.7l.1.5a4.33,4.33,0,0,0,.1.5,18.9,18.9,0,0,1,.8,5.3v1.4c0,.5-.1.9-.1,1.4-.1.9-.3,1.7-.4,2.5a23.35,23.35,0,0,1-.7,2.5,13,13,0,0,1-.8,1.7c-.1.1-.1.2-.2.3a4.35,4.35,0,0,1-.4-.7,1.85,1.85,0,0,1-.2-.7,16,16,0,0,1-.5-2.1l-.3-2.1c0-.4-.1-.8-.1-1.3s-.1-.8-.1-1.3c0-.3-.1-.5-.1-.8a2.2,2.2,0,0,0-.1-.8c0-.6-.1-1.1-.1-1.7a9.85,9.85,0,0,0-.2-1.7v-.2c0-.1,0-.2-.1-.2a1.06,1.06,0,0,0-.9-.8,1.16,1.16,0,0,0-1,.2,1.23,1.23,0,0,0-.4.8,12.86,12.86,0,0,0-.4,1.9c-.1.6-.1,1.3-.2,2v.7c0,.2-.1.5-.1.7-.2,1.1-.5,2.2-.8,3.3a29.92,29.92,0,0,1-1,3.2c-.2.5-.4,1-.6,1.4a5.39,5.39,0,0,1-.7,1.3c-.1.1-.2.3-.4.5a2,2,0,0,1-.4-.8c-.1-.2-.2-.5-.3-.7a14.16,14.16,0,0,1-.7-2.2,17.42,17.42,0,0,1-.5-2.2c-.2-1.2-.4-2.4-.5-3.6s-.2-2.4-.2-3.6c0-.8-.1-1.5-.1-2.3a17.7,17.7,0,0,0-.1-2.3v-.5c0-.2-.1-.3-.1-.5a.75.75,0,0,0-.7-.7h-.7a1,1,0,0,0-.9.7c0,.2-.1.3-.1.4a.6.6,0,0,0-.1.4,26.48,26.48,0,0,0-.7,4.8,8.55,8.55,0,0,0,0,1.6c0,.5.1,1.1.1,1.6.1,1,.2,2,.3,2.9s.4,1.9.7,2.9a10.46,10.46,0,0,0,1.9,3.8,6,6,0,0,0,1.1,1.2,3.48,3.48,0,0,0,2.4.6,1.85,1.85,0,0,0,1.5-1.2c.1-.2.1-.3.2-.4a.6.6,0,0,0,.1-.4,27.59,27.59,0,0,0,.8-2.7,26.81,26.81,0,0,1,.7-2.7.37.37,0,0,1,.1-.3c0-.1.1-.3.1-.4,0,.1.1.3.1.4a.37.37,0,0,0,.1.3,2.92,2.92,0,0,1,.2.9,3.18,3.18,0,0,0,.3.9,9.41,9.41,0,0,0,1.7,3.1,3.25,3.25,0,0,0,1.3,1,4.4,4.4,0,0,0,1.6.2,2.19,2.19,0,0,0,1.9-1.4,15.55,15.55,0,0,0,.8-2.3,18,18,0,0,0,.6-3.2c.1-1.1.2-2.1.2-3.2v-1.6a2.59,2.59,0,0,1-.7-1.8"/></clipPath><mask id="mask-2" x="1118.14" y="797.2" width="18.9" height="21" maskUnits="userSpaceOnUse"><rect class="cls-2" x="1118.14" y="797.2" width="18.9" height="21"/></mask><linearGradient id="未命名的渐变_15-2" x1="167.75" y1="148.16" x2="168.75" y2="148.16" gradientTransform="translate(-9222.34 -9441.3) scale(61.55 69.18)" xlink:href="#未命名的渐变_15"/><clipPath id="clip-path-13"><path class="cls-5" d="M1144.84,800.2a14.92,14.92,0,0,1-.2,2.1l-.3,2.1c-.1.5-.1,1.1-.2,1.6a8.08,8.08,0,0,0-.1,1.6v.6c-.6.2-1.3.4-1.9.6s-1.2.5-1.8.7c-.1-.2-.2-.2-.2-.2.3-1.3.6-2.7,1-4s.9-2.6,1.4-3.9a17.1,17.1,0,0,1,1.3-2.3c.1-.1.2-.3.3-.4a1.38,1.38,0,0,0,.3-.4.1.1,0,0,0,.1-.1c.1,0,.1-.1.2-.1,0,.4.1.7.1,1Zm3.4,7.4a1.7,1.7,0,0,1-.7-.1v-5.8a16.35,16.35,0,0,0-.2-2.2,8.33,8.33,0,0,0-.4-1.5,1.55,1.55,0,0,0-1.2-1,2.05,2.05,0,0,0-1.1,0,1.46,1.46,0,0,0-.9.6,2.18,2.18,0,0,0-.4.5c-.1.2-.3.3-.4.5-.3.4-.5.8-.8,1.2s-.4.8-.6,1.3c-.5,1.1-.9,2.1-1.3,3.2a18.87,18.87,0,0,0-.9,3.4c-.1.4-.2.9-.3,1.3s-.2.9-.3,1.3h-.2l-.5.4c-.2.1-.3.3-.5.4s-.2.2-.2.3-.1.2-.2.3-.1.4.1.5a.31.31,0,0,1,.2.1.88.88,0,0,0,.7-.1l.2-.1a.37.37,0,0,1,.3-.1v.3c-.1.5-.1,1-.2,1.5s-.1,1-.2,1.5-.1.7-.1,1.1v1.7a.76.76,0,0,0,.2.4.37.37,0,0,0,.3.1l.2-.2v-.2c.1-.7.1-1.4.2-2.1l.3-2.1c.1-.5.2-1,.3-1.4s.2-.9.3-1.4a18.65,18.65,0,0,1,2-1,18,18,0,0,1,2.1-.8v.3a19.27,19.27,0,0,0,.1,2.4,20,20,0,0,0,.4,2.4,21.72,21.72,0,0,0,.7,2.4,3.88,3.88,0,0,0,.6,1.1,1.42,1.42,0,0,0,1.4.7c.4,0,.6-.2.5-.6a.6.6,0,0,0-.1-.4l-.1-.4a4.87,4.87,0,0,1-.1-1.2,6.15,6.15,0,0,0-.1-1.3c0-1-.1-2,0-3s.1-2,.1-3v-.4c.3,0,.5-.1.7-.1l.3-.1c.1,0,.2-.1.3-.1a.1.1,0,0,0,.1-.1l.1-.1a1.08,1.08,0,0,0-.7-.3"/></clipPath><mask id="mask-3" x="1137.04" y="796.9" width="11.9" height="21.9" maskUnits="userSpaceOnUse"><rect class="cls-3" x="1137.04" y="796.9" width="11.9" height="21.9"/></mask><linearGradient id="未命名的渐变_15-3" x1="167.75" y1="144.15" x2="168.75" y2="144.15" gradientTransform="translate(-9232.55 -15642.79) scale(61.61 114.12)" xlink:href="#未命名的渐变_15"/><clipPath id="clip-path-14"><path class="cls-5" d="M1162.44,800.8c0-.4-.1-.8-.1-1.2a5,5,0,0,0-.2-1.2.6.6,0,0,0-.1-.4c0-.1-.1-.3-.1-.4a1.2,1.2,0,0,0-1.5-.8h-.1c-.3.1-.5.3-.5.5s-.1.3-.1.4l-.1.4c0,.4-.1.8-.1,1.3l-.1,1.2v.4a.76.76,0,0,1-.1.4,45.57,45.57,0,0,1-1.8,5.2,9.74,9.74,0,0,1-1.5,2.4l-.4.4a2.19,2.19,0,0,1-.5.3,1.38,1.38,0,0,1-.3-.4c-.1-.1-.1-.3-.2-.4a8.8,8.8,0,0,1-.5-1.5l-.3-1.5a16.2,16.2,0,0,1-.1-2.2v-5.9a.37.37,0,0,0-.1-.3.63.63,0,0,0-.5-.6,2.85,2.85,0,0,0-1.3,0,2,2,0,0,0-.9.9,2,2,0,0,0-.3,1.1,11.53,11.53,0,0,0-.3,2.6v2.2a7.79,7.79,0,0,0,.4,2.1c.2.5.3,1,.5,1.4a9.14,9.14,0,0,0,.7,1.4,10.59,10.59,0,0,0,1,1.2,2.18,2.18,0,0,0,.8.5,3,3,0,0,0,1,.2,1.8,1.8,0,0,0,1-.2,2.36,2.36,0,0,0,.9-.6,14.31,14.31,0,0,0,1.1-1.5,10.09,10.09,0,0,0,.7-1.5c.2-.5.4-1,.6-1.6a.76.76,0,0,1,.2-.4c.1-.1.1-.3.2-.5h.1v2.3a14.77,14.77,0,0,1-.1,2.1c-.1,1.1-.3,2.3-.5,3.4a5.67,5.67,0,0,1-1.3,2.7,4.89,4.89,0,0,1-1.2,1.3,10.93,10.93,0,0,1-1.5.8.45.45,0,0,1-.5,0c-.1-.1-.3-.2-.4-.3s-.3-.4-.3-.6-.1-.4-.2-.6v-.4a.43.43,0,0,0-.4-.4,1.48,1.48,0,0,0-1.3,0c-.2.1-.3.2-.3.4a3.65,3.65,0,0,0,.3,1.5,2,2,0,0,0,1.1,1.1,4.54,4.54,0,0,0,2.8.3,7.65,7.65,0,0,0,6.2-5.9,13.52,13.52,0,0,0,.5-2.9,28.1,28.1,0,0,0,.1-2.9v-2.6c0-.8-.1-1.8-.1-2.7"/></clipPath><mask id="mask-4" x="1150.34" y="796.6" width="12.2" height="21.4" maskUnits="userSpaceOnUse"><rect class="cls-4" x="1150.34" y="796.6" width="12.2" height="21.4"/></mask><linearGradient id="未命名的渐变_15-4" x1="167.75" y1="144.45" x2="168.75" y2="144.45" gradientTransform="translate(-9229.33 -14898.41) scale(61.59 108.73)" xlink:href="#未命名的渐变_15"/></defs><g class="cls-6"><g class="cls-6"><g class="cls-7"><g class="cls-8"><g class="cls-8"><rect class="cls-9" x="1190.33" width="1191" height="842"/><rect class="cls-10" x="1190.33" width="1191" height="63"/></g></g></g><g class="cls-14"><g class="cls-15"><g class="cls-8"><rect class="cls-9" x="1.5" y="0.5" width="1191" height="842"/><rect class="cls-16" x="0.5" y="0.5" width="1191" height="63"/><path class="cls-17" d="M559.5,255.5h545a8,8,0,0,1,8,8v198a8,8,0,0,1-8,8h-545a8,8,0,0,1-8-8v-198a8,8,0,0,1,8-8"/><path class="cls-18" d="M559,480.5h545a8,8,0,0,1,8,8v202a8,8,0,0,1-8,8H559a8,8,0,0,1-8-8v-202a8,8,0,0,1,8-8"/><text class="cls-19" transform="translate(81.5 266.5)">With </text><text class="cls-20" transform="translate(110.04 266.5)">non-essential shop</text><text class="cls-19" transform="translate(212.1 266.5)"><tspan xml:space="preserve"> already closed for several weeks due to </tspan></text><text class="cls-19" transform="translate(81.51 284.5)">restrictions. Smaller shops are likely to face more severe resource </text><text class="cls-19" transform="translate(81.51 302.5)">constraints than larger ones and thus find it harder to survive when </text><text class="cls-19" transform="translate(81.51 320.5)">negatively a<tspan class="cls-21" x="64.04" y="0">f</tspan><tspan x="67.17" y="0">fected by the COVID-19 crisis. In addition, </tspan></text><text class="cls-20" transform="translate(377.12 320.5)">international </text><text class="cls-20" transform="translate(81.51 338.5)">students</text><text class="cls-19" transform="translate(128.79 338.5)"><tspan xml:space="preserve"> are strongly a</tspan><tspan class="cls-21" x="76.04" y="0">f</tspan><tspan x="79.17" y="0">fected by the restrictions.</tspan><tspan class="cls-21" x="212.56" y="0"> </tspan><tspan x="215.69" y="0">They are stuck </tspan></text><text class="cls-19" transform="translate(81.51 356.5)">indoors most of the time and thus their life under the pandemic is too </text><text class="cls-19" transform="translate(81.51 374.5)">far apart from what they imagined.</text><text class="cls-19" transform="translate(81.51 410.5)">Our service is </text><text class="cls-20" transform="translate(161.79 410.5)">a handmade workshop,</text><text class="cls-19" transform="translate(288.34 410.5)"><tspan xml:space="preserve"> which works with handmade gift </tspan></text><text class="cls-19" transform="translate(81.51 428.5)">shop, charities and other community organizations. <tspan class="cls-22" x="274.14" y="0">W</tspan><tspan x="285.29" y="0">e invite the </tspan></text><text class="cls-19" transform="translate(81.51 446.5)">elderly as teachers, and international students and local young people </text><text class="cls-19" transform="translate(81.51 464.5)">as participants for empowering those with a very small social circle to </text><text class="cls-20" transform="translate(81.51 482.5)">rebuild relationship and boost self-worth</text><text class="cls-19" transform="translate(294.48 482.5)"><tspan xml:space="preserve"> after easing restrictions.</tspan></text><text class="cls-19" transform="translate(81.51 518.5)">The workshop o<tspan class="cls-21" x="85.38" y="0">f</tspan><tspan x="88.51" y="0">fers </tspan></text><text class="cls-20" transform="translate(198.14 518.5)">an informal and friendly platform </text><text class="cls-19" transform="translate(374.05 518.5)">for international </text><text class="cls-19" transform="translate(81.51 536.5)">students who lack communication build relationship with others and </text><text class="cls-19" transform="translate(81.51 554.5)">know the local culture to avoid mistakes.<tspan class="cls-23" x="214.77" y="0"> </tspan><tspan x="217.91" y="0">The workshop also o</tspan><tspan class="cls-21" x="328.64" y="0">f</tspan><tspan x="331.77" y="0">fers </tspan></text><text class="cls-20" transform="translate(437.66 554.5)">a </text><text class="cls-20" transform="translate(81.51 572.5)">skill-sharing and experience-sharing opportunity</text><text class="cls-19" transform="translate(335.84 572.5)"><tspan xml:space="preserve"> for the retired old </tspan></text><text class="cls-19" transform="translate(81.51 590.5)">which supports engagement, relationship building and </text><text class="cls-19" transform="translate(81.51 608.5)">accomplishment.</text><text class="cls-19" transform="translate(81.51 644.5)">The service includes </text><text class="cls-20" transform="translate(194.26 644.5)">donation service</text><text class="cls-19" transform="translate(283.5 644.5)">.<tspan class="cls-24" x="3.33" y="0"> </tspan><tspan x="6.45" y="0">The handmade outputs some </tspan></text><text class="cls-19" transform="translate(81.51 662.5)">charities that accept craft supplies. Knitting or stitching handmade </text><text class="cls-19" transform="translate(81.51 680.5)">items for veterans allow users to show their love and care for people in </text><text class="cls-19" transform="translate(81.51 698.5)">need, so that users can boost their self-worth.</text><text class="cls-25" transform="translate(603.41 342.31)">LovingHands is a handmade workshop service that helps international </text><text class="cls-25" transform="translate(616.13 360.31)">students who want to reduce anxiety about the following in-person </text><text class="cls-25" transform="translate(590.53 378.32)">courses (easing lockdown), by providing an informal platform to cooperate </text><text class="cls-25" transform="translate(593.49 396.32)">and socialise with others and know about stories from local elderl<tspan class="cls-26" x="403.09" y="0">y</tspan><tspan x="409.11" y="0">, whilst </tspan></text><text class="cls-25" transform="translate(589.49 414.32)">breaking down cultural barriers and conquering social awkwardness unlike </text><text class="cls-25" transform="translate(745.84 432.33)">existing cultural cognition.</text><text class="cls-27" transform="translate(676.92 301.5)"><tspan class="cls-28">V</tspan><tspan x="13.46" y="0">alue Proposition Statement</tspan></text><text class="cls-27" transform="translate(691.57 530.5)">Social <tspan class="cls-28" x="70.92" y="0">V</tspan><tspan x="84.38" y="0">alue Propositions</tspan></text><text class="cls-25" transform="translate(597.52 578.56)">Strengthen the connection </text><text class="cls-25" transform="translate(597.52 594.56)">between social responsibility </text><text class="cls-25" transform="translate(597.52 610.56)">and self-worth</text><text class="cls-25" transform="translate(597.52 629.56)">Improved mental health</text><text class="cls-25" transform="translate(597.52 647.56)">Inspired additional donations</text><path class="cls-9" d="M590,571.6a2.5,2.5,0,1,1-2.5,2.5,2.5,2.5,0,0,1,2.5-2.5"/><path class="cls-9" d="M589,622.6a2.5,2.5,0,1,1-2.5,2.5,2.5,2.5,0,0,1,2.5-2.5"/><path class="cls-9" d="M590,640.6a2.5,2.5,0,1,1-2.5,2.5,2.5,2.5,0,0,1,2.5-2.5"/><text class="cls-25" transform="translate(829.62 614.06)">Preservation of local/traditional skills</text><text class="cls-25" transform="translate(829.62 579.06)">Promotion of cultural</text><text class="cls-25" transform="translate(829.62 596.05)">Boosted social inclusion and cohesion</text><text class="cls-25" transform="translate(830.62 631.05)"><tspan class="cls-29">T</tspan><tspan x="8.03" y="0">ransform the elderly into human </tspan></text><text class="cls-25" transform="translate(830.62 647.06)">resources</text><path class="cls-9" d="M822.1,571.1a2.5,2.5,0,1,1-2.5,2.5,2.5,2.5,0,0,1,2.5-2.5"/><path class="cls-9" d="M822.1,589.1a2.5,2.5,0,1,1-2.5,2.5,2.5,2.5,0,0,1,2.5-2.5"/><path class="cls-9" d="M822.1,607.1a2.5,2.5,0,1,1-2.5,2.5,2.5,2.5,0,0,1,2.5-2.5"/><path class="cls-9" d="M822.1,625.1a2.5,2.5,0,1,1-2.5,2.5,2.5,2.5,0,0,1,2.5-2.5"/><text class="cls-30" transform="translate(157.5 185.5)">LOVING</text><text class="cls-30" transform="translate(281.65 185.5)"> </text><text class="cls-30" transform="translate(157.5 213.5)"><tspan class="cls-31">HAND</tspan><tspan x="88.83" y="0">S</tspan></text><polygon class="cls-16" points="89.71 185.21 89.51 186.61 89.01 186.61 89.51 183.21 90.01 183.31 89.81 184.71 93.41 185.21 93.31 185.81 89.71 185.21"/><polygon class="cls-16" points="91.91 177.11 95.61 178.91 95.31 179.41 93.61 178.61 92.61 180.71 94.31 181.51 94.01 182.01 90.31 180.21 90.61 179.71 92.21 180.51 93.21 178.41 91.61 177.61 91.91 177.11"/><polygon class="cls-16" points="98.71 174.41 99.11 174.71 97.01 177.01 94.01 174.21 96.01 172.01 96.41 172.31 94.81 174.11 95.71 175.01 97.11 173.51 97.51 173.81 96.11 175.31 97.11 176.21 98.71 174.41"/><polygon class="cls-16" points="104.91 166.91 106.41 170.81 105.81 171.01 105.11 169.31 102.91 170.21 103.61 171.91 103.01 172.01 101.51 168.11 102.11 167.91 102.71 169.61 105.01 168.71 104.41 167.01 104.91 166.91"/><path class="cls-16" d="M112.11,168.11a1.6,1.6,0,1,0-1.6,1.6,1.58,1.58,0,0,0,1.6-1.6m-3.8.1a2.21,2.21,0,1,1,2.4,2h-.1a2.14,2.14,0,0,1-2.3-2h0"/><polygon class="cls-16" points="118.41 171.61 119.41 168.61 117.41 169.81 117.11 169.71 116.21 167.61 115.21 170.61 114.71 170.41 116.01 166.51 116.51 166.71 117.51 169.21 119.71 167.81 120.21 168.01 118.91 171.91 118.41 171.61"/><polygon class="cls-16" points="123.61 174.41 123.31 174.81 120.91 173.01 123.41 169.71 125.71 171.51 125.41 171.91 123.51 170.51 122.71 171.51 124.41 172.81 124.11 173.21 122.41 171.91 121.71 173.01 123.61 174.41"/><path class="cls-16" d="M129.91,180.71a1.63,1.63,0,1,0-2.2-.7,1.61,1.61,0,0,0,2.2.7h0m-1.7-3.4a2.21,2.21,0,1,1-.9,3v-.1a2.14,2.14,0,0,1,.8-2.9Z"/><polygon class="cls-16" points="132.41 184.21 131.01 184.41 131.31 186.51 130.81 186.61 130.51 184.51 128.81 184.81 128.71 184.21 132.81 183.61 133.31 186.51 132.81 186.61 132.41 184.21"/><polygon class="cls-16" points="96.05 197.98 92.34 199.88 92.14 199.28 93.75 198.48 92.64 196.38 91.05 197.18 90.75 196.68 94.44 194.78 94.75 195.28 93.14 196.08 94.25 198.18 95.75 197.38 96.05 197.98"/><path class="cls-16" d="M97.24,203.28l.8-2.1-2.1.8Zm-.2.5-1.6-1.6-1,.4-.5-.4,4.3-1.6.4.4-1.6,4.3-.4-.4Z"/><polygon class="cls-16" points="104.44 204.88 102.55 208.58 102.14 208.38 101.34 204.48 99.94 207.18 99.44 206.88 101.34 203.18 101.75 203.48 102.55 207.38 103.94 204.68 104.44 204.88"/><path class="cls-16" d="M107.54,209.38a1.55,1.55,0,1,0,.8-3h-.2l-1.1-.2-.5,3.1Zm-1.1-3.8,1.7.3a2.11,2.11,0,0,1-.4,4.2.37.37,0,0,1-.3-.1l-1.7-.3Z"/><polygon class="cls-16" points="116.64 209.58 116.05 206.48 114.84 208.38 114.55 208.38 112.75 206.98 113.34 210.18 112.75 210.28 112.05 206.18 112.55 206.08 114.75 207.68 116.05 205.48 116.55 205.38 117.25 209.48 116.64 209.58"/><path class="cls-16" d="M121.94,205.68l-1.8-1.3.2,2.2Zm.4.4-1.9,1.1.1,1.1-.5.3-.4-4.5.5-.4,3.7,2.7-.6.3Z"/><path class="cls-16" d="M126.74,203.08a1.56,1.56,0,0,0-2.1-2.3l-.2.2-.7.7,2.3,2.1Zm-3.8-1.3,1.2-1.3a2.06,2.06,0,0,1,3.2,2.6c-.1.1-.1.2-.2.2l-1.2,1.4Z"/><polygon class="cls-16" points="131.25 196.18 131.75 196.38 130.44 199.08 126.75 197.28 127.94 194.68 128.44 194.88 127.44 196.98 128.54 197.58 129.44 195.68 129.94 195.88 129.04 197.78 130.25 198.38 131.25 196.18"/><path class="cls-16" d="M111.15,216.26a28,28,0,0,1-14.7-51.9l.4.6a27.32,27.32,0,1,0,37.6,8.9,26.25,26.25,0,0,0-3.9-4.9l.5-.5a28,28,0,0,1-.1,39.6,28.35,28.35,0,0,1-19.8,8.2"/><text class="cls-27" transform="translate(50.5 43.5)">Our Service</text><text class="cls-25" transform="translate(1119.5 31.5)">Loving</text><text class="cls-25" transform="translate(1119.5 43.5)">Hands</text><g class="cls-12"><g class="cls-8"><line class="cls-32" x1="1036.5" y1="17" x2="1036.5" y2="48"/></g></g><polygon class="cls-9" points="1063.08 28.05 1062.98 29.05 1062.58 28.95 1062.98 26.65 1063.28 26.65 1063.18 27.65 1065.68 28.05 1065.58 28.45 1063.08 28.05"/><polygon class="cls-33" points="1063.08 28.05 1062.98 29.05 1062.58 28.95 1062.98 26.65 1063.28 26.65 1063.18 27.65 1065.68 28.05 1065.58 28.45 1063.08 28.05"/><polygon class="cls-9" points="1064.58 22.35 1067.18 23.65 1066.98 23.95 1065.88 23.45 1065.18 24.95 1066.38 25.45 1066.18 25.85 1063.58 24.65 1063.78 24.25 1064.88 24.75 1065.58 23.25 1064.48 22.75 1064.58 22.35"/><polygon class="cls-33" points="1064.58 22.35 1067.18 23.65 1066.98 23.95 1065.88 23.45 1065.18 24.95 1066.38 25.45 1066.18 25.85 1063.58 24.65 1063.78 24.25 1064.88 24.75 1065.58 23.25 1064.48 22.75 1064.58 22.35"/><polygon class="cls-9" points="1069.28 20.45 1069.58 20.75 1068.18 22.25 1066.08 20.25 1067.48 18.75 1067.78 18.95 1066.58 20.25 1067.18 20.85 1068.18 19.75 1068.48 19.95 1067.48 21.05 1068.18 21.65 1069.28 20.45"/><polygon class="cls-33" points="1069.28 20.45 1069.58 20.75 1068.18 22.25 1066.08 20.25 1067.48 18.75 1067.78 18.95 1066.58 20.25 1067.18 20.85 1068.18 19.75 1068.48 19.95 1067.48 21.05 1068.18 21.65 1069.28 20.45"/><polygon class="cls-9" points="1073.58 15.25 1074.58 17.95 1074.18 18.05 1073.68 16.85 1072.28 17.45 1072.78 18.65 1072.38 18.85 1071.38 16.15 1071.78 16.05 1072.18 17.25 1073.68 16.65 1073.28 15.45 1073.58 15.25"/><polygon class="cls-33" points="1073.58 15.25 1074.58 17.95 1074.18 18.05 1073.68 16.85 1072.28 17.45 1072.78 18.65 1072.38 18.85 1071.38 16.15 1071.78 16.05 1072.18 17.25 1073.68 16.65 1073.28 15.45 1073.58 15.25"/><path class="cls-9" d="M1078.68,16.05a1.1,1.1,0,1,0-1.1,1.1,1,1,0,0,0,1.1-1.1h0m-2.7.1a1.5,1.5,0,1,1,1.6,1.4h-.1a1.44,1.44,0,0,1-1.5-1.4h0"/><path class="cls-33" d="M1078.68,16.05a1.1,1.1,0,1,0-1.1,1.1,1,1,0,0,0,1.1-1.1Zm-2.7.1a1.5,1.5,0,1,1,1.6,1.4h-.1a1.44,1.44,0,0,1-1.5-1.4Z"/><polygon class="cls-9" points="1083.08 18.55 1083.78 16.45 1082.38 17.25 1082.18 17.15 1081.58 15.75 1080.88 17.85 1080.48 17.75 1081.38 15.05 1081.68 15.15 1082.38 16.85 1083.98 15.85 1084.28 15.95 1083.38 18.65 1083.08 18.55"/><polygon class="cls-33" points="1083.08 18.55 1083.78 16.45 1082.38 17.25 1082.18 17.15 1081.58 15.75 1080.88 17.85 1080.48 17.75 1081.38 15.05 1081.68 15.15 1082.38 16.85 1083.98 15.85 1084.28 15.95 1083.38 18.65 1083.08 18.55"/><polygon class="cls-9" points="1086.68 20.55 1086.48 20.85 1084.78 19.55 1086.58 17.25 1088.18 18.45 1087.98 18.75 1086.68 17.75 1086.18 18.45 1087.38 19.35 1087.08 19.65 1085.88 18.75 1085.28 19.45 1086.68 20.55"/><polygon class="cls-33" points="1086.68 20.55 1086.48 20.85 1084.78 19.55 1086.58 17.25 1088.18 18.45 1087.98 18.75 1086.68 17.75 1086.18 18.45 1087.38 19.35 1087.08 19.65 1085.88 18.75 1085.28 19.45 1086.68 20.55"/><path class="cls-9" d="M1091,24.85a1.1,1.1,0,1,0-.9-2,1.06,1.06,0,0,0-.5,1.5.93.93,0,0,0,1.4.5h0m-1.1-2.3a1.54,1.54,0,1,1-.6,2.1v-.1a1.34,1.34,0,0,1,.6-2h0"/><path class="cls-33" d="M1091,24.85a1.1,1.1,0,1,0-.9-2,1.06,1.06,0,0,0-.5,1.5.93.93,0,0,0,1.4.5Zm-1.1-2.3a1.54,1.54,0,1,1-.6,2.1v-.1a1.34,1.34,0,0,1,.6-2Z"/><polygon class="cls-9" points="1092.78 27.25 1091.78 27.45 1091.98 28.85 1091.68 28.95 1091.48 27.55 1090.28 27.65 1090.18 27.25 1092.98 26.85 1093.28 28.85 1092.88 28.95 1092.78 27.25"/><polygon class="cls-33" points="1092.78 27.25 1091.78 27.45 1091.98 28.85 1091.68 28.95 1091.48 27.55 1090.28 27.65 1090.18 27.25 1092.98 26.85 1093.28 28.85 1092.88 28.95 1092.78 27.25"/><polygon class="cls-9" points="1067.49 36.9 1064.89 38.2 1064.69 37.8 1065.79 37.2 1065.09 35.8 1063.99 36.3 1063.79 36 1066.39 34.7 1066.59 35.1 1065.49 35.6 1066.29 37.1 1067.39 36.5 1067.49 36.9"/><polygon class="cls-33" points="1067.49 36.9 1064.89 38.2 1064.69 37.8 1065.79 37.2 1065.09 35.8 1063.99 36.3 1063.79 36 1066.39 34.7 1066.59 35.1 1065.49 35.6 1066.29 37.1 1067.39 36.5 1067.49 36.9"/><path class="cls-9" d="M1068.29,40.6l.6-1.4-1.5.5Zm-.1.3-1.1-1.1-.7.3-.3-.3,3-1.1.3.3-1.1,3-.4-.3Z"/><path class="cls-33" d="M1068.29,40.6l.6-1.4-1.5.5Zm-.1.3-1.1-1.1-.7.3-.3-.3,3-1.1.3.3-1.1,3-.4-.3Z"/><polygon class="cls-9" points="1073.29 41.7 1071.99 44.2 1071.69 44.1 1071.19 41.4 1070.19 43.3 1069.79 43.1 1071.09 40.5 1071.39 40.7 1071.89 43.4 1072.89 41.5 1073.29 41.7"/><polygon class="cls-33" points="1073.29 41.7 1071.99 44.2 1071.69 44.1 1071.19 41.4 1070.19 43.3 1069.79 43.1 1071.09 40.5 1071.39 40.7 1071.89 43.4 1072.89 41.5 1073.29 41.7"/><path class="cls-9" d="M1075.49,44.9a1.08,1.08,0,1,0,.5-2.1h-.2l-.7-.2-.4,2.1Zm-.8-2.7,1.2.2a1.46,1.46,0,1,1-.3,2.9h-.2l-1.2-.2Z"/><path class="cls-33" d="M1075.49,44.9a1.08,1.08,0,1,0,.5-2.1h-.2l-.7-.2-.4,2.1Zm-.8-2.7,1.2.2a1.46,1.46,0,1,1-.3,2.9h-.2l-1.2-.2Z"/><polygon class="cls-9" points="1081.79 45 1081.39 42.8 1080.59 44.1 1080.39 44.1 1079.19 43.1 1079.59 45.3 1079.19 45.4 1078.69 42.6 1078.99 42.6 1080.39 43.7 1081.29 42.2 1081.59 42.1 1082.09 44.9 1081.79 45"/><polygon class="cls-33" points="1081.79 45 1081.39 42.8 1080.59 44.1 1080.39 44.1 1079.19 43.1 1079.59 45.3 1079.19 45.4 1078.69 42.6 1078.99 42.6 1080.39 43.7 1081.29 42.2 1081.59 42.1 1082.09 44.9 1081.79 45"/><path class="cls-9" d="M1085.49,42.3l-1.2-.9.1,1.5Zm.3.2-1.3.7.1.8-.4.2-.3-3.2.4-.2,2.5,2-.4.2Z"/><path class="cls-33" d="M1085.49,42.3l-1.2-.9.1,1.5Zm.3.2-1.3.7.1.8-.4.2-.3-3.2.4-.2,2.5,2-.4.2Z"/><path class="cls-9" d="M1088.89,40.4a1.06,1.06,0,0,0-1.4-1.6l-.1.1-.5.6,1.6,1.5Zm-2.7-.8.8-.9a1.42,1.42,0,0,1,2.2,1.8c0,.1-.1.1-.2.2l-.8.9Z"/><path class="cls-33" d="M1088.89,40.4a1.06,1.06,0,0,0-1.4-1.6l-.1.1-.5.6,1.6,1.5Zm-2.7-.8.8-.9a1.42,1.42,0,0,1,2.2,1.8c0,.1-.1.1-.2.2l-.8.9Z"/><polygon class="cls-9" points="1091.99 35.7 1092.29 35.9 1091.39 37.8 1088.79 36.4 1089.69 34.6 1089.99 34.8 1089.29 36.3 1090.09 36.6 1090.69 35.3 1090.99 35.5 1090.39 36.8 1091.19 37.2 1091.99 35.7"/><polygon class="cls-33" points="1091.99 35.7 1092.29 35.9 1091.39 37.8 1088.79 36.4 1089.69 34.6 1089.99 34.8 1089.29 36.3 1090.09 36.6 1090.69 35.3 1090.99 35.5 1090.39 36.8 1091.19 37.2 1091.99 35.7"/><path class="cls-9" d="M1078,49.6a19.49,19.49,0,0,1-10.2-36.1l.3.4A19,19,0,1,0,1097,30.1a19.26,19.26,0,0,0-5.5-13.4l.3-.3A19.45,19.45,0,0,1,1078,49.6"/><path class="cls-33" d="M1078,49.6a19.49,19.49,0,0,1-10.2-36.1l.3.4A19,19,0,1,0,1097,30.1a19.26,19.26,0,0,0-5.5-13.4l.3-.3A19.45,19.45,0,0,1,1078,49.6Z"/><g class="cls-34"><g class="cls-35"><rect class="cls-36" x="1104.74" y="796.9" width="11.5" height="21.4"/></g></g><g class="cls-37"><g class="cls-38"><rect class="cls-39" x="1118.14" y="797.2" width="18.9" height="21"/></g></g><g class="cls-40"><g class="cls-41"><rect class="cls-42" x="1137.04" y="796.9" width="11.9" height="21.9"/></g></g><g class="cls-43"><g class="cls-44"><rect class="cls-45" x="1150.34" y="796.6" width="12.2" height="21.4"/></g></g><path class="cls-46" d="M1160.64,792.5a1.4,1.4,0,1,1-1.4,1.4,1.4,1.4,0,0,1,1.4-1.4"/><path class="cls-47" d="M1110.54,819.7a1.4,1.4,0,1,1-1.4,1.4,1.4,1.4,0,0,1,1.4-1.4"/><path class="cls-48" d="M1114.54,818a1,1,0,1,1-1,1,1,1,0,0,1,1-1"/><path class="cls-49" d="M1152.84,793.8a1,1,0,1,1-1,1,1,1,0,0,1,1-1"/></g></g></g></g></g></svg>