<?xml version="1.0" encoding="utf-8"?>
<!-- Generator: Adobe Illustrator 24.1.1, SVG Export Plug-In . SVG Version: 6.00 Build 0)  -->
<svg version="1.1" id="图层_1" xmlns="http://www.w3.org/2000/svg" xmlns:xlink="http://www.w3.org/1999/xlink" x="0px" y="0px"
	 viewBox="0 0 1190.6 841.9" style="enable-background:new 0 0 1190.6 841.9;" xml:space="preserve">
<style type="text/css">
	.st0{fill:#194E1E;}
	.st1{fill:#FFFFFF;}
	.st2{font-family:'Arial-BoldMT';}
	.st3{font-size:22px;}
	.st4{font-family:'ArialMT';}
	.st5{font-size:14px;}
	.st6{fill:none;stroke:#FFFFFF;stroke-width:2;stroke-linecap:round;}
	.st7{fill:none;stroke:#FFFFFF;stroke-width:0.5;stroke-miterlimit:10;}
	.st8{clip-path:url(#SVGID_2_);}
	.st9{fill:none;}
	.st10{opacity:0.24;fill:#C4D9CD;enable-background:new    ;}
	.st11{opacity:0.39;fill:#B0CCBB;enable-background:new    ;}
	.st12{fill:#9CB084;}
	.st13{fill:none;stroke:#FFFFFF;stroke-width:3;}
	.st14{font-size:24px;}
	.st15{font-size:12px;}
	.st16{letter-spacing:-1;}
	.st17{fill:#9FBBAA;}
	.st18{font-size:16px;}
	.st19{fill:#344C43;}
	.st20{clip-path:url(#SVGID_4_);}
	.st21{fill:url(#SVGID_5_);}
	.st22{clip-path:url(#SVGID_7_);}
	.st23{fill:url(#SVGID_8_);}
	.st24{clip-path:url(#SVGID_10_);}
	.st25{fill:url(#SVGID_11_);}
	.st26{clip-path:url(#SVGID_13_);}
	.st27{fill:url(#SVGID_14_);}
	.st28{fill:#164E30;}
	.st29{fill:#BDB955;}
	.st30{fill:#B1AF51;}
	.st31{fill:#405F36;}
</style>
<rect y="-0.1" class="st0" width="1191" height="63"/>
<text transform="matrix(1 0 0 1 48.29 39)" class="st1 st2 st3">Stakeholders Map</text>
<text transform="matrix(1 0 0 1 1117.29 31.45)" class="st1 st4 st5">Lovin</text>
<text transform="matrix(1 0 0 1 1152.0901 31.45)" class="st1 st4 st5">g</text>
<text transform="matrix(1 0 0 1 1117.29 43.45)" class="st1 st4 st5">Hand</text>
<text transform="matrix(1 0 0 1 1151.8201 43.45)" class="st1 st4 st5">s</text>
<g>
	<line class="st6" x1="1034" y1="16.9" x2="1034" y2="47.9"/>
</g>
<polygon class="st1" points="1060.9,28 1060.7,29 1060.4,28.9 1060.7,26.6 1061.1,26.6 1060.9,27.6 1063.4,28 1063.4,28.4 "/>
<polygon class="st7" points="1060.9,28 1060.7,29 1060.4,28.9 1060.7,26.6 1061.1,26.6 1060.9,27.6 1063.4,28 1063.4,28.4 "/>
<polygon class="st1" points="1062.4,22.3 1065,23.6 1064.8,23.9 1063.7,23.4 1062.9,24.9 1064.1,25.4 1063.9,25.8 1061.3,24.6 
	1061.5,24.2 1062.6,24.7 1063.3,23.2 1062.2,22.7 "/>
<polygon class="st7" points="1062.4,22.3 1065,23.6 1064.8,23.9 1063.7,23.4 1062.9,24.9 1064.1,25.4 1063.9,25.8 1061.3,24.6 
	1061.5,24.2 1062.6,24.7 1063.3,23.2 1062.2,22.7 "/>
<polygon class="st1" points="1067.1,20.5 1067.4,20.7 1065.9,22.2 1063.8,20.3 1065.2,18.8 1065.5,19 1064.4,20.2 1065,20.8 
	1066,19.8 1066.3,20 1065.3,21.1 1066,21.7 "/>
<polygon class="st7" points="1067.1,20.5 1067.4,20.7 1065.9,22.2 1063.8,20.3 1065.2,18.8 1065.5,19 1064.4,20.2 1065,20.8 
	1066,19.8 1066.3,20 1065.3,21.1 1066,21.7 "/>
<polygon class="st1" points="1071.4,15.2 1072.4,17.9 1072.1,18 1071.6,16.8 1070.1,17.4 1070.5,18.6 1070.1,18.8 1069.1,16.1 
	1069.5,16 1069.9,17.1 1071.5,16.5 1071,15.4 "/>
<polygon class="st7" points="1071.4,15.2 1072.4,17.9 1072.1,18 1071.6,16.8 1070.1,17.4 1070.5,18.6 1070.1,18.8 1069.1,16.1 
	1069.5,16 1069.9,17.1 1071.5,16.5 1071,15.4 "/>
<path class="st1" d="M1076,15.9c0-0.6-0.5-1.1-1.1-1.1s-1.1,0.5-1.1,1.1c0,0.6,0.5,1.1,1.1,1.1c0,0,0,0,0,0l0,0
	C1075.5,17,1076,16.6,1076,15.9L1076,15.9L1076,15.9z M1074,16.5c-0.1-0.8,0.6-1.6,1.4-1.6s1.6,0.6,1.6,1.4l0,0
	c0.1,0.8-0.6,1.6-1.4,1.6h-0.2C1074.6,17.9,1074,17.3,1074,16.5L1074,16.5"/>
<path class="st7" d="M1076.5,16.4c0-0.6-0.5-1.1-1.1-1.1s-1.1,0.5-1.1,1.1c0,0.6,0.5,1.1,1.1,1.1c0,0,0,0,0,0l0,0
	C1076,17.5,1076.5,17.1,1076.5,16.4L1076.5,16.4L1076.5,16.4z M1073.5,16c-0.1-0.8,0.6-1.6,1.4-1.6s1.6,0.6,1.6,1.4l0,0
	c0.1,0.8-0.6,1.6-1.4,1.6h-0.2C1074.1,17.4,1073.5,16.8,1073.5,16L1073.5,16z"/>
<polygon class="st1" points="1080.8,18.5 1081.5,16.4 1080.2,17.3 1080,17.2 1079.4,15.7 1078.7,17.8 1078.3,17.7 1079.2,14.9 
	1079.5,15 1080.2,16.8 1081.8,15.8 1082.1,15.9 1081.2,18.6 "/>
<polygon class="st7" points="1080.8,18.5 1081.5,16.4 1080.2,17.3 1080,17.2 1079.4,15.7 1078.7,17.8 1078.3,17.7 1079.2,14.9 
	1079.5,15 1080.2,16.8 1081.8,15.8 1082.1,15.9 1081.2,18.6 "/>
<polygon class="st1" points="1084.5,20.5 1084.3,20.7 1082.6,19.5 1084.3,17.2 1085.9,18.4 1085.7,18.7 1084.4,17.7 1083.9,18.4 
	1085.1,19.3 1084.8,19.6 1083.7,18.7 1083.1,19.4 "/>
<polygon class="st7" points="1084.5,20.5 1084.3,20.7 1082.6,19.5 1084.3,17.2 1085.9,18.4 1085.7,18.7 1084.4,17.7 1083.9,18.4 
	1085.1,19.3 1084.8,19.6 1083.7,18.7 1083.1,19.4 "/>
<path class="st1" d="M1088.8,24.8c0.6-0.3,0.8-0.9,0.5-1.5c-0.3-0.6-0.9-0.8-1.5-0.5s-0.8,0.9-0.5,1.5c0,0,0,0,0,0l0,0
	C1087.6,24.9,1088.2,25.1,1088.8,24.8C1088.8,24.9,1088.8,24.9,1088.8,24.8L1088.8,24.8 M1087.6,22.9c0.7-0.4,1.7-0.1,2.1,0.6
	c0.4,0.7,0.1,1.7-0.6,2.1c-0.7,0.4-1.7,0.1-2.1-0.6v0C1086.6,24.2,1086.9,23.3,1087.6,22.9l0.4,0"/>
<path class="st7" d="M1088.8,24.8c0.6-0.3,0.8-0.9,0.5-1.5c-0.3-0.6-0.9-0.8-1.5-0.5s-0.8,0.9-0.5,1.5c0,0,0,0,0,0l0,0
	C1087.6,24.9,1088.2,25.1,1088.8,24.8C1088.8,24.9,1088.8,24.9,1088.8,24.8L1088.8,24.8z M1088.1,22.5c0.7-0.4,1.7-0.1,2.1,0.6
	c0.4,0.7,0.1,1.7-0.6,2.1l0,0c-0.7,0.4-1.7,0.1-2.1-0.6v0C1087.1,23.8,1087.4,22.9,1088.1,22.5L1088.1,22.5z"/>
<polygon class="st1" points="1090.6,27.3 1089.6,27.4 1089.8,28.8 1089.5,28.9 1089.3,27.5 1088.1,27.6 1088,27.2 1090.9,26.8 
	1091.2,28.8 1090.8,28.9 "/>
<polygon class="st7" points="1090.6,27.3 1089.6,27.4 1089.8,28.8 1089.5,28.9 1089.3,27.5 1088.1,27.6 1088,27.2 1090.9,26.8 
	1091.2,28.8 1090.8,28.9 "/>
<polygon class="st1" points="1065.3,36.8 1062.7,38.1 1062.5,37.8 1063.7,37.2 1062.9,35.7 1061.8,36.3 1061.6,35.9 1064.1,34.6 
	1064.3,35 1063.2,35.5 1064,37 1065.1,36.5 "/>
<polygon class="st7" points="1065.3,36.8 1062.7,38.1 1062.5,37.8 1063.7,37.2 1062.9,35.7 1061.8,36.3 1061.6,35.9 1064.1,34.6 
	1064.3,35 1063.2,35.5 1064,37 1065.1,36.5 "/>
<path class="st1" d="M1066.1,40.5l0.6-1.4l-1.4,0.6L1066.1,40.5z M1065.9,40.9l-1.1-1.1l-0.7,0.3l-0.3-0.3l3-1.1l0.3,0.3l-1.1,3
	l-0.3-0.3L1065.9,40.9z"/>
<path class="st7" d="M1066.1,40.5l0.6-1.4l-1.4,0.6L1066.1,40.5z M1065.9,40.9l-1.1-1.1l-0.7,0.3l-0.3-0.3l3-1.1l0.3,0.3l-1.1,3
	l-0.3-0.3L1065.9,40.9z"/>
<polygon class="st1" points="1071.1,41.7 1069.8,44.2 1069.5,44 1068.9,41.3 1067.9,43.2 1067.6,43 1068.9,40.5 1069.2,40.7 
	1069.7,43.4 1070.7,41.5 "/>
<polygon class="st7" points="1071.1,41.7 1069.8,44.2 1069.5,44 1068.9,41.3 1067.9,43.2 1067.6,43 1068.9,40.5 1069.2,40.7 
	1069.7,43.4 1070.7,41.5 "/>
<path class="st1" d="M1073.3,45c0.6,0.1,1.2-0.2,1.3-0.8c0.1-0.6-0.2-1.2-0.8-1.3h-0.2l-0.8-0.1l-0.4,2.1L1073.3,45z M1072.5,41.8
	l1.2,0.2c0.8,0,1.4,0.7,1.4,1.5c0,0.8-0.7,1.4-1.5,1.4c-0.1,0-0.1,0-0.2,0h-0.2l-1.2-0.2L1072.5,41.8z"/>
<path class="st7" d="M1073.3,44.5c0.6,0.1,1.2-0.2,1.3-0.8c0.1-0.6-0.2-1.2-0.8-1.3h-0.2l-0.8-0.1l-0.4,2.1L1073.3,44.5z
	 M1072.5,42.3l1.2,0.2c0.8,0,1.4,0.7,1.4,1.5c0,0.8-0.7,1.4-1.5,1.4c-0.1,0-0.1,0-0.2,0h-0.2l-1.2-0.2L1072.5,42.3z"/>
<polygon class="st1" points="1079.6,44.9 1079.2,42.8 1078.4,44.1 1078.2,44.1 1077,43.1 1077.4,45.3 1077,45.4 1076.5,42.6 
	1076.8,42.5 1078.3,43.6 1079.2,42.1 1079.5,42 1080,44.9 "/>
<polygon class="st7" points="1079.6,44.9 1079.2,42.8 1078.4,44.1 1078.2,44.1 1077,43.1 1077.4,45.3 1077,45.4 1076.5,42.6 
	1076.8,42.5 1078.3,43.6 1079.2,42.1 1079.5,42 1080,44.9 "/>
<path class="st1" d="M1083.3,42.2l-1.2-0.9l0.1,1.5L1083.3,42.2z M1083.6,42.5l-1.3,0.7l0.1,0.8l-0.4,0.2l-0.3-3.2l0.3-0.2l2.6,1.9
	l-0.4,0.2L1083.6,42.5z"/>
<path class="st7" d="M1083.3,42.2l-1.2-0.9l0.1,1.5L1083.3,42.2z M1083.6,42.5l-1.3,0.7l0.1,0.8l-0.4,0.2l-0.3-3.2l0.3-0.2l2.6,1.9
	l-0.4,0.2L1083.6,42.5z"/>
<path class="st1" d="M1086.6,40.4c0.4-0.4,0.4-1.1,0-1.5c-0.4-0.4-1-0.4-1.4-0.1l-0.1,0.1l-0.5,0.6l1.6,1.5L1086.6,40.4z M1084,39.5
	l0.8-0.9c0.5-0.6,1.4-0.7,2-0.2c0.6,0.5,0.7,1.4,0.2,2l0,0c0,0.1-0.1,0.1-0.2,0.2l-0.8,0.9L1084,39.5z"/>
<path class="st7" d="M1086.6,40.4c0.4-0.4,0.4-1.1,0-1.5c-0.4-0.4-1-0.4-1.4-0.1l-0.1,0.1l-0.5,0.6l1.6,1.5L1086.6,40.4z M1084,39.5
	l0.8-0.9c0.5-0.6,1.4-0.7,2-0.2c0.6,0.5,0.7,1.4,0.2,2l0,0c0,0.1-0.1,0.1-0.2,0.2l-0.8,0.9L1084,39.5z"/>
<polygon class="st1" points="1089.7,35.6 1090.1,35.8 1089.1,37.7 1086.6,36.4 1087.4,34.5 1087.8,34.7 1087.1,36.2 1087.8,36.6 
	1088.5,35.3 1088.8,35.4 1088.2,36.7 1089,37.1 "/>
<polygon class="st7" points="1089.7,35.6 1090.1,35.8 1089.1,37.7 1086.6,36.4 1087.4,34.5 1087.8,34.7 1087.1,36.2 1087.8,36.6 
	1088.5,35.3 1088.8,35.4 1088.2,36.7 1089,37.1 "/>
<path class="st1" d="M1075.8,49.9c-10.8,0-19.5-8.7-19.5-19.5c0-6.8,3.5-13,9.3-16.6l0.3,0.4c-9.5,5.9-12,18.8-4.9,27.9
	c5.4,6.9,15.1,9.2,23,5.4c10.4-4.9,14-17.7,8.1-27.2c-0.8-1.2-1.7-2.4-2.7-3.4l0.3-0.3c8.9,8.9,7.3,24.3-4.6,31
	C1082.2,49.2,1079,49.9,1075.8,49.9L1075.8,49.9z"/>
<path class="st7" d="M1075.8,49.4c-10.8,0-19.5-8.7-19.5-19.5c0-6.8,3.5-13,9.3-16.6l0.3,0.4c-9.5,5.9-12,18.8-4.9,27.9
	c5.4,6.9,15.1,9.2,23,5.4c10.4-4.9,14-17.7,8.1-27.2c-0.8-1.2-1.7-2.4-2.7-3.4l0.3-0.3c8.9,8.9,7.3,24.3-4.6,31
	C1082.2,48.7,1079,49.4,1075.8,49.4L1075.8,49.4z"/>
<g>
	<defs>
		<rect id="SVGID_1_" x="0.4" y="63.8" width="1190.6" height="724.3"/>
	</defs>
	<clipPath id="SVGID_2_">
		<use xlink:href="#SVGID_1_"  style="overflow:visible;"/>
	</clipPath>
	<g class="st8">
		<rect x="16.8" y="23.2" class="st9" width="1191" height="842"/>
		<circle id="椭圆_28" class="st10" cx="612.8" cy="444.2" r="560"/>
		<ellipse id="椭圆_27" class="st11" cx="612.8" cy="444.2" rx="348" ry="346"/>
		<circle id="椭圆_26" class="st12" cx="613.3" cy="444.7" r="199.5"/>
		<line id="直线_40" class="st13" x1="612.3" y1="98.7" x2="612.3" y2="791.7"/>
		<text transform="matrix(1 0 0 1 490.15 409.22)" class="st1 st2 st14">Ai Lun</text>
		<text transform="matrix(1 0 0 1 440.07 455.22)" class="st1 st4 st15">Chinese students who</text>
		<text transform="matrix(1 0 0 1 442.74 469.22)" class="st1 st4 st15">were trapped indoors</text>
		<text transform="matrix(1 0 0 1 436.41 483.22)" class="st1 st4 st15">under the impression of</text>
		<text transform="matrix(1 0 0 1 463.42 497.22)" class="st1 st4 st15">the epidemic.</text>
		<text transform="matrix(1 0 0 1 638.36 368.22)" class="st1 st2 st14">Alex Fisher</text>
		<text transform="matrix(1 0 0 1 679.05 396.22)" class="st1 st2 st14">——</text>
		<text transform="matrix(1 0 0 1 632.38 424.22)" class="st1 st2 st14">Shop Owner</text>
		<text transform="matrix(1 0 0 1 648.6 455.22)" class="st1 st4 st15 st16">T</text>
		<text transform="matrix(1 0 0 1 654.6 455.22)" class="st1 st4 st15">ake care of the store</text>
		<text transform="matrix(1 0 0 1 651.93 469.22)" class="st1 st4 st15">during the pandemic</text>
		<text transform="matrix(1 0 0 1 654.27 483.22)" class="st1 st4 st15">lockdown, conceive</text>
		<text transform="matrix(1 0 0 1 664.26 497.22)" class="st1 st4 st15">and launch new</text>
		<text transform="matrix(1 0 0 1 652.27 511.22)" class="st1 st4 st15">campaigns to attract</text>
		<text transform="matrix(1 0 0 1 655.71 525.22)" class="st1 st4 st15">tra</text>
		<text transform="matrix(1 0 0 1 669.71 525.22)" class="st1 st4 st15">f</text>
		<text transform="matrix(1 0 0 1 672.83 525.22)" class="st1 st4 st15">fic and increase</text>
		<text transform="matrix(1 0 0 1 667.94 539.22)" class="st1 st4 st15">store revenue.</text>
		<ellipse id="椭圆_29" class="st17" cx="514.3" cy="628.7" rx="83.5" ry="81.5"/>
		<text transform="matrix(1 0 0 1 490.51 592.72)" class="st1 st2 st18">Other</text>
		<text transform="matrix(1 0 0 1 466.06 610.72)" class="st1 st2 st18">Participants</text>
		<text transform="matrix(1 0 0 1 454.71 633.72)" class="st1 st4 st15">People who want to</text>
		<text transform="matrix(1 0 0 1 457.05 647.72)" class="st1 st4 st15">participate in novel</text>
		<text transform="matrix(1 0 0 1 448.72 661.72)" class="st1 st4 st15">social activities during</text>
		<text transform="matrix(1 0 0 1 471.05 675.72)" class="st1 st4 st15">the pandemic</text>
		<text transform="matrix(1 0 0 1 480.41 176.22)" class="st19 st2 st18"> Classmates</text>
		<text transform="matrix(1 0 0 1 351.91 304.22)" class="st19 st2 st18">Neighbours</text>
		<text transform="matrix(1 0 0 1 283.65 433.22)" class="st19 st2 st18">Housemates</text>
		<text transform="matrix(1 0 0 1 302.76 561.22)" class="st19 st2 st18">Other customers</text>
		<text transform="matrix(1 0 0 1 228.47 130.22)" class="st19 st2 st18">Online Group</text>
		<text transform="matrix(1 0 0 1 184.46 148.22)" class="st19 st2 st18">for International Students</text>
		<text transform="matrix(1 0 0 1 220.1 168.22)" class="st19 st4 st15">Finding friends and</text>
		<text transform="matrix(1 0 0 1 221.76 182.22)" class="st19 st4 st15">spreading the word</text>
		<text transform="matrix(1 0 0 1 129.23 278.22)" class="st19 st2 st18">Other international</text>
		<text transform="matrix(1 0 0 1 167.46 296.22)" class="st19 st2 st18">students</text>
		<text transform="matrix(1 0 0 1 106 393.22)" class="st19 st2 st18">Local people</text>
		<text transform="matrix(1 0 0 1 96.72 489.22)" class="st19 st2 st18 st16">T</text>
		<text transform="matrix(1 0 0 1 105.31 489.22)" class="st19 st2 st18">eachers</text>
		<text transform="matrix(1 0 0 1 117.02 585.22)" class="st19 st2 st18">House Landlord</text>
		<text transform="matrix(1 0 0 1 173.21 682.22)" class="st19 st2 st18">Families in China</text>
		<text transform="matrix(1 0 0 1 253.45 778.22)" class="st19 st2 st18">Friends in China</text>
		<text transform="matrix(1 0 0 1 714.44 195.72)" class="st19 st2 st18">Makers/Artisans</text>
		<text transform="matrix(1 0 0 1 716.42 214.72)" class="st19 st4 st15">Maker hand crafts</text>
		<text transform="matrix(1 0 0 1 715.75 228.72)" class="st19 st4 st15">their products with</text>
		<text transform="matrix(1 0 0 1 718.4 242.72)" class="st19 st4 st15">pure passion and</text>
		<text transform="matrix(1 0 0 1 717.41 256.72)" class="st19 st4 st15">give it to the shop</text>
		<text transform="matrix(1 0 0 1 742.43 270.72)" class="st19 st4 st15">to sell it.</text>
		<text transform="matrix(1 0 0 1 975.05 215.22)" class="st19 st2 st18 st16">V</text>
		<text transform="matrix(1 0 0 1 984.53 215.22)" class="st19 st2 st18">oucherify</text>
		<text transform="matrix(1 0 0 1 932.14 233.22)" class="st19 st4 st15">Free Random Code Generato</text>
		<text transform="matrix(1 0 0 1 1090.89 233.22)" class="st19 st4 st15">r</text>
		<text transform="matrix(1 0 0 1 1094.23 233.22)" class="st19 st4 st15">.</text>
		<text transform="matrix(1 0 0 1 933.8 247.22)" class="st19 st4 st15">Ensuring that all the codes are</text>
		<text transform="matrix(1 0 0 1 956.59 261.22)" class="st19 st4 st15">unique to keep safet</text>
		<text transform="matrix(1 0 0 1 1064.67 261.22)" class="st19 st4 st15">y</text>
		<text transform="matrix(1 0 0 1 1069.78 261.22)" class="st19 st4 st15">.</text>
		<text transform="matrix(1 0 0 1 1002.21 312.22)" class="st19 st2 st18">Social medias</text>
		<text transform="matrix(1 0 0 1 972.35 330.22)" class="st19 st4 st15">Social platforms help promote</text>
		<text transform="matrix(1 0 0 1 964.33 344.22)" class="st19 st4 st15">and publicize store concepts and</text>
		<text transform="matrix(1 0 0 1 990.67 358.22)" class="st19 st4 st15">events, and encourage</text>
		<text transform="matrix(1 0 0 1 987.35 372.22)" class="st19 st4 st15">consumers to share and</text>
		<text transform="matrix(1 0 0 1 998.36 386.22)" class="st19 st4 st15">communicate online</text>
		<text transform="matrix(1 0 0 1 1002.01 438.22)" class="st19 st2 st18">Local community</text>
		<text transform="matrix(1 0 0 1 981.23 456.22)" class="st19 st4 st15">Supporting the innovation and</text>
		<text transform="matrix(1 0 0 1 1009.93 470.22)" class="st19 st4 st15">spreading the word</text>
		<text transform="matrix(1 0 0 1 991.32 522.22)" class="st19 st2 st18">Delivery company</text>
		<text transform="matrix(1 0 0 1 990.78 540.22)" class="st19 st4 st15">Express service for stores</text>
		<text transform="matrix(1 0 0 1 851.73 149.22)" class="st19 st4 st15">Supply of raw materials for active</text>
		<text transform="matrix(1 0 0 1 917.08 163.22)" class="st19 st4 st15">products</text>
		<text transform="matrix(1 0 0 1 881.22 130.22)" class="st19 st2 st18">Material supplier</text>
		<text transform="matrix(1 0 0 1 801.8 548.22)" class="st19 st2 st18">Alex</text>
		<text transform="matrix(1 0 0 1 835.6 548.22)" class="st19 st2 st18">’</text>
		<text transform="matrix(1 0 0 1 839.45 548.22)" class="st19 st2 st18">s Families</text>
		<text transform="matrix(1 0 0 1 814.81 573.22)" class="st19 st4 st15">Helping shop</text>
		<text transform="matrix(1 0 0 1 801.8 587.22)" class="st19 st4 st15">owner running the</text>
		<text transform="matrix(1 0 0 1 824.81 601.22)" class="st19 st4 st15">store and</text>
		<text transform="matrix(1 0 0 1 803.46 615.22)" class="st19 st4 st15">spreading put the</text>
		<text transform="matrix(1 0 0 1 836.82 629.22)" class="st19 st4 st15">word</text>
		<text transform="matrix(1 0 0 1 995.58 592.22)" class="st19 st2 st18">Landlord</text>
		<text transform="matrix(1 0 0 1 937.32 610.22)" class="st19 st4 st15">Lease the space he owns to shop</text>
		<text transform="matrix(1 0 0 1 1007.38 624.22)" class="st19 st4 st15">owners</text>
		<text transform="matrix(1 0 0 1 930.77 675.22)" class="st19 st2 st18">Page+ looker</text>
		<text transform="matrix(1 0 0 1 899.38 693.22)" class="st19 st4 st15">A</text>
		<text transform="matrix(1 0 0 1 906.72 693.22)" class="st19 st4 st15"> boutique full service agenc</text>
		<text transform="matrix(1 0 0 1 1052.15 693.22)" class="st19 st4 st15">y</text>
		<text transform="matrix(1 0 0 1 1057.26 693.22)" class="st19 st4 st15">.</text>
		<text transform="matrix(1 0 0 1 887.28 707.22)" class="st19 st4 st15">Develop marketing plans for stores</text>
		<text transform="matrix(1 0 0 1 847.27 759.22)" class="st19 st2 st18">W</text>
		<text transform="matrix(1 0 0 1 862.08 759.22)" class="st19 st2 st18">ebsite support</text>
		<text transform="matrix(1 0 0 1 828.41 777.22)" class="st19 st4 st15">Build and maintain the website</text>
	</g>
</g>
<g>
	<defs>
		<path id="SVGID_3_" d="M1113.4,795.2c-0.2-0.5-0.5-0.9-0.8-1.3c-0.2-0.3-0.5-0.5-0.8-0.7c-0.8-0.5-1.8-0.6-2.8-0.6
			c-0.6,0.1-1.2,0.2-1.8,0.5c-0.6,0.3-1.1,0.6-1.6,1c-0.8,0.7-1.5,1.5-2,2.3c-0.5,0.8-0.8,1.6-1,2.5c-0.2,0.9-0.1,1.9,0.1,2.8
			c0.1,0.6,0.4,1.2,0.7,1.8c0.3,0.6,0.7,1.1,1.1,1.6c0.3,0.4,0.6,0.7,0.9,1s0.7,0.7,1,1c0.7,0.6,1.3,1.3,1.8,2
			c0.3,0.4,0.5,0.8,0.8,1.2c0.1,0.2,0.2,0.5,0.3,0.7c0.1,0.3,0,0.7-0.1,1c-0.2,0.4-0.5,0.6-0.9,0.7c-0.6,0.3-1.2,0-1.5-0.5
			c0-0.1-0.1-0.2-0.1-0.2c-0.2-0.5-0.1-1.2,0.2-1.6c0.3-0.3,0.2-0.6-0.2-0.7c-0.4-0.1-0.8-0.1-1.2-0.1c-0.7,0.2-1.1,0.8-1.1,1.5
			c0,0.1,0,0.3,0,0.4c0.2,1.1,1,2,2.1,2.2c0.2,0,0.5,0.1,0.7,0.1c0.2,0,0.5,0,0.7,0.1v-0.1h0.3c0.1,0,0.2,0,0.3,0
			c0.8,0,1.7-0.2,2.4-0.6c0.3-0.2,0.6-0.4,0.9-0.6c0.3-0.2,0.5-0.5,0.7-0.8c0.3-0.4,0.4-0.9,0.3-1.4c-0.1-0.4-0.2-0.7-0.4-1.1
			c-0.2-0.3-0.3-0.5-0.5-0.8c-0.2-0.2-0.4-0.5-0.6-0.7l-0.8-0.8c-0.3-0.3-0.5-0.5-0.8-0.8c-0.4-0.4-0.8-0.7-1.2-1.1
			c-0.4-0.4-0.7-0.8-1-1.3c-0.3-0.4-0.6-0.9-0.8-1.4c-0.2-0.5-0.4-1-0.5-1.6c-0.1-0.4-0.1-0.7-0.2-1c-0.1-0.4-0.1-0.7,0-1.1
			c0.2-1.4,0.9-2.8,1.8-3.9c0.3-0.4,0.7-0.7,1.2-0.9c0.3-0.2,0.7-0.1,1,0.1c0.2,0.1,0.4,0.3,0.5,0.5c0.4,0.5,0.7,1.1,0.8,1.7
			c0.1,0.4,0.1,0.7,0.1,1.1c0,0.4-0.1,0.8-0.1,1.1c-0.1,0.7-0.3,1.4-0.6,2.1c-0.3,0.7-0.7,1.3-1.2,1.8l-0.3,0.4
			c-0.2,0.3-0.2,0.5,0.2,0.6c0.2,0.1,0.3,0.1,0.5,0.1c0.6,0.1,1.3-0.1,1.8-0.6c0.4-0.4,0.7-0.8,1-1.2c0.3-0.5,0.5-1,0.7-1.5
			c0.1-0.4,0.2-0.8,0.2-1.2c0-0.4,0.1-0.8,0.1-1.2c0-0.3,0-0.6-0.1-0.9c-0.1-0.5-0.2-1-0.4-1.5"/>
	</defs>
	<clipPath id="SVGID_4_">
		<use xlink:href="#SVGID_3_"  style="overflow:visible;"/>
	</clipPath>
	<g class="st20">
		<g>
			
				<linearGradient id="SVGID_5_" gradientUnits="userSpaceOnUse" x1="333.9923" y1="570.8758" x2="334.9923" y2="570.8758" gradientTransform="matrix(61.54 0 0 114.39 -19453.4707 -64499.332)">
				<stop  offset="0" style="stop-color:#DCD45D"/>
				<stop  offset="1" style="stop-color:#164E30"/>
			</linearGradient>
			<rect x="1102.5" y="792.5" class="st21" width="11.4" height="21.2"/>
		</g>
	</g>
</g>
<g>
	<defs>
		<path id="SVGID_6_" d="M1134,798.9c0-0.5-0.1-0.9-0.1-1.4s-0.1-0.9-0.2-1.3c0-0.3-0.1-0.6-0.2-0.9s-0.1-0.6-0.2-0.9
			c-0.1-0.4-0.4-0.6-0.7-0.6h-0.3c-0.4,0.1-0.5,0.3-0.4,0.7l0.1,0.5c0,0.2,0.1,0.4,0.1,0.5c0.5,1.7,0.8,3.5,0.8,5.3c0,0.5,0,1,0,1.5
			c0,0.5-0.1,1-0.1,1.4c-0.1,0.9-0.3,1.7-0.4,2.5c-0.2,0.8-0.4,1.7-0.7,2.5c-0.2,0.6-0.5,1.1-0.8,1.7c-0.1,0.1-0.1,0.2-0.2,0.3
			c-0.1-0.2-0.3-0.4-0.4-0.7c-0.1-0.2-0.2-0.5-0.3-0.7c-0.2-0.7-0.4-1.4-0.5-2.1c-0.1-0.7-0.2-1.4-0.3-2.2c0-0.4-0.1-0.8-0.1-1.3
			s-0.1-0.8-0.1-1.3c0-0.3-0.1-0.5-0.1-0.8l-0.1-0.8c0-0.6-0.1-1.2-0.1-1.7c0-0.6-0.1-1.1-0.2-1.7c0-0.1,0-0.2,0-0.2
			c0-0.1,0-0.2-0.1-0.2c-0.1-0.4-0.5-0.8-0.9-0.8c-0.3-0.1-0.7,0-1,0.2c-0.2,0.2-0.4,0.5-0.4,0.8c-0.2,0.6-0.3,1.3-0.3,1.9
			c-0.1,0.6-0.2,1.3-0.2,2c0,0.2,0,0.5,0,0.7c0,0.2-0.1,0.5-0.1,0.7c-0.2,1.1-0.5,2.2-0.8,3.3s-0.6,2.2-1,3.2
			c-0.2,0.5-0.4,1-0.6,1.4c-0.2,0.5-0.4,0.9-0.7,1.3c-0.1,0.2-0.3,0.3-0.4,0.5c-0.2-0.2-0.3-0.5-0.4-0.8c-0.1-0.3-0.2-0.5-0.3-0.7
			c-0.3-0.7-0.5-1.4-0.7-2.2c-0.2-0.8-0.4-1.5-0.5-2.2c-0.2-1.2-0.4-2.4-0.5-3.6s-0.2-2.4-0.2-3.6c0-0.8-0.1-1.5-0.1-2.3
			s0-1.5-0.1-2.3c0-0.2,0-0.3,0-0.5c0-0.2-0.1-0.3-0.1-0.5c0-0.4-0.4-0.7-0.7-0.7c-0.2,0-0.5,0-0.7,0c-0.4,0-0.8,0.3-0.9,0.7
			l-0.2,0.4c0,0.2-0.1,0.3-0.1,0.4c-0.4,1.6-0.6,3.2-0.7,4.8c0,0.5,0,1.1,0,1.6c0,0.5,0.1,1.1,0.1,1.6c0.1,1,0.2,2,0.3,2.9
			c0.2,1,0.4,1.9,0.7,2.9c0.4,1.4,1,2.7,1.9,3.8c0.3,0.5,0.6,0.8,1.1,1.2c0.7,0.5,1.6,0.7,2.4,0.6c0.7-0.1,1.2-0.5,1.5-1.2
			c0.1-0.2,0.1-0.3,0.2-0.4c0.1-0.1,0.1-0.3,0.1-0.4c0.3-0.9,0.6-1.8,0.8-2.7s0.4-1.8,0.7-2.7c0-0.1,0-0.2,0.1-0.3
			c0-0.1,0.1-0.3,0.1-0.4c0,0.1,0.1,0.3,0.1,0.4c0,0.1,0,0.2,0.1,0.3c0.1,0.3,0.2,0.6,0.2,0.9c0.1,0.3,0.1,0.6,0.3,0.9
			c0.4,1.1,0.9,2.2,1.7,3.1c0.3,0.4,0.8,0.8,1.3,1c0.5,0.2,1.1,0.2,1.6,0.2c0.9-0.1,1.6-0.6,1.9-1.5c0.3-0.7,0.6-1.5,0.8-2.3
			c0.3-1.1,0.5-2.1,0.6-3.2c0.1-1.1,0.2-2.2,0.2-3.2c0-0.5,0-1.1,0-1.6c0-0.5,0-1.1-0.1-1.6"/>
	</defs>
	<clipPath id="SVGID_7_">
		<use xlink:href="#SVGID_6_"  style="overflow:visible;"/>
	</clipPath>
	<g class="st22">
		<g>
			
				<linearGradient id="SVGID_8_" gradientUnits="userSpaceOnUse" x1="333.9932" y1="574.0973" x2="334.9932" y2="574.0973" gradientTransform="matrix(61.56 0 0 69.18 -19459.3711 -38912.8086)">
				<stop  offset="0" style="stop-color:#DCD45D"/>
				<stop  offset="1" style="stop-color:#164E30"/>
			</linearGradient>
			<rect x="1115.6" y="792.7" class="st23" width="18.6" height="21"/>
		</g>
	</g>
</g>
<g>
	<defs>
		<path id="SVGID_9_" d="M1142.5,795.8c-0.1,0.7-0.1,1.4-0.2,2.1s-0.2,1.4-0.3,2.1c-0.1,0.5-0.1,1.1-0.2,1.6s-0.1,1-0.1,1.6
			c0,0.1,0,0.2,0,0.3c0,0.1,0,0.2,0,0.3c-0.7,0.2-1.3,0.4-1.9,0.6c-0.6,0.2-1.2,0.5-1.8,0.7c0,0-0.1-0.1-0.1-0.1
			c0.3-1.3,0.6-2.7,1-4c0.4-1.3,0.9-2.6,1.4-3.9c0.3-0.8,0.8-1.6,1.3-2.3l0.3-0.4c0.1-0.1,0.2-0.2,0.3-0.4c0,0,0.1,0,0.1-0.1
			l0.2-0.1c0,0.4,0.1,0.7,0.1,1C1142.6,795.1,1142.6,795.4,1142.5,795.8 M1146,803.2c-0.2,0-0.5,0-0.7-0.1v-0.4c0-0.6,0-1.1,0-1.6
			s0-1.1,0-1.6c0-0.8,0-1.5,0-2.2s-0.1-1.5-0.2-2.2c-0.1-0.5-0.2-1-0.4-1.5c-0.2-0.5-0.6-0.9-1.2-1c-0.4-0.1-0.7-0.1-1.1,0
			c-0.4,0.1-0.7,0.3-0.9,0.6c-0.1,0.1-0.3,0.3-0.4,0.5c-0.1,0.2-0.3,0.3-0.4,0.5c-0.3,0.4-0.5,0.8-0.8,1.2s-0.4,0.8-0.6,1.3
			c-0.5,1.1-0.9,2.1-1.3,3.2c-0.3,1.1-0.7,2.2-0.9,3.4c-0.1,0.4-0.2,0.8-0.3,1.3s-0.2,0.9-0.3,1.3l-0.3,0.2l-0.5,0.4l-0.5,0.4
			c-0.1,0.1-0.2,0.2-0.2,0.3c-0.1,0.1-0.1,0.2-0.2,0.3c-0.1,0.2-0.1,0.4,0.1,0.5c0,0,0.1,0,0.2,0c0.2,0.1,0.5,0,0.7-0.1l0.2-0.1
			l0.3-0.1c0,0.1,0,0.2,0,0.3l-0.2,1.5c-0.1,0.5-0.1,1-0.2,1.5c0,0.4-0.1,0.7-0.1,1.1c0,0.4,0,0.8,0,1.1c0,0.1,0,0.2,0,0.3
			c0,0.1,0,0.2,0.1,0.3c0,0.1,0.1,0.3,0.2,0.4c0.1,0.1,0.2,0.1,0.3,0.1c0.1-0.1,0.1-0.1,0.2-0.2c0-0.1,0-0.1,0-0.2l0.2-2.1
			c0.1-0.7,0.2-1.4,0.3-2.1c0.1-0.5,0.2-1,0.3-1.4s0.2-0.9,0.3-1.4c0.7-0.4,1.3-0.7,2-1c0.7-0.3,1.4-0.6,2.1-0.8c0,0.1,0,0.1,0,0.2
			c0,0,0,0.1,0,0.1c0,0.8,0,1.7,0.1,2.4c0.1,0.8,0.2,1.6,0.3,2.4c0.2,0.8,0.4,1.6,0.7,2.4c0.2,0.4,0.4,0.8,0.6,1.1
			c0.3,0.5,0.9,0.8,1.4,0.7c0.4,0,0.6-0.2,0.5-0.6c0-0.1,0-0.3-0.1-0.4l-0.1-0.4c-0.1-0.4-0.1-0.8-0.1-1.2c0-0.4,0-0.8-0.1-1.3
			c0-1-0.1-2,0-3s0.1-2,0.1-3c0-0.1,0-0.1,0-0.2c0-0.1,0-0.1,0-0.2c0.3,0,0.5-0.1,0.7-0.1l0.3-0.1l0.3-0.1c0,0,0.1,0,0.1-0.1
			l0.1-0.1C1146.4,803.2,1146.2,803.1,1146,803.2"/>
	</defs>
	<clipPath id="SVGID_10_">
		<use xlink:href="#SVGID_9_"  style="overflow:visible;"/>
	</clipPath>
	<g class="st24">
		<g>
			
				<linearGradient id="SVGID_11_" gradientUnits="userSpaceOnUse" x1="333.9954" y1="570.899" x2="334.9954" y2="570.899" gradientTransform="matrix(61.61 0 0 114.13 -19477.5 -64353.3008)">
				<stop  offset="0" style="stop-color:#DCD45D"/>
				<stop  offset="1" style="stop-color:#164E30"/>
			</linearGradient>
			<rect x="1134.8" y="792.5" class="st25" width="11.8" height="21.9"/>
		</g>
	</g>
</g>
<g>
	<defs>
		<path id="SVGID_12_" d="M1160.1,796.4c0-0.4-0.1-0.8-0.1-1.2s-0.1-0.8-0.2-1.2c0-0.1,0-0.3-0.1-0.4c0-0.1-0.1-0.3-0.1-0.4
			c-0.2-0.6-0.8-1-1.5-0.8c0,0,0,0,0,0h-0.1c-0.3,0.1-0.5,0.3-0.5,0.5c0,0.1-0.1,0.3-0.1,0.4l-0.1,0.4c0,0.4-0.1,0.8-0.1,1.3
			l-0.1,1.2c0,0.1,0,0.2,0,0.4c0,0.1,0,0.3-0.1,0.4c-0.5,1.8-1.1,3.5-1.8,5.2c-0.4,0.9-0.9,1.7-1.5,2.4c-0.1,0.1-0.3,0.3-0.4,0.4
			c-0.1,0.1-0.3,0.2-0.5,0.3c-0.1-0.1-0.2-0.2-0.3-0.4c-0.1-0.1-0.1-0.3-0.2-0.4c-0.2-0.5-0.4-1-0.5-1.5c-0.1-0.5-0.2-1-0.3-1.5
			c-0.1-0.7-0.1-1.5-0.1-2.2s0-1.5,0-2.2c0-0.6,0-1.1,0-1.7s0-1.1,0-1.7v-0.3c0-0.1,0-0.2-0.1-0.3c0-0.3-0.2-0.5-0.5-0.6
			c-0.4-0.2-0.9-0.2-1.3,0c-0.4,0.2-0.7,0.5-0.9,0.9c-0.2,0.4-0.3,0.7-0.3,1.1c-0.2,0.9-0.3,1.7-0.3,2.6c0,0.8,0,1.5,0,2.2
			c0,0.7,0.2,1.4,0.4,2.1c0.2,0.5,0.3,1,0.5,1.5c0.2,0.5,0.4,0.9,0.7,1.4c0.3,0.4,0.6,0.8,1,1.2c0.2,0.2,0.5,0.4,0.8,0.5
			c0.3,0.1,0.7,0.2,1,0.2c0.3,0,0.7,0,1-0.2c0.3-0.1,0.6-0.3,0.8-0.6c0.4-0.5,0.8-1,1.1-1.5c0.3-0.5,0.5-1,0.7-1.5s0.4-1,0.6-1.6
			c0-0.1,0.1-0.3,0.2-0.4c0.1-0.1,0.1-0.3,0.2-0.5h0.1c0,0,0,0.1,0,0.1c0,0,0,0,0,0.1c0,0.7,0,1.4,0,2.1s0,1.4-0.1,2.1
			c-0.1,1.1-0.3,2.3-0.5,3.4c-0.2,1-0.6,1.9-1.3,2.7c-0.3,0.5-0.7,0.9-1.2,1.3c-0.5,0.4-1,0.6-1.5,0.8c-0.2,0.1-0.3,0.1-0.5,0
			c-0.2-0.1-0.3-0.2-0.4-0.3c-0.1-0.2-0.3-0.4-0.3-0.6c-0.1-0.2-0.1-0.4-0.2-0.6c0-0.1,0-0.1,0-0.2c0-0.1,0-0.1,0-0.2
			c0-0.2-0.2-0.4-0.3-0.5c-0.4-0.2-0.9-0.2-1.3,0c-0.2,0.1-0.3,0.2-0.3,0.4c0,0.5,0.1,1.1,0.3,1.5c0.2,0.5,0.6,0.9,1.1,1.1
			c0.9,0.4,1.9,0.5,2.8,0.3c1.5-0.3,2.9-1,4-2c1.1-1.1,1.8-2.4,2.2-3.9c0.3-0.9,0.4-1.9,0.5-2.9c0.1-1,0.2-1.9,0.2-2.9
			c0-0.9,0-1.8,0-2.6s0-1.8-0.1-2.7"/>
	</defs>
	<clipPath id="SVGID_13_">
		<use xlink:href="#SVGID_12_"  style="overflow:visible;"/>
	</clipPath>
	<g class="st26">
		<g>
			
				<linearGradient id="SVGID_14_" gradientUnits="userSpaceOnUse" x1="333.9946" y1="571.1274" x2="334.9946" y2="571.1274" gradientTransform="matrix(61.59 0 0 108.72 -19470.6211 -61290.0664)">
				<stop  offset="0" style="stop-color:#DCD45D"/>
				<stop  offset="1" style="stop-color:#164E30"/>
			</linearGradient>
			<rect x="1148.2" y="792.2" class="st27" width="12" height="21.4"/>
		</g>
	</g>
</g>
<path class="st28" d="M1158.4,788.1c0.8,0,1.4,0.6,1.4,1.4s-0.6,1.4-1.4,1.4s-1.4-0.6-1.4-1.4l0,0
	C1157,788.7,1157.6,788.1,1158.4,788.1"/>
<path class="st29" d="M1108.3,815.4c0.8,0,1.4,0.6,1.4,1.4s-0.6,1.4-1.4,1.4s-1.4-0.6-1.4-1.4l0,0
	C1106.9,816,1107.5,815.4,1108.3,815.4"/>
<path class="st30" d="M1112.3,813.7c0.6,0,1,0.4,1,1s-0.4,1-1,1s-1-0.4-1-1S1111.7,813.7,1112.3,813.7"/>
<path class="st31" d="M1150.5,789.5c0.6,0,1,0.4,1,1s-0.4,1-1,1s-1-0.4-1-1S1150,789.5,1150.5,789.5"/>
</svg>
