<svg id="图层_1" data-name="图层 1" xmlns="http://www.w3.org/2000/svg" xmlns:xlink="http://www.w3.org/1999/xlink" viewBox="0 0 1190.55 841.89"><defs><style>.cls-1{fill:url(#未命名的渐变_10);}.cls-2{fill:url(#未命名的渐变_12);}.cls-3{fill:url(#未命名的渐变_14);}.cls-4{fill:url(#未命名的渐变_16);}.cls-5,.cls-51,.cls-75,.cls-88,.cls-89{fill:none;}.cls-6{clip-path:url(#clip-path);}.cls-7{clip-path:url(#clip-path-2);}.cls-8{clip-path:url(#clip-path-3);}.cls-18,.cls-50,.cls-86,.cls-9{fill:#fff;}.cls-10{fill:#284d24;}.cls-11{opacity:0.05;}.cls-11,.cls-12,.cls-13,.cls-15,.cls-16,.cls-19,.cls-45,.cls-54,.cls-74{isolation:isolate;}.cls-12{opacity:0.15;}.cls-13{opacity:0.1;}.cls-14,.cls-54{opacity:0.8;}.cls-15{opacity:0.8;}.cls-16{opacity:0.6;}.cls-17{clip-path:url(#clip-path-5);}.cls-18{font-size:22px;}.cls-18,.cls-21,.cls-22,.cls-23,.cls-24,.cls-25,.cls-26,.cls-27,.cls-28,.cls-29,.cls-30,.cls-31,.cls-32,.cls-33,.cls-34,.cls-35,.cls-36,.cls-37,.cls-38,.cls-39,.cls-40,.cls-41,.cls-42,.cls-43,.cls-44,.cls-56,.cls-76,.cls-77,.cls-78,.cls-79,.cls-80,.cls-81,.cls-82,.cls-83,.cls-84{font-family:Arial-BoldMT, Arial;font-weight:700;}.cls-19{opacity:0.2;}.cls-20{fill:#c1d1af;}.cls-21{font-size:16px;}.cls-21,.cls-22,.cls-23,.cls-24,.cls-25,.cls-26,.cls-27,.cls-28,.cls-29,.cls-30,.cls-31,.cls-32,.cls-33,.cls-34,.cls-35,.cls-36,.cls-37,.cls-38,.cls-39,.cls-40,.cls-41,.cls-42,.cls-43,.cls-44,.cls-56,.cls-57,.cls-58,.cls-60,.cls-76,.cls-77,.cls-78,.cls-79,.cls-80,.cls-81,.cls-82,.cls-83,.cls-84{fill:#354d44;}.cls-22{font-size:16px;}.cls-23{font-size:16px;}.cls-24{font-size:16px;}.cls-25{font-size:16.01px;}.cls-26{font-size:16.01px;}.cls-27{font-size:16px;}.cls-28{font-size:16px;}.cls-29{font-size:16px;}.cls-30{font-size:16px;}.cls-31{font-size:16px;}.cls-32{font-size:16px;}.cls-33{font-size:16px;}.cls-34{font-size:16px;}.cls-35{font-size:16px;}.cls-36{font-size:16px;}.cls-37{font-size:16.01px;}.cls-38{font-size:16px;}.cls-39{font-size:16px;}.cls-40{font-size:16px;}.cls-41{font-size:16px;}.cls-42{font-size:16.01px;}.cls-43{font-size:16px;}.cls-44{font-size:16px;}.cls-45{opacity:0.5;}.cls-46{fill:#dae6f1;}.cls-47,.cls-73{fill:#9e937a;}.cls-48,.cls-65,.cls-72{fill:#d4ab68;}.cls-49,.cls-62,.cls-66{fill:#84a461;}.cls-50,.cls-58,.cls-66,.cls-72,.cls-73,.cls-85{font-size:8px;}.cls-50,.cls-57,.cls-58,.cls-60,.cls-61,.cls-62,.cls-64,.cls-65,.cls-66,.cls-72,.cls-73,.cls-85,.cls-86{font-family:ArialMT, Arial;}.cls-51{stroke:#707070;stroke-dasharray:3 3;}.cls-51,.cls-89{stroke-width:0.5px;}.cls-52{fill:#707070;}.cls-53{letter-spacing:-0.02em;}.cls-55{fill:#a8bf90;}.cls-56,.cls-57{font-size:10px;}.cls-59{fill:#679ba2;}.cls-60,.cls-61,.cls-62,.cls-64,.cls-65{font-size:9px;}.cls-63{letter-spacing:-0.05em;}.cls-64{fill:#717272;}.cls-67{letter-spacing:-0.07em;}.cls-68{letter-spacing:-0.02em;}.cls-69{letter-spacing:-0.07em;}.cls-70{letter-spacing:-0.04em;}.cls-71{fill:#c6d5e0;}.cls-74{opacity:0.3;}.cls-75{stroke:#e0e3dc;stroke-width:10px;stroke-dasharray:18 18;}.cls-75,.cls-88{stroke-linecap:round;}.cls-75,.cls-89{stroke-miterlimit:10;}.cls-76{font-size:16px;}.cls-77{font-size:16px;}.cls-78{font-size:16px;}.cls-79{font-size:16px;}.cls-80{font-size:16px;}.cls-81{font-size:16.01px;}.cls-82{font-size:16px;}.cls-83{font-size:16px;}.cls-84{font-size:16px;}.cls-86{font-size:14px;}.cls-87{letter-spacing:0.02em;}.cls-88,.cls-89{stroke:#fff;}.cls-88{stroke-width:2px;}.cls-90{clip-path:url(#clip-path-24);}.cls-91{mask:url(#mask);}.cls-92{fill:url(#未命名的渐变_9);}.cls-93{clip-path:url(#clip-path-25);}.cls-94{mask:url(#mask-2);}.cls-95{fill:url(#未命名的渐变_11);}.cls-96{clip-path:url(#clip-path-26);}.cls-97{mask:url(#mask-3);}.cls-98{fill:url(#未命名的渐变_13);}.cls-99{clip-path:url(#clip-path-27);}.cls-100{mask:url(#mask-4);}.cls-101{fill:url(#未命名的渐变_15);}.cls-102{fill:#164e30;}.cls-103{fill:#bdb955;}.cls-104{fill:#b1af51;}.cls-105{fill:#405f36;}</style><linearGradient id="未命名的渐变_10" y1="841.89" x2="1" y2="841.89" gradientTransform="matrix(61.54, 0, 0, -114.39, 1101.93, 97112.74)" gradientUnits="userSpaceOnUse"><stop offset="0" stop-color="#fff"/><stop offset="1" stop-color="#fff"/></linearGradient><linearGradient id="未命名的渐变_12" y1="841.89" y2="841.89" gradientTransform="matrix(61.56, 0, 0, -69.18, 1101.93, 59050.67)" xlink:href="#未命名的渐变_10"/><linearGradient id="未命名的渐变_14" y1="841.89" y2="841.89" gradientTransform="matrix(61.61, 0, 0, -114.13, 1101.9, 96888.16)" xlink:href="#未命名的渐变_10"/><linearGradient id="未命名的渐变_16" y1="841.9" y2="841.9" gradientTransform="matrix(61.59, 0, 0, -108.72, 1101.9, 92340.07)" xlink:href="#未命名的渐变_10"/><clipPath id="clip-path"><rect class="cls-5" width="1190.55" height="841.89"/></clipPath><clipPath id="clip-path-2"><rect class="cls-5" width="0.45" height="841.89"/></clipPath><clipPath id="clip-path-3"><rect class="cls-5" x="-32768" y="-31925.11" width="65535" height="65535"/></clipPath><clipPath id="clip-path-5"><rect class="cls-5" x="0.45" width="1190.1" height="841.89"/></clipPath><clipPath id="clip-path-24"><path class="cls-5" d="M1114.7,799.12a8.85,8.85,0,0,0-.82-1.32,2.2,2.2,0,0,0-.84-.7,5,5,0,0,0-2.75-.57,6.39,6.39,0,0,0-1.83.46,6.06,6.06,0,0,0-1.6,1,9.14,9.14,0,0,0-2,2.33,7.37,7.37,0,0,0-1,2.53,6.94,6.94,0,0,0,.08,2.76,8.51,8.51,0,0,0,.66,1.83,8.12,8.12,0,0,0,1.07,1.6c.3.36.61.71.94,1s.65.66,1,1a15.37,15.37,0,0,1,1.82,2,10,10,0,0,1,.77,1.15,6.15,6.15,0,0,1,.28.71,1.24,1.24,0,0,1-.13,1,1.48,1.48,0,0,1-.9.74,1.11,1.11,0,0,1-1.48-.53,1,1,0,0,1-.09-.24,1.83,1.83,0,0,1,.19-1.64c.26-.34.18-.58-.22-.7a2.66,2.66,0,0,0-1.19-.07,1.58,1.58,0,0,0-1.13,1.49,2.83,2.83,0,0,0,0,.41,2.62,2.62,0,0,0,2.12,2.19c.23,0,.46.06.69.08a4.06,4.06,0,0,1,.69.08v-.07l.34,0a1.22,1.22,0,0,0,.33,0,6.06,6.06,0,0,0,2.44-.61,4.46,4.46,0,0,0,.88-.61,3,3,0,0,0,.66-.8,1.68,1.68,0,0,0,.26-1.41,4.56,4.56,0,0,0-.41-1.06,7.85,7.85,0,0,0-.49-.78,5.45,5.45,0,0,0-.57-.7l-.76-.81c-.25-.27-.52-.53-.8-.79a15.33,15.33,0,0,1-1.14-1.14,13.72,13.72,0,0,1-1-1.27,8.46,8.46,0,0,1-.83-1.43,6.37,6.37,0,0,1-.52-1.58c-.07-.37-.12-.72-.16-1.06a3.15,3.15,0,0,1,0-1.06,8.22,8.22,0,0,1,1.83-3.91,3.14,3.14,0,0,1,1.15-.93.91.91,0,0,1,1,.06,1.47,1.47,0,0,1,.51.48,3.93,3.93,0,0,1,.8,1.67,3.25,3.25,0,0,1,.13,1.12,8.5,8.5,0,0,1-.13,1.13,8.81,8.81,0,0,1-.56,2.07A6.36,6.36,0,0,1,1111,806l-.29.38c-.23.32-.17.53.19.64a1.53,1.53,0,0,0,.52.13,2.31,2.31,0,0,0,1.76-.57,6.06,6.06,0,0,0,1-1.22,5.1,5.1,0,0,0,.66-1.51,6.53,6.53,0,0,0,.22-1.17c0-.39.09-.78.13-1.17a3.38,3.38,0,0,0-.06-.9,4.43,4.43,0,0,0-.43-1.48"/></clipPath><mask id="mask" x="1103.76" y="796.45" width="11.45" height="21.21" maskUnits="userSpaceOnUse"><rect class="cls-1" x="1103.76" y="796.45" width="11.45" height="21.21"/></mask><linearGradient id="未命名的渐变_9" y1="841.89" x2="1" y2="841.89" gradientTransform="matrix(61.54, 0, 0, -114.39, 1101.93, 97112.74)" gradientUnits="userSpaceOnUse"><stop offset="0" stop-color="#dcd45d"/><stop offset="1" stop-color="#164e30"/></linearGradient><clipPath id="clip-path-25"><path class="cls-5" d="M1135.28,802.78c0-.47-.08-.93-.11-1.38s-.09-.9-.15-1.35c0-.3-.1-.59-.16-.87s-.13-.57-.19-.86a.76.76,0,0,0-.74-.61h-.35c-.38.06-.53.3-.45.7l.13.53c0,.19.08.36.13.53a18.47,18.47,0,0,1,.83,5.27,13.84,13.84,0,0,1,0,1.44c0,.47-.07,1-.11,1.44-.11.86-.25,1.7-.43,2.52a20.45,20.45,0,0,1-.72,2.46,9.48,9.48,0,0,1-.8,1.67,2.73,2.73,0,0,1-.23.25,5.7,5.7,0,0,1-.37-.69,5.1,5.1,0,0,1-.24-.69,15.31,15.31,0,0,1-.54-2.12c-.13-.7-.24-1.42-.32-2.14q-.07-.64-.12-1.26c0-.4-.07-.82-.11-1.25,0-.26-.07-.52-.1-.78s0-.54-.06-.82c0-.58-.09-1.15-.13-1.72a16.13,16.13,0,0,0-.23-1.68,1,1,0,0,1,0-.24.48.48,0,0,0-.06-.24.93.93,0,0,0-.93-.76,1.3,1.3,0,0,0-1.05.21,1.65,1.65,0,0,0-.43.84q-.23,1-.36,1.92c-.08.64-.14,1.31-.19,2a5.32,5.32,0,0,1,0,.69c0,.22-.07.45-.12.69-.23,1.09-.49,2.18-.78,3.26s-.61,2.15-1,3.22c-.18.49-.37,1-.57,1.43s-.45.9-.7,1.33c-.11.12-.24.29-.38.48a3.64,3.64,0,0,1-.39-.76c-.08-.25-.18-.49-.28-.73a15,15,0,0,1-.7-2.18c-.18-.75-.36-1.49-.53-2.24a31.53,31.53,0,0,1-.51-3.62c-.11-1.2-.19-2.42-.23-3.64q-.06-1.15-.06-2.31c0-.77,0-1.53-.07-2.28a4.41,4.41,0,0,0,0-.52,4.59,4.59,0,0,0-.1-.51.8.8,0,0,0-.74-.71,2.3,2.3,0,0,0-.74,0,1,1,0,0,0-.9.68c0,.15-.09.29-.14.43a3.39,3.39,0,0,0-.15.45,24.6,24.6,0,0,0-.67,4.75,14.29,14.29,0,0,0,0,1.6c0,.54.05,1.07.1,1.6a28,28,0,0,0,.34,2.92,25.19,25.19,0,0,0,.65,2.86,12.61,12.61,0,0,0,1.86,3.81,4.16,4.16,0,0,0,1.06,1.15,3.23,3.23,0,0,0,2.44.57,1.87,1.87,0,0,0,1.51-1.15c.07-.15.12-.29.18-.44s.1-.28.14-.43a26.69,26.69,0,0,0,.76-2.71c.21-.91.43-1.82.68-2.74a1,1,0,0,1,.08-.29c0-.13.08-.25.11-.38,0,.14.06.28.08.42a1.25,1.25,0,0,0,.08.32c.08.3.16.6.22.93a7.7,7.7,0,0,0,.26.94,9.61,9.61,0,0,0,1.67,3.08,3,3,0,0,0,1.31,1,4,4,0,0,0,1.6.19,2.19,2.19,0,0,0,1.93-1.45,13.86,13.86,0,0,0,.76-2.28,19.27,19.27,0,0,0,.57-3.21c.1-1.07.15-2.15.18-3.23,0-.55,0-1.1,0-1.64s-.06-1.07-.1-1.62"/></clipPath><mask id="mask-2" x="1116.81" y="796.65" width="18.61" height="21" maskUnits="userSpaceOnUse"><rect class="cls-2" x="1116.81" y="796.65" width="18.61" height="21"/></mask><linearGradient id="未命名的渐变_11" y1="841.89" y2="841.89" gradientTransform="matrix(61.56, 0, 0, -69.18, 1101.92, 59050.67)" xlink:href="#未命名的渐变_9"/><clipPath id="clip-path-26"><path class="cls-5" d="M1143.78,799.69c0,.71-.1,1.41-.19,2.1s-.18,1.39-.29,2.09c-.06.54-.12,1.06-.17,1.57s-.1,1-.15,1.58a1.07,1.07,0,0,0,0,.25,1.36,1.36,0,0,1,0,.29q-1,.25-1.89.57a15.81,15.81,0,0,0-1.8.74c-.07-.06-.1-.11-.1-.13.29-1.35.63-2.67,1-4a25.62,25.62,0,0,1,1.44-3.86,12.75,12.75,0,0,1,1.29-2.31c.08-.13.17-.25.25-.37s.18-.24.29-.37a.28.28,0,0,0,.11-.08,1.08,1.08,0,0,1,.18-.11c0,.36.08.71.1,1a8,8,0,0,1,0,1m3.39,7.42a2.18,2.18,0,0,1-.72-.13v-.36c0-.56,0-1.1,0-1.62s0-1.06,0-1.62c0-.75,0-1.49,0-2.21s-.12-1.47-.22-2.22a6.2,6.2,0,0,0-.38-1.51,1.67,1.67,0,0,0-1.16-1,2.42,2.42,0,0,0-1.07,0,1.86,1.86,0,0,0-.92.58,4.58,4.58,0,0,0-.42.46l-.38.5c-.27.4-.53.81-.76,1.23s-.43.84-.62,1.27a29.79,29.79,0,0,0-1.27,3.24c-.35,1.09-.66,2.21-.92,3.37-.1.43-.19.85-.27,1.28s-.16.86-.27,1.28l-.29.19-.51.38c-.18.13-.34.27-.52.42a1.86,1.86,0,0,0-.22.27,1.46,1.46,0,0,0-.16.3.37.37,0,0,0,.1.52.3.3,0,0,0,.15,0,.89.89,0,0,0,.68-.06l.19-.13.25-.13a.7.7,0,0,1,0,.29c-.06.51-.13,1-.2,1.52s-.14,1-.18,1.53a10.52,10.52,0,0,0-.07,1.12c0,.38,0,.76,0,1.12a2.64,2.64,0,0,0,0,.28c0,.07,0,.16,0,.27a.72.72,0,0,0,.19.38.46.46,0,0,0,.32.1.54.54,0,0,0,.19-.45l.21-2.12c.07-.7.16-1.41.27-2.12.09-.49.17-1,.26-1.43s.17-.93.26-1.42c.66-.37,1.32-.71,2-1a11.86,11.86,0,0,1,2.09-.76.57.57,0,0,1,0,.18.32.32,0,0,0,0,.14c0,.84,0,1.65.1,2.44a19.93,19.93,0,0,0,.36,2.44,13,13,0,0,0,.73,2.37,8,8,0,0,0,.58,1.13,1.41,1.41,0,0,0,1.44.74c.38,0,.56-.24.51-.65l-.06-.38-.07-.38a8.25,8.25,0,0,1-.09-1.22c0-.41,0-.83-.07-1.25,0-1,0-2,0-3s0-2,.1-3a1.37,1.37,0,0,1,0-.19,1.15,1.15,0,0,0,0-.19l.68-.12.29-.12.25-.11a.21.21,0,0,0,.1-.06l.1-.12a.82.82,0,0,0-.66-.34"/></clipPath><mask id="mask-3" x="1136" y="796.36" width="11.83" height="21.9" maskUnits="userSpaceOnUse"><rect class="cls-3" x="1136" y="796.36" width="11.83" height="21.9"/></mask><linearGradient id="未命名的渐变_13" y1="841.89" y2="841.89" gradientTransform="matrix(61.61, 0, 0, -114.13, 1101.9, 96888.16)" xlink:href="#未命名的渐变_9"/><clipPath id="clip-path-27"><path class="cls-5" d="M1161.37,800.3c0-.38-.06-.77-.11-1.17s-.12-.78-.18-1.17a3.1,3.1,0,0,0-.08-.42l-.11-.41a1.2,1.2,0,0,0-1.48-.84l-.11,0a.76.76,0,0,0-.53.51,2.36,2.36,0,0,0-.1.38l-.06.38c0,.43-.09.85-.13,1.25l-.13,1.22c0,.13,0,.25,0,.37a1.17,1.17,0,0,1-.08.37,31.13,31.13,0,0,1-1.82,5.2,8.87,8.87,0,0,1-1.54,2.37,5.33,5.33,0,0,1-.4.42,1.86,1.86,0,0,1-.47.32,1.16,1.16,0,0,1-.29-.37c-.06-.14-.13-.28-.19-.43a7.75,7.75,0,0,1-.48-1.48c-.11-.49-.19-1-.26-1.51-.06-.72-.1-1.45-.11-2.18s0-1.45,0-2.17c0-.56,0-1.11,0-1.67s0-1.11,0-1.67v-.3a.8.8,0,0,0-.06-.3.68.68,0,0,0-.48-.57,1.74,1.74,0,0,0-1.29,0,1.62,1.62,0,0,0-.86.92,3.7,3.7,0,0,0-.32,1.09,14.89,14.89,0,0,0-.3,2.58c0,.75,0,1.48,0,2.2a10.19,10.19,0,0,0,.35,2.13c.15.5.31,1,.48,1.45a8,8,0,0,0,.68,1.38,4.22,4.22,0,0,0,1,1.18,2.61,2.61,0,0,0,.76.47,2.87,2.87,0,0,0,1,.19,2.47,2.47,0,0,0,1-.16,2.37,2.37,0,0,0,.85-.59,6.33,6.33,0,0,0,1.09-1.54c.26-.5.49-1,.71-1.51s.4-1,.57-1.57a2.32,2.32,0,0,1,.16-.44,3.57,3.57,0,0,0,.16-.46h.1a.17.17,0,0,0,0,.1.14.14,0,0,1,0,.06c0,.71,0,1.41,0,2.12s0,1.4-.06,2.09a27.14,27.14,0,0,1-.52,3.37,6.93,6.93,0,0,1-1.25,2.73,6.18,6.18,0,0,1-1.2,1.25,4.43,4.43,0,0,1-1.52.76.57.57,0,0,1-.51,0,1.08,1.08,0,0,1-.39-.28,1.78,1.78,0,0,1-.32-.57,6.25,6.25,0,0,1-.16-.62.76.76,0,0,1,0-.21.76.76,0,0,0,0-.21.58.58,0,0,0-.35-.45,1.56,1.56,0,0,0-1.35,0,.49.49,0,0,0-.32.41,2.82,2.82,0,0,0,.32,1.54,2.07,2.07,0,0,0,1.12,1.06,4.6,4.6,0,0,0,2.81.27,8.11,8.11,0,0,0,4-2,8.42,8.42,0,0,0,2.18-3.89,19.07,19.07,0,0,0,.53-2.89,28,28,0,0,0,.15-2.9c0-.89,0-1.78,0-2.64s0-1.76-.07-2.67"/></clipPath><mask id="mask-4" x="1149.44" y="796.11" width="12.02" height="21.42" maskUnits="userSpaceOnUse"><rect class="cls-4" x="1149.44" y="796.11" width="12.02" height="21.42"/></mask><linearGradient id="未命名的渐变_15" y1="841.9" y2="841.9" gradientTransform="matrix(61.59, 0, 0, -108.72, 1101.9, 92340.07)" xlink:href="#未命名的渐变_9"/></defs><g class="cls-6"><g class="cls-7"><g class="cls-8"><g class="cls-8"><rect class="cls-9" x="-1190.55" y="-0.11" width="1191" height="842"/><rect class="cls-10" x="-1190.55" y="-0.11" width="1191" height="63"/><rect class="cls-9" x="-1190.55" y="791.89" width="1191" height="50"/></g></g></g><g class="cls-17"><g class="cls-8"><g class="cls-8"><rect class="cls-9" x="0.45" width="1191" height="842"/><rect class="cls-10" x="0.45" width="1191" height="63"/><text class="cls-18" transform="translate(49.45 39)">System map</text><g class="cls-19"><g class="cls-8"><path class="cls-20" d="M1161.45,381.71c0,99.54-80.18,191.3-208.4,191.3S656.36,470.11,738.62,400.2C801.41,346.85,838.94,207.78,970.81,220c127.5,11.79,190.64,62.23,190.64,161.72"/></g></g><text class="cls-21" transform="translate(958.76 212.45) rotate(-2.11)">S</text><text class="cls-22" transform="translate(970.19 212.07) rotate(-0.43)">T</text><text class="cls-23" transform="translate(979.39 211.98) rotate(1.03)">A</text><text class="cls-24" transform="translate(990.81 212.16) rotate(3.1)">G</text><text class="cls-25" transform="translate(1004.1 212.9) rotate(5.41)">E</text><text class="cls-23" transform="translate(1015.48 213.99) rotate(7.62)">2</text><text class="cls-26" transform="matrix(0.98, 0.18, -0.18, 0.98, 1029.59, 216.03)">-</text><text class="cls-27" transform="matrix(0.97, 0.24, -0.24, 0.97, 1039.83, 217.98)">E</text><text class="cls-28" transform="translate(1050.86 220.72) rotate(17.61)">N</text><text class="cls-29" transform="matrix(0.93, 0.36, -0.36, 0.93, 1062.61, 224.48)">L</text><text class="cls-30" transform="translate(1071.44 227.88) rotate(25.01)">A</text><text class="cls-31" transform="matrix(0.87, 0.5, -0.5, 0.87, 1081.74, 232.67)">R</text><text class="cls-32" transform="matrix(0.81, 0.58, -0.58, 0.81, 1092.42, 238.77)">G</text><text class="cls-33" transform="matrix(0.75, 0.66, -0.66, 0.75, 1103.19, 246.48)">E</text><g class="cls-19"><g class="cls-8"><path class="cls-20" d="M431.47,238.84c-81.86,49.85-45.1,175.08-144.7,207.46-76,24.71-109.3-75.64-109.3-165.73s0-132.6,109.3-160.48C435,82.29,508.42,192,431.47,238.84"/></g></g><text class="cls-34" transform="translate(202.79 149.18) rotate(-39.72)">S</text><text class="cls-35" transform="matrix(0.84, -0.55, 0.55, 0.84, 211.53, 141.96)">T</text><text class="cls-36" transform="translate(219.13 136.91) rotate(-28.67)">A</text><text class="cls-37" transform="matrix(0.91, -0.41, 0.41, 0.91, 229.08, 131.44)">G</text><text class="cls-38" transform="translate(241.24 126.06) rotate(-20.43)">E</text><text class="cls-39" transform="translate(256.44 120.6) rotate(-17.16)">1</text><text class="cls-40" transform="matrix(0.97, -0.26, 0.26, 0.97, 270.13, 116.51)">-</text><text class="cls-41" transform="translate(280.22 113.79) rotate(-12.65)">S</text><text class="cls-42" transform="translate(291.34 111.3) rotate(-10.07)">T</text><text class="cls-43" transform="translate(300.37 109.66) rotate(-7.64)">A</text><text class="cls-44" transform="translate(311.67 108.13) rotate(-4.47)">R</text><text class="cls-28" transform="translate(323.66 107.2) rotate(-1.15)">T</text><g class="cls-45"><g class="cls-8"><path class="cls-46" d="M603.37,378c-15.31-43.21-105.62-151.52-171.94-130-15.93,5.15-86.26,82.7-82.28,127.46,3.71,41.83,30.51,62.92,64.92,69.59,207.44,40.47,201.72-32,189.3-67"/></g></g><g class="cls-13"><g class="cls-8"><path class="cls-47" d="M186.4,340.22c0,49.31-40.19,89.28-89.78,89.28S31.49,385.35,31.49,336,47,250.93,96.62,250.93s89.78,40,89.78,89.29"/></g></g><path class="cls-48" d="M205.59,211.74H240.4a10.66,10.66,0,0,1,10.66,10.66v34.81a10.66,10.66,0,0,1-10.66,10.66H205.59a10.66,10.66,0,0,1-10.66-10.66V222.4a10.66,10.66,0,0,1,10.66-10.66"/><path class="cls-49" d="M205.59,276H240.4a10.66,10.66,0,0,1,10.66,10.66v34.81a10.66,10.66,0,0,1-10.66,10.66H205.59a10.66,10.66,0,0,1-10.66-10.66V286.64A10.66,10.66,0,0,1,205.59,276"/><path class="cls-48" d="M286,211.74h34.82a10.66,10.66,0,0,1,10.66,10.66v34.81a10.66,10.66,0,0,1-10.66,10.66H286a10.66,10.66,0,0,1-10.66-10.66V222.4A10.66,10.66,0,0,1,286,211.74"/><path class="cls-49" d="M286,276h34.82a10.66,10.66,0,0,1,10.66,10.66v34.81a10.66,10.66,0,0,1-10.66,10.66H286a10.66,10.66,0,0,1-10.66-10.66V286.64A10.66,10.66,0,0,1,286,276"/><path class="cls-47" d="M286,340.22h34.82a10.66,10.66,0,0,1,10.66,10.66v34.81a10.67,10.67,0,0,1-10.66,10.66H286a10.67,10.67,0,0,1-10.66-10.66V350.88A10.66,10.66,0,0,1,286,340.22"/><text class="cls-50" transform="translate(203.03 236.14)">T</text><text class="cls-50" transform="translate(207.05 236.14)">eaching</text><text class="cls-50" transform="translate(203.03 246.14)">skills</text><text class="cls-50" transform="translate(203.03 300.38)">Learning</text><text class="cls-50" transform="translate(203.03 310.38)">skills</text><text class="cls-50" transform="translate(283.48 236.14)">Sharing</text><text class="cls-50" transform="translate(283.48 246.14)">stories</text><text class="cls-50" transform="translate(281.48 296.01)">Knowing</text><text class="cls-50" transform="translate(281.48 306.01)">about British</text><text class="cls-50" transform="translate(281.48 316.01)">culture</text><text class="cls-50" transform="translate(283.48 361.39)">Use stories</text><text class="cls-50" transform="translate(283.48 371.39)">to attract</text><text class="cls-50" transform="translate(283.48 381.39)">people</text><path class="cls-48" d="M814.19,330H849a10.66,10.66,0,0,1,10.66,10.66v34.81A10.66,10.66,0,0,1,849,386.13H814.19a10.66,10.66,0,0,1-10.66-10.66V340.66A10.66,10.66,0,0,1,814.19,330"/><path class="cls-49" d="M883.42,394.65h34.82a10.66,10.66,0,0,1,10.66,10.66v34.81a10.66,10.66,0,0,1-10.66,10.66H883.42a10.66,10.66,0,0,1-10.66-10.66V405.31a10.66,10.66,0,0,1,10.66-10.66"/><path class="cls-47" d="M385.89,345.3h34.82A10.66,10.66,0,0,1,431.37,356v34.81a10.66,10.66,0,0,1-10.66,10.66H385.89a10.66,10.66,0,0,1-10.66-10.66V356a10.66,10.66,0,0,1,10.66-10.66"/><path class="cls-51" d="M333.75,240.76c11.68,5.27,62.68,31.79.25,69.3"/><polygon class="cls-52" points="334.19 242.63 334.21 240.99 335.41 239.85 331.51 239.81 334.19 242.63"/><polygon class="cls-52" points="331.51 311.53 334.12 307.99 334.16 309.91 335.85 310.83 331.51 311.53"/><text class="cls-50" transform="translate(383.8 362.7)"><tspan class="cls-53">W</tspan><tspan x="7.41" y="0">ork with</tspan></text><text class="cls-50" transform="translate(383.8 372.7)">charities to</text><text class="cls-50" transform="translate(383.8 382.7)">add social</text><text class="cls-50" transform="translate(383.8 392.7)">influence</text><path class="cls-47" d="M114.22,340.22H149a10.66,10.66,0,0,1,10.66,10.66v34.81A10.66,10.66,0,0,1,149,396.35H114.22a10.67,10.67,0,0,1-10.66-10.66V350.88a10.66,10.66,0,0,1,10.66-10.66"/><text class="cls-50" transform="translate(113.32 362.31)">Collecting </text><text class="cls-50" transform="translate(113.32 372.31)">recycle </text><text class="cls-50" transform="translate(113.32 382.31)">resources</text><path class="cls-48" d="M415.72,270.81h34.81a10.66,10.66,0,0,1,10.66,10.66v34.82A10.66,10.66,0,0,1,450.53,327H415.72a10.66,10.66,0,0,1-10.66-10.66V281.47a10.66,10.66,0,0,1,10.66-10.66"/><text class="cls-50" transform="translate(414.06 292.81)">Donating</text><text class="cls-50" transform="translate(414.06 301.81)">handcraft</text><text class="cls-50" transform="translate(414.06 310.81)">to charities</text><text class="cls-50" transform="translate(813.28 356)">T</text><text class="cls-50" transform="translate(817.3 356)"><tspan xml:space="preserve">eaching  </tspan></text><text class="cls-50" transform="translate(813.28 366)">other skills</text><path class="cls-48" d="M883.42,330h34.82a10.66,10.66,0,0,1,10.66,10.66v34.81a10.66,10.66,0,0,1-10.66,10.66H883.42a10.66,10.66,0,0,1-10.66-10.66V340.66A10.66,10.66,0,0,1,883.42,330"/><text class="cls-50" transform="translate(877.64 351)">Make friends </text><text class="cls-50" transform="translate(877.64 361)">with other </text><text class="cls-50" transform="translate(877.64 371)">retied people</text><text class="cls-50" transform="translate(887.33 411.44)">More </text><text class="cls-50" transform="translate(887.33 421.44)">choices</text><text class="cls-50" transform="translate(887.33 431.44)">More</text><text class="cls-50" transform="translate(887.33 441.44)">friends</text><path class="cls-49" d="M813.75,394.65h34.81a10.66,10.66,0,0,1,10.66,10.66v34.81a10.66,10.66,0,0,1-10.66,10.66H813.75a10.66,10.66,0,0,1-10.66-10.66V405.31a10.66,10.66,0,0,1,10.66-10.66"/><text class="cls-50" transform="translate(811.09 409.65)">Organizing </text><text class="cls-50" transform="translate(811.09 419.65)">workshop</text><text class="cls-50" transform="translate(811.09 429.65)">as group</text><text class="cls-50" transform="translate(811.09 439.65)">leaders</text><path class="cls-47" d="M814.19,458.66H849a10.66,10.66,0,0,1,10.66,10.66v34.81A10.66,10.66,0,0,1,849,514.79H814.19a10.66,10.66,0,0,1-10.66-10.66V469.32a10.66,10.66,0,0,1,10.66-10.66"/><text class="cls-50" transform="translate(811.53 484.51)">Publicizing </text><text class="cls-50" transform="translate(811.53 494.51)">workshop</text><path class="cls-47" d="M883.42,458.66h34.82a10.66,10.66,0,0,1,10.66,10.66v34.81a10.66,10.66,0,0,1-10.66,10.66H883.42a10.66,10.66,0,0,1-10.66-10.66V469.32a10.66,10.66,0,0,1,10.66-10.66"/><text class="cls-50" transform="translate(882.76 484.51)">More </text><text class="cls-50" transform="translate(882.76 494.51)">customers</text><path class="cls-49" d="M114.22,276H149a10.66,10.66,0,0,1,10.66,10.66v34.81A10.66,10.66,0,0,1,149,332.11H114.22a10.66,10.66,0,0,1-10.66-10.66V286.64A10.66,10.66,0,0,1,114.22,276"/><path class="cls-48" d="M52.45,143.5h13.3a3,3,0,0,1,3,2.9v12.81a3,3,0,0,1-3,2.9H52.45a3,3,0,0,1-3-2.9V146.4a2.93,2.93,0,0,1,3-2.9h0"/><path class="cls-48" d="M737.16,200.72h13.3a3,3,0,0,1,3,2.9v12.81a3,3,0,0,1-3,2.9h-13.3a3,3,0,0,1-3-2.9V203.62a2.94,2.94,0,0,1,3-2.9h0"/><path class="cls-49" d="M52.45,172.11h13.3a3,3,0,0,1,3,2.9v12.81a3,3,0,0,1-3,2.9H52.45a2.94,2.94,0,0,1-3-2.89h0V175a3,3,0,0,1,3-2.9Z"/><path class="cls-49" d="M737.16,229.33h13.3a3,3,0,0,1,3,2.9v12.82a3,3,0,0,1-3,2.9h-13.3a3,3,0,0,1-3-2.9h0V232.23a3,3,0,0,1,3-2.9Z"/><g class="cls-54"><g class="cls-8"><path class="cls-55" d="M122.87,681.33h13.29a3,3,0,0,1,3,2.9V697a3,3,0,0,1-3,2.9H122.87a2.94,2.94,0,0,1-3-2.89h0V684.23a3,3,0,0,1,3-2.9Z"/></g></g><path class="cls-47" d="M52.45,200.72h13.3a3,3,0,0,1,3,2.9v12.81a3,3,0,0,1-3,2.9H52.45a2.94,2.94,0,0,1-3-2.89h0V203.62a3,3,0,0,1,3-2.9Z"/><path class="cls-47" d="M737.16,257.94h13.3a3,3,0,0,1,3,2.9v12.82a3,3,0,0,1-3,2.9h-13.3a3,3,0,0,1-3-2.9h0V260.84a3,3,0,0,1,3-2.9Z"/><path class="cls-47" d="M122.86,710h13.3a3,3,0,0,1,3,2.9V725.7a3,3,0,0,1-3,2.9h-13.3a3,3,0,0,1-3-2.9h0V712.88a3,3,0,0,1,3-2.9Z"/><text class="cls-50" transform="translate(113.32 292.64)">Providing</text><text class="cls-50" transform="translate(113.32 302.64)">recycle </text><text class="cls-50" transform="translate(113.32 312.64)">resources</text><text class="cls-50" transform="translate(113.32 322.64)">for discount</text><text class="cls-56" transform="translate(43.61 310.33)">BEFORE</text><text class="cls-57" transform="translate(77.24 155.5)">The Elderly</text><text class="cls-57" transform="translate(761.96 212.72)">The Elderly</text><text class="cls-57" transform="translate(77.5 178.91)">Initial Participants/</text><text class="cls-57" transform="translate(77.5 190.91)">International Students</text><text class="cls-57" transform="translate(762.21 236.13)">Initial Participants/</text><text class="cls-57" transform="translate(762.21 248.13)">International Students</text><text class="cls-58" transform="translate(143.45 688.35)">Other </text><text class="cls-58" transform="translate(143.45 697.35)">customers</text><path class="cls-59" d="M122.87,738.59h13.29a3,3,0,0,1,3,2.9v12.82a3,3,0,0,1-3,2.9H122.87a3,3,0,0,1-3-2.9h0V741.49a3,3,0,0,1,3-2.9Z"/><text class="cls-58" transform="translate(143.45 750.73)">Artisans</text><text class="cls-57" transform="translate(77.51 213.53)">Shop Keeper</text><text class="cls-57" transform="translate(762.22 270.75)">Shop Keeper</text><text class="cls-58" transform="translate(143.45 722.12)">Shop Keeper</text><text class="cls-60" transform="translate(43.61 327.3)">Needlecraft</text><text class="cls-60" transform="translate(43.61 339.3)">materials</text><text class="cls-61" transform="translate(43.61 351.29)">--</text><text class="cls-62" transform="translate(49.61 351.29)"><tspan xml:space="preserve"> RECYCLE</tspan></text><text class="cls-56" transform="translate(315.47 145.27)">DURING</text><text class="cls-60" transform="translate(315.47 161.62)">Needlecrafts </text><text class="cls-60" transform="translate(368.49 161.62)">W</text><text class="cls-60" transform="translate(376.8 161.62)">orkshop</text><text class="cls-60" transform="translate(315.47 173.62)">-- Promoting social interaction</text><text class="cls-60" transform="translate(315.47 185.62)">--<tspan class="cls-63" x="5.99" y="0"> </tspan><tspan x="8.01" y="0">Achieve self-worth</tspan></text><text class="cls-64" transform="translate(315.47 197.61)">-- </text><text class="cls-65" transform="translate(323.97 197.61)">MEN</text><text class="cls-65" transform="translate(343.96 197.61)">T</text><text class="cls-65" transform="translate(348.83 197.61)">A</text><text class="cls-65" transform="translate(354.84 197.61)">L</text><text class="cls-65" transform="translate(359.48 197.61)"><tspan xml:space="preserve"> HEA</tspan></text><text class="cls-65" transform="translate(380.49 197.61)">L</text><text class="cls-65" transform="translate(384.86 197.61)">TH</text><text class="cls-66" transform="translate(1005.92 417.23)">others join in</text><text class="cls-60" transform="translate(953.92 295.14)">-- Starting di</text><text class="cls-60" transform="translate(1002.94 295.14)">f</text><text class="cls-60" transform="translate(1005.26 295.14)">ferent kinds of workshop</text><text class="cls-60" transform="translate(953.92 307.14)">-- Involving di</text><text class="cls-60" transform="translate(1007.45 307.14)">f</text><text class="cls-60" transform="translate(1009.77 307.14)">fernt groups of people </text><text class="cls-60" transform="translate(953.92 319.13)">in the community </text><text class="cls-60" transform="translate(953.92 331.13)">(e.g. male retairees)</text><text class="cls-56" transform="translate(956.23 278.57)">MU<tspan class="cls-67" x="15.55" y="0">L</tspan><tspan x="20.92" y="0">TI-ACTIVIT</tspan><tspan class="cls-68" x="72.02" y="0">Y</tspan><tspan x="78.51" y="0" xml:space="preserve"> WORKSHOP</tspan></text><text class="cls-56" transform="translate(482.75 371.19)">AFTER</text><text class="cls-60" transform="translate(481.95 383.79)">Donation handcraft</text><text class="cls-61" transform="translate(481.95 395.79)">-- </text><text class="cls-65" transform="translate(490.44 395.79)">MEN<tspan class="cls-69" x="20" y="0">T</tspan><tspan x="24.83" y="0">A</tspan><tspan class="cls-70" x="30.83" y="0">L</tspan><tspan x="35.51" y="0" xml:space="preserve"> HEA</tspan><tspan class="cls-69" x="56.51" y="0">L</tspan><tspan x="60.85" y="0">TH</tspan></text><text class="cls-60" transform="translate(481.95 407.78)">Boost their gratitude, </text><text class="cls-60" transform="translate(481.95 419.78)">which enhances their health,</text><text class="cls-60" transform="translate(481.95 431.78)">happiness, and optimism</text><text class="cls-58" transform="translate(353.3 244.14)">communicate </text><text class="cls-58" transform="translate(353.3 253.14)">each others</text><path class="cls-71" d="M479,321.8c11.21,0,20.3,6.45,20.3,14.42s-9.09,14.41-20.3,14.41-20.29-6.45-20.29-14.41S467.75,321.8,479,321.8"/><path class="cls-51" d="M462,285.19s31.06-.37,16.5,32.1"/><polygon class="cls-52" points="477.26 319.43 477.47 315.02 478.57 316.61 480.49 316.43 477.26 319.43"/><path class="cls-51" d="M431,373.11s33.09,8.53,50.85-18.06"/><polygon class="cls-52" points="483.39 352.6 479.81 355.16 481.73 355.23 482.62 356.93 483.39 352.6"/><text class="cls-72" transform="translate(937.82 350.57)">A</text><text class="cls-72" transform="translate(943 350.57)">void </text><text class="cls-72" transform="translate(937.82 360.57)">social </text><text class="cls-72" transform="translate(937.82 370.57)">isolation</text><text class="cls-66" transform="translate(937.82 413.5)">Integrate </text><text class="cls-66" transform="translate(937.82 423.5)">into the </text><text class="cls-66" transform="translate(937.82 433.5)">community</text><text class="cls-73" transform="translate(937.82 479.74)">Improving</text><text class="cls-73" transform="translate(937.82 489.74)">brand </text><text class="cls-73" transform="translate(937.82 499.74)">influence</text><g class="cls-54"><g class="cls-8"><path class="cls-49" d="M999.58,424.07a4.61,4.61,0,1,1-4.6,4.61,4.6,4.6,0,0,1,4.6-4.61"/></g></g><g class="cls-54"><g class="cls-8"><path class="cls-49" d="M1024.05,428.68a4.6,4.6,0,1,1-4.6,4.6,4.6,4.6,0,0,1,4.6-4.6"/></g></g><g class="cls-54"><g class="cls-8"><path class="cls-49" d="M1013.48,396.12a4.61,4.61,0,1,1-4.6,4.6,4.6,4.6,0,0,1,4.6-4.6"/></g></g><g class="cls-54"><g class="cls-8"><path class="cls-49" d="M995,406.74a4.6,4.6,0,1,1-4.6,4.6,4.6,4.6,0,0,1,4.6-4.6"/></g></g><g class="cls-54"><g class="cls-8"><path class="cls-49" d="M1010.45,430.48a4.6,4.6,0,1,1-5.39,3.64,4.6,4.6,0,0,1,5.39-3.64"/></g></g><g class="cls-54"><g class="cls-8"><path class="cls-49" d="M1041.71,425.79a4.6,4.6,0,1,1-4.6,4.6,4.6,4.6,0,0,1,4.6-4.6"/></g></g><g class="cls-74"><g class="cls-8"><path class="cls-75" d="M462.31,178.14S819.05,65.66,898.59,236.51"/></g></g><g class="cls-74"><g class="cls-8"><path class="cls-75" d="M916,571.83c17.2,61.31-251.58,189.8-398,116.6"/></g></g><g class="cls-19"><g class="cls-8"><path class="cls-20" d="M567.1,608.14c-2.18,61.49-92,92.66-152.52,131.63-168.76,108.61-215.32,19-193.15-65.65,13.92-53.14,40-143.58,149.43-134,105.9,9.23,198.3,10.22,196.24,68"/></g></g><text class="cls-76" transform="matrix(0.5, -0.86, 0.86, 0.5, 246.14, 589.01)">S</text><text class="cls-77" transform="matrix(0.57, -0.82, 0.82, 0.57, 251.85, 579.18)">T</text><text class="cls-78" transform="translate(256.98 571.61) rotate(-50.96)">A</text><text class="cls-79" transform="translate(264.06 562.76) rotate(-44.59)">G</text><text class="cls-80" transform="matrix(0.79, -0.61, 0.61, 0.79, 273.49, 553.51)">E</text><text class="cls-36" transform="translate(286.44 544.07) rotate(-28.67)">3</text><text class="cls-30" transform="matrix(0.93, -0.37, 0.37, 0.93, 299.06, 537.64)">-</text><text class="cls-81" transform="translate(308.73 533.97) rotate(-14.18)">B</text><text class="cls-30" transform="translate(319.71 531.18) rotate(-8.05)">R</text><text class="cls-44" transform="matrix(1, -0.05, 0.05, 1, 331.88, 529.43)">A</text><text class="cls-28" transform="translate(343.22 528.79) rotate(1.15)">N</text><text class="cls-30" transform="translate(355.55 529.12) rotate(5.14)">C</text><text class="cls-82" transform="matrix(0.99, 0.11, -0.11, 0.99, 367.9, 530.24)">H</text><text class="cls-83" transform="matrix(0.99, 0.13, -0.13, 0.99, 380.22, 531.57)">E</text><text class="cls-84" transform="translate(391.56 533.01) rotate(8.46)">S</text><g class="cls-54"><g class="cls-8"><path class="cls-55" d="M324.63,577h34.81a10.66,10.66,0,0,1,10.66,10.66v34.81a10.66,10.66,0,0,1-10.66,10.66H324.63A10.66,10.66,0,0,1,314,622.48V587.67A10.66,10.66,0,0,1,324.63,577"/></g></g><text class="cls-50" transform="translate(321.8 597.3)">Other </text><text class="cls-50" transform="translate(321.8 607.3)">customers </text><text class="cls-50" transform="translate(321.8 617.3)">join in</text><path class="cls-47" d="M248.63,643.33h42.82A10.66,10.66,0,0,1,302.11,654V688.8a10.66,10.66,0,0,1-10.66,10.66H248.63A10.66,10.66,0,0,1,238,688.8V654a10.66,10.66,0,0,1,10.66-10.66"/><path class="cls-59" d="M257.37,713h34.81a10.66,10.66,0,0,1,10.66,10.66v34.81a10.66,10.66,0,0,1-10.66,10.66H257.37a10.66,10.66,0,0,1-10.66-10.66V723.66A10.66,10.66,0,0,1,257.37,713"/><text class="cls-50" transform="translate(256.46 733.83)">Increasing </text><text class="cls-50" transform="translate(256.46 743.83)">their </text><text class="cls-50" transform="translate(256.46 753.83)">influence</text><path class="cls-47" d="M324.63,643.33h34.81A10.66,10.66,0,0,1,370.1,654V688.8a10.66,10.66,0,0,1-10.66,10.66H324.63A10.66,10.66,0,0,1,314,688.8V654a10.66,10.66,0,0,1,10.66-10.66"/><text class="cls-50" transform="translate(318.54 664.33)">Scale the </text><text class="cls-50" transform="translate(318.54 674.33)">business in </text><text class="cls-50" transform="translate(318.54 684.33)">other country</text><text class="cls-50" transform="translate(242.04 659.33)">Inviting more</text><text class="cls-50" transform="translate(242.04 669.33)">artisans to</text><text class="cls-50" transform="translate(242.04 679.33)">increase</text><text class="cls-50" transform="translate(242.04 689.33)">professionalism</text><text class="cls-60" transform="translate(397.95 597.85)">-- Inviting artisans in di</text><text class="cls-60" transform="translate(487.98 597.85)">f</text><text class="cls-60" transform="translate(490.31 597.85)">ferent cities </text><text class="cls-60" transform="translate(397.95 609.85)">to join local workshop</text><text class="cls-60" transform="translate(397.95 621.84)">-- Involving more communities </text><text class="cls-60" transform="translate(397.95 633.84)">around the country</text><text class="cls-73" transform="translate(379.88 663.89)">Improving</text><text class="cls-73" transform="translate(379.88 673.89)">brand </text><text class="cls-73" transform="translate(379.88 683.89)">influence</text><text class="cls-85" transform="translate(463.23 338.23)">Charities</text><text class="cls-56" transform="translate(397.95 583.31)">BRANCHES OF WORKSHOP</text><text class="cls-86" transform="translate(1118.45 31)"><tspan class="cls-87">Lovin</tspan><tspan x="34.8" y="0">g</tspan></text><text class="cls-86" transform="translate(1118.45 43)"><tspan class="cls-87">Hand</tspan><tspan x="34.53" y="0">s</tspan></text><g class="cls-16"><g class="cls-8"><line class="cls-88" x1="1035.45" y1="16.5" x2="1035.45" y2="47.5"/></g></g><polygon class="cls-9" points="1062.03 27.54 1061.88 28.52 1061.53 28.46 1061.88 26.11 1062.24 26.16 1062.09 27.14 1064.59 27.51 1064.53 27.92 1062.03 27.54"/><polygon class="cls-89" points="1062.03 27.54 1061.88 28.52 1061.53 28.46 1061.88 26.11 1062.24 26.16 1062.09 27.14 1064.59 27.51 1064.53 27.92 1062.03 27.54"/><polygon class="cls-9" points="1063.55 21.87 1066.15 23.1 1065.98 23.48 1064.82 22.93 1064.11 24.41 1065.27 24.96 1065.09 25.34 1062.49 24.1 1062.67 23.73 1063.79 24.26 1064.5 22.76 1063.38 22.23 1063.55 21.87"/><polygon class="cls-89" points="1063.55 21.87 1066.15 23.1 1065.98 23.48 1064.82 22.93 1064.11 24.41 1065.27 24.96 1065.09 25.34 1062.49 24.1 1062.67 23.73 1063.79 24.26 1064.5 22.76 1063.38 22.23 1063.55 21.87"/><polygon class="cls-9" points="1068.26 20 1068.53 20.24 1067.11 21.77 1064.99 19.82 1066.37 18.33 1066.63 18.57 1065.54 19.76 1066.18 20.36 1067.16 19.3 1067.42 19.54 1066.44 20.6 1067.12 21.23 1068.26 20"/><polygon class="cls-89" points="1068.26 20 1068.53 20.24 1067.11 21.77 1064.99 19.82 1066.37 18.33 1066.63 18.57 1065.54 19.76 1066.18 20.36 1067.16 19.3 1067.42 19.54 1066.44 20.6 1067.12 21.23 1068.26 20"/><polygon class="cls-9" points="1072.58 14.75 1073.61 17.44 1073.23 17.59 1072.77 16.39 1071.22 16.98 1071.68 18.18 1071.3 18.33 1070.26 15.64 1070.65 15.49 1071.09 16.65 1072.64 16.06 1072.19 14.9 1072.58 14.75"/><polygon class="cls-89" points="1072.58 14.75 1073.61 17.44 1073.23 17.59 1072.77 16.39 1071.22 16.98 1071.68 18.18 1071.3 18.33 1070.26 15.64 1070.65 15.49 1071.09 16.65 1072.64 16.06 1072.19 14.9 1072.58 14.75"/><path class="cls-9" d="M1077.6,15.59a1.13,1.13,0,0,0-1.15-1.1,1.13,1.13,0,0,0,0,2.25h0a1.09,1.09,0,0,0,1.08-1.09v-.06Zm-2.66.09a1.53,1.53,0,1,1,3.06-.23,1.52,1.52,0,0,1-1.41,1.64h-.06a1.47,1.47,0,0,1-1.58-1.34s0-.06,0-.08"/><path class="cls-89" d="M1077.6,15.59a1.13,1.13,0,0,0-1.15-1.1,1.13,1.13,0,0,0,0,2.25h0a1.09,1.09,0,0,0,1.08-1.09v-.06Zm-2.66.09a1.53,1.53,0,1,1,3.06-.23,1.52,1.52,0,0,1-1.41,1.64h-.06a1.47,1.47,0,0,1-1.58-1.34S1074.94,15.7,1074.94,15.68Z"/><polygon class="cls-9" points="1081.99 18.06 1082.68 15.97 1081.31 16.81 1081.13 16.75 1080.52 15.26 1079.82 17.34 1079.45 17.22 1080.36 14.48 1080.68 14.59 1081.39 16.3 1082.95 15.34 1083.27 15.45 1082.36 18.19 1081.99 18.06"/><polygon class="cls-89" points="1081.99 18.06 1082.68 15.97 1081.31 16.81 1081.13 16.75 1080.52 15.26 1079.82 17.34 1079.45 17.22 1080.36 14.48 1080.68 14.59 1081.39 16.3 1082.95 15.34 1083.27 15.45 1082.36 18.19 1081.99 18.06"/><polygon class="cls-9" points="1085.64 20 1085.42 20.29 1083.75 19.03 1085.49 16.73 1087.11 17.95 1086.89 18.24 1085.6 17.26 1085.07 17.97 1086.22 18.84 1086.01 19.12 1084.86 18.25 1084.3 18.99 1085.64 20"/><polygon class="cls-89" points="1085.64 20 1085.42 20.29 1083.75 19.03 1085.49 16.73 1087.11 17.95 1086.89 18.24 1085.6 17.26 1085.07 17.97 1086.22 18.84 1086.01 19.12 1084.86 18.25 1084.3 18.99 1085.64 20"/><path class="cls-9" d="M1090,24.39a1.12,1.12,0,1,0-1.5-.52h0a1.08,1.08,0,0,0,1.43.53l.06,0M1088.79,22a1.53,1.53,0,1,1,1.47,2.69,1.52,1.52,0,0,1-2.08-.61l0-.05a1.46,1.46,0,0,1,.57-2l.07,0"/><path class="cls-89" d="M1090,24.39a1.12,1.12,0,1,0-1.5-.52h0a1.08,1.08,0,0,0,1.43.53ZM1088.79,22a1.53,1.53,0,1,1,1.47,2.69,1.52,1.52,0,0,1-2.08-.61l0-.05a1.46,1.46,0,0,1,.57-2Z"/><polygon class="cls-9" points="1091.75 26.8 1090.76 26.95 1090.98 28.38 1090.63 28.44 1090.41 27.01 1089.26 27.19 1089.19 26.78 1092.04 26.34 1092.35 28.34 1092 28.4 1091.75 26.8"/><polygon class="cls-89" points="1091.75 26.8 1090.76 26.95 1090.98 28.38 1090.63 28.44 1090.41 27.01 1089.26 27.19 1089.19 26.78 1092.04 26.34 1092.35 28.34 1092 28.4 1091.75 26.8"/><polygon class="cls-9" points="1066.43 36.37 1063.87 37.69 1063.68 37.32 1064.82 36.73 1064.07 35.26 1062.92 35.84 1062.74 35.48 1065.3 34.16 1065.49 34.53 1064.39 35.09 1065.14 36.57 1066.24 36 1066.43 36.37"/><polygon class="cls-89" points="1066.43 36.37 1063.87 37.69 1063.68 37.32 1064.82 36.73 1064.07 35.26 1062.92 35.84 1062.74 35.48 1065.3 34.16 1065.49 34.53 1064.39 35.09 1065.14 36.57 1066.24 36 1066.43 36.37"/><path class="cls-9" d="M1067.24,40.09l.57-1.44-1.44.55Zm-.13.33L1066,39.33l-.74.28-.3-.3,3-1.1.29.29-1.13,3-.3-.31Z"/><path class="cls-89" d="M1067.24,40.09l.57-1.44-1.44.55Zm-.13.33L1066,39.33l-.74.28-.3-.3,3-1.1.29.29-1.13,3-.3-.31Z"/><polygon class="cls-9" points="1072.26 41.2 1070.92 43.75 1070.62 43.59 1070.09 40.88 1069.09 42.78 1068.73 42.59 1070.07 40.04 1070.37 40.2 1070.9 42.9 1071.9 41 1072.26 41.2"/><polygon class="cls-89" points="1072.26 41.2 1070.92 43.75 1070.62 43.59 1070.09 40.88 1069.09 42.78 1068.73 42.59 1070.07 40.04 1070.37 40.2 1070.9 42.9 1071.9 41 1072.26 41.2"/><path class="cls-9" d="M1074.42,44.35a1.09,1.09,0,1,0,.51-2.11l-.16,0-.77-.12-.35,2.14Zm-.76-2.68,1.2.2a1.43,1.43,0,0,1,1.3,1.57,1.45,1.45,0,0,1-1.57,1.31l-.2,0-1.2-.2Z"/><path class="cls-89" d="M1074.42,44.35a1.09,1.09,0,1,0,.51-2.11l-.16,0-.77-.12-.35,2.14Zm-.76-2.68,1.2.2a1.43,1.43,0,0,1,1.3,1.57,1.45,1.45,0,0,1-1.57,1.31l-.2,0-1.2-.2Z"/><polygon class="cls-9" points="1080.78 44.48 1080.39 42.29 1079.58 43.64 1079.39 43.67 1078.15 42.68 1078.54 44.88 1078.15 44.95 1077.65 42.12 1077.98 42.05 1079.4 43.16 1080.33 41.64 1080.66 41.58 1081.17 44.41 1080.78 44.48"/><polygon class="cls-89" points="1080.78 44.48 1080.39 42.29 1079.58 43.64 1079.39 43.67 1078.15 42.68 1078.54 44.88 1078.15 44.95 1077.65 42.12 1077.98 42.05 1079.4 43.16 1080.33 41.64 1080.66 41.58 1081.17 44.41 1080.78 44.48"/><path class="cls-9" d="M1084.43,41.78l-1.24-.94.15,1.54Zm.28.21-1.34.75.08.78-.37.21-.27-3.16.36-.2,2.55,1.89-.38.21Z"/><path class="cls-89" d="M1084.43,41.78l-1.24-.94.15,1.54Zm.28.21-1.34.75.08.78-.37.21-.27-3.16.36-.2,2.55,1.89-.38.21Z"/><path class="cls-9" d="M1087.79,39.92a1.09,1.09,0,1,0-1.46-1.61l-.11.12-.54.57,1.58,1.48Zm-2.65-.87.83-.88a1.44,1.44,0,1,1,2.25,1.81l-.15.16-.84.89Z"/><path class="cls-89" d="M1087.79,39.92a1.09,1.09,0,1,0-1.46-1.61l-.11.12-.54.57,1.58,1.48Zm-2.65-.87.83-.88a1.44,1.44,0,1,1,2.25,1.81l-.15.16-.84.89Z"/><polygon class="cls-9" points="1090.9 35.16 1091.22 35.32 1090.29 37.2 1087.71 35.92 1088.61 34.1 1088.93 34.26 1088.21 35.71 1089.01 36.1 1089.65 34.8 1089.96 34.96 1089.33 36.26 1090.16 36.67 1090.9 35.16"/><polygon class="cls-89" points="1090.9 35.16 1091.22 35.32 1090.29 37.2 1087.71 35.92 1088.61 34.1 1088.93 34.26 1088.21 35.71 1089.01 36.1 1089.65 34.8 1089.96 34.96 1089.33 36.26 1090.16 36.67 1090.9 35.16"/><path class="cls-9" d="M1077,49.09A19.5,19.5,0,0,1,1066.71,13l.26.41a19,19,0,1,0,23.47,2.79l.34-.35A19.5,19.5,0,0,1,1077,49.09Z"/><path class="cls-89" d="M1077,49.09A19.5,19.5,0,0,1,1066.71,13l.26.41a19,19,0,1,0,23.47,2.79l.34-.35A19.5,19.5,0,0,1,1077,49.09Z"/><g class="cls-90"><g class="cls-91"><rect class="cls-92" x="1103.76" y="796.45" width="11.45" height="21.21"/></g></g><g class="cls-93"><g class="cls-94"><rect class="cls-95" x="1116.81" y="796.65" width="18.61" height="21"/></g></g><g class="cls-96"><g class="cls-97"><rect class="cls-98" x="1136" y="796.36" width="11.83" height="21.9"/></g></g><g class="cls-99"><g class="cls-100"><rect class="cls-101" x="1149.44" y="796.11" width="12.02" height="21.42"/></g></g><path class="cls-102" d="M1159.61,792a1.37,1.37,0,1,1-1.37,1.37,1.37,1.37,0,0,1,1.37-1.37"/><path class="cls-103" d="M1109.51,819.26a1.37,1.37,0,1,1-1.37,1.37,1.37,1.37,0,0,1,1.37-1.37"/><path class="cls-104" d="M1113.53,817.57a1,1,0,1,1-1,1,1,1,0,0,1,1-1"/><path class="cls-105" d="M1151.75,793.37a1,1,0,1,1-1,1,1,1,0,0,1,1-1"/></g></g></g></g></svg>