<svg xmlns="http://www.w3.org/2000/svg" viewBox="0 0 1198.33 215.6"><defs><style>.cls-1{opacity:0.6;}.cls-2,.cls-3{fill:none;stroke:#194e1e;stroke-width:0.5px;}.cls-3{stroke-dasharray:5.01 5.01;}.cls-4,.cls-5{isolation:isolate;}.cls-4{font-size:26px;fill:#333;font-family:MicrosoftYaHei-Bold, Microsoft YaHei;font-weight:700;}.cls-5{font-size:18px;fill:#666;font-family:MicrosoftYaHei, Microsoft YaHei;}.cls-6{fill:#fff;}.cls-7{fill:#194e1e;}</style></defs><g id="图层_2" data-name="图层 2"><g id="图层_1-2" data-name="图层 1"><g id="直线_1" data-name="直线 1" class="cls-1"><line class="cls-2" x1="71" y1="15.5" x2="73.5" y2="15.5"/><line class="cls-3" x1="78.51" y1="15.5" x2="1138.99" y2="15.5"/><line class="cls-2" x1="1141.5" y1="15.5" x2="1144" y2="15.5"/></g><text class="cls-4" transform="translate(2 94)">背景调研</text><text class="cls-5" transform="translate(0 135)">服务范围选定</text><text class="cls-5" transform="translate(382.17 135)">价值声明</text><text class="cls-5" transform="translate(0 173)">服务现状分析</text><text class="cls-5" transform="translate(382.17 173)">价值地图</text><text class="cls-5" transform="translate(355.17 211)">利益关系者地图</text><text class="cls-5" transform="translate(18 211)">用户调研</text><text class="cls-5" transform="translate(737.2 134.5)">用户旅程图</text><text class="cls-5" transform="translate(746.2 172.5)">服务蓝图</text><text class="cls-5" transform="translate(755.2 210.5)">故事板</text><text class="cls-5" transform="translate(1099.33 135)">服务周期图</text><text class="cls-5" transform="translate(1090.33 173)">测试验证规划</text><text class="cls-4" transform="translate(366.17 94)">服务定义</text><text class="cls-4" transform="translate(730.2 94.5)">服务设计</text><text class="cls-4" transform="translate(1092.33 94)">服务拓展</text><g id="组_58" data-name="组 58"><g id="组_57" data-name="组 57"><path id="矩形_107" data-name="矩形 107" class="cls-6" d="M55,0h0A15.5,15.5,0,0,1,70.5,15.5h0A15.5,15.5,0,0,1,55,31h0A15.5,15.5,0,0,1,39.5,15.5h0A15.5,15.5,0,0,1,55,0Z"/><path id="矩形_108" data-name="矩形 108" class="cls-6" d="M55,9h0a6.5,6.5,0,0,1,6.5,6.5h0A6.5,6.5,0,0,1,55,22h0a6.5,6.5,0,0,1-6.5-6.5h0A6.5,6.5,0,0,1,55,9Z"/></g><circle id="椭圆_4" data-name="椭圆 4" class="cls-6" cx="55" cy="15.5" r="15.5"/><path id="矩形_107-2" data-name="矩形 107-2" class="cls-7" d="M55,6h0a9.5,9.5,0,0,1,9.5,9.5h0A9.5,9.5,0,0,1,55,25h0a9.5,9.5,0,0,1-9.5-9.5h0A9.5,9.5,0,0,1,55,6Z"/><g id="矩形_108-2" data-name="矩形 108-2"><circle class="cls-7" cx="55" cy="15.5" r="5.75"/><path class="cls-6" d="M55,10a5.5,5.5,0,1,1-5.5,5.5A5.5,5.5,0,0,1,55,10m0-.5a6,6,0,1,0,6,6,6,6,0,0,0-6-6Z"/></g></g><g id="组_58-2" data-name="组 58"><g id="组_57-2" data-name="组 57"><path id="矩形_107-2-2" data-name="矩形 107" class="cls-6" d="M1144,0h0a15.5,15.5,0,0,1,15.5,15.5h0A15.5,15.5,0,0,1,1144,31h0a15.5,15.5,0,0,1-15.5-15.5h0A15.5,15.5,0,0,1,1144,0Z"/><path id="矩形_108-2-2" data-name="矩形 108" class="cls-6" d="M1144,9h0a6.5,6.5,0,0,1,6.5,6.5h0A6.5,6.5,0,0,1,1144,22h0a6.5,6.5,0,0,1-6.5-6.5h0A6.5,6.5,0,0,1,1144,9Z"/></g><circle id="椭圆_4-2" data-name="椭圆 4" class="cls-6" cx="1144" cy="15.5" r="15.5"/><path id="矩形_107-2-3" data-name="矩形 107-2" class="cls-7" d="M1144,6h0a9.5,9.5,0,0,1,9.5,9.5h0A9.5,9.5,0,0,1,1144,25h0a9.5,9.5,0,0,1-9.5-9.5h0A9.5,9.5,0,0,1,1144,6Z"/><g id="矩形_108-2-3" data-name="矩形 108-2"><circle class="cls-7" cx="1144" cy="15.5" r="5.75"/><path class="cls-6" d="M1144,10a5.5,5.5,0,1,1-5.5,5.5A5.5,5.5,0,0,1,1144,10m0-.5a6,6,0,1,0,6,6,6,6,0,0,0-6-6Z"/></g></g><g id="组_58-3" data-name="组 58"><g id="组_57-3" data-name="组 57"><path id="矩形_107-3" data-name="矩形 107" class="cls-6" d="M781,0h0a15.5,15.5,0,0,1,15.5,15.5h0A15.5,15.5,0,0,1,781,31h0a15.5,15.5,0,0,1-15.5-15.5h0A15.5,15.5,0,0,1,781,0Z"/><path id="矩形_108-3" data-name="矩形 108" class="cls-6" d="M781,9h0a6.5,6.5,0,0,1,6.5,6.5h0A6.5,6.5,0,0,1,781,22h0a6.5,6.5,0,0,1-6.5-6.5h0A6.5,6.5,0,0,1,781,9Z"/></g><circle id="椭圆_4-3" data-name="椭圆 4" class="cls-6" cx="781" cy="15.5" r="15.5"/><path id="矩形_107-2-4" data-name="矩形 107-2" class="cls-7" d="M781,6h0a9.5,9.5,0,0,1,9.5,9.5h0A9.5,9.5,0,0,1,781,25h0a9.5,9.5,0,0,1-9.5-9.5h0A9.5,9.5,0,0,1,781,6Z"/><g id="矩形_108-2-4" data-name="矩形 108-2"><circle class="cls-7" cx="781" cy="15.5" r="5.75"/><path class="cls-6" d="M781,10a5.5,5.5,0,1,1-5.5,5.5A5.5,5.5,0,0,1,781,10m0-.5a6,6,0,1,0,6,6,6,6,0,0,0-6-6Z"/></g></g><g id="组_58-4" data-name="组 58"><g id="组_57-4" data-name="组 57"><path id="矩形_107-4" data-name="矩形 107" class="cls-6" d="M418,0h0a15.5,15.5,0,0,1,15.5,15.5h0A15.5,15.5,0,0,1,418,31h0a15.5,15.5,0,0,1-15.5-15.5h0A15.5,15.5,0,0,1,418,0Z"/><path id="矩形_108-4" data-name="矩形 108" class="cls-6" d="M418,9h0a6.5,6.5,0,0,1,6.5,6.5h0A6.5,6.5,0,0,1,418,22h0a6.5,6.5,0,0,1-6.5-6.5h0A6.5,6.5,0,0,1,418,9Z"/></g><circle id="椭圆_4-4" data-name="椭圆 4" class="cls-6" cx="418" cy="15.5" r="15.5"/><path id="矩形_107-2-5" data-name="矩形 107-2" class="cls-7" d="M418,6h0a9.5,9.5,0,0,1,9.5,9.5h0A9.5,9.5,0,0,1,418,25h0a9.5,9.5,0,0,1-9.5-9.5h0A9.5,9.5,0,0,1,418,6Z"/><g id="矩形_108-2-5" data-name="矩形 108-2"><circle class="cls-7" cx="418" cy="15.5" r="5.75"/><path class="cls-6" d="M418,10a5.5,5.5,0,1,1-5.5,5.5A5.5,5.5,0,0,1,418,10m0-.5a6,6,0,1,0,6,6,6,6,0,0,0-6-6Z"/></g></g></g></g></svg>