<svg xmlns="http://www.w3.org/2000/svg" xmlns:xlink="http://www.w3.org/1999/xlink" viewBox="0 0 1188.01 839.88"><defs><style>.cls-1{fill:url(#未命名的渐变_8);}.cls-2{fill:url(#未命名的渐变_8-2);}.cls-3{fill:url(#未命名的渐变_8-3);}.cls-4{fill:url(#未命名的渐变_8-4);}.cls-14,.cls-16,.cls-36,.cls-37,.cls-38,.cls-39,.cls-40,.cls-41,.cls-43,.cls-44,.cls-48,.cls-49,.cls-5,.cls-51,.cls-52,.cls-54,.cls-55,.cls-57,.cls-59,.cls-63,.cls-67,.cls-77,.cls-78{fill:none;}.cls-6{clip-path:url(#clip-path);}.cls-7{clip-path:url(#clip-path-3);}.cls-12,.cls-15,.cls-27,.cls-31,.cls-33,.cls-34,.cls-45,.cls-65,.cls-8{isolation:isolate;}.cls-9{clip-path:url(#clip-path-4);}.cls-10{clip-path:url(#clip-path-5);}.cls-11,.cls-29,.cls-60,.cls-75,.cls-76{fill:#fff;}.cls-12{opacity:0.1;}.cls-13{fill:#f3f1d0;}.cls-14,.cls-16,.cls-36{stroke:#d8d8d8;}.cls-14,.cls-16,.cls-36,.cls-44,.cls-49,.cls-52,.cls-55,.cls-57,.cls-67,.cls-77{stroke-linecap:round;}.cls-14,.cls-16,.cls-36,.cls-37,.cls-38,.cls-39,.cls-40,.cls-41,.cls-43,.cls-44,.cls-49,.cls-51,.cls-52,.cls-55,.cls-57,.cls-59,.cls-63,.cls-67{stroke-width:1px;}.cls-14{stroke-dasharray:2.99 3.99;}.cls-15,.cls-66{opacity:0.5;}.cls-16,.cls-36,.cls-78{stroke-miterlimit:10;}.cls-16{stroke-dasharray:3.99 5.99;}.cls-17{font-size:6.98px;}.cls-17,.cls-42{fill:#757575;}.cls-17,.cls-29,.cls-75{font-family:Arial-BoldMT, Arial;font-weight:700;}.cls-18{letter-spacing:-0.02em;}.cls-19{letter-spacing:-0.07em;}.cls-20{letter-spacing:-0.07em;}.cls-21,.cls-22,.cls-42,.cls-60{font-size:5.98px;}.cls-21,.cls-22{fill:#344c43;}.cls-21,.cls-42,.cls-60,.cls-76{font-family:ArialMT, Arial;}.cls-22{font-family:Arial-ItalicMT, Arial;font-style:italic;}.cls-23{letter-spacing:-0.07em;}.cls-24{letter-spacing:-0.02em;}.cls-25{letter-spacing:-0.07em;}.cls-26{letter-spacing:-0.02em;}.cls-27{opacity:0.8;}.cls-28{fill:#847858;}.cls-29{font-size:7.98px;}.cls-30{letter-spacing:-0.02em;}.cls-31{opacity:0.7;}.cls-32{fill:#819f5f;}.cls-33{opacity:0.6;}.cls-34{opacity:0.3;}.cls-35{fill:#e5eadb;}.cls-37{stroke:#9b9179;}.cls-38,.cls-48,.cls-49{stroke:#a5bb8d;}.cls-39,.cls-51,.cls-52,.cls-55{stroke:#b4ac9a;}.cls-40,.cls-57,.cls-67{stroke:#becdad;}.cls-41,.cls-59{stroke:#d9d5cc;}.cls-43,.cls-44{stroke:#9c9179;}.cls-45,.cls-62{opacity:0.2;}.cls-46{fill:#9c9179;}.cls-47{fill:#a5bb8d;}.cls-48,.cls-78{stroke-width:0.5px;}.cls-50{fill:#b4ac9a;}.cls-51,.cls-52,.cls-57,.cls-59{stroke-linejoin:round;}.cls-53{fill:#becdad;}.cls-54,.cls-77,.cls-78{stroke:#fff;}.cls-54{stroke-width:0.6px;}.cls-56{letter-spacing:-0.07em;}.cls-58{fill:#d9d5cc;}.cls-61{letter-spacing:-0.02em;}.cls-63{stroke:#707070;}.cls-64,.cls-65{opacity:0.15;}.cls-68{letter-spacing:-0.07em;}.cls-69{letter-spacing:0em;}.cls-70{letter-spacing:-0.02em;}.cls-71{letter-spacing:0em;}.cls-72{letter-spacing:-0.05em;}.cls-73{letter-spacing:-0.07em;}.cls-74{fill:#284c27;}.cls-75{font-size:21.94px;}.cls-76{font-size:13.96px;}.cls-77{stroke-width:2px;}.cls-79{clip-path:url(#clip-path-77);}.cls-80{mask:url(#mask);}.cls-81{fill:url(#未命名的渐变_7);}.cls-82{clip-path:url(#clip-path-78);}.cls-83{mask:url(#mask-2);}.cls-84{fill:url(#未命名的渐变_7-2);}.cls-85{clip-path:url(#clip-path-79);}.cls-86{mask:url(#mask-3);}.cls-87{fill:url(#未命名的渐变_7-3);}.cls-88{clip-path:url(#clip-path-80);}.cls-89{mask:url(#mask-4);}.cls-90{fill:url(#未命名的渐变_7-4);}.cls-91{fill:#134d2f;}.cls-92{fill:#b7b456;}.cls-93{fill:#acaa51;}.cls-94{fill:#3f5d35;}</style><linearGradient id="未命名的渐变_8" x1="-7027.92" y1="952.91" x2="-7026.92" y2="952.91" gradientTransform="translate(432530.91 -107925.35) scale(61.39 114.11)" gradientUnits="userSpaceOnUse"><stop offset="0" stop-color="#fff"/><stop offset="1" stop-color="#fff"/></linearGradient><linearGradient id="未命名的渐变_8-2" x1="-7027.95" y1="952.27" x2="-7026.95" y2="952.27" gradientTransform="translate(432638.05 -64908.14) scale(61.4 69.01)" xlink:href="#未命名的渐变_8"/><linearGradient id="未命名的渐变_8-3" x1="-7028.05" y1="952.91" x2="-7027.05" y2="952.91" gradientTransform="translate(433025.15 -107667.82) scale(61.46 113.84)" xlink:href="#未命名的渐变_8"/><linearGradient id="未命名的渐变_8-4" x1="-7028.02" y1="952.86" x2="-7027.02" y2="952.86" gradientTransform="translate(432887.86 -102530.46) scale(61.44 108.45)" xlink:href="#未命名的渐变_8"/><clipPath id="clip-path" transform="translate(-1.5 -1.39)"><rect class="cls-5" width="1190.55" height="841.89"/></clipPath><clipPath id="clip-path-3" transform="translate(-1.5 -1.39)"><rect class="cls-5" width="1190.55" height="841.89"/></clipPath><clipPath id="clip-path-4" transform="translate(-1.5 -1.39)"><rect class="cls-5" x="-32768" y="-31925.11" width="65535" height="65535"/></clipPath><clipPath id="clip-path-5" transform="translate(-1.5 -1.39)"><rect class="cls-5" x="1.5" y="1.39" width="1188.01" height="839.88"/></clipPath><clipPath id="clip-path-77" transform="translate(-1.5 -1.39)"><path class="cls-5" d="M1112.94,798.48a5.67,5.67,0,0,0-.8-1.3,2.7,2.7,0,0,0-.8-.7,4.5,4.5,0,0,0-2.79-.59,6,6,0,0,0-1.8.49,8.9,8.9,0,0,0-1.59,1,14.34,14.34,0,0,0-2,2.3,7.34,7.34,0,0,0-1,2.49,6.27,6.27,0,0,0,.1,2.79,6.35,6.35,0,0,0,.69,1.8,5.53,5.53,0,0,0,1.1,1.59,9,9,0,0,0,.9,1l1,1a11.54,11.54,0,0,1,1.8,2c.3.4.5.8.8,1.2.1.2.2.5.3.7a1.73,1.73,0,0,1-.1,1,1.23,1.23,0,0,1-.9.69,1.14,1.14,0,0,1-1.5-.49.35.35,0,0,0-.1-.2,1.86,1.86,0,0,1,.2-1.6c.3-.3.2-.6-.2-.7a4.79,4.79,0,0,0-1.19-.1,1.5,1.5,0,0,0-1.1,1.5v.4a2.65,2.65,0,0,0,2.1,2.19c.19,0,.49.1.69.1a1.7,1.7,0,0,1,.7.1V817h.6a5,5,0,0,0,2.39-.6l.9-.59a2.7,2.7,0,0,0,.7-.8,1.74,1.74,0,0,0,.3-1.4,4.87,4.87,0,0,0-.4-1.1,3.26,3.26,0,0,0-.5-.79c-.2-.2-.4-.5-.6-.7l-.79-.8-.8-.8a11.41,11.41,0,0,1-1.1-1.1,6.09,6.09,0,0,1-1-1.29,6.38,6.38,0,0,1-.8-1.4,8.11,8.11,0,0,1-.5-1.6c-.09-.39-.09-.69-.19-1.09v-1.1a9.12,9.12,0,0,1,1.79-3.89,2.73,2.73,0,0,1,1.2-.9.77.77,0,0,1,1,.1,1.27,1.27,0,0,1,.5.5,3.9,3.9,0,0,1,.79,1.7,4,4,0,0,1,.1,1.09c0,.4-.1.8-.1,1.1a8.3,8.3,0,0,1-.6,2.1,7.62,7.62,0,0,1-1.09,1.79l-.3.4c-.2.3-.2.5.2.6a.9.9,0,0,0,.5.1,2.1,2.1,0,0,0,1.79-.6,5.3,5.3,0,0,0,1-1.2,10,10,0,0,0,.7-1.49,5,5,0,0,0,.2-1.2c0-.4.1-.8.1-1.2a2.68,2.68,0,0,0-.1-.89,4.19,4.19,0,0,0-.4-1.5"/></clipPath><mask id="mask" x="1100.47" y="794.4" width="11.47" height="21.35" maskUnits="userSpaceOnUse"><g transform="translate(-1.5 -1.39)"><rect class="cls-1" x="1101.96" y="795.79" width="11.47" height="21.35"/></g></mask><linearGradient id="未命名的渐变_7" x1="-7027.92" y1="952.91" x2="-7026.92" y2="952.91" gradientTransform="translate(432529.41 -107926.73) scale(61.39 114.11)" gradientUnits="userSpaceOnUse"><stop offset="0" stop-color="#d4cd5d"/><stop offset="1" stop-color="#134d2f"/></linearGradient><clipPath id="clip-path-78" transform="translate(-1.5 -1.39)"><path class="cls-5" d="M1133.49,802.17c0-.5-.1-.9-.1-1.4s-.1-.89-.1-1.29a2.92,2.92,0,0,0-.2-.9c-.1-.3-.1-.6-.2-.9a.73.73,0,0,0-.7-.6h-.4c-.4.1-.5.3-.4.7l.1.5a4.33,4.33,0,0,0,.1.5,18.76,18.76,0,0,1,.8,5.28v1.4c0,.5-.1.9-.1,1.4-.1.9-.3,1.69-.4,2.49a23.35,23.35,0,0,1-.7,2.5,13.54,13.54,0,0,1-.8,1.69c-.1.1-.1.2-.2.3a4.38,4.38,0,0,1-.39-.7,1.69,1.69,0,0,1-.2-.7,15.48,15.48,0,0,1-.5-2.09l-.3-2.1c0-.39-.1-.79-.1-1.29s-.1-.8-.1-1.3c0-.3-.1-.5-.1-.8a2.2,2.2,0,0,0-.1-.8c0-.59-.1-1.09-.1-1.69a9.85,9.85,0,0,0-.2-1.7v-.2c0-.1,0-.2-.1-.2a1.07,1.07,0,0,0-.9-.79,1.16,1.16,0,0,0-1,.2,1.26,1.26,0,0,0-.4.79,14.24,14.24,0,0,0-.39,1.9c-.1.6-.1,1.3-.2,2v.7c0,.2-.1.5-.1.7-.2,1.1-.5,2.2-.8,3.29a29,29,0,0,1-1,3.19c-.2.5-.4,1-.6,1.4a5.73,5.73,0,0,1-.69,1.3c-.11.1-.21.3-.4.5a2,2,0,0,1-.4-.8c-.1-.2-.2-.5-.3-.7a14.38,14.38,0,0,1-.7-2.19,17.42,17.42,0,0,1-.5-2.2c-.2-1.2-.4-2.39-.5-3.59s-.2-2.39-.2-3.59c0-.8-.1-1.5-.1-2.3a17.63,17.63,0,0,0-.1-2.29v-.5c0-.2-.1-.3-.1-.5a.75.75,0,0,0-.69-.7h-.7a1,1,0,0,0-.9.7c0,.2-.1.3-.1.4a.6.6,0,0,0-.1.4,26.37,26.37,0,0,0-.7,4.79,8.55,8.55,0,0,0,0,1.6c0,.49.1,1.09.1,1.59.1,1,.2,2,.3,2.89s.4,1.9.7,2.9a10.63,10.63,0,0,0,1.89,3.79,6,6,0,0,0,1.1,1.19,3.48,3.48,0,0,0,2.4.6,1.85,1.85,0,0,0,1.49-1.19c.1-.2.1-.3.2-.4a.6.6,0,0,0,.1-.4,27.59,27.59,0,0,0,.8-2.7,27.34,27.34,0,0,1,.7-2.69.37.37,0,0,1,.1-.3c0-.1.1-.3.1-.4,0,.1.1.3.1.4a.37.37,0,0,0,.1.3,3.24,3.24,0,0,1,.2.9,3.49,3.49,0,0,0,.29.9,9.46,9.46,0,0,0,1.7,3.09,3.25,3.25,0,0,0,1.3,1,4.35,4.35,0,0,0,1.59.2,2.19,2.19,0,0,0,1.9-1.4,15.83,15.83,0,0,0,.8-2.29,17.13,17.13,0,0,0,.59-3.2c.1-1.09.2-2.09.2-3.19V804a2.62,2.62,0,0,1-.69-1.8"/></clipPath><mask id="mask-2" x="1113.84" y="794.7" width="18.85" height="20.95" maskUnits="userSpaceOnUse"><g transform="translate(-1.5 -1.39)"><rect class="cls-2" x="1115.33" y="796.08" width="18.85" height="20.95"/></g></mask><linearGradient id="未命名的渐变_7-2" x1="-7027.95" y1="952.27" x2="-7026.95" y2="952.27" gradientTransform="translate(432636.61 -64909.53) scale(61.4 69.01)" xlink:href="#未命名的渐变_7"/><clipPath id="clip-path-79" transform="translate(-1.5 -1.39)"><path class="cls-5" d="M1142,799.08a16.4,16.4,0,0,1-.19,2.09c-.1.7-.21,1.4-.3,2.1-.1.5-.1,1.09-.2,1.59a8.08,8.08,0,0,0-.1,1.6v.6c-.6.2-1.3.4-1.9.6s-1.2.49-1.79.69c-.1-.2-.2-.2-.2-.2.3-1.29.6-2.69,1-4s.9-2.59,1.4-3.89A17.61,17.61,0,0,1,1141,798c.1-.1.2-.3.3-.4a1.22,1.22,0,0,0,.29-.4s.11,0,.11-.1.1-.1.19-.1c0,.4.1.7.1,1Zm3.4,7.38a1.7,1.7,0,0,1-.7-.1v-5.79a16.35,16.35,0,0,0-.2-2.19,8.33,8.33,0,0,0-.4-1.5,1.54,1.54,0,0,0-1.2-1,2,2,0,0,0-1.09,0,1.44,1.44,0,0,0-.9.59,2.18,2.18,0,0,0-.4.5c-.1.2-.3.3-.4.5-.3.4-.5.8-.8,1.2s-.4.8-.6,1.3c-.5,1.09-.89,2.09-1.29,3.19a18.55,18.55,0,0,0-.9,3.39c-.1.4-.2.9-.3,1.3s-.2.89-.3,1.29h-.2l-.5.4c-.2.1-.3.3-.5.4s-.2.2-.2.3-.1.2-.2.3-.1.4.1.5a.31.31,0,0,1,.2.1.88.88,0,0,0,.7-.1l.2-.1a.37.37,0,0,1,.3-.1v.3c-.1.5-.1,1-.2,1.49s-.1,1-.2,1.5-.1.7-.1,1.1v1.69a.76.76,0,0,0,.2.4.37.37,0,0,0,.3.1l.2-.2V817c.1-.7.1-1.39.2-2.09l.3-2.1c.1-.5.2-1,.3-1.39s.2-.9.3-1.4a18.52,18.52,0,0,1,2-1,18,18,0,0,1,2.1-.8v.3a19.27,19.27,0,0,0,.1,2.4,21.57,21.57,0,0,0,1.09,4.79,4,4,0,0,0,.6,1.09,1.42,1.42,0,0,0,1.4.7c.4,0,.6-.2.5-.6a.6.6,0,0,0-.1-.4l-.1-.4a4.75,4.75,0,0,1-.1-1.19,6.15,6.15,0,0,0-.1-1.3,29.82,29.82,0,0,1,0-3c0-1,.1-2,.1-3v-.4c.3,0,.5-.1.7-.1l.3-.1c.1,0,.2-.1.29-.1a.1.1,0,0,0,.1-.1l.1-.1a1.06,1.06,0,0,0-.69-.3"/></clipPath><mask id="mask-3" x="1132.69" y="794.4" width="11.87" height="21.85" maskUnits="userSpaceOnUse"><g transform="translate(-1.5 -1.39)"><rect class="cls-3" x="1134.18" y="795.79" width="11.87" height="21.84"/></g></mask><linearGradient id="未命名的渐变_7-3" x1="-7028.05" y1="952.91" x2="-7027.05" y2="952.91" gradientTransform="translate(433023.68 -107669.21) scale(61.46 113.84)" xlink:href="#未命名的渐变_7"/><clipPath id="clip-path-80" transform="translate(-1.5 -1.39)"><path class="cls-5" d="M1159.52,799.68c0-.4-.1-.8-.1-1.2a5,5,0,0,0-.2-1.2.6.6,0,0,0-.1-.4c0-.1-.1-.3-.1-.4a1.2,1.2,0,0,0-1.49-.79h-.1c-.3.1-.5.3-.5.49s-.1.3-.1.4l-.1.4c0,.4-.1.8-.1,1.3l-.1,1.2v.4a.73.73,0,0,1-.1.39,44.75,44.75,0,0,1-1.8,5.19,10,10,0,0,1-1.49,2.4l-.4.39a2.19,2.19,0,0,1-.5.3,1.38,1.38,0,0,1-.3-.4c-.1-.1-.1-.29-.2-.39a8.8,8.8,0,0,1-.5-1.5l-.3-1.5a16.06,16.06,0,0,1-.1-2.19v-5.89a.37.37,0,0,0-.1-.3.62.62,0,0,0-.5-.59,2.81,2.81,0,0,0-1.29,0,1.94,1.94,0,0,0-.9.89,2,2,0,0,0-.3,1.1,11.51,11.51,0,0,0-.3,2.59v2.2a7.65,7.65,0,0,0,.4,2.09c.2.5.3,1,.5,1.4a9.14,9.14,0,0,0,.7,1.4,11.55,11.55,0,0,0,1,1.19,2.18,2.18,0,0,0,.8.5,3,3,0,0,0,1,.2,1.8,1.8,0,0,0,1-.2,2.26,2.26,0,0,0,.89-.6,14.22,14.22,0,0,0,1.1-1.49,10.09,10.09,0,0,0,.7-1.5c.2-.5.4-1,.6-1.59a.76.76,0,0,1,.2-.4c.1-.1.1-.3.2-.5h.1v2.29a14.77,14.77,0,0,1-.1,2.1c-.1,1.09-.3,2.29-.5,3.39a5.64,5.64,0,0,1-1.3,2.69,5,5,0,0,1-1.19,1.3,10.93,10.93,0,0,1-1.5.8.45.45,0,0,1-.5,0c-.1-.1-.3-.2-.4-.3s-.3-.4-.3-.6-.1-.4-.2-.6v-.4a.43.43,0,0,0-.4-.4,1.46,1.46,0,0,0-1.29,0c-.2.1-.3.2-.3.4a3.65,3.65,0,0,0,.3,1.5,2,2,0,0,0,1.09,1.09,4.54,4.54,0,0,0,2.8.3,8.43,8.43,0,0,0,4-2,8.53,8.53,0,0,0,2.19-3.89,13.54,13.54,0,0,0,.5-2.89,28.1,28.1,0,0,0,.1-2.9v-2.59c0-.8-.1-1.8-.1-2.69"/></clipPath><mask id="mask-4" x="1145.96" y="794.1" width="12.17" height="21.35" maskUnits="userSpaceOnUse"><g transform="translate(-1.5 -1.39)"><rect class="cls-4" x="1147.45" y="795.49" width="12.17" height="21.35"/></g></mask><linearGradient id="未命名的渐变_7-4" x1="-7028.02" y1="952.86" x2="-7027.02" y2="952.86" gradientTransform="translate(432886.37 -102531.84) scale(61.44 108.45)" xlink:href="#未命名的渐变_7"/></defs><g id="图层_2" data-name="图层 2"><g id="图层_1-2" data-name="图层 1"><g class="cls-6"><g class="cls-6"><g class="cls-7"><g class="cls-8"><g class="cls-9"><g class="cls-10"><g class="cls-9"><g class="cls-9"><rect class="cls-11" width="1188.01" height="839.88"/><g class="cls-12"><g class="cls-9"><rect class="cls-13" x="401.99" y="102.74" width="400.99" height="687.27"/></g></g><g class="cls-12"><g class="cls-9"><rect class="cls-13" x="48.88" y="102.74" width="90.77" height="687.27"/></g></g><line class="cls-14" x1="173.56" y1="287.28" x2="173.56" y2="358.1"/><line class="cls-14" x1="93.76" y1="301.24" x2="93.76" y2="358.1"/><line class="cls-14" x1="93.76" y1="413.96" x2="93.76" y2="452.86"/><line class="cls-14" x1="93.76" y1="653.35" x2="93.76" y2="682.28"/><line class="cls-14" x1="238.4" y1="567.57" x2="238.4" y2="684.28"/><line class="cls-14" x1="369.07" y1="509.72" x2="369.07" y2="684.28"/><line class="cls-14" x1="443.88" y1="509.72" x2="443.88" y2="684.28"/><line class="cls-14" x1="703.23" y1="509.72" x2="703.23" y2="685.27"/><line class="cls-14" x1="768.07" y1="574.55" x2="768.07" y2="685.27"/><line class="cls-14" x1="842.88" y1="509.72" x2="842.88" y2="685.27"/><line class="cls-14" x1="1054.34" y1="556.1" x2="1054.34" y2="687.37"/><rect class="cls-11" x="29.92" y="253.36" width="18.95" height="94.76"/><rect class="cls-11" x="29.92" y="348.12" width="18.95" height="75.81"/><rect class="cls-11" x="29.92" y="423.93" width="18.95" height="240.39"/><rect class="cls-11" x="29.92" y="662.33" width="18.95" height="127.68"/><rect class="cls-11" x="29.92" y="192.52" width="18.95" height="60.85"/><rect class="cls-11" x="29.92" y="102.74" width="18.95" height="89.77"/><g class="cls-12"><g class="cls-9"><rect class="cls-13" x="1092.25" y="102.74" width="65.83" height="687.27"/></g></g><g class="cls-15"><g class="cls-9"><line class="cls-16" x1="49.18" y1="669.31" x2="1158.08" y2="669.31"/></g></g><g class="cls-15"><g class="cls-9"><line class="cls-16" x1="49.18" y1="790.01" x2="1158.08" y2="790.01"/></g></g><line class="cls-14" x1="93.76" y1="256.35" x2="93.76" y2="275.31"/><line class="cls-14" x1="173.56" y1="256.35" x2="173.56" y2="275.31"/><line class="cls-14" x1="238.4" y1="256.35" x2="238.4" y2="275.31"/><line class="cls-14" x1="303.24" y1="256.35" x2="303.24" y2="275.31"/><line class="cls-14" x1="368.07" y1="256.35" x2="368.07" y2="275.31"/><line class="cls-14" x1="444.88" y1="256.35" x2="444.88" y2="275.31"/><line class="cls-14" x1="509.72" y1="256.35" x2="509.72" y2="275.31"/><line class="cls-14" x1="574.55" y1="256.35" x2="574.55" y2="275.31"/><line class="cls-14" x1="638.39" y1="256.35" x2="638.39" y2="275.31"/><line class="cls-14" x1="703.23" y1="256.35" x2="703.23" y2="275.31"/><line class="cls-14" x1="842.88" y1="256.35" x2="842.88" y2="275.31"/><line class="cls-14" x1="768.07" y1="256.35" x2="768.07" y2="275.31"/><line class="cls-14" x1="913.7" y1="256.35" x2="913.7" y2="275.31"/><line class="cls-14" x1="983.52" y1="256.35" x2="983.52" y2="275.31"/><line class="cls-14" x1="1054.34" y1="256.45" x2="1054.34" y2="275.41"/><line class="cls-14" x1="1054.34" y1="304.33" x2="1054.34" y2="358.2"/><line class="cls-14" x1="983.52" y1="318.2" x2="983.52" y2="358.1"/><line class="cls-14" x1="913.7" y1="304.23" x2="913.7" y2="358.1"/><line class="cls-14" x1="842.88" y1="318.2" x2="842.88" y2="358.1"/><line class="cls-14" x1="768.07" y1="318.2" x2="768.07" y2="358.1"/><line class="cls-14" x1="703.23" y1="330.17" x2="703.23" y2="358.1"/><line class="cls-14" x1="638.39" y1="284.28" x2="638.39" y2="358.1"/><line class="cls-14" x1="574.55" y1="284.28" x2="574.55" y2="358.1"/><line class="cls-14" x1="509.72" y1="315.21" x2="509.72" y2="358.1"/><line class="cls-14" x1="444.88" y1="287.28" x2="443.88" y2="358.1"/><line class="cls-14" x1="443.88" y1="413.96" x2="443.88" y2="452.86"/><line class="cls-14" x1="638.39" y1="413.96" x2="638.39" y2="452.86"/><line class="cls-14" x1="703.23" y1="413.96" x2="703.23" y2="452.86"/><line class="cls-14" x1="768.07" y1="413.96" x2="768.07" y2="452.86"/><line class="cls-14" x1="842.88" y1="413.96" x2="842.88" y2="452.86"/><line class="cls-14" x1="913.7" y1="413.96" x2="913.7" y2="452.86"/><line class="cls-14" x1="1054.34" y1="416.05" x2="1054.34" y2="454.95"/><line class="cls-14" x1="368.07" y1="287.28" x2="369.07" y2="452.86"/><line class="cls-14" x1="303.24" y1="287.28" x2="303.24" y2="358.1"/><text class="cls-17" transform="translate(41.9 328.17) rotate(-90)"><tspan class="cls-18">T</tspan><tspan x="4.14" y="0">OUCHPOINTS</tspan></text><text class="cls-17" transform="translate(41.89 412.96) rotate(-90)">FRONTS<tspan class="cls-19" x="28.7" y="0">T</tspan><tspan x="32.45" y="0">AGE</tspan></text><text class="cls-17" transform="translate(41.9 583.53) rotate(-90)">BACKS<tspan class="cls-20" x="24.83" y="0">T</tspan><tspan x="28.58" y="0">AGE</tspan></text><text class="cls-17" transform="translate(41.9 769.06) rotate(-90)">SUPPORT PROCESSES</text><text class="cls-17" transform="translate(40.9 165.59) rotate(-90)">ACTIONS</text><text class="cls-21" transform="translate(69.82 157.6)">Notice the knitting </text><text class="cls-21" transform="translate(69.82 165.58)">donation workshop </text><text class="cls-21" transform="translate(69.82 173.56)">on social media.</text><text class="cls-21" transform="translate(354.11 157.6)">Fills out </text><text class="cls-21" transform="translate(354.11 165.57)">participation </text><text class="cls-21" transform="translate(354.11 173.55)">form and </text><text class="cls-21" transform="translate(354.11 181.53)">pay for it.</text><text class="cls-21" transform="translate(421.93 157.59)">Receive email </text><text class="cls-21" transform="translate(421.93 165.57)">about successful </text><text class="cls-21" transform="translate(421.93 173.55)">application</text><text class="cls-22" transform="translate(453.84 173.55)">.</text><text class="cls-21" transform="translate(490.76 157.59)">Attend workshop </text><text class="cls-21" transform="translate(490.76 165.56)">and knit under </text><text class="cls-21" transform="translate(490.76 173.54)">the guidance of </text><text class="cls-21" transform="translate(490.76 181.52)">the elderl<tspan class="cls-23" x="24.62" y="0">y</tspan><tspan x="27.18" y="0">.</tspan></text><text class="cls-21" transform="translate(151.61 157.58)"><tspan class="cls-24">V</tspan><tspan x="3.88" y="0">isit the website </tspan></text><text class="cls-21" transform="translate(151.61 165.56)">to learn more </text><text class="cls-21" transform="translate(151.61 173.53)">about the activit<tspan class="cls-25" x="41.92" y="0">y</tspan><tspan x="44.48" y="0">.</tspan></text><text class="cls-21" transform="translate(216.45 157.57)">Read the </text><text class="cls-21" transform="translate(216.45 165.55)">handmade stories </text><text class="cls-21" transform="translate(216.45 173.53)">of elderly people</text><text class="cls-22" transform="translate(265.45 173.53)">.</text><text class="cls-21" transform="translate(280.28 157.57)">Collects resuable </text><text class="cls-21" transform="translate(280.28 165.55)">materials to get </text><text class="cls-21" transform="translate(280.28 173.52)">discount for </text><text class="cls-21" transform="translate(280.28 181.5)">workshop.</text><text class="cls-21" transform="translate(748.1 157.56)">Receive email </text><text class="cls-21" transform="translate(748.1 165.54)">about information </text><text class="cls-21" transform="translate(748.1 173.52)">of donation and a </text><text class="cls-21" transform="translate(748.1 181.49)">certification.</text><text class="cls-21" transform="translate(618.43 157.55)">Finish </text><text class="cls-21" transform="translate(618.43 165.53)">workshop, take </text><text class="cls-21" transform="translate(618.43 173.51)">photos together </text><text class="cls-21" transform="translate(618.43 181.49)">as memorial.</text><text class="cls-21" transform="translate(555.59 157.55)">Cooperate </text><text class="cls-21" transform="translate(555.59 165.53)">communicate </text><text class="cls-21" transform="translate(555.59 173.5)">with other </text><text class="cls-21" transform="translate(555.59 181.48)">participants.</text><text class="cls-21" transform="translate(682.27 157.54)">Pay for the rest </text><text class="cls-21" transform="translate(682.27 165.52)">fee and donate </text><text class="cls-21" transform="translate(682.27 173.5)">the handcraft.</text><text class="cls-21" transform="translate(820.92 157.54)">Experience </text><text class="cls-21" transform="translate(820.92 165.51)">di<tspan class="cls-26" x="4.66" y="0">f</tspan><tspan x="6.22" y="0">ferent kinds of </tspan></text><text class="cls-21" transform="translate(820.92 173.49)">handcraft as the </text><text class="cls-21" transform="translate(820.92 181.47)">activity expand.</text><text class="cls-21" transform="translate(893.74 157.53)">Be invited and </text><text class="cls-21" transform="translate(893.74 165.51)">join the activity </text><text class="cls-21" transform="translate(893.74 173.49)">as leader of </text><text class="cls-21" transform="translate(893.74 181.46)">workshop.</text><text class="cls-21" transform="translate(948.61 157.52)">Experience workshops </text><text class="cls-21" transform="translate(948.61 165.5)">in other city during </text><text class="cls-21" transform="translate(948.61 173.48)">traveling as the activity </text><text class="cls-21" transform="translate(948.61 181.46)">get further expansion.</text><text class="cls-21" transform="translate(1026.41 157.52)">Join the handcraft </text><text class="cls-21" transform="translate(1026.41 165.5)">exhibition in the </text><text class="cls-21" transform="translate(1026.41 173.47)">universit<tspan class="cls-23" x="22.29" y="0">y</tspan><tspan x="24.84" y="0">.</tspan></text><g class="cls-27"><g class="cls-9"><polygon class="cls-28" points="48.88 82.79 129.37 82.79 139.45 92.77 129.37 102.74 48.88 102.74 48.88 82.79"/></g></g><text class="cls-29" transform="translate(86.05 94.76)"><tspan class="cls-30">A</tspan><tspan x="5.62" y="0">ware</tspan></text><g class="cls-31"><g class="cls-9"><polygon class="cls-32" points="139.65 82.79 391.71 82.79 401.69 92.77 391.71 102.74 139.65 102.74 149.62 92.77 139.65 82.79"/></g></g><text class="cls-29" transform="translate(266.51 94.76)">Join</text><g class="cls-33"><g class="cls-9"><polygon class="cls-28" points="401.99 82.79 802.58 82.79 812.55 92.77 802.58 102.74 401.99 102.74 411.96 92.77 401.99 82.79"/></g></g><text class="cls-29" transform="translate(599.75 94.76)">Use</text><g class="cls-15"><g class="cls-9"><polygon class="cls-32" points="812.95 82.79 1081.78 82.79 1091.75 92.77 1081.78 102.74 812.95 102.74 822.93 92.77 812.95 82.79"/></g></g><text class="cls-29" transform="translate(935.88 94.76)">Develop</text><g class="cls-34"><g class="cls-9"><polygon class="cls-28" points="1092.25 82.79 1148.71 82.79 1158.68 92.77 1148.71 102.74 1092.25 102.74 1102.22 92.77 1092.25 82.79"/></g></g><text class="cls-29" transform="translate(1113.05 94.76)">Leave</text><text class="cls-17" transform="translate(41.89 237.4) rotate(-90)">FEELINGS</text><path class="cls-35" d="M50.37,248s25.24-9,45.19-8.68c27.83.4,51.47,0,80.1,0,22.84,0,38.9-8,65.53-8.38,21.55-.4,45.19-3.09,63.54-3.09,15.76.2,36.91,6.78,63.24,7.58s51.67.3,77.91-4.49,35.21-9.48,67.13-8.18S557.7,218,574.15,216s31.72,1,56.56,3.09,58.16,5.19,77.21,6.68,37.6-6.88,66.23-6.68,39.5,3.49,67.23,6.68c25.64,3,23.54,1.7,58.35.2s43.39-14.36,72.62-11.47,33.82,11.37,65.63,14.26,121.6,6.59,121.6,6.59V254H50.37Z" transform="translate(-1.5 -1.39)"/><line class="cls-36" x1="48.83" y1="253.01" x2="1157.74" y2="253.01"/><path class="cls-11" d="M95.26,249.91a4,4,0,1,1-4,4,4,4,0,0,1,4-4" transform="translate(-1.5 -1.39)"/><circle class="cls-37" cx="95.26" cy="253.9" r="3.49" transform="matrix(0.03, -1, 1, 0.03, -163.16, 339.27)"/><path class="cls-11" d="M175.06,249.91a4,4,0,1,1-4,4,4,4,0,0,1,4-4" transform="translate(-1.5 -1.39)"/><circle class="cls-38" cx="175.06" cy="253.9" r="3.49" transform="translate(-92.1 409.13) rotate(-85.93)"/><path class="cls-11" d="M239.9,249.91a4,4,0,1,1-4,4,4,4,0,0,1,4-4" transform="translate(-1.5 -1.39)"/><circle class="cls-38" cx="239.9" cy="253.9" r="3.49" transform="translate(-31.86 473.8) rotate(-85.93)"/><path class="cls-11" d="M304.73,249.91a4,4,0,1,1-4,4,4,4,0,0,1,4-4" transform="translate(-1.5 -1.39)"/><circle class="cls-38" cx="304.73" cy="253.9" r="3.49" transform="translate(3.81 512.64) rotate(-80.78)"/><path class="cls-11" d="M369.57,249.91a4,4,0,1,1-4,4,4,4,0,0,1,4-4" transform="translate(-1.5 -1.39)"/><circle class="cls-38" cx="369.57" cy="253.9" r="3.49" transform="translate(58.26 576.64) rotate(-80.78)"/><path class="cls-11" d="M446.38,249.91a4,4,0,1,1-4,4,4,4,0,0,1,4-4" transform="translate(-1.5 -1.39)"/><circle class="cls-39" cx="446.38" cy="253.9" r="3.49" transform="translate(122.76 652.45) rotate(-80.78)"/><path class="cls-11" d="M511.21,249.91a4,4,0,1,1-4,4,4,4,0,0,1,4-4" transform="translate(-1.5 -1.39)"/><circle class="cls-39" cx="511.21" cy="253.9" r="3.49" transform="translate(177.21 716.45) rotate(-80.78)"/><path class="cls-11" d="M576.05,249.91a4,4,0,1,1-4,4,4,4,0,0,1,4-4" transform="translate(-1.5 -1.39)"/><path class="cls-39" d="M576.05,250.41a3.49,3.49,0,1,1-3.49,3.49A3.49,3.49,0,0,1,576.05,250.41Z" transform="translate(-1.5 -1.39)"/><path class="cls-11" d="M639.89,249.91a4,4,0,1,1-4,4,4,4,0,0,1,4-4" transform="translate(-1.5 -1.39)"/><path class="cls-39" d="M639.89,250.41a3.49,3.49,0,1,1-3.49,3.49A3.49,3.49,0,0,1,639.89,250.41Z" transform="translate(-1.5 -1.39)"/><path class="cls-11" d="M704.72,249.91a4,4,0,1,1-4,4,4,4,0,0,1,4-4" transform="translate(-1.5 -1.39)"/><path class="cls-39" d="M704.72,250.41a3.49,3.49,0,1,1-3.49,3.49A3.5,3.5,0,0,1,704.72,250.41Z" transform="translate(-1.5 -1.39)"/><path class="cls-11" d="M769.56,249.91a4,4,0,1,1-4,4,4,4,0,0,1,4-4" transform="translate(-1.5 -1.39)"/><path class="cls-39" d="M769.56,250.41a3.49,3.49,0,1,1-3.49,3.49A3.49,3.49,0,0,1,769.56,250.41Z" transform="translate(-1.5 -1.39)"/><path class="cls-11" d="M844.37,249.91a4,4,0,1,1-4,4,4,4,0,0,1,4-4" transform="translate(-1.5 -1.39)"/><path class="cls-40" d="M844.37,250.41a3.49,3.49,0,1,1-3.49,3.49A3.49,3.49,0,0,1,844.37,250.41Z" transform="translate(-1.5 -1.39)"/><path class="cls-11" d="M915.19,249.91a4,4,0,1,1-4,4,4,4,0,0,1,4-4" transform="translate(-1.5 -1.39)"/><path class="cls-40" d="M915.19,250.41a3.49,3.49,0,1,1-3.49,3.49A3.5,3.5,0,0,1,915.19,250.41Z" transform="translate(-1.5 -1.39)"/><path class="cls-11" d="M985,249.91a4,4,0,1,1-4,4,4,4,0,0,1,4-4" transform="translate(-1.5 -1.39)"/><path class="cls-40" d="M985,250.41a3.49,3.49,0,1,1-3.49,3.49A3.49,3.49,0,0,1,985,250.41Z" transform="translate(-1.5 -1.39)"/><path class="cls-11" d="M1055.84,249.91a4,4,0,1,1-4,4,4,4,0,0,1,4-4" transform="translate(-1.5 -1.39)"/><path class="cls-40" d="M1055.84,250.41a3.49,3.49,0,1,1-3.49,3.49A3.49,3.49,0,0,1,1055.84,250.41Z" transform="translate(-1.5 -1.39)"/><path class="cls-11" d="M1126.66,249.91a4,4,0,1,1-4,4,4,4,0,0,1,4-4" transform="translate(-1.5 -1.39)"/><path class="cls-41" d="M1126.66,250.41a3.49,3.49,0,1,1-3.49,3.49A3.49,3.49,0,0,1,1126.66,250.41Z" transform="translate(-1.5 -1.39)"/><text class="cls-42" transform="translate(162.27 245.38)">Intrigued</text><text class="cls-42" transform="translate(537.09 234.16)">Interesting</text><text class="cls-42" transform="translate(519.95 216.72)">Challenging</text><text class="cls-42" transform="translate(51.65 235.51)">Boring</text><text class="cls-42" transform="translate(692.25 234.16)">Surprising</text><text class="cls-42" transform="translate(294.77 245.49)">Happy</text><text class="cls-42" transform="translate(222.23 237.4)">Be touched,</text><text class="cls-42" transform="translate(222.23 245.38)">feel special</text><text class="cls-42" transform="translate(358.33 245.49)"><tspan class="cls-24">W</tspan><tspan x="5.54" y="0">orthy</tspan></text><text class="cls-42" transform="translate(563.02 245.49)">Fulfilling</text><text class="cls-42" transform="translate(969.82 245.49)">Impressed</text><text class="cls-42" transform="translate(501.08 245.49)">Happy</text><text class="cls-42" transform="translate(629.94 245.49)">Happy</text><text class="cls-42" transform="translate(655.87 234.16)">Satisfied</text><text class="cls-42" transform="translate(760.07 245.49)">Proud</text><text class="cls-42" transform="translate(262.34 234.41)">Appealing</text><text class="cls-42" transform="translate(1034.85 245.49)">Proud</text><text class="cls-42" transform="translate(831.74 245.49)">Pleased</text><text class="cls-42" transform="translate(428.98 245.49)">Anticipating</text><text class="cls-42" transform="translate(899.44 245.49)">Respected</text><text class="cls-42" transform="translate(874.34 234.52)">Thankful</text><text class="cls-42" transform="translate(694.24 245.49)">Fulfilling</text><text class="cls-42" transform="translate(83.26 245.38)">Curious</text><text class="cls-42" transform="translate(1029.04 234.52)">Surprised</text><text class="cls-42" transform="translate(952.24 234.52)">Surprised</text><line class="cls-36" x1="48.88" y1="128.18" x2="1158.08" y2="128.18"/><path class="cls-11" d="M95.26,114.1a15,15,0,1,1-15,15,15,15,0,0,1,15-15" transform="translate(-1.5 -1.39)"/><path class="cls-43" d="M95.26,114.6A14.47,14.47,0,1,1,80.8,129.07,14.46,14.46,0,0,1,95.26,114.6Z" transform="translate(-1.5 -1.39)"/><line class="cls-44" x1="85.03" y1="121.27" x2="89.82" y2="121.27"/><line class="cls-44" x1="85.03" y1="126.05" x2="87.42" y2="126.05"/><line class="cls-44" x1="85.03" y1="130.84" x2="88.62" y2="130.84"/><circle class="cls-43" cx="95.21" cy="126.65" r="5.49"/><line class="cls-44" x1="99.39" y1="130.84" x2="102.98" y2="134.43"/><g class="cls-45"><g class="cls-9"><path class="cls-46" d="M101.19,136.12a4.69,4.69,0,1,1,4.69-4.69,4.76,4.76,0,0,1-4.69,4.69" transform="translate(-1.5 -1.39)"/></g></g><path class="cls-46" d="M94.11,130.93a.55.55,0,0,1-.5-.3,5,5,0,0,1,.5-5.38.59.59,0,0,1,.79-.1.52.52,0,0,1,.1.79,3.67,3.67,0,0,0-.69,1.4,4.13,4.13,0,0,0,.3,2.69.55.55,0,0,1-.2.8.37.37,0,0,1-.3.1" transform="translate(-1.5 -1.39)"/><path class="cls-46" d="M95.4,124.45a.67.67,0,0,0,.7.6.6.6,0,0,0,0-1.2.56.56,0,0,0-.7.6" transform="translate(-1.5 -1.39)"/><path class="cls-11" d="M175.06,114.1a15,15,0,1,1-15,15,15,15,0,0,1,15-15" transform="translate(-1.5 -1.39)"/><path class="cls-38" d="M175.06,114.6a14.47,14.47,0,1,1-14.46,14.47A14.46,14.46,0,0,1,175.06,114.6Z" transform="translate(-1.5 -1.39)"/><path class="cls-47" d="M174.28,125.07a4.29,4.29,0,1,0,4.29,4.29,4.26,4.26,0,0,0-4.29-4.29m0,9.58a5.29,5.29,0,1,1,5.29-5.29,5.32,5.32,0,0,1-5.29,5.29" transform="translate(-1.5 -1.39)"/><path class="cls-47" d="M174.28,134.55a.76.76,0,0,1-.4-.2,7,7,0,0,1-2.19-5.39,7.21,7.21,0,0,1,2.29-4.58.44.44,0,0,1,.5-.1c.2.1.3.2.3.4a.76.76,0,0,1-.2.49,5.43,5.43,0,0,0-1.9,3.79,6.31,6.31,0,0,0,2,4.69.48.48,0,0,1,0,.7.76.76,0,0,1-.4.2" transform="translate(-1.5 -1.39)"/><path class="cls-47" d="M174.28,134.55a.37.37,0,0,1-.3-.1.48.48,0,0,1,0-.7,6.47,6.47,0,0,0,2-4.69,7,7,0,0,0-2-4,.73.73,0,0,1-.2-.39c0-.2.2-.3.3-.4a.44.44,0,0,1,.5.1A6.88,6.88,0,0,1,177,129a7.6,7.6,0,0,1-2.29,5.49c-.1,0-.2.1-.4.1" transform="translate(-1.5 -1.39)"/><path class="cls-47" d="M178.27,132.26h-.2a8.22,8.22,0,0,0-7.48,0,.57.57,0,0,1-.7-.2c-.1-.3-.1-.6.2-.7a8.89,8.89,0,0,1,8.38,0,.48.48,0,0,1,.2.6c-.1.2-.2.3-.4.3m-4.09-4.19a8.29,8.29,0,0,1-4.09-1,.4.4,0,0,1-.2-.6.43.43,0,0,1,.7-.2,8.22,8.22,0,0,0,7.48,0,.5.5,0,0,1,.4.9,10.31,10.31,0,0,1-4.29.9" transform="translate(-1.5 -1.39)"/><rect class="cls-38" x="164.09" y="120.2" width="18.95" height="14.96" rx="1.5"/><path class="cls-11" d="M182.54,123.08a.5.5,0,0,1,.5.5.5.5,0,0,1-.5.5.51.51,0,0,1-.5-.5.5.5,0,0,1,.5-.5" transform="translate(-1.5 -1.39)"/><path class="cls-38" d="M182.54,123.58Z" transform="translate(-1.5 -1.39)"/><path class="cls-11" d="M178.55,123.08a.5.5,0,0,1,.5.5.5.5,0,0,1-.5.5.51.51,0,0,1-.5-.5.5.5,0,0,1,.5-.5" transform="translate(-1.5 -1.39)"/><path class="cls-38" d="M178.55,123.58Z" transform="translate(-1.5 -1.39)"/><path class="cls-11" d="M180.55,123.08a.49.49,0,0,1,.49.5.5.5,0,1,1-.49-.5" transform="translate(-1.5 -1.39)"/><path class="cls-38" d="M180.55,123.58Z" transform="translate(-1.5 -1.39)"/><g class="cls-45"><g class="cls-9"><path class="cls-47" d="M177.48,134.93a5.09,5.09,0,1,1,5.09-5.09,5.12,5.12,0,0,1-5.09,5.09" transform="translate(-1.5 -1.39)"/></g></g><path class="cls-11" d="M239.9,114.1a15,15,0,1,1-15,15,15,15,0,0,1,15-15" transform="translate(-1.5 -1.39)"/><path class="cls-38" d="M239.9,114.6a14.47,14.47,0,1,1-14.47,14.47A14.47,14.47,0,0,1,239.9,114.6Z" transform="translate(-1.5 -1.39)"/><path class="cls-47" d="M239.62,121.45a7.37,7.37,0,0,0-3.89.2c-.1.1-.2.2-.1.4s.2.2.3.2a7.35,7.35,0,0,1,3.59-.3c.2,0,.3-.1.3-.2s0-.3-.2-.3" transform="translate(-1.5 -1.39)"/><path class="cls-48" d="M239.62,121.45a7.37,7.37,0,0,0-3.89.2c-.1.1-.2.2-.1.4s.2.2.3.2a7.35,7.35,0,0,1,3.59-.3c.2,0,.3-.1.3-.2S239.82,121.45,239.62,121.45Z" transform="translate(-1.5 -1.39)"/><path class="cls-47" d="M239.32,135.12a6.47,6.47,0,0,1-6.48-6.48,6.59,6.59,0,0,1,1.89-4.59,13.8,13.8,0,0,0,4.59.7,17.51,17.51,0,0,0,4.59-.6,6.47,6.47,0,0,1-.1,9.17,6.69,6.69,0,0,1-4.49,1.8M233,122.25c0-.4.59-.9,1.69-1.3a17.69,17.69,0,0,1,9.08,0c1.1.4,1.69.8,1.69,1.3s-.59.9-1.69,1.3a13.89,13.89,0,0,1-4.49.6,16.77,16.77,0,0,1-4.49-.6c-1.1-.4-1.79-.9-1.79-1.3m11.47,1.6c1.29-.5,1.59-1.2,1.59-1.6s-.4-1.2-2.09-1.79a16.63,16.63,0,0,0-9.38,0c-1.79.49-2.09,1.29-2.09,1.79s.3,1.1,1.59,1.6a7.08,7.08,0,1,0,10.38,0" transform="translate(-1.5 -1.39)"/><path class="cls-48" d="M239.32,135.12a6.47,6.47,0,0,1-6.48-6.48,6.59,6.59,0,0,1,1.89-4.59,13.8,13.8,0,0,0,4.59.7,17.51,17.51,0,0,0,4.59-.6,6.47,6.47,0,0,1-.1,9.17A6.69,6.69,0,0,1,239.32,135.12ZM233,122.25c0-.4.59-.9,1.69-1.3a17.69,17.69,0,0,1,9.08,0c1.1.4,1.69.8,1.69,1.3s-.59.9-1.69,1.3a13.89,13.89,0,0,1-4.49.6,16.77,16.77,0,0,1-4.49-.6C233.73,123.15,233,122.65,233,122.25Zm11.47,1.6c1.29-.5,1.59-1.2,1.59-1.6s-.4-1.2-2.09-1.79a16.63,16.63,0,0,0-9.38,0c-1.79.49-2.09,1.29-2.09,1.79s.3,1.1,1.59,1.6a7.08,7.08,0,1,0,10.38,0Z" transform="translate(-1.5 -1.39)"/><path class="cls-47" d="M242.21,131.13c-.1-.1-.3,0-.4.1a1.54,1.54,0,0,1-1.29.8,1.56,1.56,0,0,1-1.3-.8c-.1-.1-.3-.2-.4-.1s-.2.2-.1.4a2.1,2.1,0,0,0,1.8,1,2.22,2.22,0,0,0,1.79-1c.1-.2,0-.3-.1-.4m.6-5.19a1.16,1.16,0,0,0-1.2,1.2.3.3,0,1,0,.6,0,.58.58,0,0,1,.6-.6.65.65,0,0,1,.6.6.27.27,0,0,0,.3.3.32.32,0,0,0,.3-.3,1.22,1.22,0,0,0-1.2-1.2m-4.69,0a1.15,1.15,0,0,0-1.19,1.2.27.27,0,0,0,.3.3.32.32,0,0,0,.3-.3.57.57,0,0,1,.59-.6.58.58,0,0,1,.6.6.27.27,0,0,0,.3.3.32.32,0,0,0,.3-.3,1.22,1.22,0,0,0-1.2-1.2" transform="translate(-1.5 -1.39)"/><path class="cls-48" d="M242.21,131.13c-.1-.1-.3,0-.4.1a1.54,1.54,0,0,1-1.29.8,1.56,1.56,0,0,1-1.3-.8c-.1-.1-.3-.2-.4-.1s-.2.2-.1.4a2.1,2.1,0,0,0,1.8,1,2.22,2.22,0,0,0,1.79-1C242.41,131.33,242.31,131.23,242.21,131.13Zm.6-5.19a1.16,1.16,0,0,0-1.2,1.2.3.3,0,1,0,.6,0,.58.58,0,0,1,.6-.6.65.65,0,0,1,.6.6.27.27,0,0,0,.3.3.32.32,0,0,0,.3-.3A1.22,1.22,0,0,0,242.81,125.94Zm-4.69,0a1.15,1.15,0,0,0-1.19,1.2.27.27,0,0,0,.3.3.32.32,0,0,0,.3-.3.57.57,0,0,1,.59-.6.58.58,0,0,1,.6.6.27.27,0,0,0,.3.3.32.32,0,0,0,.3-.3A1.22,1.22,0,0,0,238.12,125.94Z" transform="translate(-1.5 -1.39)"/><path class="cls-47" d="M241.51,121.75a.3.3,0,0,0,.6,0c0-.2-.2-.3-.4-.3s-.2.2-.2.3" transform="translate(-1.5 -1.39)"/><path class="cls-48" d="M241.51,121.75a.3.3,0,0,0,.6,0c0-.2-.2-.3-.4-.3S241.51,121.65,241.51,121.75Z" transform="translate(-1.5 -1.39)"/><g class="cls-45"><g class="cls-9"><path class="cls-47" d="M243.09,138.14a6.49,6.49,0,1,1,6.48-6.48,6.47,6.47,0,0,1-6.48,6.48" transform="translate(-1.5 -1.39)"/></g></g><path class="cls-11" d="M369.57,114.1a15,15,0,1,1-15,15,15,15,0,0,1,15-15" transform="translate(-1.5 -1.39)"/><path class="cls-38" d="M369.57,114.6a14.47,14.47,0,1,1-14.46,14.47A14.46,14.46,0,0,1,369.57,114.6Z" transform="translate(-1.5 -1.39)"/><path class="cls-47" d="M373.17,124a.48.48,0,0,1,0,.7l-4,3.59-1.6.69.8-1.39,4-3.59a.6.6,0,0,1,.8,0" transform="translate(-1.5 -1.39)"/><rect class="cls-38" x="361.8" y="120.7" width="11.97" height="13.97" rx="1.5"/><line class="cls-49" x1="364.09" y1="131.27" x2="369.08" y2="131.27"/><line class="cls-49" x1="364.09" y1="128.78" x2="367.08" y2="128.78"/><g class="cls-45"><g class="cls-9"><path class="cls-47" d="M372.47,136.25a6.89,6.89,0,1,1,6.88-6.89,6.9,6.9,0,0,1-6.88,6.89" transform="translate(-1.5 -1.39)"/></g></g><path class="cls-11" d="M639.89,114.1a15,15,0,1,1-15,15,15,15,0,0,1,15-15" transform="translate(-1.5 -1.39)"/><path class="cls-39" d="M639.89,114.6a14.47,14.47,0,1,1-14.47,14.47A14.46,14.46,0,0,1,639.89,114.6Z" transform="translate(-1.5 -1.39)"/><g class="cls-45"><g class="cls-9"><path class="cls-50" d="M644,135.55a5,5,0,0,1-5-5,5.07,5.07,0,0,1,5-5,5,5,0,0,1,5,5,5.14,5.14,0,0,1-5,5" transform="translate(-1.5 -1.39)"/></g></g><path class="cls-51" d="M639.84,133.79A3.89,3.89,0,0,1,636,129.9a3.89,3.89,0,0,1,7.78,0A3.82,3.82,0,0,1,639.84,133.79ZM637.55,122l-1.4,1.6h-2.49a1.56,1.56,0,0,0-1.6,1.49v9.38a1.58,1.58,0,0,0,1.6,1.6h12.57a1.57,1.57,0,0,0,1.59-1.6v-9.38a1.57,1.57,0,0,0-1.59-1.59h-2.5l-1.49-1.5Z" transform="translate(-1.5 -1.39)"/><path class="cls-11" d="M704.72,114.1a15,15,0,1,1-15,15,15,15,0,0,1,15-15" transform="translate(-1.5 -1.39)"/><path class="cls-39" d="M704.72,114.6a14.47,14.47,0,1,1-14.46,14.47A14.47,14.47,0,0,1,704.72,114.6Z" transform="translate(-1.5 -1.39)"/><path class="cls-39" d="M697.74,124.48h14a1.5,1.5,0,0,1,0,3h-14a1.5,1.5,0,0,1,0-3Z" transform="translate(-1.5 -1.39)"/><path class="cls-39" d="M697.74,127.47h14a.47.47,0,0,1,.5.5v7a1.54,1.54,0,0,1-1.5,1.5h-12a1.54,1.54,0,0,1-1.5-1.5v-7A.47.47,0,0,1,697.74,127.47Z" transform="translate(-1.5 -1.39)"/><path class="cls-50" d="M708.08,121a3.65,3.65,0,0,1,3.69,3.49h-7.38a3.58,3.58,0,0,1,3.69-3.49m0,1a2.83,2.83,0,0,0-2.5,1.49h4.89a2.57,2.57,0,0,0-2.39-1.49" transform="translate(-1.5 -1.39)"/><path class="cls-50" d="M701.43,121a3.64,3.64,0,0,1,3.69,3.49h-7.38a3.59,3.59,0,0,1,3.69-3.49m0,1a2.83,2.83,0,0,0-2.49,1.49h4.89a2.57,2.57,0,0,0-2.4-1.49" transform="translate(-1.5 -1.39)"/><line class="cls-39" x1="703.23" y1="123.09" x2="703.23" y2="135.06"/><g class="cls-45"><g class="cls-9"><path class="cls-50" d="M706.42,137.15a6.29,6.29,0,1,1,6.28-6.29,6.32,6.32,0,0,1-6.28,6.29" transform="translate(-1.5 -1.39)"/></g></g><path class="cls-11" d="M446.38,114.1a15,15,0,1,1-15,15,15,15,0,0,1,15-15" transform="translate(-1.5 -1.39)"/><path class="cls-39" d="M446.38,114.6a14.47,14.47,0,1,1-14.47,14.47A14.47,14.47,0,0,1,446.38,114.6Z" transform="translate(-1.5 -1.39)"/><g class="cls-45"><g class="cls-9"><path class="cls-50" d="M448.45,138.09a8.18,8.18,0,1,1,8.18-8.18,8.16,8.16,0,0,1-8.18,8.18" transform="translate(-1.5 -1.39)"/></g></g><rect class="cls-52" x="437.08" y="121.44" width="15.66" height="12.57" rx="1.6"/><polyline class="cls-52" points="452.64 123.03 444.86 128.42 437.08 123.03"/><path class="cls-11" d="M844.37,114.1a15,15,0,1,1-15,15,15,15,0,0,1,15-15" transform="translate(-1.5 -1.39)"/><path class="cls-40" d="M844.37,114.6a14.47,14.47,0,1,1-14.46,14.47A14.47,14.47,0,0,1,844.37,114.6Z" transform="translate(-1.5 -1.39)"/><path class="cls-53" d="M849.86,124.57a4.58,4.58,0,0,1,2.29.6,4.1,4.1,0,0,1,1.6,1.6,4.64,4.64,0,0,1,.6,2.29,4.28,4.28,0,0,1-.6,2.2,4.08,4.08,0,0,1-1.6,1.59,4.58,4.58,0,0,1-2.29.6,4.67,4.67,0,0,1-1.7-.3,4.1,4.1,0,0,1-1.49-1l-1-.9,1.2-1.1,1,.8a2.52,2.52,0,0,0,2,.9,2.3,2.3,0,0,0,1.4-.4,4.69,4.69,0,0,0,1-1,2.78,2.78,0,0,0,0-2.79,4.69,4.69,0,0,0-1-1,2.3,2.3,0,0,0-1.4-.4,4.25,4.25,0,0,0-1.1.2,1.8,1.8,0,0,0-.9.6c-1.59,1.39-2.69,2.39-3.49,3.09l-2.29,2.1a7.49,7.49,0,0,1-1.4,1,4.79,4.79,0,0,1-4-.3,4.05,4.05,0,0,1-1.59-1.59,4.76,4.76,0,0,1-.7-2.3,4.27,4.27,0,0,1,.6-2.19,4.08,4.08,0,0,1,1.59-1.6,4.79,4.79,0,0,1,4-.3,4,4,0,0,1,1.5,1l1.1.9-1.3,1.1-1-.9a2.5,2.5,0,0,0-2-.9,2.3,2.3,0,0,0-1.4.4,4.74,4.74,0,0,0-1,1,2.79,2.79,0,0,0-.4,1.49,2.3,2.3,0,0,0,.4,1.4,4.74,4.74,0,0,0,1,1,2.3,2.3,0,0,0,1.4.4,4.11,4.11,0,0,0,1.09-.2,1.8,1.8,0,0,0,.9-.6c1.6-1.4,2.7-2.4,3.49-3.09l2.3-2.1a7.33,7.33,0,0,1,1.39-1,5.66,5.66,0,0,1,1.8-.3" transform="translate(-1.5 -1.39)"/><path class="cls-54" d="M849.86,124.57a4.58,4.58,0,0,1,2.29.6,4.1,4.1,0,0,1,1.6,1.6,4.64,4.64,0,0,1,.6,2.29,4.28,4.28,0,0,1-.6,2.2,4.08,4.08,0,0,1-1.6,1.59,4.58,4.58,0,0,1-2.29.6,4.67,4.67,0,0,1-1.7-.3,4.1,4.1,0,0,1-1.49-1l-1-.9,1.2-1.1,1,.8a2.52,2.52,0,0,0,2,.9,2.3,2.3,0,0,0,1.4-.4,4.69,4.69,0,0,0,1-1,2.78,2.78,0,0,0,0-2.79,4.69,4.69,0,0,0-1-1,2.3,2.3,0,0,0-1.4-.4,4.25,4.25,0,0,0-1.1.2,1.8,1.8,0,0,0-.9.6c-1.59,1.39-2.69,2.39-3.49,3.09l-2.29,2.1a7.49,7.49,0,0,1-1.4,1,4.79,4.79,0,0,1-4-.3,4.05,4.05,0,0,1-1.59-1.59,4.76,4.76,0,0,1-.7-2.3,4.27,4.27,0,0,1,.6-2.19,4.08,4.08,0,0,1,1.59-1.6,4.79,4.79,0,0,1,4-.3,4,4,0,0,1,1.5,1l1.1.9-1.3,1.1-1-.9a2.5,2.5,0,0,0-2-.9,2.3,2.3,0,0,0-1.4.4,4.74,4.74,0,0,0-1,1,2.79,2.79,0,0,0-.4,1.49,2.3,2.3,0,0,0,.4,1.4,4.74,4.74,0,0,0,1,1,2.3,2.3,0,0,0,1.4.4,4.11,4.11,0,0,0,1.09-.2,1.8,1.8,0,0,0,.9-.6c1.6-1.4,2.7-2.4,3.49-3.09l2.3-2.1a7.33,7.33,0,0,1,1.39-1A5.66,5.66,0,0,1,849.86,124.57Z" transform="translate(-1.5 -1.39)"/><g class="cls-45"><g class="cls-9"><path class="cls-53" d="M850,135.75a4.49,4.49,0,1,1,4.49-4.49,4.61,4.61,0,0,1-4.49,4.49" transform="translate(-1.5 -1.39)"/></g></g><g class="cls-45"><g class="cls-9"><path class="cls-53" d="M839.88,131.26a4.49,4.49,0,1,1,4.49-4.49,4.47,4.47,0,0,1-4.49,4.49" transform="translate(-1.5 -1.39)"/></g></g><path class="cls-11" d="M576.05,114.1a15,15,0,1,1-15,15,15,15,0,0,1,15-15" transform="translate(-1.5 -1.39)"/><path class="cls-39" d="M576.05,114.6a14.47,14.47,0,1,1-14.47,14.47A14.46,14.46,0,0,1,576.05,114.6Z" transform="translate(-1.5 -1.39)"/><g class="cls-45"><g class="cls-9"><path class="cls-50" d="M579.84,135.25a5.69,5.69,0,0,1-5.69-5.69,5.69,5.69,0,0,1,11.38,0,5.82,5.82,0,0,1-5.69,5.69" transform="translate(-1.5 -1.39)"/></g></g><path class="cls-51" d="M582.43,134.25h0l-3.29-1.89c0-.2.1-.3.1-.5v-4.39a2.47,2.47,0,0,0-2.49-2.5H573a2.48,2.48,0,0,1,2.49-2.09H583a2.47,2.47,0,0,1,2.49,2.49v4.39a2.47,2.47,0,0,1-2.49,2.5h-.6Z" transform="translate(-1.5 -1.39)"/><path class="cls-51" d="M569.66,134.35h-.59a2.47,2.47,0,0,1-2.5-2.49v-4.39a2.47,2.47,0,0,1,2.5-2.49h7.58a2.47,2.47,0,0,1,2.49,2.49v4.39a2.47,2.47,0,0,1-2.49,2.49h-3.49l-3.5,2Z" transform="translate(-1.5 -1.39)"/><line class="cls-55" x1="569.07" y1="126.68" x2="573.26" y2="126.68"/><line class="cls-55" x1="568.07" y1="129.67" x2="574.25" y2="129.67"/><path class="cls-11" d="M304.73,114.1a15,15,0,1,1-15,15,15,15,0,0,1,15-15" transform="translate(-1.5 -1.39)"/><path class="cls-38" d="M304.73,114.6a14.47,14.47,0,1,1-14.46,14.47A14.47,14.47,0,0,1,304.73,114.6Z" transform="translate(-1.5 -1.39)"/><path class="cls-11" d="M312.71,135.55h-16a1.53,1.53,0,0,1-1.49-1.5v-2.59a2.46,2.46,0,0,0,0-4.79v-2.59a1.53,1.53,0,0,1,1.49-1.5h16a1.54,1.54,0,0,1,1.5,1.5v2.59a2.46,2.46,0,0,0,0,4.79v2.59a1.54,1.54,0,0,1-1.5,1.5" transform="translate(-1.5 -1.39)"/><path class="cls-47" d="M312.71,136.05h-16a2,2,0,0,1-2-2v-3a1.92,1.92,0,0,0,1.89-2,2,2,0,0,0-1.89-2v-3a2,2,0,0,1,2-2h16a2,2,0,0,1,2,2v3a1.92,1.92,0,0,0-1.9,2,2,2,0,0,0,1.9,2v3a2,2,0,0,1-2,2m0-1a.94.94,0,0,0,1-1v-2.19a3,3,0,0,1,0-5.59v-2.19a.94.94,0,0,0-1-1h-16a.94.94,0,0,0-1,1v2.19a3,3,0,0,1,0,5.59v2.19a.94.94,0,0,0,1,1h16" transform="translate(-1.5 -1.39)"/><line class="cls-49" x1="298.45" y1="121.2" x2="298.45" y2="123.19"/><line class="cls-49" x1="307.73" y1="121.2" x2="307.73" y2="123.19"/><line class="cls-49" x1="298.45" y1="126.18" x2="298.45" y2="129.17"/><line class="cls-49" x1="307.73" y1="126.18" x2="307.73" y2="129.17"/><line class="cls-49" x1="298.45" y1="132.17" x2="298.45" y2="134.16"/><line class="cls-49" x1="307.73" y1="132.17" x2="307.73" y2="134.16"/><g class="cls-45"><g class="cls-9"><path class="cls-47" d="M307.33,135.85a6.79,6.79,0,1,1,6.78-6.79,7,7,0,0,1-6.78,6.79" transform="translate(-1.5 -1.39)"/></g></g><text class="cls-21" transform="translate(1094.24 157.6)">Become busy with </text><text class="cls-21" transform="translate(1094.24 165.58)">stud<tspan class="cls-56" x="11.31" y="0">y</tspan><tspan x="13.86" y="0">, keep in </tspan></text><text class="cls-21" transform="translate(1094.24 173.56)">contact with her new </text><text class="cls-21" transform="translate(1094.24 181.54)">friends in Whatsapp.</text><path class="cls-11" d="M985,114.1a15,15,0,1,1-15,15,15,15,0,0,1,15-15" transform="translate(-1.5 -1.39)"/><path class="cls-40" d="M985,114.6a14.47,14.47,0,1,1-14.47,14.47A14.46,14.46,0,0,1,985,114.6Z" transform="translate(-1.5 -1.39)"/><path class="cls-40" d="M989.71,129.06a229.26,229.26,0,0,1-9.57-.1,4.33,4.33,0,0,1-2.89.7v5.78a1.32,1.32,0,0,0,1.29,1.3h12.87a1.32,1.32,0,0,0,1.3-1.3v-5.78A4,4,0,0,1,989.71,129.06Zm2.3-7.68H977.94a1,1,0,0,0-1,.7l-1.4,4a5.35,5.35,0,0,1,7.18,2.39,2.4,2.4,0,0,1,4.79,0,2.4,2.4,0,0,1,4.79,0,2.43,2.43,0,0,0,2.39-2.39l-1.49-4A1.91,1.91,0,0,0,992,121.38Z" transform="translate(-1.5 -1.39)"/><g class="cls-45"><g class="cls-9"><path class="cls-47" d="M987.22,136.34a7.28,7.28,0,1,1,7.28-7.28,7.39,7.39,0,0,1-7.28,7.28" transform="translate(-1.5 -1.39)"/></g></g><path class="cls-11" d="M511.21,114.1a15,15,0,1,1-15,15,15,15,0,0,1,15-15" transform="translate(-1.5 -1.39)"/><path class="cls-39" d="M511.21,114.6a14.47,14.47,0,1,1-14.46,14.47A14.47,14.47,0,0,1,511.21,114.6Z" transform="translate(-1.5 -1.39)"/><path class="cls-50" d="M516,129.07l2.49-6.59a.52.52,0,0,0-.3-.7.51.51,0,0,0-.69.3l-2.1,5.49-2.09-5.49a.54.54,0,0,0-1,.4l2.49,6.59-2.49,6.58a.54.54,0,0,0,1,.4l2.09-5.49,2.1,5.49a.51.51,0,0,0,.69.3.52.52,0,0,0,.3-.7Zm-7.58,6.58.2-.2a4.78,4.78,0,0,0,1.39-3.69h.3a2.7,2.7,0,0,1-1.89,3.89m-1.3,0c-.1,0-.3-.1-.4-.1.3-.2.6-.5.9-.7a4.93,4.93,0,0,0,1.4-3.09h.4a4.54,4.54,0,0,1-2.3,3.89m-1.49-1,.89-.6a3.68,3.68,0,0,0,1.2-2.39h.4a3.56,3.56,0,0,1-1.1,2.49,4.58,4.58,0,0,1-1.09.8q-.15,0-.3-.3m-.7-1.79a5,5,0,0,1,.2-1.2h1.69a3.3,3.3,0,0,1-1.69,2.29,3.59,3.59,0,0,1-.2-1.09m2.59-10.48c-.2.1-.3.3-.5.4a5.41,5.41,0,0,0-1.39,3.59h-.4a2.54,2.54,0,0,1-.2-1.2,2.72,2.72,0,0,1,2.49-2.79m1.3.2c.1,0,.2.1.3.1a7,7,0,0,0-1,.8,4.67,4.67,0,0,0-1.4,3h-.4a4.48,4.48,0,0,1,2.5-3.89m1.29,1-.89.6a3.94,3.94,0,0,0-1.2,2.29h-.4a4.39,4.39,0,0,1,1.1-2.39,10.63,10.63,0,0,1,1.1-.9c.1.1.19.3.29.4m.6,1.69a5,5,0,0,1-.2,1.2h-1.59a3.37,3.37,0,0,1,1.69-2.19c0,.3.1.6.1,1m-5.78,2.2h5.68v3.19h-5.68Zm2.89-6.09a3.84,3.84,0,0,0-3.89,3.89,5.85,5.85,0,0,0,.2,1.3.52.52,0,0,0-.2.4v4.19a.52.52,0,0,0,.2.4,5.85,5.85,0,0,0-.2,1.3,3.89,3.89,0,1,0,7.78,0,5.85,5.85,0,0,0-.2-1.3.76.76,0,0,0,.2-.4V127a.52.52,0,0,0-.2-.4,5.85,5.85,0,0,0,.2-1.3,3.84,3.84,0,0,0-3.89-3.89" transform="translate(-1.5 -1.39)"/><g class="cls-45"><g class="cls-9"><path class="cls-50" d="M513.21,136.75a6.29,6.29,0,1,1,6.28-6.29,6.39,6.39,0,0,1-6.28,6.29" transform="translate(-1.5 -1.39)"/></g></g><path class="cls-11" d="M769.56,114.1a15,15,0,1,1-15,15,15,15,0,0,1,15-15" transform="translate(-1.5 -1.39)"/><path class="cls-39" d="M769.56,114.6a14.47,14.47,0,1,1-14.46,14.47A14.47,14.47,0,0,1,769.56,114.6Z" transform="translate(-1.5 -1.39)"/><path class="cls-51" d="M773.25,134.25l-3.69-2.19-3.69,2.19,1-4.19-3.19-2.79,4.29-.4,1.69-3.89,1.7,3.89,4.29.4-3.2,2.79Zm-3.69-13.86a8.68,8.68,0,1,0,8.68,8.67A8.68,8.68,0,0,0,769.56,120.39Z" transform="translate(-1.5 -1.39)"/><g class="cls-45"><g class="cls-9"><path class="cls-50" d="M772.16,137.74a7.28,7.28,0,1,1,7.28-7.28,7.39,7.39,0,0,1-7.28,7.28" transform="translate(-1.5 -1.39)"/></g></g><path class="cls-11" d="M915.19,114.1a15,15,0,1,1-15,15,15,15,0,0,1,15-15" transform="translate(-1.5 -1.39)"/><path class="cls-40" d="M915.19,114.6a14.47,14.47,0,1,1-14.46,14.47A14.47,14.47,0,0,1,915.19,114.6Z" transform="translate(-1.5 -1.39)"/><path class="cls-57" d="M910.54,129a4.1,4.1,0,0,1,2.6-.7c2,0,3.29,1.3,5.18,1.3a3.46,3.46,0,0,0,2.6-.7v-7.68a4.1,4.1,0,0,1-2.6.7c-2,0-3.29-1.3-5.18-1.3a3.11,3.11,0,0,0-2.6.6Z" transform="translate(-1.5 -1.39)"/><line class="cls-57" x1="909.05" y1="132.2" x2="909.05" y2="127.61"/><g class="cls-45"><g class="cls-9"><path class="cls-53" d="M919.08,137a6.48,6.48,0,1,1,6.49-6.48,6.47,6.47,0,0,1-6.49,6.48" transform="translate(-1.5 -1.39)"/></g></g><path class="cls-40" d="M913.7,131.56c3.3,0,6,1.12,6,2.49s-2.68,2.5-6,2.5-6-1.12-6-2.5S910.39,131.56,913.7,131.56Z" transform="translate(-1.5 -1.39)"/><path class="cls-11" d="M1055.84,114.1a15,15,0,1,1-15,15,15,15,0,0,1,15-15" transform="translate(-1.5 -1.39)"/><path class="cls-40" d="M1055.84,114.6a14.47,14.47,0,1,1-14.46,14.47A14.46,14.46,0,0,1,1055.84,114.6Z" transform="translate(-1.5 -1.39)"/><g class="cls-45"><g class="cls-9"><path class="cls-53" d="M1057.54,136.05a7,7,0,1,1,7-7,6.94,6.94,0,0,1-7,7" transform="translate(-1.5 -1.39)"/></g></g><path class="cls-40" d="M1055.84,133.26h0a.57.57,0,0,1-.39-.1l-2.9-1.69a.67.67,0,0,1-.4-.7v-3.29a.84.84,0,0,1,.4-.7l2.9-1.7a1.07,1.07,0,0,1,.79,0l2.9,1.7a.84.84,0,0,1,.4.7v3.29a.84.84,0,0,1-.4.7l-2.9,1.69A.6.6,0,0,1,1055.84,133.26Z" transform="translate(-1.5 -1.39)"/><path class="cls-40" d="M1055.84,137.75h0a1.88,1.88,0,0,1-.79-.2l-6.09-3.49a1.86,1.86,0,0,1-.9-1.5v-7a1.65,1.65,0,0,1,.9-1.5l6-3.49a1.7,1.7,0,0,1,1.69,0l6.09,3.49a1.85,1.85,0,0,1,.89,1.5v7a1.64,1.64,0,0,1-.89,1.5l-6,3.49A2.92,2.92,0,0,1,1055.84,137.75Z" transform="translate(-1.5 -1.39)"/><polyline class="cls-40" points="1057.94 129.68 1054.35 127.79 1050.86 129.68"/><line class="cls-40" x1="1054.35" y1="123.7" x2="1054.35" y2="127.79"/><line class="cls-40" x1="1054.35" y1="131.88" x2="1054.35" y2="135.87"/><line class="cls-40" x1="1046.67" y1="123.3" x2="1051.16" y2="125.99"/><line class="cls-40" x1="1062.13" y1="123.3" x2="1057.54" y2="125.99"/><path class="cls-11" d="M1126.66,114.1a15,15,0,1,1-15,15,15,15,0,0,1,15-15" transform="translate(-1.5 -1.39)"/><path class="cls-41" d="M1126.66,114.6a14.47,14.47,0,1,1-14.46,14.47A14.47,14.47,0,0,1,1126.66,114.6Z" transform="translate(-1.5 -1.39)"/><g class="cls-45"><g class="cls-9"><path class="cls-58" d="M1128.36,137.44a7.78,7.78,0,1,1,7.78-7.78,7.79,7.79,0,0,1-7.78,7.78" transform="translate(-1.5 -1.39)"/></g></g><path class="cls-59" d="M1130.45,130.76l-1.39-.7c-.2-.1-.3-.1-.5.1a2.7,2.7,0,0,1-.7.8.4.4,0,0,1-.5.1,5.71,5.71,0,0,1-2.79-2.49c-.2-.4.2-.3.6-1.1.1-.1,0-.3,0-.4a6.77,6.77,0,0,1-.6-1.6c-.2-.4-.4-.3-.5-.4h-.4a.86.86,0,0,0-.6.3,2.34,2.34,0,0,0-.7,1.7,4.61,4.61,0,0,0,.9,2.19,10.21,10.21,0,0,0,3.59,3.2,4.42,4.42,0,0,0,2.5.49,2.06,2.06,0,0,0,1.39-1,1.73,1.73,0,0,0,.1-1C1130.85,130.86,1130.65,130.86,1130.45,130.76Zm2.1-7.68a8.32,8.32,0,0,0-13.07,10.07l-1.2,4.29,4.39-1.19a8,8,0,0,0,4,1,8.25,8.25,0,0,0,5.89-14.16Z" transform="translate(-1.5 -1.39)"/><line class="cls-36" x1="48.88" y1="281.29" x2="1158.08" y2="281.29"/><path class="cls-46" d="M87.28,293.65h16a6,6,0,1,1,0,12h-16a6,6,0,0,1,0-12" transform="translate(-1.5 -1.39)"/><text class="cls-60" transform="translate(85.78 300.24)">Room</text><path class="cls-47" d="M293.76,276.69H315.7a6,6,0,1,1,0,12H293.76a6,6,0,1,1,0-12" transform="translate(-1.5 -1.39)"/><path class="cls-47" d="M164.09,276.69H186a6,6,0,1,1,0,12H164.09a6,6,0,1,1,0-12" transform="translate(-1.5 -1.39)"/><text class="cls-60" transform="translate(292.26 283.29)"><tspan class="cls-61">W</tspan><tspan x="5.54" y="0">ebsite</tspan></text><text class="cls-60" transform="translate(161.6 283.29)"><tspan class="cls-61">W</tspan><tspan x="5.54" y="0">ebsite</tspan></text><path class="cls-47" d="M216,276.69h47.87a6,6,0,1,1,0,12H216a6,6,0,1,1,0-12" transform="translate(-1.5 -1.39)"/><text class="cls-60" transform="translate(213.22 283.29)">Registration form</text><path class="cls-53" d="M906.22,276.69h17.95a6,6,0,1,1,0,12H906.22a6,6,0,1,1,0-12" transform="translate(-1.5 -1.39)"/><text class="cls-60" transform="translate(903.72 283.29)">Events</text><path class="cls-53" d="M906.22,293.65h17.95a6,6,0,1,1,0,12H906.22a6,6,0,1,1,0-12" transform="translate(-1.5 -1.39)"/><text class="cls-60" transform="translate(904.72 300.24)">E-mail</text><path class="cls-53" d="M976,310.61h18a6,6,0,0,1,0,12H976a6,6,0,0,1,0-12" transform="translate(-1.5 -1.39)"/><path class="cls-53" d="M1046.86,276.69h18a6,6,0,0,1,0,12h-18a6,6,0,0,1,0-12" transform="translate(-1.5 -1.39)"/><text class="cls-60" transform="translate(974.55 317.2)">E-mail</text><text class="cls-60" transform="translate(1045.36 283.28)">E-mail</text><path class="cls-50" d="M754.6,276.69h29.92a6,6,0,1,1,0,12H754.6a6,6,0,1,1,0-12" transform="translate(-1.5 -1.39)"/><path class="cls-53" d="M829.41,276.69h29.93a6,6,0,0,1,0,12H829.41a6,6,0,0,1,0-12" transform="translate(-1.5 -1.39)"/><text class="cls-60" transform="translate(751.11 283.29)">Certification</text><text class="cls-60" transform="translate(825.92 283.29)">Certification</text><path class="cls-53" d="M963.07,293.65H1007a6,6,0,1,1,0,12H963.07a6,6,0,0,1,0-12" transform="translate(-1.5 -1.39)"/><path class="cls-53" d="M1041.88,293.65h27.93a6,6,0,0,1,0,12h-27.93a6,6,0,1,1,0-12" transform="translate(-1.5 -1.39)"/><text class="cls-60" transform="translate(961.58 300.24)"><tspan class="cls-24">W</tspan><tspan x="5.54" y="0">ord of mouth</tspan></text><text class="cls-60" transform="translate(1040.38 300.24)">Exhibition</text><path class="cls-47" d="M352.61,276.69h33.92a6,6,0,0,1,0,12H352.61a6,6,0,0,1,0-12" transform="translate(-1.5 -1.39)"/><path class="cls-50" d="M689.76,310.61h29.93a6,6,0,0,1,0,12H689.76a6,6,0,0,1,0-12" transform="translate(-1.5 -1.39)"/><path class="cls-50" d="M689.76,293.65h29.93a6,6,0,0,1,0,12H689.76a6,6,0,0,1,0-12" transform="translate(-1.5 -1.39)"/><text class="cls-60" transform="translate(350.3 283.29)">Credit cards</text><text class="cls-60" transform="translate(685.45 317.2)">Credit cards</text><text class="cls-60" transform="translate(685.59 300.25)">End product</text><path class="cls-50" d="M499.24,293.65h23.94a6,6,0,1,1,0,12H499.24a6,6,0,0,1,0-12" transform="translate(-1.5 -1.39)"/><path class="cls-50" d="M556.1,276.69H596a6,6,0,0,1,0,12H556.1a6,6,0,1,1,0-12" transform="translate(-1.5 -1.39)"/><path class="cls-50" d="M489.27,276.69h43.89a6,6,0,0,1,0,12H489.27a6,6,0,1,1,0-12" transform="translate(-1.5 -1.39)"/><text class="cls-60" transform="translate(498.74 300.24)">Building</text><text class="cls-60" transform="translate(553.19 283.29)"><tspan class="cls-24">W</tspan><tspan x="5.54" y="0">ord of mouth</tspan></text><text class="cls-60" transform="translate(486.04 283.29)">Kitting materials</text><path class="cls-50" d="M437.4,276.69h18a6,6,0,1,1,0,12h-18a6,6,0,1,1,0-12" transform="translate(-1.5 -1.39)"/><path class="cls-50" d="M761.58,310.61h18a6,6,0,0,1,0,12h-18a6,6,0,0,1,0-12" transform="translate(-1.5 -1.39)"/><path class="cls-53" d="M836.39,310.61h18a6,6,0,0,1,0,12h-18a6,6,0,0,1,0-12" transform="translate(-1.5 -1.39)"/><text class="cls-60" transform="translate(435.9 283.29)">E-mail</text><text class="cls-60" transform="translate(760.09 317.2)">E-mail</text><text class="cls-60" transform="translate(834.9 317.2)">E-mail</text><path class="cls-50" d="M630.91,276.69h18a6,6,0,0,1,0,12h-18a6,6,0,0,1,0-12" transform="translate(-1.5 -1.39)"/><path class="cls-50" d="M761.58,293.65h18a6,6,0,0,1,0,12h-18a6,6,0,0,1,0-12" transform="translate(-1.5 -1.39)"/><path class="cls-53" d="M836.39,293.65h18a6,6,0,0,1,0,12h-18a6,6,0,0,1,0-12" transform="translate(-1.5 -1.39)"/><path class="cls-50" d="M694.75,327.56h20a6,6,0,0,1,0,12h-20a6,6,0,1,1,0-12" transform="translate(-1.5 -1.39)"/><path class="cls-50" d="M689.76,276.69h29.93a6,6,0,0,1,0,12H689.76a6,6,0,0,1,0-12" transform="translate(-1.5 -1.39)"/><text class="cls-60" transform="translate(628.42 283.29)">Photos</text><text class="cls-60" transform="translate(759.09 300.24)">Photos</text><text class="cls-60" transform="translate(833.9 300.24)">Photos</text><path class="cls-50" d="M502.23,310.61h18a6,6,0,0,1,0,12h-18a6,6,0,0,1,0-12" transform="translate(-1.5 -1.39)"/><text class="cls-60" transform="translate(499.74 317.2)">Events</text><text class="cls-60" transform="translate(696.24 334.16)">Cash</text><text class="cls-60" transform="translate(685.91 283.28)">Shop owner</text><path class="cls-46" d="M75.31,276.69h39.9a6,6,0,0,1,0,12H75.31a6,6,0,0,1,0-12" transform="translate(-1.5 -1.39)"/><text class="cls-60" transform="translate(73.81 283.29)">Social medias</text><path class="cls-53" d="M976,276.69h18a6,6,0,0,1,0,12H976a6,6,0,0,1,0-12" transform="translate(-1.5 -1.39)"/><text class="cls-60" transform="translate(973.55 283.29)">Photos</text><g class="cls-62"><g class="cls-9"><path class="cls-46" d="M70.32,359.48H120.2a10,10,0,0,1,10,10v35.91a10,10,0,0,1-10,10H70.32a10,10,0,0,1-10-10V369.46a10,10,0,0,1,10-10" transform="translate(-1.5 -1.39)"/><rect class="cls-63" x="59.35" y="358.6" width="68.83" height="54.86" rx="9.48"/></g></g><g class="cls-64"><g class="cls-9"><path class="cls-46" d="M70.32,454.25H120.2a10,10,0,0,1,10,10v35.91a10,10,0,0,1-10,10H70.32a10,10,0,0,1-10-10V464.22a10,10,0,0,1,10-10" transform="translate(-1.5 -1.39)"/><rect class="cls-43" x="59.35" y="453.36" width="68.83" height="54.86" rx="9.48"/></g></g><g class="cls-64"><g class="cls-9"><path class="cls-47" d="M206,454.25h68.83a10,10,0,0,1,10,10v35.91a10,10,0,0,1-10,10H206a10,10,0,0,1-10-10V464.22a10,10,0,0,1,10-10" transform="translate(-1.5 -1.39)"/><rect class="cls-38" x="195.01" y="453.36" width="87.78" height="54.86" rx="9.48"/></g></g><g class="cls-65"><g class="cls-9"><path class="cls-47" d="M349.62,454.25h39.9a10,10,0,0,1,10,10v35.91a10,10,0,0,1-10,10h-39.9a10,10,0,0,1-10-10V464.22a10,10,0,0,1,10-10" transform="translate(-1.5 -1.39)"/></g></g><g class="cls-65"><g class="cls-9"><path class="cls-50" d="M419.44,454.25h51.87a10,10,0,0,1,10,10v35.91a10,10,0,0,1-10,10H419.44a10,10,0,0,1-10-10V464.22a10,10,0,0,1,10-10" transform="translate(-1.5 -1.39)"/></g></g><g class="cls-65"><g class="cls-9"><path class="cls-50" d="M517.2,454.25h51.87a10,10,0,0,1,10,10v35.91a10,10,0,0,1-10,10H517.2a10,10,0,0,1-10-10V464.22a10,10,0,0,1,10-10" transform="translate(-1.5 -1.39)"/></g></g><g class="cls-65"><g class="cls-9"><path class="cls-50" d="M625.92,454.25h33.92a10,10,0,0,1,10,10v35.91a10,10,0,0,1-10,10H625.92a10,10,0,0,1-10-10V464.22a10,10,0,0,1,10-10" transform="translate(-1.5 -1.39)"/></g></g><g class="cls-65"><g class="cls-9"><path class="cls-50" d="M684.78,454.25h39.9a10,10,0,0,1,10,10v35.91a10,10,0,0,1-10,10h-39.9a10,10,0,0,1-10-10V464.22a10,10,0,0,1,10-10" transform="translate(-1.5 -1.39)"/></g></g><g class="cls-65"><g class="cls-9"><path class="cls-50" d="M752.6,454.25h33.92a10,10,0,0,1,10,10v35.91a10,10,0,0,1-10,10H752.6a10,10,0,0,1-10-10V464.22a10,10,0,0,1,10-10" transform="translate(-1.5 -1.39)"/></g></g><g class="cls-65"><g class="cls-9"><path class="cls-50" d="M752.6,520.08h33.92a10,10,0,0,1,10,10V566a10,10,0,0,1-10,10H752.6a10,10,0,0,1-10-10V530.05a10,10,0,0,1,10-10" transform="translate(-1.5 -1.39)"/></g></g><g class="cls-65"><g class="cls-9"><path class="cls-53" d="M822.43,454.25h43.89a10,10,0,0,1,10,10v35.91a10,10,0,0,1-10,10H822.43a10,10,0,0,1-10-10V464.22a10,10,0,0,1,10-10" transform="translate(-1.5 -1.39)"/></g></g><g class="cls-65"><g class="cls-9"><path class="cls-53" d="M893.25,454.25h43.89a10,10,0,0,1,10,10v35.91a10,10,0,0,1-10,10H893.25a10,10,0,0,1-10-10V464.22a10,10,0,0,1,10-10" transform="translate(-1.5 -1.39)"/></g></g><g class="cls-65"><g class="cls-9"><path class="cls-53" d="M1034.89,454.25h43.89a10,10,0,0,1,10,10v35.91a10,10,0,0,1-10,10h-43.89a10,10,0,0,1-10-10V464.22a10,10,0,0,1,10-10" transform="translate(-1.5 -1.39)"/></g></g><g class="cls-65"><g class="cls-9"><path class="cls-53" d="M1034.89,520.08h43.89a10,10,0,0,1,10,10v17a10,10,0,0,1-10,10h-43.89a10,10,0,0,1-10-10v-17a10,10,0,0,1,10-10" transform="translate(-1.5 -1.39)"/></g></g><g class="cls-64"><g class="cls-9"><path class="cls-47" d="M206,520.08h68.83a10,10,0,0,1,10,10V559a10,10,0,0,1-10,10H206a10,10,0,0,1-10-10V530.05a10,10,0,0,1,10-10" transform="translate(-1.5 -1.39)"/><rect class="cls-38" x="195.01" y="519.19" width="87.78" height="47.88" rx="9.48"/></g></g><g class="cls-64"><g class="cls-9"><path class="cls-46" d="M70.32,520.08H120.2a10,10,0,0,1,10,10v14a10,10,0,0,1-10,10H70.32a10,10,0,0,1-10-10v-14a10,10,0,0,1,10-10" transform="translate(-1.5 -1.39)"/><rect class="cls-43" x="59.35" y="519.19" width="68.83" height="32.92" rx="9.48"/></g></g><g class="cls-64"><g class="cls-9"><path class="cls-46" d="M70.32,564H120.2a10,10,0,0,1,10,10v20.95a10,10,0,0,1-10,10H70.32a10,10,0,0,1-10-10V573.94a10,10,0,0,1,10-10" transform="translate(-1.5 -1.39)"/><rect class="cls-43" x="59.35" y="563.08" width="68.83" height="39.9" rx="9.48"/></g></g><g class="cls-64"><g class="cls-9"><path class="cls-46" d="M70.32,614.84H120.2a10,10,0,0,1,10,10v20.94a10,10,0,0,1-10,10H70.32a10,10,0,0,1-10-10V624.82a10,10,0,0,1,10-10" transform="translate(-1.5 -1.39)"/><rect class="cls-43" x="59.35" y="613.95" width="68.83" height="39.9" rx="9.48"/></g></g><g class="cls-66"><g class="cls-9"><rect class="cls-44" x="57.36" y="684.78" width="73.81" height="39.9" rx="9.48"/></g></g><g class="cls-66"><g class="cls-9"><rect class="cls-49" x="195.01" y="684.78" width="87.78" height="39.9" rx="9.48"/></g></g><g class="cls-66"><g class="cls-9"><rect class="cls-49" x="338.65" y="684.78" width="58.85" height="39.9" rx="9.48"/></g></g><g class="cls-66"><g class="cls-9"><rect class="cls-55" x="408.47" y="684.78" width="70.82" height="39.9" rx="9.48"/></g></g><g class="cls-66"><g class="cls-9"><rect class="cls-55" x="673.8" y="685.77" width="58.85" height="39.9" rx="9.48"/></g></g><g class="cls-66"><g class="cls-9"><rect class="cls-55" x="741.63" y="685.77" width="52.87" height="39.9" rx="9.48"/></g></g><g class="cls-66"><g class="cls-9"><rect class="cls-67" x="811.46" y="685.77" width="62.84" height="39.9" rx="9.48"/></g></g><g class="cls-66"><g class="cls-9"><rect class="cls-67" x="1021.93" y="685.77" width="67.83" height="39.9" rx="9.48"/></g></g><g class="cls-66"><g class="cls-9"><rect class="cls-67" x="1021.93" y="736.64" width="67.83" height="39.9" rx="9.48"/></g></g><g class="cls-66"><g class="cls-9"><rect class="cls-49" x="195.01" y="735.65" width="87.78" height="39.9" rx="9.48"/></g></g><g class="cls-62"><g class="cls-9"><path class="cls-47" d="M157.1,359.48H192a10,10,0,0,1,10,10v35.91a10,10,0,0,1-10,10H157.1a10,10,0,0,1-10-10V369.46a10,10,0,0,1,10-10" transform="translate(-1.5 -1.39)"/><rect class="cls-63" x="146.13" y="358.6" width="53.86" height="54.86" rx="9.48"/></g></g><g class="cls-62"><g class="cls-9"><path class="cls-47" d="M217,359.48h45.89a10,10,0,0,1,10,10v35.91a10,10,0,0,1-10,10H217a10,10,0,0,1-10-10V369.46a10,10,0,0,1,10-10" transform="translate(-1.5 -1.39)"/><rect class="cls-63" x="205.98" y="358.6" width="64.84" height="54.86" rx="9.48"/></g></g><g class="cls-62"><g class="cls-9"><path class="cls-47" d="M288.77,359.48h31.92a10,10,0,0,1,10,10v35.91a10,10,0,0,1-10,10H288.77a10,10,0,0,1-10-10V369.46a10,10,0,0,1,10-10" transform="translate(-1.5 -1.39)"/><rect class="cls-63" x="277.8" y="358.6" width="50.87" height="54.86" rx="9.48"/></g></g><g class="cls-62"><g class="cls-9"><path class="cls-50" d="M431.41,359.48h29.93a10,10,0,0,1,10,10v35.91a10,10,0,0,1-10,10H431.41a10,10,0,0,1-10-10V369.46a10,10,0,0,1,10-10" transform="translate(-1.5 -1.39)"/><rect class="cls-63" x="420.44" y="358.6" width="48.88" height="54.86" rx="9.48"/></g></g><g class="cls-62"><g class="cls-9"><path class="cls-50" d="M491.26,359.48h39.9a10,10,0,0,1,10,10v35.91a10,10,0,0,1-10,10h-39.9a10,10,0,0,1-10-10V369.46a10,10,0,0,1,10-10" transform="translate(-1.5 -1.39)"/><rect class="cls-63" x="480.29" y="358.6" width="58.85" height="54.86" rx="9.48"/></g></g><g class="cls-62"><g class="cls-9"><path class="cls-50" d="M556.1,359.48H596a10,10,0,0,1,10,10v35.91a10,10,0,0,1-10,10H556.1a10,10,0,0,1-10-10V369.46a10,10,0,0,1,10-10" transform="translate(-1.5 -1.39)"/><rect class="cls-63" x="545.13" y="358.6" width="58.85" height="54.86" rx="9.48"/></g></g><g class="cls-62"><g class="cls-9"><path class="cls-50" d="M622.93,359.48h33.92a10,10,0,0,1,10,10v35.91a10,10,0,0,1-10,10H622.93a10,10,0,0,1-10-10V369.46a10,10,0,0,1,10-10" transform="translate(-1.5 -1.39)"/><rect class="cls-63" x="611.96" y="358.6" width="52.87" height="54.86" rx="9.48"/></g></g><g class="cls-62"><g class="cls-9"><path class="cls-50" d="M684.78,359.48h39.9a10,10,0,0,1,10,10v35.91a10,10,0,0,1-10,10h-39.9a10,10,0,0,1-10-10V369.46a10,10,0,0,1,10-10" transform="translate(-1.5 -1.39)"/><rect class="cls-63" x="673.8" y="358.6" width="58.85" height="54.86" rx="9.48"/></g></g><g class="cls-62"><g class="cls-9"><path class="cls-50" d="M752.6,359.48h33.92a10,10,0,0,1,10,10v35.91a10,10,0,0,1-10,10H752.6a10,10,0,0,1-10-10V369.46a10,10,0,0,1,10-10" transform="translate(-1.5 -1.39)"/><rect class="cls-63" x="741.63" y="358.6" width="52.87" height="54.86" rx="9.48"/></g></g><g class="cls-62"><g class="cls-9"><path class="cls-53" d="M822.43,359.48h43.89a10,10,0,0,1,10,10v35.91a10,10,0,0,1-10,10H822.43a10,10,0,0,1-10-10V369.46a10,10,0,0,1,10-10" transform="translate(-1.5 -1.39)"/><rect class="cls-63" x="811.46" y="358.6" width="62.84" height="54.86" rx="9.48"/></g></g><g class="cls-62"><g class="cls-9"><path class="cls-53" d="M893.25,359.48h43.89a10,10,0,0,1,10,10v35.91a10,10,0,0,1-10,10H893.25a10,10,0,0,1-10-10V369.46a10,10,0,0,1,10-10" transform="translate(-1.5 -1.39)"/><rect class="cls-63" x="882.28" y="358.6" width="62.84" height="54.86" rx="9.48"/></g></g><g class="cls-62"><g class="cls-9"><path class="cls-53" d="M963.07,359.48H1007a10,10,0,0,1,10,10v35.91a10,10,0,0,1-10,10H963.07a10,10,0,0,1-10-10V369.46a10,10,0,0,1,10-10" transform="translate(-1.5 -1.39)"/><rect class="cls-63" x="952.1" y="358.6" width="62.84" height="54.86" rx="9.48"/></g></g><g class="cls-62"><g class="cls-9"><path class="cls-53" d="M1034.89,359.48h43.89a10,10,0,0,1,10,10v35.91a10,10,0,0,1-10,10h-43.89a10,10,0,0,1-10-10V369.46a10,10,0,0,1,10-10" transform="translate(-1.5 -1.39)"/><rect class="cls-63" x="1023.92" y="358.6" width="62.84" height="54.86" rx="9.48"/></g></g><text class="cls-21" transform="translate(63.84 372.06)">The shop owner posts </text><text class="cls-21" transform="translate(63.84 380.04)">activities information </text><text class="cls-21" transform="translate(63.84 388.02)">and stories of local </text><text class="cls-21" transform="translate(63.84 396)">elderly on Facebook </text><text class="cls-21" transform="translate(63.84 403.97)">and Instagram.</text><text class="cls-21" transform="translate(64.84 462.82)">Shop owner contacts </text><text class="cls-21" transform="translate(64.84 470.8)">with retired people in </text><text class="cls-21" transform="translate(64.84 478.78)">the community and </text><text class="cls-21" transform="translate(64.84 486.76)">encourages them to </text><text class="cls-21" transform="translate(64.84 494.74)">join the workshop as </text><text class="cls-21" transform="translate(64.84 502.71)">teachers.</text><text class="cls-21" transform="translate(202.49 466.8)">Shop owner contacts </text><text class="cls-21" transform="translate(202.49 474.78)">website design company </text><text class="cls-21" transform="translate(202.49 482.76)">strafecreative to update </text><text class="cls-21" transform="translate(202.49 490.74)">the website and add pages </text><text class="cls-21" transform="translate(202.49 498.72)">for the activity</text><text class="cls-21" transform="translate(343.14 474.78)">Shop owner sets </text><text class="cls-21" transform="translate(343.14 482.75)">online payment for </text><text class="cls-21" transform="translate(343.14 490.73)">bank cards.</text><text class="cls-21" transform="translate(412.96 462.8)">Shop owner collects </text><text class="cls-21" transform="translate(412.96 470.78)">and manages </text><text class="cls-21" transform="translate(412.96 478.76)">customers&apos; information </text><text class="cls-21" transform="translate(412.96 486.73)">through the system </text><text class="cls-21" transform="translate(412.96 494.71)">and sets the timing </text><text class="cls-21" transform="translate(412.96 502.69)">to send emails.</text><text class="cls-21" transform="translate(509.72 466.78)">Shop owner prepares </text><text class="cls-21" transform="translate(509.72 474.76)">the space and materials </text><text class="cls-21" transform="translate(509.72 482.74)">for the aactivit<tspan class="cls-56" x="37.26" y="0">y</tspan><tspan x="39.81" y="0">, hosts </tspan></text><text class="cls-21" transform="translate(509.72 490.71)">the activity and assist </text><text class="cls-21" transform="translate(509.72 498.69)">the elderly in teaching.</text><text class="cls-21" transform="translate(616.45 466.77)">Shop owner tidies </text><text class="cls-21" transform="translate(616.45 474.75)">and decorates the </text><text class="cls-21" transform="translate(616.45 482.73)">shop to provide </text><text class="cls-21" transform="translate(616.45 490.71)">good background </text><text class="cls-21" transform="translate(616.45 498.69)">for taking photos.</text><text class="cls-21" transform="translate(680.29 462.78)">Shop owner </text><text class="cls-21" transform="translate(680.29 470.75)">collects the </text><text class="cls-21" transform="translate(680.29 478.73)">outcomes of </text><text class="cls-21" transform="translate(680.29 486.71)">workshop, packs </text><text class="cls-21" transform="translate(680.29 494.69)">and sends them </text><text class="cls-21" transform="translate(680.29 502.67)">to the charit<tspan class="cls-68" x="31.27" y="0">y</tspan><tspan x="33.82" y="0">.</tspan></text><text class="cls-21" transform="translate(747.12 466.76)">Shop owner </text><text class="cls-21" transform="translate(747.12 474.73)">contacts charity </text><text class="cls-21" transform="translate(747.12 482.71)">to track the </text><text class="cls-21" transform="translate(747.12 490.69)">progress of the </text><text class="cls-21" transform="translate(747.12 498.67)">donation.</text><text class="cls-21" transform="translate(745.13 528.59)">shop owner </text><text class="cls-21" transform="translate(745.13 536.57)">checks the </text><text class="cls-21" transform="translate(745.13 544.55)">customers&apos; </text><text class="cls-21" transform="translate(745.13 552.53)">information and </text><text class="cls-21" transform="translate(745.13 560.5)">confirm the list of </text><text class="cls-21" transform="translate(745.13 568.48)">donors.</text><text class="cls-21" transform="translate(813.96 470.73)">Shop owner contacts </text><text class="cls-21" transform="translate(813.96 478.71)">other retired artisans </text><text class="cls-21" transform="translate(813.96 486.69)">like retired carpenters </text><text class="cls-21" transform="translate(813.96 494.66)">to join the workshop.</text><text class="cls-21" transform="translate(884.78 462.75)">Shop owner contacts </text><text class="cls-21" transform="translate(884.78 470.72)">with handmaking </text><text class="cls-21" transform="translate(884.78 478.7)">shops and artisans </text><text class="cls-21" transform="translate(884.78 486.68)">in other cities to </text><text class="cls-21" transform="translate(884.78 494.66)">develop activities </text><text class="cls-21" transform="translate(884.78 502.64)">in local communities.</text><text class="cls-21" transform="translate(1025.42 474.7)">Shop keeper contacts </text><text class="cls-21" transform="translate(1025.42 482.68)">the university to hold </text><text class="cls-21" transform="translate(1025.42 490.66)">exhibition.</text><text class="cls-21" transform="translate(1025.42 531.55)">Shop keeper contacts </text><text class="cls-21" transform="translate(1025.42 539.53)">the university to recruit </text><text class="cls-21" transform="translate(1025.42 547.51)">volunteers.</text><text class="cls-21" transform="translate(205.49 533.55)">Shop owner plans for the </text><text class="cls-21" transform="translate(205.49 541.53)">proces, application and </text><text class="cls-21" transform="translate(205.49 549.5)">other information related </text><text class="cls-21" transform="translate(205.49 557.48)">to the activit<tspan class="cls-56" x="31.94" y="0">y</tspan><tspan class="cls-69" x="34.48" y="0">.</tspan></text><text class="cls-21" transform="translate(64.84 529.55)">Shop owner contacts </text><text class="cls-21" transform="translate(64.84 537.53)">with charity who </text><text class="cls-21" transform="translate(64.84 545.51)">accepts craft supplies.</text><text class="cls-21" transform="translate(64.84 572.44)">The shop owner sets </text><text class="cls-21" transform="translate(64.84 580.42)">up<tspan class="cls-70" x="6.66" y="0"> </tspan><tspan x="8.22" y="0">The Home of </tspan></text><text class="cls-21" transform="translate(64.84 588.39)">Handmade social </text><text class="cls-21" transform="translate(64.84 596.37)">media accounts.</text><text class="cls-21" transform="translate(61.85 623.3)">Shop owner collects </text><text class="cls-21" transform="translate(61.85 631.28)">old people‘s stories </text><text class="cls-21" transform="translate(61.85 639.26)">and writes introductions </text><text class="cls-21" transform="translate(61.85 647.24)">for the activities.</text><text class="cls-21" transform="translate(60.85 699.11)">Social media companies </text><text class="cls-21" transform="translate(60.85 707.09)">supply accounts for </text><text class="cls-21" transform="translate(60.85 715.06)">businesses.</text><text class="cls-21" transform="translate(205.49 699.1)"><tspan class="cls-61">W</tspan><tspan x="5.54" y="0">ebsite design company </tspan></text><text class="cls-21" transform="translate(205.49 707.08)">provides designing and </text><text class="cls-21" transform="translate(205.49 715.06)">building service.</text><text class="cls-21" transform="translate(343.14 699.1)">The bank provides </text><text class="cls-21" transform="translate(343.14 707.07)">online trading </text><text class="cls-21" transform="translate(343.14 715.05)">services.</text><text class="cls-21" transform="translate(417.95 699.09)">Mailboxe provides </text><text class="cls-21" transform="translate(417.95 707.07)">scheduled sending </text><text class="cls-21" transform="translate(417.95 715.05)">service.</text><text class="cls-21" transform="translate(678.3 696.09)">The delivery </text><text class="cls-21" transform="translate(678.3 704.07)">company provides </text><text class="cls-21" transform="translate(678.3 712.05)">packaging and </text><text class="cls-21" transform="translate(678.3 720.03)">sending services.</text><text class="cls-21" transform="translate(745.13 696.09)">The charity </text><text class="cls-21" transform="translate(745.13 704.06)">provides </text><text class="cls-21" transform="translate(745.13 712.04)">information of </text><text class="cls-21" transform="translate(745.13 720.02)">donation progres.</text><text class="cls-21" transform="translate(814.96 696.08)">The community </text><text class="cls-21" transform="translate(814.96 704.06)">provides information </text><text class="cls-21" transform="translate(814.96 712.04)">of the elderly in local </text><text class="cls-21" transform="translate(814.96 720.01)">communit<tspan class="cls-23" x="25.94" y="0">y</tspan><tspan class="cls-71" x="28.5" y="0">.</tspan></text><text class="cls-21" transform="translate(1024.43 700.07)">The university provides </text><text class="cls-21" transform="translate(1024.43 708.04)">center hall for </text><text class="cls-21" transform="translate(1024.43 716.02)">handcraft exhibition.</text><text class="cls-21" transform="translate(1029.41 746.95)">Student federation </text><text class="cls-21" transform="translate(1029.41 754.92)">provides support by </text><text class="cls-21" transform="translate(1029.41 762.9)">sending mails to </text><text class="cls-21" transform="translate(1029.41 770.88)">recruit volunteers.</text><text class="cls-21" transform="translate(205.49 749.93)"><tspan class="cls-61">W</tspan><tspan x="5.54" y="0">ebsite design company </tspan></text><text class="cls-21" transform="translate(205.49 757.91)">provides designing and </text><text class="cls-21" transform="translate(205.49 765.89)">building service.</text><text class="cls-21" transform="translate(148.63 375.87)">The shop owner </text><text class="cls-21" transform="translate(148.63 383.85)">put the activity </text><text class="cls-21" transform="translate(148.63 391.83)">information on the </text><text class="cls-21" transform="translate(148.63 399.8)">homepage.</text><text class="cls-21" transform="translate(212.47 367.89)">Shop owner designs </text><text class="cls-21" transform="translate(212.47 375.86)">the application form </text><text class="cls-21" transform="translate(212.47 383.84)">and put it with </text><text class="cls-21" transform="translate(212.47 391.82)">introductions of the </text><text class="cls-21" transform="translate(212.47 399.8)">elderly peoples on </text><text class="cls-21" transform="translate(212.47 407.78)">the website.</text><text class="cls-21" transform="translate(281.3 367.87)">The shop owner </text><text class="cls-21" transform="translate(281.3 375.85)">uploads the list </text><text class="cls-21" transform="translate(281.3 383.83)">of recyclable </text><text class="cls-21" transform="translate(281.3 391.81)">materials she </text><text class="cls-21" transform="translate(281.3 399.79)">needs to the </text><text class="cls-21" transform="translate(281.3 407.76)">website.</text><text class="cls-21" transform="translate(424.94 375.85)">Shop owner </text><text class="cls-21" transform="translate(424.94 383.82)">check </text><text class="cls-21" transform="translate(424.94 391.8)">the application </text><text class="cls-21" transform="translate(424.94 399.78)">information.</text><text class="cls-21" transform="translate(483.79 371.85)">The shop owner </text><text class="cls-21" transform="translate(483.79 379.83)">welcomes the </text><text class="cls-21" transform="translate(483.79 387.8)">participants and </text><text class="cls-21" transform="translate(483.79 395.78)">invites them to </text><text class="cls-21" transform="translate(483.79 403.76)">the workshp space.</text><text class="cls-21" transform="translate(547.63 367.85)">The shop owner </text><text class="cls-21" transform="translate(547.63 375.83)">provides materials, </text><text class="cls-21" transform="translate(547.63 383.81)">tools to participants </text><text class="cls-21" transform="translate(547.63 391.78)">and makes sure the </text><text class="cls-21" transform="translate(547.63 399.76)">workshop can go on </text><text class="cls-21" transform="translate(547.63 407.74)">successfull<tspan class="cls-23" x="29.27" y="0">y</tspan><tspan x="31.83" y="0">.</tspan></text><text class="cls-21" transform="translate(615.46 379.81)">The shop owner </text><text class="cls-21" transform="translate(615.46 387.79)">takes photos for </text><text class="cls-21" transform="translate(615.46 395.76)">them.</text><text class="cls-21" transform="translate(676.3 375.82)">The shop owner </text><text class="cls-21" transform="translate(676.3 383.79)">introduces about </text><text class="cls-21" transform="translate(676.3 391.77)">how the handmade </text><text class="cls-21" transform="translate(676.3 399.75)">work will be donated.</text><text class="cls-21" transform="translate(745.13 379.8)">The shop owner </text><text class="cls-21" transform="translate(745.13 387.78)">takes photos for </text><text class="cls-21" transform="translate(745.13 395.76)">them.</text><text class="cls-21" transform="translate(815.95 367.83)">Shop owner sends</text><text class="cls-21" transform="translate(815.95 375.8)">emails to inform </text><text class="cls-21" transform="translate(815.95 383.78)">participants.</text><text class="cls-21" transform="translate(815.95 391.76)">Shop owner notices </text><text class="cls-21" transform="translate(815.95 399.74)">Ai Lun usually join </text><text class="cls-21" transform="translate(815.95 407.72)">the workshop.</text><text class="cls-21" transform="translate(885.78 367.81)">Shop owner sends </text><text class="cls-21" transform="translate(885.78 375.79)">email to invite<tspan class="cls-72" x="36.59" y="0"> </tspan><tspan x="37.93" y="0">Ai Lun </tspan></text><text class="cls-21" transform="translate(885.78 383.77)">as one of the leader </text><text class="cls-21" transform="translate(885.78 391.75)">of workshop and they</text><text class="cls-21" transform="translate(885.78 399.73)">hold a workshop </text><text class="cls-21" transform="translate(885.78 407.7)">successfull<tspan class="cls-23" x="29.27" y="0">y</tspan><tspan x="31.83" y="0">.</tspan></text><text class="cls-21" transform="translate(956.59 371.79)">Shop owner sends </text><text class="cls-21" transform="translate(956.59 379.77)">email to<tspan class="cls-72" x="20.96" y="0"> </tspan><tspan class="cls-71" x="22.3" y="0">Ai Lun and </tspan></text><text class="cls-21" transform="translate(956.59 387.75)">tells her about other </text><text class="cls-21" transform="translate(956.59 395.73)">workshop locations </text><text class="cls-21" transform="translate(956.59 403.71)">around the countr<tspan class="cls-73" x="46.92" y="0">y</tspan><tspan x="49.47" y="0">.</tspan></text><text class="cls-21" transform="translate(1027.41 371.79)">Shop keeper and </text><text class="cls-21" transform="translate(1027.41 379.77)">volunteers hold the </text><text class="cls-21" transform="translate(1027.41 387.74)">exhibition at school, </text><text class="cls-21" transform="translate(1027.41 395.72)">send email to<tspan class="cls-72" x="35.6" y="0"> </tspan><tspan class="cls-71" x="36.94" y="0">Ai Lun </tspan></text><text class="cls-21" transform="translate(1027.41 403.7)">to inform he<tspan class="cls-72" x="31.6" y="0">r</tspan><tspan x="33.27" y="0">.</tspan></text><line class="cls-14" x1="238.4" y1="287.28" x2="238.4" y2="358.1"/><line class="cls-14" x1="238.4" y1="413.96" x2="238.4" y2="452.86"/><line class="cls-14" x1="542.13" y1="438.4" x2="542.13" y2="453.36"/><path class="cls-14" d="M239.9,439.38s-63.54,1.4-64.84-24.24" transform="translate(-1.5 -1.39)"/><path class="cls-14" d="M543.63,439.38s-31.82,1.4-32.42-24.24" transform="translate(-1.5 -1.39)"/><path class="cls-14" d="M239.9,439.38s63.54,1.6,64.83-24" transform="translate(-1.5 -1.39)"/><path class="cls-14" d="M543.63,439.38s31.82,1.6,32.42-24" transform="translate(-1.5 -1.39)"/><rect class="cls-74" width="1188.01" height="62.84"/><text class="cls-75" transform="translate(48.88 38.9)">Service Blueprint</text><text class="cls-76" transform="translate(1115.19 30.92)">Loving</text><text class="cls-76" transform="translate(1115.19 42.89)">Hands</text><g class="cls-33"><g class="cls-9"><line class="cls-77" x1="1032.4" y1="16.46" x2="1032.4" y2="47.38"/></g></g><polygon class="cls-11" points="1058.91 27.48 1058.81 28.48 1058.41 28.38 1058.81 26.09 1059.11 26.09 1059.01 27.08 1061.51 27.48 1061.41 27.88 1058.91 27.48"/><polygon class="cls-78" points="1058.91 27.48 1058.81 28.48 1058.41 28.38 1058.81 26.09 1059.11 26.09 1059.01 27.08 1061.51 27.48 1061.41 27.88 1058.91 27.48"/><polygon class="cls-11" points="1060.41 21.8 1063 23.09 1062.8 23.39 1061.7 22.89 1061.01 24.39 1062.2 24.89 1062 25.29 1059.41 23.99 1059.61 23.59 1060.71 24.09 1061.4 22.69 1060.31 22.19 1060.41 21.8"/><polygon class="cls-78" points="1060.41 21.8 1063 23.09 1062.8 23.39 1061.7 22.89 1061.01 24.39 1062.2 24.89 1062 25.29 1059.41 23.99 1059.61 23.59 1060.71 24.09 1061.4 22.69 1060.31 22.19 1060.41 21.8"/><polygon class="cls-11" points="1065.1 19.9 1065.39 20.2 1064 21.7 1061.9 19.7 1063.3 18.2 1063.6 18.4 1062.4 19.7 1063 20.3 1064 19.2 1064.3 19.4 1063.3 20.5 1064 21.1 1065.1 19.9"/><polygon class="cls-78" points="1065.1 19.9 1065.39 20.2 1064 21.7 1061.9 19.7 1063.3 18.2 1063.6 18.4 1062.4 19.7 1063 20.3 1064 19.2 1064.3 19.4 1063.3 20.5 1064 21.1 1065.1 19.9"/><polygon class="cls-11" points="1069.38 14.71 1070.38 17.41 1069.98 17.51 1069.48 16.31 1068.09 16.91 1068.59 18.1 1068.19 18.3 1067.19 15.61 1067.59 15.51 1067.99 16.71 1069.48 16.11 1069.09 14.91 1069.38 14.71"/><polygon class="cls-78" points="1069.38 14.71 1070.38 17.41 1069.98 17.51 1069.48 16.31 1068.09 16.91 1068.59 18.1 1068.19 18.3 1067.19 15.61 1067.59 15.51 1067.99 16.71 1069.48 16.11 1069.09 14.91 1069.38 14.71"/><path class="cls-11" d="M1076,16.9a1.1,1.1,0,1,0-1.1,1.09,1,1,0,0,0,1.1-1.09h0m-2.69.1a1.5,1.5,0,1,1,1.59,1.39h-.1a1.43,1.43,0,0,1-1.49-1.39h0" transform="translate(-1.5 -1.39)"/><path class="cls-78" d="M1076,16.9a1.1,1.1,0,1,0-1.1,1.09,1,1,0,0,0,1.1-1.09Zm-2.69.1a1.5,1.5,0,1,1,1.59,1.39h-.1a1.43,1.43,0,0,1-1.49-1.39Z" transform="translate(-1.5 -1.39)"/><polygon class="cls-11" points="1078.86 18 1079.56 15.91 1078.16 16.71 1077.96 16.61 1077.37 15.21 1076.67 17.31 1076.27 17.21 1077.16 14.51 1077.46 14.61 1078.16 16.31 1079.76 15.31 1080.06 15.41 1079.16 18.11 1078.86 18"/><polygon class="cls-78" points="1078.86 18 1079.56 15.91 1078.16 16.71 1077.96 16.61 1077.37 15.21 1076.67 17.31 1076.27 17.21 1077.16 14.51 1077.46 14.61 1078.16 16.31 1079.76 15.31 1080.06 15.41 1079.16 18.11 1078.86 18"/><polygon class="cls-11" points="1082.45 19.9 1082.25 20.2 1080.56 18.9 1082.35 16.71 1083.95 17.91 1083.75 18.2 1082.45 17.21 1081.95 17.91 1083.15 18.8 1082.85 19.1 1081.65 18.2 1081.06 18.9 1082.45 19.9"/><polygon class="cls-78" points="1082.45 19.9 1082.25 20.2 1080.56 18.9 1082.35 16.71 1083.95 17.91 1083.75 18.2 1082.45 17.21 1081.95 17.91 1083.15 18.8 1082.85 19.1 1081.65 18.2 1081.06 18.9 1082.45 19.9"/><path class="cls-11" d="M1088.24,25.67a1.09,1.09,0,1,0-.9-2,1.06,1.06,0,0,0-.5,1.5.94.94,0,0,0,1.4.49h0m-1.1-2.29a1.54,1.54,0,1,1-.6,2.1v-.1a1.34,1.34,0,0,1,.6-2h0" transform="translate(-1.5 -1.39)"/><path class="cls-78" d="M1088.24,25.67a1.09,1.09,0,1,0-.9-2,1.06,1.06,0,0,0-.5,1.5.94.94,0,0,0,1.4.49Zm-1.1-2.29a1.54,1.54,0,1,1-.6,2.1v-.1a1.34,1.34,0,0,1,.6-2Z" transform="translate(-1.5 -1.39)"/><polygon class="cls-11" points="1088.54 26.68 1087.54 26.88 1087.74 28.28 1087.44 28.38 1087.24 26.98 1086.04 27.08 1085.94 26.68 1088.74 26.28 1089.04 28.28 1088.64 28.38 1088.54 26.68"/><polygon class="cls-78" points="1088.54 26.68 1087.54 26.88 1087.74 28.28 1087.44 28.38 1087.24 26.98 1086.04 27.08 1085.94 26.68 1088.74 26.28 1089.04 28.28 1088.64 28.38 1088.54 26.68"/><polygon class="cls-11" points="1063.31 36.31 1060.72 37.6 1060.52 37.2 1061.61 36.6 1060.91 35.21 1059.82 35.71 1059.62 35.41 1062.21 34.11 1062.41 34.51 1061.31 35.01 1062.11 36.51 1063.21 35.91 1063.31 36.31"/><polygon class="cls-78" points="1063.31 36.31 1060.72 37.6 1060.52 37.2 1061.61 36.6 1060.91 35.21 1059.82 35.71 1059.62 35.41 1062.21 34.11 1062.41 34.51 1061.31 35.01 1062.11 36.51 1063.21 35.91 1063.31 36.31"/><path class="cls-11" d="M1065.6,41.38l.6-1.39-1.5.49Zm-.1.3-1.09-1.1-.7.3-.3-.3,3-1.09.3.3-1.1,3-.4-.3Z" transform="translate(-1.5 -1.39)"/><path class="cls-78" d="M1065.6,41.38l.6-1.39-1.5.49Zm-.1.3-1.09-1.1-.7.3-.3-.3,3-1.09.3.3-1.1,3-.4-.3Z" transform="translate(-1.5 -1.39)"/><polygon class="cls-11" points="1069.09 41.09 1067.8 43.59 1067.5 43.49 1067 40.8 1066 42.69 1065.6 42.49 1066.9 39.9 1067.2 40.1 1067.7 42.79 1068.69 40.9 1069.09 41.09"/><polygon class="cls-78" points="1069.09 41.09 1067.8 43.59 1067.5 43.49 1067 40.8 1066 42.69 1065.6 42.49 1066.9 39.9 1067.2 40.1 1067.7 42.79 1068.69 40.9 1069.09 41.09"/><path class="cls-11" d="M1072.78,45.67a1.07,1.07,0,1,0,.5-2.09h-.2l-.69-.2-.4,2.09ZM1072,43l1.19.2a1.45,1.45,0,1,1-.3,2.89h-.2l-1.19-.2Z" transform="translate(-1.5 -1.39)"/><path class="cls-78" d="M1072.78,45.67a1.07,1.07,0,1,0,.5-2.09h-.2l-.69-.2-.4,2.09ZM1072,43l1.19.2a1.45,1.45,0,1,1-.3,2.89h-.2l-1.19-.2Z" transform="translate(-1.5 -1.39)"/><polygon class="cls-11" points="1077.57 44.38 1077.17 42.19 1076.38 43.49 1076.18 43.49 1074.98 42.49 1075.38 44.68 1074.98 44.78 1074.48 41.99 1074.78 41.99 1076.18 43.09 1077.07 41.59 1077.37 41.49 1077.87 44.28 1077.57 44.38"/><polygon class="cls-78" points="1077.57 44.38 1077.17 42.19 1076.38 43.49 1076.18 43.49 1074.98 42.49 1075.38 44.68 1074.98 44.78 1074.48 41.99 1074.78 41.99 1076.18 43.09 1077.07 41.59 1077.37 41.49 1077.87 44.28 1077.57 44.38"/><path class="cls-11" d="M1082.76,43.08l-1.2-.9.1,1.5Zm.3.2-1.3.7.1.79-.4.2-.3-3.19.4-.2,2.5,2-.4.2Z" transform="translate(-1.5 -1.39)"/><path class="cls-78" d="M1082.76,43.08l-1.2-.9.1,1.5Zm.3.2-1.3.7.1.79-.4.2-.3-3.19.4-.2,2.5,2-.4.2Z" transform="translate(-1.5 -1.39)"/><path class="cls-11" d="M1086.15,41.18a1.08,1.08,0,0,0,.1-1.49,1.09,1.09,0,0,0-1.5-.1l-.1.1-.49.6,1.59,1.49Zm-2.69-.79.8-.9a1.41,1.41,0,0,1,2.19,1.79c0,.1-.1.1-.2.2l-.8.9Z" transform="translate(-1.5 -1.39)"/><path class="cls-78" d="M1086.15,41.18a1.08,1.08,0,0,0,.1-1.49,1.09,1.09,0,0,0-1.5-.1l-.1.1-.49.6,1.59,1.49Zm-2.69-.79.8-.9a1.41,1.41,0,0,1,2.19,1.79c0,.1-.1.1-.2.2l-.8.9Z" transform="translate(-1.5 -1.39)"/><polygon class="cls-11" points="1087.75 35.11 1088.05 35.31 1087.15 37.2 1084.56 35.81 1085.45 34.01 1085.75 34.21 1085.05 35.71 1085.85 36.01 1086.45 34.71 1086.75 34.91 1086.15 36.21 1086.95 36.6 1087.75 35.11"/><polygon class="cls-78" points="1087.75 35.11 1088.05 35.31 1087.15 37.2 1084.56 35.81 1085.45 34.01 1085.75 34.21 1085.05 35.71 1085.85 36.01 1086.45 34.71 1086.75 34.91 1086.15 36.21 1086.95 36.6 1087.75 35.11"/><path class="cls-11" d="M1075.29,50.36a19.44,19.44,0,0,1-10.17-36l.3.4a19,19,0,1,0,28.82,16.16,19.19,19.19,0,0,0-5.48-13.36l.3-.3a19.39,19.39,0,0,1-13.77,33.11" transform="translate(-1.5 -1.39)"/><path class="cls-78" d="M1075.29,50.36a19.44,19.44,0,0,1-10.17-36l.3.4a19,19,0,1,0,28.82,16.16,19.19,19.19,0,0,0-5.48-13.36l.3-.3a19.39,19.39,0,0,1-13.77,33.11Z" transform="translate(-1.5 -1.39)"/><g class="cls-79"><g class="cls-80"><rect class="cls-81" x="1100.47" y="794.4" width="11.47" height="21.35"/></g></g><g class="cls-82"><g class="cls-83"><rect class="cls-84" x="1113.84" y="794.7" width="18.85" height="20.95"/></g></g><g class="cls-85"><g class="cls-86"><rect class="cls-87" x="1132.69" y="794.4" width="11.87" height="21.85"/></g></g><g class="cls-88"><g class="cls-89"><rect class="cls-90" x="1145.96" y="794.1" width="12.17" height="21.35"/></g></g><path class="cls-91" d="M1157.72,791.4a1.4,1.4,0,1,1-1.39,1.39,1.39,1.39,0,0,1,1.39-1.39" transform="translate(-1.5 -1.39)"/><path class="cls-92" d="M1107.75,818.53a1.4,1.4,0,1,1-1.4,1.39,1.4,1.4,0,0,1,1.4-1.39" transform="translate(-1.5 -1.39)"/><path class="cls-93" d="M1111.74,816.83a1,1,0,1,1-1,1,1,1,0,0,1,1-1" transform="translate(-1.5 -1.39)"/><path class="cls-94" d="M1149.94,792.69a1,1,0,1,1-1,1,1,1,0,0,1,1-1" transform="translate(-1.5 -1.39)"/></g></g></g></g></g></g></g></g></g></g></svg>