<svg xmlns="http://www.w3.org/2000/svg" xmlns:xlink="http://www.w3.org/1999/xlink" viewBox="0 0 1191 842"><defs><style>.cls-1{fill:url(#未命名的渐变_8);}.cls-2{fill:url(#未命名的渐变_8-2);}.cls-3{fill:url(#未命名的渐变_8-3);}.cls-4{fill:url(#未命名的渐变_8-4);}.cls-39,.cls-45,.cls-46,.cls-5{fill:none;}.cls-6{clip-path:url(#clip-path);}.cls-7{font-size:11px;fill:#143757;}.cls-17,.cls-20,.cls-35,.cls-36,.cls-7{font-family:Arial-BoldMT, Arial;font-weight:700;}.cls-8{font-size:10px;fill:#7d85ae;}.cls-21,.cls-42,.cls-8{font-family:ArialMT, Arial;}.cls-9{clip-path:url(#clip-path-4);}.cls-10{clip-path:url(#clip-path-5);}.cls-11,.cls-17,.cls-42{fill:#fff;}.cls-12{fill:#fdfdfd;}.cls-13{fill:#f1f6f3;}.cls-14{fill:#d9e7dd;}.cls-15,.cls-20,.cls-21{fill:#344c43;}.cls-16{fill:#284c27;}.cls-17{font-size:22px;}.cls-18{letter-spacing:-0.05em;}.cls-19{fill:#a0bcab;}.cls-20{font-size:8px;}.cls-21{font-size:7px;}.cls-22{letter-spacing:-0.02em;}.cls-23{letter-spacing:-0.02em;}.cls-24{letter-spacing:-0.11em;}.cls-25{letter-spacing:0em;}.cls-26{letter-spacing:-0.02em;}.cls-27{fill:#65969d;}.cls-28{fill:#a5bb8d;}.cls-29{opacity:0.05;}.cls-29,.cls-31,.cls-33,.cls-37,.cls-44{isolation:isolate;}.cls-30{fill:#eedf8c;}.cls-31{opacity:0.15;}.cls-32{fill:#deaa33;}.cls-33{opacity:0.1;}.cls-34{opacity:0.8;}.cls-35{font-size:20px;}.cls-35,.cls-36,.cls-38{fill:#deaa53;}.cls-36{font-size:21px;}.cls-37{opacity:0.8;}.cls-39,.cls-45,.cls-46{stroke:#fff;}.cls-39{stroke-width:5px;}.cls-40{letter-spacing:-0.04em;}.cls-41{letter-spacing:-0.07em;}.cls-42{font-size:14px;}.cls-43{letter-spacing:0.02em;}.cls-44{opacity:0.6;}.cls-45{stroke-linecap:round;stroke-width:2px;}.cls-46{stroke-miterlimit:10;stroke-width:0.5px;}.cls-47{clip-path:url(#clip-path-13);}.cls-48{mask:url(#mask);}.cls-49{fill:url(#未命名的渐变_7);}.cls-50{clip-path:url(#clip-path-14);}.cls-51{mask:url(#mask-2);}.cls-52{fill:url(#未命名的渐变_7-2);}.cls-53{clip-path:url(#clip-path-15);}.cls-54{mask:url(#mask-3);}.cls-55{fill:url(#未命名的渐变_7-3);}.cls-56{clip-path:url(#clip-path-16);}.cls-57{mask:url(#mask-4);}.cls-58{fill:url(#未命名的渐变_7-4);}.cls-59{fill:#134d2f;}.cls-60{fill:#b7b456;}.cls-61{fill:#acaa51;}.cls-62{fill:#3f5d35;}</style><linearGradient id="未命名的渐变_8" x1="-3455.57" y1="954.87" x2="-3454.57" y2="954.87" gradientTransform="matrix(61.54, 0, 0, -114.39, 213764.63, 110036.53)" gradientUnits="userSpaceOnUse"><stop offset="0" stop-color="#fff"/><stop offset="1" stop-color="#fff"/></linearGradient><linearGradient id="未命名的渐变_8-2" x1="-3455.59" y1="955.51" x2="-3454.59" y2="955.51" gradientTransform="matrix(61.56, 0, 0, -69.18, 213816.44, 66910.92)" xlink:href="#未命名的渐变_8"/><linearGradient id="未命名的渐变_8-3" x1="-3455.64" y1="954.87" x2="-3454.64" y2="954.87" gradientTransform="matrix(61.61, 0, 0, -114.13, 214015.35, 109782.1)" xlink:href="#未命名的渐变_8"/><linearGradient id="未命名的渐变_8-4" x1="-3455.62" y1="954.93" x2="-3454.62" y2="954.93" gradientTransform="matrix(61.59, 0, 0, -108.72, 213943.26, 104628.9)" xlink:href="#未命名的渐变_8"/><clipPath id="clip-path" transform="translate(0 0.11)"><rect class="cls-5" width="1190.55" height="841.89"/></clipPath><clipPath id="clip-path-4" transform="translate(0 0.11)"><rect class="cls-5" width="1190.55" height="841.89"/></clipPath><clipPath id="clip-path-5" transform="translate(0 0.11)"><rect class="cls-5" x="-32768" y="-31925.11" width="65535" height="65535"/></clipPath><clipPath id="clip-path-13" transform="translate(0 0.11)"><path class="cls-5" d="M1113.25,799a8.1,8.1,0,0,0-.82-1.32,2.2,2.2,0,0,0-.84-.7,5,5,0,0,0-2.75-.57,5.92,5.92,0,0,0-3.43,1.48,9.14,9.14,0,0,0-2,2.33,7.37,7.37,0,0,0-1,2.53,6.94,6.94,0,0,0,.08,2.76,8.51,8.51,0,0,0,.66,1.83,7.75,7.75,0,0,0,1.08,1.6c.29.36.61.71.93,1s.65.66,1,1a16.2,16.2,0,0,1,1.83,2,11.44,11.44,0,0,1,.76,1.15,6.15,6.15,0,0,1,.28.71,1.24,1.24,0,0,1-.13,1,1.48,1.48,0,0,1-.9.74,1.11,1.11,0,0,1-1.48-.53,1,1,0,0,1-.09-.24,1.83,1.83,0,0,1,.19-1.64c.26-.34.18-.58-.22-.7a2.66,2.66,0,0,0-1.19-.07,1.58,1.58,0,0,0-1.13,1.49,2.83,2.83,0,0,0,0,.41,2.62,2.62,0,0,0,2.12,2.19c.23,0,.46.06.69.08a4.06,4.06,0,0,1,.69.08v-.07l.34,0a1.22,1.22,0,0,0,.33,0,6.06,6.06,0,0,0,2.44-.61,4.18,4.18,0,0,0,.88-.61,3,3,0,0,0,.66-.8,1.65,1.65,0,0,0,.26-1.41,4.56,4.56,0,0,0-.41-1.06q-.23-.4-.48-.78a5.53,5.53,0,0,0-.58-.7l-.76-.81c-.25-.27-.52-.53-.8-.79a15.33,15.33,0,0,1-1.14-1.14,13.72,13.72,0,0,1-1-1.27,8.87,8.87,0,0,1-.83-1.43,6.37,6.37,0,0,1-.52-1.58c-.07-.37-.12-.72-.16-1.06a3.43,3.43,0,0,1,0-1.06,8.22,8.22,0,0,1,1.83-3.91,3.14,3.14,0,0,1,1.15-.93.91.91,0,0,1,1,.06,1.59,1.59,0,0,1,.52.48,4,4,0,0,1,.79,1.67,3.25,3.25,0,0,1,.13,1.12,8.5,8.5,0,0,1-.13,1.13,8.81,8.81,0,0,1-.56,2.07,6.36,6.36,0,0,1-1.14,1.81l-.29.38c-.23.32-.17.53.19.64a1.53,1.53,0,0,0,.52.13,2.31,2.31,0,0,0,1.76-.57,6.06,6.06,0,0,0,1-1.22,5.22,5.22,0,0,0,.66-1.51,7.57,7.57,0,0,0,.23-1.17l.12-1.17a3.38,3.38,0,0,0-.06-.9,4.43,4.43,0,0,0-.43-1.48"/></clipPath><mask id="mask" x="1102.31" y="796.45" width="11.45" height="21.21" maskUnits="userSpaceOnUse"><g transform="translate(0 0.11)"><rect class="cls-1" x="1102.31" y="796.34" width="11.45" height="21.21"/></g></mask><linearGradient id="未命名的渐变_7" x1="-3455.57" y1="954.87" x2="-3454.57" y2="954.87" gradientTransform="matrix(61.54, 0, 0, -114.39, 213764.63, 110036.64)" gradientUnits="userSpaceOnUse"><stop offset="0" stop-color="#d4cd5d"/><stop offset="1" stop-color="#134d2f"/></linearGradient><clipPath id="clip-path-14" transform="translate(0 0.11)"><path class="cls-5" d="M1133.83,802.67c0-.47-.08-.93-.11-1.38s-.08-.9-.15-1.35-.1-.59-.16-.87-.13-.57-.19-.86a.76.76,0,0,0-.74-.61h-.35c-.38.06-.53.3-.45.7l.13.53c0,.19.08.36.13.53a18.47,18.47,0,0,1,.83,5.27,13.83,13.83,0,0,1,0,1.44c0,.47-.07.95-.12,1.44a25.47,25.47,0,0,1-.43,2.52,18.77,18.77,0,0,1-.72,2.46,9.48,9.48,0,0,1-.8,1.67,1.79,1.79,0,0,1-.23.25,5.7,5.7,0,0,1-.37-.69,7,7,0,0,1-.24-.69,15.31,15.31,0,0,1-.54-2.12c-.13-.7-.24-1.42-.32-2.14,0-.43-.08-.85-.12-1.26s-.06-.82-.11-1.25c0-.26-.07-.52-.1-.78l-.06-.82c0-.58-.09-1.15-.13-1.72a13.83,13.83,0,0,0-.23-1.68,1,1,0,0,1,0-.24.48.48,0,0,0-.06-.24.93.93,0,0,0-.93-.76,1.26,1.26,0,0,0-1,.21,1.65,1.65,0,0,0-.43.84,18.45,18.45,0,0,0-.35,1.92c-.09.64-.15,1.31-.2,2a4,4,0,0,1,0,.69c0,.22-.07.45-.11.69-.24,1.09-.5,2.18-.79,3.26s-.61,2.15-1,3.22c-.17.49-.36,1-.57,1.43s-.45.9-.7,1.33c-.11.12-.24.29-.38.48a3.18,3.18,0,0,1-.38-.76c-.09-.25-.19-.49-.29-.73a15,15,0,0,1-.7-2.18c-.18-.75-.36-1.49-.53-2.24a33.9,33.9,0,0,1-.51-3.62c-.11-1.21-.19-2.42-.23-3.64q-.06-1.15-.06-2.31c0-.77,0-1.53-.07-2.28a4.41,4.41,0,0,0,0-.52,4.59,4.59,0,0,0-.1-.51.8.8,0,0,0-.74-.71,2.3,2.3,0,0,0-.74,0,1,1,0,0,0-.9.68c0,.15-.09.29-.14.43s-.1.29-.15.45a24.6,24.6,0,0,0-.67,4.75,14.29,14.29,0,0,0,0,1.6c0,.54,0,1.07.1,1.6.07,1,.18,2,.34,2.92a25.19,25.19,0,0,0,.65,2.86,12.61,12.61,0,0,0,1.86,3.81,4,4,0,0,0,1.07,1.15,3.24,3.24,0,0,0,2.43.57,1.87,1.87,0,0,0,1.51-1.15c.07-.15.12-.29.18-.44s.1-.28.14-.43a26.69,26.69,0,0,0,.76-2.71c.21-.91.43-1.82.68-2.74a1,1,0,0,1,.08-.29c0-.13.08-.25.11-.38,0,.14.06.27.08.42a1.25,1.25,0,0,0,.08.32,8.44,8.44,0,0,1,.22.93,7.7,7.7,0,0,0,.26.94,9.61,9.61,0,0,0,1.67,3.08,3,3,0,0,0,1.31,1,4,4,0,0,0,1.6.19,2.19,2.19,0,0,0,1.93-1.45,13.86,13.86,0,0,0,.76-2.28,19.27,19.27,0,0,0,.57-3.21c.1-1.07.15-2.15.18-3.23,0-.55,0-1.1,0-1.64s-.06-1.07-.1-1.62"/></clipPath><mask id="mask-2" x="1115.36" y="796.65" width="18.61" height="21" maskUnits="userSpaceOnUse"><g transform="translate(0 0.11)"><rect class="cls-2" x="1115.36" y="796.54" width="18.61" height="21"/></g></mask><linearGradient id="未命名的渐变_7-2" x1="-3455.59" y1="955.51" x2="-3454.59" y2="955.51" gradientTransform="matrix(61.56, 0, 0, -69.18, 213816.42, 66911.03)" xlink:href="#未命名的渐变_7"/><clipPath id="clip-path-15" transform="translate(0 0.11)"><path class="cls-5" d="M1142.33,799.58c0,.71-.1,1.41-.19,2.1s-.18,1.39-.29,2.09c-.06.54-.12,1.06-.17,1.57s-.1,1-.14,1.58a.73.73,0,0,0,0,.25,1.36,1.36,0,0,1,0,.29q-1,.25-1.89.57a15.81,15.81,0,0,0-1.8.74c-.07-.06-.1-.11-.1-.13.29-1.35.63-2.67,1-4a26.75,26.75,0,0,1,1.44-3.86,12.75,12.75,0,0,1,1.29-2.31c.08-.13.17-.25.25-.37s.18-.24.29-.37l.12-.08.17-.11c0,.36.08.71.1,1a8,8,0,0,1,0,1m3.39,7.42a2.18,2.18,0,0,1-.72-.13v-.36c0-.56,0-1.1,0-1.62s0-1.06,0-1.62c0-.75,0-1.49,0-2.21s-.11-1.47-.22-2.22a6.08,6.08,0,0,0-.38-1.51,1.67,1.67,0,0,0-1.16-1,2.42,2.42,0,0,0-1.07,0,1.91,1.91,0,0,0-.92.58,6.2,6.2,0,0,0-.42.46l-.38.5c-.27.4-.53.81-.76,1.23s-.43.84-.62,1.27a29,29,0,0,0-1.27,3.24c-.35,1.09-.66,2.21-.92,3.37-.1.43-.19.85-.27,1.28s-.16.86-.27,1.28l-.29.19-.51.38-.51.42a1.94,1.94,0,0,0-.23.27,2.19,2.19,0,0,0-.16.3.38.38,0,0,0,.1.52.3.3,0,0,0,.16,0,.87.87,0,0,0,.67-.06l.19-.13a2.1,2.1,0,0,1,.26-.13.92.92,0,0,1,0,.29c-.06.51-.13,1-.2,1.52s-.14,1-.18,1.53a10.52,10.52,0,0,0-.07,1.12c0,.38,0,.76,0,1.12a1.31,1.31,0,0,0,0,.28c0,.07,0,.16,0,.27a.81.81,0,0,0,.19.38.46.46,0,0,0,.32.1.46.46,0,0,0,.16-.23.42.42,0,0,0,0-.22l.21-2.12c.07-.7.16-1.41.27-2.12.09-.49.17-1,.26-1.43s.17-.93.26-1.42c.66-.37,1.32-.71,2-1a11.48,11.48,0,0,1,2.08-.76.57.57,0,0,1,0,.18.23.23,0,0,0,0,.14c0,.84,0,1.65.1,2.44a18.15,18.15,0,0,0,.35,2.44,13,13,0,0,0,.74,2.37,8,8,0,0,0,.57,1.13,1.41,1.41,0,0,0,1.44.74c.38,0,.56-.24.51-.65l-.06-.38-.06-.38a7.09,7.09,0,0,1-.1-1.22c0-.42,0-.83-.07-1.25,0-1,0-2,0-3s.06-2,.1-3a1.37,1.37,0,0,1,0-.19,1.15,1.15,0,0,0,0-.19l.68-.12.29-.12.25-.11a.21.21,0,0,0,.1-.06l.1-.12a.82.82,0,0,0-.66-.34"/></clipPath><mask id="mask-3" x="1134.55" y="796.36" width="11.83" height="21.9" maskUnits="userSpaceOnUse"><g transform="translate(0 0.11)"><rect class="cls-3" x="1134.55" y="796.25" width="11.83" height="21.9"/></g></mask><linearGradient id="未命名的渐变_7-3" x1="-3455.64" y1="954.87" x2="-3454.64" y2="954.87" gradientTransform="matrix(61.61, 0, 0, -114.13, 214015.35, 109782.21)" xlink:href="#未命名的渐变_7"/><clipPath id="clip-path-16" transform="translate(0 0.11)"><path class="cls-5" d="M1159.92,800.19c0-.38-.06-.77-.11-1.17s-.12-.78-.18-1.17a3.1,3.1,0,0,0-.08-.42l-.11-.41a1.19,1.19,0,0,0-1.47-.84l-.12,0a.76.76,0,0,0-.53.51,2.36,2.36,0,0,0-.1.38l-.06.38c0,.43-.09.85-.13,1.25l-.13,1.22c0,.13,0,.25-.05.37a1.51,1.51,0,0,1-.07.37,32.1,32.1,0,0,1-1.83,5.2,8.63,8.63,0,0,1-1.54,2.37,5.33,5.33,0,0,1-.4.42,1.86,1.86,0,0,1-.47.32,1.16,1.16,0,0,1-.29-.37l-.19-.43a7.75,7.75,0,0,1-.48-1.48c-.11-.49-.19-1-.26-1.51-.06-.72-.1-1.45-.11-2.18s0-1.45,0-2.17c0-.56,0-1.11,0-1.67s0-1.11,0-1.67v-.3a.8.8,0,0,0-.06-.3.68.68,0,0,0-.48-.57,1.74,1.74,0,0,0-1.29,0,1.62,1.62,0,0,0-.86.92,3.7,3.7,0,0,0-.32,1.09,15.93,15.93,0,0,0-.3,2.58c0,.75,0,1.48,0,2.2a10.19,10.19,0,0,0,.35,2.13c.15.5.31,1,.49,1.45a7.32,7.32,0,0,0,.67,1.38,4.4,4.4,0,0,0,1,1.18,2.61,2.61,0,0,0,.76.47,2.87,2.87,0,0,0,1,.19,2.47,2.47,0,0,0,1-.16,2.29,2.29,0,0,0,.85-.59,6.33,6.33,0,0,0,1.09-1.54c.26-.5.49-1,.71-1.51s.4-1,.57-1.57a2.32,2.32,0,0,1,.16-.44,2.51,2.51,0,0,0,.16-.46h.1a.17.17,0,0,0,0,.1.14.14,0,0,1,0,.06c0,.71,0,1.41,0,2.12s0,1.4-.06,2.09a27.14,27.14,0,0,1-.52,3.37,6.93,6.93,0,0,1-1.25,2.73,6.18,6.18,0,0,1-1.2,1.25,4.35,4.35,0,0,1-1.52.76.57.57,0,0,1-.51,0,1.08,1.08,0,0,1-.39-.28,1.59,1.59,0,0,1-.31-.57,6.29,6.29,0,0,1-.17-.62.76.76,0,0,1,0-.21.76.76,0,0,0,0-.21.58.58,0,0,0-.35-.45,1.56,1.56,0,0,0-1.35,0,.49.49,0,0,0-.32.41,2.82,2.82,0,0,0,.32,1.54,2.07,2.07,0,0,0,1.12,1.06,4.6,4.6,0,0,0,2.81.27,8.11,8.11,0,0,0,4-2,8.42,8.42,0,0,0,2.18-3.89,19.07,19.07,0,0,0,.53-2.89,28,28,0,0,0,.15-2.9c0-.89,0-1.78,0-2.64s0-1.76-.07-2.67"/></clipPath><mask id="mask-4" x="1147.99" y="796.11" width="12.02" height="21.42" maskUnits="userSpaceOnUse"><g transform="translate(0 0.11)"><rect class="cls-4" x="1147.99" y="796" width="12.02" height="21.42"/></g></mask><linearGradient id="未命名的渐变_7-4" x1="-3455.62" y1="954.93" x2="-3454.62" y2="954.93" gradientTransform="matrix(61.59, 0, 0, -108.72, 213943.23, 104629.01)" xlink:href="#未命名的渐变_7"/></defs><g id="图层_2" data-name="图层 2"><g id="图层_1-2" data-name="图层 1"><g class="cls-6"><g class="cls-6"><text class="cls-7" transform="translate(56.69 792.8)">4</text><g class="cls-6"><text class="cls-8" transform="translate(973.22 792.8)">Service Design for Social Innovation</text></g><g class="cls-9"><g class="cls-10"><g class="cls-10"><rect class="cls-11" width="1191" height="842"/><path class="cls-12" d="M884.68,438.91l-274.2-.05c0-151.43,122.81-274.18,274.25-274.15,60.58,0,112.17,16.78,161.17,52.4Z" transform="translate(0 0.11)"/><path class="cls-13" d="M884.68,438.91l161.14,221.87c-122.54,89-294,61.8-383-60.73-35.59-49-52.35-100.61-52.34-161.18Z" transform="translate(0 0.11)"/><path class="cls-14" d="M884.68,438.91l161.22-221.8c122.5,89,149.63,260.52,60.59,383a260.67,260.67,0,0,1-60.67,60.65Z" transform="translate(0 0.11)"/><path class="cls-15" d="M807.11,344.15h-7.05a.43.43,0,0,0-.45.41.43.43,0,0,0,.41.45h7.09a.43.43,0,0,0,0-.86h0m1.63-9.63a.42.42,0,0,0-.43.38v10a.92.92,0,0,1-.85.86h-7.57c-.52,0-1.12-.43-1.12-.86V344c0-.43.52-.69,1-.69H807a.4.4,0,0,0,.43-.38,0,0,0,0,0,0-.05v-8.42a1.54,1.54,0,0,0-1.52-1.56h-6a1.68,1.68,0,0,0-1.88,1.46.28.28,0,0,0,0,.09v10.83a1.83,1.83,0,0,0,1.63,1.46h7.82a1.72,1.72,0,0,0,1.72-1.63V335a.45.45,0,0,0-.43-.43" transform="translate(0 0.11)"/><path class="cls-15" d="M194.11,284.15h-7.05a.43.43,0,0,0-.45.41.43.43,0,0,0,.41.45h7.09a.43.43,0,1,0,0-.86h0m1.63-9.63a.42.42,0,0,0-.43.38v10a.92.92,0,0,1-.85.86h-7.57c-.52,0-1.12-.43-1.12-.86V284c0-.43.52-.69,1-.69H194a.4.4,0,0,0,.43-.38,0,0,0,0,0,0-.05v-8.42a1.54,1.54,0,0,0-1.52-1.56h-6a1.68,1.68,0,0,0-1.88,1.46.28.28,0,0,0,0,.09v10.83a1.83,1.83,0,0,0,1.63,1.46h7.82a1.72,1.72,0,0,0,1.72-1.63V275a.45.45,0,0,0-.43-.43" transform="translate(0 0.11)"/><rect class="cls-16" width="1191" height="63"/><text class="cls-17" transform="translate(49 39)"><tspan class="cls-18">V</tspan><tspan x="13.46" y="0">alue Proposition Canvas</tspan></text><path class="cls-19" d="M769.64,679.88l1.58-4-1.54-.62a8.07,8.07,0,0,0-2.31-.67,2,2,0,0,0-1.15.34,2.06,2.06,0,0,0-.75.95,1.94,1.94,0,0,0-.05,1.44,2,2,0,0,0,.88,1.06,14.73,14.73,0,0,0,2,.91Zm7.44-10.44-5.57,13.92-4.51-1.8a17.08,17.08,0,0,1-3.26-1.55,3.89,3.89,0,0,1-1.46-2.16,4.67,4.67,0,0,1,.27-3,5,5,0,0,1,1.33-2,4.22,4.22,0,0,1,1.73-.9,4.38,4.38,0,0,1,1.73-.07,17.64,17.64,0,0,1,3,1l1.84.73,2.1-5.25Z" transform="translate(0 0.11)"/><path class="cls-19" d="M757,666.61a17.74,17.74,0,0,1,1.77.32,5.28,5.28,0,0,0,1.63.2,1.21,1.21,0,0,0,.93-.69,1.37,1.37,0,0,0,0-1.14,1.53,1.53,0,0,0-.86-.87,2.46,2.46,0,0,0-1.56-.15,1.82,1.82,0,0,0-1,.58,6.13,6.13,0,0,0-.68,1.23Zm2.53,3.72,2.18,1.51a4.11,4.11,0,0,1-2.34,1.49,5.52,5.52,0,0,1-3.22-.63,6.94,6.94,0,0,1-2.42-1.61,2.8,2.8,0,0,1-.72-1.6,6,6,0,0,1,.71-2.5l1.42-3a11.53,11.53,0,0,0,.75-2,6.1,6.1,0,0,0,.14-1.54l2.59,1.18c0,.2-.05.5-.11.89,0,.17,0,.29,0,.35a5,5,0,0,1,1.88-.33,4.51,4.51,0,0,1,1.77.42,3.68,3.68,0,0,1,2,1.92,3,3,0,0,1-.07,2.5,3.16,3.16,0,0,1-1.08,1.32,3,3,0,0,1-1.58.49,9.89,9.89,0,0,1-2.36-.34,16.13,16.13,0,0,0-2.84-.52l-.11.26a1.49,1.49,0,0,0-.13,1.25,2.46,2.46,0,0,0,1.26,1,2.06,2.06,0,0,0,1.22.22,2.09,2.09,0,0,0,1.07-.67" transform="translate(0 0.11)"/><path class="cls-19" d="M754.31,659.56l-4.82,9.74L746.91,668l4.82-9.73Zm-5.48,11.06L747.65,673l-2.58-1.28,1.18-2.38Z" transform="translate(0 0.11)"/><path class="cls-19" d="M740.68,652.45l2.53,1.36-2.63,4.88a8.86,8.86,0,0,0-.92,2.09,1.62,1.62,0,0,0,.89,1.72,2.28,2.28,0,0,0,1.38.27,2,2,0,0,0,1.23-.57,9.09,9.09,0,0,0,1.37-2.09l2.34-4.33,2.53,1.36-5.16,9.57-2.35-1.27.76-1.41a4.41,4.41,0,0,1-5.39-1.2,2.8,2.8,0,0,1-.64-1.33,3.14,3.14,0,0,1,.08-1.33,8.29,8.29,0,0,1,.78-1.78Z" transform="translate(0 0.11)"/><path class="cls-19" d="M737.8,654.38l-2.71-1.11a2.07,2.07,0,0,0,0-1.47,2.47,2.47,0,0,0-1.12-1.18,2.88,2.88,0,0,0-1.65-.52.91.91,0,0,0-.72.47.76.76,0,0,0-.11.57,2.43,2.43,0,0,0,.63.82,15.18,15.18,0,0,1,3.07,3.47,2.8,2.8,0,0,1-.15,2.76,3,3,0,0,1-2.18,1.46,5.27,5.27,0,0,1-3.46-.95,6.09,6.09,0,0,1-2.47-2.33,3.73,3.73,0,0,1-.18-2.61l2.59,1a1.66,1.66,0,0,0,.07,1.18,2.49,2.49,0,0,0,1,1,3.14,3.14,0,0,0,1.56.56.68.68,0,0,0,.58-.33.64.64,0,0,0,0-.6,10.6,10.6,0,0,0-1.89-2.07,8,8,0,0,1-2.09-2.74,2.64,2.64,0,0,1,.33-2.3,3.28,3.28,0,0,1,2.39-1.56,5.51,5.51,0,0,1,3.71,1,6.07,6.07,0,0,1,2.56,2.58,4.15,4.15,0,0,1,.2,3" transform="translate(0 0.11)"/><path class="cls-19" d="M694.59,260.39l-1.85-1.71,4.43-4.8,4.39,4.06a8.05,8.05,0,0,1-.69,3.13,9.89,9.89,0,0,1-2,3.16,8.15,8.15,0,0,1-3.51,2.34,6.28,6.28,0,0,1-3.86,0,9.33,9.33,0,0,1-3.53-2.07,8.76,8.76,0,0,1-2.39-3.55,6.62,6.62,0,0,1-.09-4,7.71,7.71,0,0,1,1.89-3.15,7.17,7.17,0,0,1,3.82-2.4,5.24,5.24,0,0,1,3.75.71l-1.63,2.59a3.16,3.16,0,0,0-2.09-.31,3.62,3.62,0,0,0-2,1.17,4.09,4.09,0,0,0-1.22,3.17,5.35,5.35,0,0,0,1.94,3.4,5.93,5.93,0,0,0,3.75,1.85,4,4,0,0,0,3.09-1.38,5.15,5.15,0,0,0,1-1.65,6.81,6.81,0,0,0,.45-1.83l-1.4-1.29Z" transform="translate(0 0.11)"/><path class="cls-19" d="M705.36,249.82a16.35,16.35,0,0,1-1,1.54,5,5,0,0,0-.76,1.45,1.19,1.19,0,0,0,.3,1.12,1.44,1.44,0,0,0,1,.43,1.55,1.55,0,0,0,1.13-.49,2.44,2.44,0,0,0,.7-1.4,1.79,1.79,0,0,0-.17-1.16,5.87,5.87,0,0,0-.9-1.08Zm-4.38,1-2.2,1.49a4.08,4.08,0,0,1-.55-2.73,5.49,5.49,0,0,1,1.76-2.77,6.93,6.93,0,0,1,2.36-1.68,2.87,2.87,0,0,1,1.76-.1,5.94,5.94,0,0,1,2.08,1.57l2.32,2.42a11.86,11.86,0,0,0,1.58,1.42,6.4,6.4,0,0,0,1.39.68l-2,2a8.42,8.42,0,0,1-.79-.42,3.19,3.19,0,0,0-.31-.16,5.14,5.14,0,0,1-.37,1.86,4.51,4.51,0,0,1-1,1.51,3.68,3.68,0,0,1-2.53,1.2,3,3,0,0,1-2.3-1,3.14,3.14,0,0,1-.84-1.48,2.9,2.9,0,0,1,.11-1.65,9.26,9.26,0,0,1,1.17-2.08,15.85,15.85,0,0,0,1.5-2.46l-.2-.2a1.45,1.45,0,0,0-1.12-.56,2.5,2.5,0,0,0-1.35.82,2.13,2.13,0,0,0-.65,1.06,2.06,2.06,0,0,0,.25,1.24" transform="translate(0 0.11)"/><path class="cls-19" d="M712.91,249.86l-7.36-8,2.12-2,7.35,8Zm-8.36-9.09-1.8-2,2.12-1.94,1.8,2Z" transform="translate(0 0.11)"/><path class="cls-19" d="M724.45,239.68l-2.19,1.87-3.61-4.2a8.29,8.29,0,0,0-1.63-1.61,1.64,1.64,0,0,0-1-.22,1.76,1.76,0,0,0-.95.43,2.38,2.38,0,0,0-.75,1.19,2.09,2.09,0,0,0,.09,1.35,9.53,9.53,0,0,0,1.47,2l3.21,3.73-2.19,1.88-7.08-8.24,2-1.75,1,1.22a4.34,4.34,0,0,1,1.52-3.74,4.27,4.27,0,0,1,1.54-.87,2.9,2.9,0,0,1,1.46-.11,3.07,3.07,0,0,1,1.22.55,8.88,8.88,0,0,1,1.38,1.36Z" transform="translate(0 0.11)"/><path class="cls-19" d="M723.69,236.28l2-2.13a2.08,2.08,0,0,0,1.37.54,2.56,2.56,0,0,0,1.51-.63,2.85,2.85,0,0,0,1.06-1.36.89.89,0,0,0-.18-.84.73.73,0,0,0-.49-.3,2.29,2.29,0,0,0-1,.3,15.68,15.68,0,0,1-4.34,1.62,2.78,2.78,0,0,1-2.52-1.12,3,3,0,0,1-.59-2.56,5.23,5.23,0,0,1,2.12-2.89,6.1,6.1,0,0,1,3.06-1.48,3.69,3.69,0,0,1,2.5.77l-1.82,2.07a1.67,1.67,0,0,0-1.12-.36,2.46,2.46,0,0,0-1.3.59,3.13,3.13,0,0,0-1.08,1.26.66.66,0,0,0,.1.66.64.64,0,0,0,.55.23,10.64,10.64,0,0,0,2.61-1,7.89,7.89,0,0,1,3.32-1,2.67,2.67,0,0,1,2,1.12,3.3,3.3,0,0,1,.6,2.8,5.53,5.53,0,0,1-2.24,3.12,6.05,6.05,0,0,1-3.32,1.47,4.15,4.15,0,0,1-2.84-.88" transform="translate(0 0.11)"/><text class="cls-20" transform="translate(972 386)"><tspan xml:space="preserve">· Be able to adapt to face-to-face   </tspan></text><text class="cls-20" transform="translate(972 396)"><tspan xml:space="preserve">  interpersonal interactions before </tspan></text><text class="cls-20" transform="translate(972 406)"><tspan xml:space="preserve">  starting in-person lectures</tspan></text><text class="cls-21" transform="translate(797 360)">· Understanding local culture to </text><text class="cls-21" transform="translate(797 368)"><tspan xml:space="preserve">  avoid mistakes</tspan></text><text class="cls-21" transform="translate(797 382)">· Di<tspan class="cls-22" x="10.89" y="0">f</tspan><tspan x="12.71" y="0">ferent channels to understand </tspan></text><text class="cls-21" transform="translate(797 390)"><tspan xml:space="preserve">  local culture</tspan></text><text class="cls-20" transform="translate(817.2 342.09)">local culture</text><path class="cls-15" d="M803.64,219.34l0,.37v.64c0,3.42-2.65,5.78-6.34,5.78h-1.26a5.12,5.12,0,0,0,3.8,1.6,5.75,5.75,0,0,0,1-.09l2.37,1.48v-2.43a4.69,4.69,0,0,0,2.11-3.83,4.62,4.62,0,0,0-1.71-3.52Zm-3.82,1.5a.73.73,0,0,1-.73-.74.73.73,0,1,1,.73.74Zm-2.93,0a.74.74,0,0,1-.74-.74.74.74,0,1,1,.74.74Zm-2.94,0a.73.73,0,1,1,.74-.72.74.74,0,0,1-.74.72Zm2.94-6c-3.24,0-5.87,2.33-5.87,5.21a5,5,0,0,0,2.2,4.06v2.63l2.57-1.58a6.8,6.8,0,0,0,1.1.09c3.25,0,5.87-2.33,5.87-5.2s-2.63-5.21-5.87-5.21" transform="translate(0 0.11)"/><path class="cls-15" d="M334.62,341.33l0,.37v.65c0,3.41-2.65,5.77-6.34,5.77H327a5.15,5.15,0,0,0,3.8,1.6,5.86,5.86,0,0,0,1-.09l2.37,1.48v-2.43a4.69,4.69,0,0,0,2.11-3.83,4.62,4.62,0,0,0-1.71-3.52Zm-3.82,1.5a.73.73,0,1,1,.73-.72.74.74,0,0,1-.73.73Zm-2.93,0a.73.73,0,1,1,.73-.71.74.74,0,0,1-.73.71Zm-2.94,0a.73.73,0,1,1,0-1.46.74.74,0,1,1,0,1.47Zm2.94-5.95c-3.25,0-5.87,2.33-5.87,5.21a5,5,0,0,0,2.2,4.06v2.63l2.57-1.58a6.71,6.71,0,0,0,1.1.09c3.24,0,5.87-2.33,5.87-5.2s-2.63-5.21-5.87-5.21" transform="translate(0 0.11)"/><text class="cls-21" transform="translate(654 404)">· Gaining a sense of accomplishment</text><text class="cls-21" transform="translate(654 360)">·<tspan class="cls-23" x="2.33" y="0"> </tspan><tspan class="cls-24" x="4.15" y="0">T</tspan><tspan class="cls-25" x="7.66" y="0">aking part in some activities/do sth </tspan></text><text class="cls-21" transform="translate(654 368)"><tspan xml:space="preserve">   that are both meaningful  and </tspan></text><text class="cls-21" transform="translate(654 376)"><tspan xml:space="preserve">   optimally challenging</tspan></text><text class="cls-21" transform="translate(654 390)">· Getting a platform to show themselves</text><text class="cls-20" transform="translate(676.51 342.1)">Increasing self-worth</text><path class="cls-15" d="M666.07,340.13l-2.2,3a1.17,1.17,0,0,1-1.63.24,1.36,1.36,0,0,1-.24-.24l-2.2-3a.59.59,0,1,1,1-.7l2.18,3,2.17-3a.59.59,0,1,1,1,.7Zm4.08-3.73-1.68-2.94a1.23,1.23,0,0,0-1.09-.61h-8.9a1.26,1.26,0,0,0-1.1.61l-1.67,2.94a1.11,1.11,0,0,0,.07,1.2l5.63,7.77a1.9,1.9,0,0,0,2.67.37,1.85,1.85,0,0,0,.37-.37l.77-1.05,1.36-1.88,1.95-2.69,1.22-1.69.33-.46a1.11,1.11,0,0,0,.07-1.2" transform="translate(0 0.11)"/><text class="cls-21" transform="translate(654 485.95)">·<tspan class="cls-23" x="2.33" y="0"> </tspan><tspan class="cls-25" x="4.15" y="0">There is psychological gap about education experience because the life</tspan></text><text class="cls-21" transform="translate(654 494.33)"><tspan xml:space="preserve">   under the pandemic is too far apart from what they expected</tspan></text><text class="cls-21" transform="translate(654 511.09)">· Feeling of disappointment due to the lack of the opportunities to engage with</text><text class="cls-21" transform="translate(654 519.47)"><tspan xml:space="preserve">  a new culture, di</tspan><tspan class="cls-26" x="54.86" y="0">f</tspan><tspan x="56.69" y="0">ferent people</tspan></text><path class="cls-15" d="M662.09,462.23a.45.45,0,0,0-.56-.18l0,0-1.7,1-1.71-1a.44.44,0,0,0-.49.74l0,0,1.26.73-1.26.73,0,0a.45.45,0,0,0-.14.53l0,0,0,.05a.45.45,0,0,0,.53.14l.05,0,1.7-1,1.71,1a.44.44,0,0,0,.49-.74l0,0-1.26-.73,1.26-.73,0,0a.45.45,0,0,0,.12-.58Zm-2.36-3.34a7.14,7.14,0,0,1,1.84.23,5.32,5.32,0,0,1,3.22,2.32,3.76,3.76,0,0,1,.38,3.05.14.14,0,0,0,0,.2l0,0a2,2,0,0,0,.37.45,7.92,7.92,0,0,1,.88,1.52.83.83,0,0,1,0,.58,5,5,0,0,1-.88.48c-.18.06-.21,1.27-.22,1.84v.28a1.18,1.18,0,0,1-1.13,1.22H664c-.22,0-.81-.15-.88-.15-.42,0-.58.13-.59.53v.07c0,.16-.15,1.43-.44,1.58a17.35,17.35,0,0,1-2.28,0h-3.14a.39.39,0,0,1-.46-.33h0a.2.2,0,0,1,0-.11c0-.61.25-1.3.25-2.22s-.7-1.42-1.06-1.95a7.27,7.27,0,0,1-1.25-5.75,4.41,4.41,0,0,1,2.21-3,6.88,6.88,0,0,1,3.38-.83Z" transform="translate(0 0.11)"/><text class="cls-20" transform="translate(675.25 468.1)">Poor study abroad experience</text><text class="cls-20" transform="translate(718.68 551.45)">Lacks Social Enrichment</text><path class="cls-15" d="M709.62,545.34l0,.37v.64c0,3.42-2.65,5.78-6.34,5.78H702a5.16,5.16,0,0,0,3.81,1.6,5.83,5.83,0,0,0,1-.09l2.37,1.48v-2.43a4.69,4.69,0,0,0,2.11-3.83,4.62,4.62,0,0,0-1.71-3.52Zm-3.82,1.5a.73.73,0,1,1,.73-.72.72.72,0,0,1-.73.72Zm-2.93,0a.74.74,0,0,1-.74-.74.73.73,0,0,1,.75-.72.74.74,0,0,1,.72.74.73.73,0,0,1-.73.72Zm-2.94,0a.73.73,0,1,1,.74-.72.74.74,0,0,1-.74.72Zm2.94-6c-3.25,0-5.87,2.33-5.87,5.21a5,5,0,0,0,2.2,4.06v2.63l2.57-1.58a6.8,6.8,0,0,0,1.1.09c3.24,0,5.87-2.33,5.87-5.2s-2.63-5.21-5.87-5.21" transform="translate(0 0.11)"/><text class="cls-21" transform="translate(697 568)"><tspan xml:space="preserve">· Hard to communicate in the beginning,  have no idea what to say and fear of being </tspan></text><text class="cls-21" transform="translate(697 576)"><tspan xml:space="preserve">  misunderstood</tspan></text><text class="cls-21" transform="translate(697 619)">· <tspan class="cls-23" x="4.28" y="0">W</tspan><tspan x="10.76" y="0" xml:space="preserve">orried about the upcoming in-person lectures  </tspan></text><text class="cls-21" transform="translate(697 605)">· Remote study is di<tspan class="cls-22" x="61.86" y="0">f</tspan><tspan x="63.68" y="0">ficult to establish close social relationships</tspan></text><text class="cls-21" transform="translate(697 591)">· Only classmates and roommates in my circle of friends, no connecting with new people</text><text class="cls-20" transform="translate(835.45 649.53)">Boring Routine</text><path class="cls-15" d="M827.84,647.21A9.57,9.57,0,0,0,828,645c-.29-3.84-4.65-5.73-7.75-4.94,2.33.81,4.7,3,4.72,5.62a6,6,0,0,1-.07.94l-2.5-.26,1.62,1.88,1.63,1.89,2.09-1.34,2.1-1.34Z" transform="translate(0 0.11)"/><path class="cls-15" d="M816.46,644.37a9.53,9.53,0,0,0-.19,2.2c.19,3.85,4.5,5.84,7.62,5.13-2.31-.87-4.63-3.13-4.58-5.74a6,6,0,0,1,.1-.94l2.5.32-1.57-1.92-1.57-1.92-2.13,1.28-2.14,1.29Z" transform="translate(0 0.11)"/><text class="cls-21" transform="translate(814.5 665.42)"><tspan xml:space="preserve">· Not leaving the house often  </tspan></text><text class="cls-21" transform="translate(814.5 680.08)">· No experiences or highlight moment worth sharing</text><polygon class="cls-27" points="579.2 438.03 591.77 423.37 591.77 452.69 579.2 438.03"/><path class="cls-28" d="M888.21,410.69A27.24,27.24,0,1,1,861,437.92a27.24,27.24,0,0,1,27.23-27.23" transform="translate(0 0.11)"/><path class="cls-11" d="M892.49,438v-.52a7.72,7.72,0,1,0-9,0V438a13.21,13.21,0,0,0-8.27,12.38,2.37,2.37,0,0,0,2.57,2.07H898a2.38,2.38,0,0,0,2.58-2.07A13.23,13.23,0,0,0,892.49,438" transform="translate(0 0.11)"/><g class="cls-29"><g class="cls-10"><polygon class="cls-30" points="558.25 444.57 558.25 174.06 29.27 174.06 293.03 444.57 558.25 444.57"/></g></g><g class="cls-31"><g class="cls-10"><polygon class="cls-32" points="29.27 174.06 29.27 703.04 30.48 703.04 293.03 437.82 29.27 174.06"/></g></g><g class="cls-33"><g class="cls-10"><polygon class="cls-32" points="558.25 437.82 293.03 437.82 30.48 703.04 558.25 703.04 558.25 437.82"/></g></g><g class="cls-34"><g class="cls-10"><text class="cls-35" transform="translate(235.52 190.85)">Gains Creators</text></g></g><text class="cls-20" transform="translate(319.03 498.83)">Social Enrichment</text><text class="cls-36" transform="translate(244.26 701.68)">Pains Relievers</text><path class="cls-15" d="M308,494.08l0,.37v.64c0,3.41-2.66,5.78-6.34,5.78h-1.27a5.14,5.14,0,0,0,3.8,1.6,6.77,6.77,0,0,0,1-.09l2.37,1.47v-2.42a4.71,4.71,0,0,0,2.11-3.83,4.63,4.63,0,0,0-1.71-3.53Zm-3.82,1.5a.75.75,0,0,1-.73-.75.74.74,0,1,1,.73.75Zm-2.93,0a.74.74,0,0,1-.73-.75.73.73,0,1,1,1.46,0,.73.73,0,0,1-.73.72Zm-2.93,0a.75.75,0,0,1-.74-.75.74.74,0,0,1,1.47,0,.73.73,0,0,1-.73.72Zm2.93-5.95c-3.24,0-5.87,2.33-5.87,5.2a5,5,0,0,0,2.2,4.06v2.64l2.58-1.59a5.77,5.77,0,0,0,1.1.1c3.24,0,5.86-2.34,5.86-5.2s-2.63-5.21-5.87-5.21" transform="translate(0 0.11)"/><text class="cls-20" transform="translate(203.19 587)">Better study abroad experience</text><path class="cls-15" d="M192.09,580.23a.45.45,0,0,0-.56-.18l-.05,0-1.7,1-1.71-1a.44.44,0,0,0-.49.74l0,0,1.26.73-1.26.73,0,0a.45.45,0,0,0-.14.53l0,0,0,.05a.45.45,0,0,0,.53.14l0,0,1.7-1,1.71,1a.44.44,0,0,0,.49-.74l0,0-1.26-.73,1.26-.73,0,0a.45.45,0,0,0,.12-.58Zm-2.36-3.34a7.14,7.14,0,0,1,1.84.23,5.32,5.32,0,0,1,3.22,2.32,3.76,3.76,0,0,1,.38,3,.14.14,0,0,0,0,.2l0,0a2,2,0,0,0,.37.45,7.92,7.92,0,0,1,.88,1.52.83.83,0,0,1,0,.58,5,5,0,0,1-.88.48c-.18.06-.21,1.27-.22,1.84v.28a1.18,1.18,0,0,1-1.13,1.22H194c-.22,0-.81-.15-.88-.15-.42,0-.58.13-.59.53v.07c0,.16-.15,1.43-.44,1.58a17.35,17.35,0,0,1-2.28,0h-3.14a.39.39,0,0,1-.46-.33h0a.21.21,0,0,1,0-.11c0-.61.25-1.3.25-2.22s-.7-1.42-1.06-2a7.27,7.27,0,0,1-1.25-5.75,4.41,4.41,0,0,1,2.21-3,6.88,6.88,0,0,1,3.38-.83Z" transform="translate(0 0.11)"/><text class="cls-35" transform="translate(60 349.13)">Products &amp;</text><text class="cls-35" transform="translate(60 373.23)">Services</text><g class="cls-37"><g class="cls-10"><path class="cls-38" d="M275.43,410.69A31.43,31.43,0,1,1,244,442.11a31.42,31.42,0,0,1,31.42-31.42" transform="translate(0 0.11)"/></g></g><path class="cls-11" d="M275.69,433.42s-14.4-1.26-12-5.8,7-.84,12,5.8Zm.54,9.21v16.16h9.6a2.72,2.72,0,0,0,2.71-2.7V442.63Zm-1.4,0h-12.4v13.46a2.7,2.7,0,0,0,2.71,2.7h9.69Zm1.2-8.7a.63.63,0,0,1,.19.48v7.43h11.62a2,2,0,0,0,2-2v-5.94Zm-1.2.48a.63.63,0,0,1,.19-.48H261.14v5.95a2,2,0,0,0,2,2h11.72Z" transform="translate(0 0.11)"/><path class="cls-11" d="M275.25,433.42s12.23-1.08,10.22-4.94-6-.71-10.22,4.94" transform="translate(0 0.11)"/><line class="cls-39" x1="307.38" y1="438.55" x2="557.73" y2="438.55"/><text class="cls-20" transform="translate(342.78 346.22)">Adapting within interpersonal interactions</text><text class="cls-21" transform="translate(322 384.17)">·<tspan class="cls-23" x="2.33" y="0"> </tspan><tspan class="cls-25" x="4.15" y="0">The workshop provides a new way for international students to </tspan></text><text class="cls-21" transform="translate(322 392.17)"><tspan xml:space="preserve">  make friends, expand their social circle and improve their </tspan></text><text class="cls-21" transform="translate(322 400.17)"><tspan xml:space="preserve">  communication skills.</tspan></text><text class="cls-21" transform="translate(322 361.7)"><tspan xml:space="preserve">· Forming an informal support network to help people to resume  </tspan></text><text class="cls-21" transform="translate(322 369.7)"><tspan xml:space="preserve">  face-to-face interaction</tspan></text><text class="cls-21" transform="translate(294.26 515.64)">· Providing topics (handmade) to help they enter into conversations quickly</text><text class="cls-21" transform="translate(184 602.94)">· Reigniting their passion for studying abroad </text><text class="cls-21" transform="translate(184 610.94)">experience by caring for disadvantaged and </text><text class="cls-21" transform="translate(184 618.94)">building social connection</text><text class="cls-20" transform="translate(388.91 585)">Boring Routine</text><path class="cls-15" d="M382.34,584.21a10.17,10.17,0,0,0,.13-2.2c-.29-3.84-4.65-5.73-7.75-4.94,2.33.81,4.7,3,4.72,5.62a6,6,0,0,1-.07.94l-2.5-.26,1.62,1.88,1.62,1.89,2.1-1.34,2.09-1.34Z" transform="translate(0 0.11)"/><path class="cls-15" d="M371,581.37a10.16,10.16,0,0,0-.18,2.2c.19,3.85,4.5,5.84,7.62,5.14-2.31-.87-4.63-3.14-4.58-5.74a5,5,0,0,1,.1-1l2.5.33-1.58-1.92-1.57-1.93-2.12,1.29L369,581.07Z" transform="translate(0 0.11)"/><text class="cls-21" transform="translate(369 602.94)">· Use their crafting talents to support some </text><text class="cls-21" transform="translate(369 610.94)">charities that accept craft supplies</text><text class="cls-21" transform="translate(369 625.93)">· Send certification and photos to retain the </text><text class="cls-21" transform="translate(369 633.93)">meaningful moment</text><text class="cls-21" transform="translate(184 637.75)">· Healing disappointment through</text><text class="cls-21" transform="translate(184 645.75)">knowing more stories and culture from </text><text class="cls-21" transform="translate(184 653.75)">‘teachers<tspan class="cls-40" x="28.4" y="0">’</tspan><tspan x="29.71" y="0" xml:space="preserve"> and other participants.</tspan></text><text class="cls-21" transform="translate(294.25 531.45)">· Improving their interpersonal skills through cooperation and communication</text><text class="cls-21" transform="translate(293.76 547.26)">· Getting to know and socialize with new friends via workshop</text><path class="cls-19" d="M1150.47,369l.69,2.94-9.25,2.15a9.5,9.5,0,0,1-2.86.34,4,4,0,0,1-2.41-1.08,5.25,5.25,0,0,1-1.46-2.79,4.5,4.5,0,0,1,.43-3.6,5.08,5.08,0,0,1,3.28-2l1,2.7a3.91,3.91,0,0,0-1.69.78,1.62,1.62,0,0,0-.45,1.64,1.65,1.65,0,0,0,.89,1.26,4.46,4.46,0,0,0,2.43-.14Z" transform="translate(0 0.11)"/><path class="cls-19" d="M1142.91,379.29a3.6,3.6,0,0,0-2.29,1.22A2.5,2.5,0,0,0,1141,384a1.87,1.87,0,0,0,.29.2,4.39,4.39,0,0,0,4.86-.91,2.51,2.51,0,0,0-.42-3.53l-.28-.19A3.63,3.63,0,0,0,1142.91,379.29Zm-.39-2.92a5.86,5.86,0,0,1,2.85.18,4.8,4.8,0,0,1,2.38,1.59,6,6,0,0,1,1.23,2.71,5.43,5.43,0,0,1-.83,4.27,6,6,0,0,1-8,1.48,5.39,5.39,0,0,1-2.33-3.64A6.27,6.27,0,0,1,1138,380a4.6,4.6,0,0,1,1.57-2.39,6.56,6.56,0,0,1,3-1.28" transform="translate(0 0.11)"/><path class="cls-19" d="M1145.36,392.12a4.61,4.61,0,0,0-2.4.87,2.26,2.26,0,0,0-.86,2.12,2,2,0,0,0,1,1.5,4,4,0,0,0,2.63.3,4.22,4.22,0,0,0,2.57-1,2.11,2.11,0,0,0,.57-1.82,2.15,2.15,0,0,0-1-1.59,3.65,3.65,0,0,0-2.51-.34Zm-6-2L1154.2,388l.4,2.85-5.35.75a4.07,4.07,0,0,1,1.94,2.91,4.2,4.2,0,0,1-1,3.45,5.93,5.93,0,0,1-3.9,1.86,6.22,6.22,0,0,1-4.43-.72,4.15,4.15,0,0,1-1.94-3,4.05,4.05,0,0,1,.21-1.89,4.47,4.47,0,0,1,1.14-1.73l-1.58.22Z" transform="translate(0 0.11)"/><path class="cls-19" d="M1152.8,412.21l-2.29.19-.16-2-4.36.36a10,10,0,0,0-1.54.18.58.58,0,0,0-.34.29.78.78,0,0,0-.1.5,3.44,3.44,0,0,0,.37,1.12l-2.2.44a5.69,5.69,0,0,1-.62-2.23,3.79,3.79,0,0,1,.15-1.42,2,2,0,0,1,.6-1,2.72,2.72,0,0,1,1.08-.49,13.82,13.82,0,0,1,2-.26l4.72-.39-.11-1.32,2.29-.19.11,1.32,2.15-.18,1.91,2.74-3.82.31Z" transform="translate(0 0.11)"/><path class="cls-19" d="M1147.64,416.79a3.6,3.6,0,0,0-2.44.88,2.51,2.51,0,0,0-.07,3.55l.25.22a3.66,3.66,0,0,0,2.53.65,3.52,3.52,0,0,0,2.41-.88,2.49,2.49,0,0,0,.08-3.54,1.79,1.79,0,0,0-.25-.23,3.62,3.62,0,0,0-2.51-.65Zm0-3a5.92,5.92,0,0,1,2.8.57,4.9,4.9,0,0,1,2.13,1.9,5.91,5.91,0,0,1,.84,2.86,5.46,5.46,0,0,1-1.41,4.11,5.54,5.54,0,0,1-4,1.76,5.61,5.61,0,0,1-4.16-1.4,5.4,5.4,0,0,1-1.8-3.93,6.28,6.28,0,0,1,.54-2.87,4.76,4.76,0,0,1,1.88-2.16,6.54,6.54,0,0,1,3.15-.84" transform="translate(0 0.11)"/><path class="cls-19" d="M1148.27,435.56a4.66,4.66,0,0,0-2.51.48,2.26,2.26,0,0,0-1.18,2,2,2,0,0,0,.77,1.64,4,4,0,0,0,2.55.72,4.19,4.19,0,0,0,2.7-.62,2.23,2.23,0,0,0,.1-3.44,3.72,3.72,0,0,0-2.42-.74Zm-5.6-3,15,.32-.06,2.87-5.4-.11a4,4,0,0,1,1.44,3.18,4.21,4.21,0,0,1-1.5,3.25,6,6,0,0,1-4.16,1.21,6.25,6.25,0,0,1-4.25-1.42,4.12,4.12,0,0,1-1.44-3.24,4,4,0,0,1,.5-1.83,4.4,4.4,0,0,1,1.41-1.53l-1.6,0Z" transform="translate(0 0.11)"/><path class="cls-19" d="M1148.26,451.92a2.75,2.75,0,0,0,1.94-.52,2.08,2.08,0,0,0,.27-2.92l-.11-.12a2.66,2.66,0,0,0-1.82-.72Zm-2.89-.35-.66,2.83a4.67,4.67,0,0,1-2.28-1.9,5.1,5.1,0,0,1-.63-3,4.89,4.89,0,0,1,2.12-4.07,6.26,6.26,0,0,1,3.81-.82,6,6,0,0,1,4.13,1.68,4.68,4.68,0,0,1,1.29,3.66,4.8,4.8,0,0,1-1.85,3.72,7.09,7.09,0,0,1-5,1l.47-7.18a2.89,2.89,0,0,0-2,.56,2.19,2.19,0,0,0-.82,1.61,1.77,1.77,0,0,0,.3,1.16,2.28,2.28,0,0,0,1.13.77" transform="translate(0 0.11)"/><path class="cls-19" d="M1146.3,464.87a5.06,5.06,0,0,0-2.56.15,2.18,2.18,0,0,0-1.36,1.78,2.13,2.13,0,0,0,.61,1.79,4,4,0,0,0,2.41,1,4.31,4.31,0,0,0,2.76-.32,2.22,2.22,0,0,0,.46-3.41A3.72,3.72,0,0,0,1146.3,464.87Zm-6.62,6.87.35-2.65,1.58.21a4.43,4.43,0,0,1-1.17-1.74,4.07,4.07,0,0,1-.21-1.87,4.13,4.13,0,0,1,1.92-3,7.39,7.39,0,0,1,8.34,1.06,4.29,4.29,0,0,1,1,3.45,4.1,4.1,0,0,1-1.91,2.92l5.35.7-.37,2.85Z" transform="translate(0 0.11)"/><path class="cls-19" d="M1144.26,477.29a3.63,3.63,0,0,0-2.57.32,2.51,2.51,0,0,0-.86,3.45,2.61,2.61,0,0,0,.19.27,4.43,4.43,0,0,0,4.88.88,2.52,2.52,0,0,0,.85-3.45,2.31,2.31,0,0,0-.19-.28,3.59,3.59,0,0,0-2.3-1.19Zm.67-2.87a5.82,5.82,0,0,1,2.6,1.18,4.84,4.84,0,0,1,1.66,2.33,5.87,5.87,0,0,1,.19,3,5.4,5.4,0,0,1-2.29,3.7,6,6,0,0,1-8-1.45,5.37,5.37,0,0,1-.89-4.22,6.19,6.19,0,0,1,1.17-2.69,4.59,4.59,0,0,1,2.31-1.68,6.62,6.62,0,0,1,3.25-.14" transform="translate(0 0.11)"/><path class="cls-19" d="M1134.89,495.91l.63-2.8,5.41,1.23a8.23,8.23,0,0,0,2.26.32,1.54,1.54,0,0,0,.91-.4,1.65,1.65,0,0,0,.5-.91,2.31,2.31,0,0,0-.09-1.4,2.06,2.06,0,0,0-.88-1,9.15,9.15,0,0,0-2.39-.77l-4.8-1.09.64-2.8,10.6,2.4-.59,2.6-1.56-.35a4.45,4.45,0,0,1,.28,5.52,2.89,2.89,0,0,1-1.11,1,3.23,3.23,0,0,1-1.3.28,8.8,8.8,0,0,1-1.92-.27Z" transform="translate(0 0.11)"/><path class="cls-19" d="M1138.71,506.22a2.77,2.77,0,0,0,2-.12,2.07,2.07,0,0,0,.85-2.8,1.19,1.19,0,0,0-.09-.15,2.61,2.61,0,0,0-1.63-1.07Zm-2.76-.92-1.22,2.63a4.68,4.68,0,0,1-1.85-2.31,5,5,0,0,1,0-3.09,4.83,4.83,0,0,1,2.89-3.56,6.23,6.23,0,0,1,3.89-.05,6,6,0,0,1,3.71,2.48,4.64,4.64,0,0,1,.54,3.84,4.85,4.85,0,0,1-2.56,3.27,7.06,7.06,0,0,1-5.08,0l1.9-6.95a2.93,2.93,0,0,0-2.1.15,2.18,2.18,0,0,0-1.12,1.41,1.8,1.8,0,0,0,0,1.19,2.24,2.24,0,0,0,1,1" transform="translate(0 0.11)"/><text class="cls-20" transform="translate(972 435)">· Gain a sense of accomplishment </text><text class="cls-20" transform="translate(972 445)"><tspan xml:space="preserve">  to be more confident in herself</tspan></text><text class="cls-20" transform="translate(972 474)">· <tspan class="cls-41" x="4.89" y="0">T</tspan><tspan x="9.18" y="0">aking a deep dive into local </tspan></text><text class="cls-20" transform="translate(972 484)"><tspan xml:space="preserve">  culture to reduce  psychological  </tspan></text><text class="cls-20" transform="translate(972 494)"><tspan xml:space="preserve">  gap in the studying abroad </tspan></text><text class="cls-20" transform="translate(972 504)"><tspan xml:space="preserve">  experiences</tspan></text><text class="cls-21" transform="translate(791.02 240.96)">· Improving abilities to communicate in English</text><text class="cls-21" transform="translate(791.02 255.62)">· Making new friends, new social circles</text><text class="cls-21" transform="translate(791.02 270.29)">· Joining in interesting social activities</text><text class="cls-21" transform="translate(791.02 299.62)">· Increasing social skills</text><text class="cls-20" transform="translate(812.41 225.29)"><tspan xml:space="preserve">Adapting  within interpersonal interactions</tspan></text><text class="cls-21" transform="translate(791.02 284.95)">· Relaxing and freedom context</text><text class="cls-20" transform="translate(49 400)">· Offering donation service for some </text><text class="cls-20" transform="translate(49 410)"><tspan xml:space="preserve">  charities that accept craft supplies.</tspan></text><text class="cls-20" transform="translate(49 433)"><tspan xml:space="preserve">· Providing a handmade workshop with the  </tspan></text><text class="cls-20" transform="translate(49 443)"><tspan xml:space="preserve">  elderly as teachers and young people as </tspan></text><text class="cls-20" transform="translate(49 453)"><tspan xml:space="preserve">  participants to encourage them to </tspan></text><text class="cls-20" transform="translate(49 463)"><tspan xml:space="preserve">  communicate with each other</tspan></text><text class="cls-20" transform="translate(49 486)">· Providing track donation services to help </text><text class="cls-20" transform="translate(49 496)"><tspan xml:space="preserve">  users gain a sense of accomplishment</tspan></text><text class="cls-20" transform="translate(49 519)">· Offering a informal platform for those </text><text class="cls-20" transform="translate(49 529)"><tspan xml:space="preserve">  lack communication with others to </tspan></text><text class="cls-20" transform="translate(49 539)"><tspan xml:space="preserve">  re-adapt within interpersonal </tspan></text><text class="cls-20" transform="translate(49 549)"><tspan xml:space="preserve">  interactions</tspan></text><text class="cls-20" transform="translate(343.78 230.59)">Increasing self-worth</text><text class="cls-21" transform="translate(322 269.77)">·<tspan class="cls-23" x="2.33" y="0"> </tspan><tspan class="cls-25" x="4.15" y="0">The workshop provides a new way for international students to </tspan></text><text class="cls-21" transform="translate(322 277.77)">make friends, expand their </text><text class="cls-21" transform="translate(322 285.77)"><tspan xml:space="preserve">  social circle and improve their communication skills.</tspan></text><text class="cls-21" transform="translate(322 300.25)">· Forming a friendly platform for people to show their kindness </text><text class="cls-21" transform="translate(322 308.25)">and creativity (a positive self-image)</text><text class="cls-21" transform="translate(322 247.3)">· Providing an activity to let them do more to help others in their </text><text class="cls-21" transform="translate(322 255.3)">time of need</text><text class="cls-20" transform="translate(201.78 282.54)">local culture</text><text class="cls-21" transform="translate(185 300.25)">· Encourage sharing their special </text><text class="cls-21" transform="translate(185 308.25)"><tspan xml:space="preserve">  stories or experience each other</tspan></text><path class="cls-15" d="M333.77,229.77l-2.2,3a1.16,1.16,0,0,1-1.62.24,1.36,1.36,0,0,1-.24-.24l-2.2-3a.6.6,0,0,1,.13-.83.59.59,0,0,1,.82.13l2.18,3,2.18-3a.59.59,0,1,1,1,.7Zm4.08-3.73-1.67-2.94a1.25,1.25,0,0,0-1.09-.62h-8.91a1.27,1.27,0,0,0-1.09.62L323.42,226a1.09,1.09,0,0,0,.07,1.2l5.62,7.77a1.91,1.91,0,0,0,2.68.37,1.85,1.85,0,0,0,.37-.37l.76-1.06,1.36-1.87,2-2.7,1.22-1.68.33-.46a1.09,1.09,0,0,0,.07-1.2" transform="translate(0 0.11)"/><rect class="cls-11" y="792" width="1191" height="50"/><text class="cls-42" transform="translate(1118 31)"><tspan class="cls-43">Lovin</tspan><tspan x="34.8" y="0">g</tspan></text><text class="cls-42" transform="translate(1118 43)"><tspan class="cls-43">Hand</tspan><tspan x="34.53" y="0">s</tspan></text><g class="cls-44"><g class="cls-10"><line class="cls-45" x1="1035" y1="16.5" x2="1035" y2="47.5"/></g></g><polygon class="cls-11" points="1061.58 27.54 1061.43 28.52 1061.08 28.46 1061.43 26.11 1061.79 26.16 1061.64 27.14 1064.14 27.51 1064.08 27.92 1061.58 27.54"/><polygon class="cls-46" points="1061.58 27.54 1061.43 28.52 1061.08 28.46 1061.43 26.11 1061.79 26.16 1061.64 27.14 1064.14 27.51 1064.08 27.92 1061.58 27.54"/><polygon class="cls-11" points="1063.1 21.87 1065.7 23.1 1065.53 23.48 1064.37 22.93 1063.66 24.41 1064.82 24.96 1064.64 25.34 1062.04 24.1 1062.22 23.73 1063.34 24.26 1064.05 22.76 1062.93 22.23 1063.1 21.87"/><polygon class="cls-46" points="1063.1 21.87 1065.7 23.1 1065.53 23.48 1064.37 22.93 1063.66 24.41 1064.82 24.96 1064.64 25.34 1062.04 24.1 1062.22 23.73 1063.34 24.26 1064.05 22.76 1062.93 22.23 1063.1 21.87"/><polygon class="cls-11" points="1067.81 20 1068.08 20.24 1066.66 21.77 1064.54 19.82 1065.92 18.33 1066.19 18.57 1065.09 19.76 1065.73 20.36 1066.72 19.3 1066.97 19.54 1065.99 20.6 1066.67 21.23 1067.81 20"/><polygon class="cls-46" points="1067.81 20 1068.08 20.24 1066.66 21.77 1064.54 19.82 1065.92 18.33 1066.19 18.57 1065.09 19.76 1065.73 20.36 1066.72 19.3 1066.97 19.54 1065.99 20.6 1066.67 21.23 1067.81 20"/><polygon class="cls-11" points="1072.13 14.75 1073.16 17.44 1072.78 17.59 1072.32 16.39 1070.77 16.98 1071.23 18.18 1070.85 18.33 1069.81 15.64 1070.2 15.49 1070.64 16.65 1072.19 16.06 1071.74 14.9 1072.13 14.75"/><polygon class="cls-46" points="1072.13 14.75 1073.16 17.44 1072.78 17.59 1072.32 16.39 1070.77 16.98 1071.23 18.18 1070.85 18.33 1069.81 15.64 1070.2 15.49 1070.64 16.65 1072.19 16.06 1071.74 14.9 1072.13 14.75"/><path class="cls-11" d="M1077.15,15.48a1.13,1.13,0,0,0-1.15-1.1,1.13,1.13,0,0,0,0,2.25h0a1.09,1.09,0,0,0,1.08-1.09v-.06Zm-2.66.09a1.55,1.55,0,0,1,1.42-1.65,1.53,1.53,0,0,1,.23,3.06h-.06a1.47,1.47,0,0,1-1.58-1.34.19.19,0,0,0,0-.08" transform="translate(0 0.11)"/><path class="cls-46" d="M1077.15,15.48a1.13,1.13,0,0,0-1.15-1.1,1.13,1.13,0,0,0,0,2.25h0a1.09,1.09,0,0,0,1.08-1.09v-.06Zm-2.66.09a1.55,1.55,0,0,1,1.42-1.65,1.53,1.53,0,0,1,.23,3.06h-.06a1.47,1.47,0,0,1-1.58-1.34A.19.19,0,0,0,1074.49,15.57Z" transform="translate(0 0.11)"/><polygon class="cls-11" points="1081.54 18.06 1082.23 15.97 1080.86 16.81 1080.68 16.75 1080.07 15.26 1079.38 17.34 1079 17.22 1079.91 14.48 1080.23 14.59 1080.94 16.3 1082.5 15.34 1082.82 15.45 1081.91 18.19 1081.54 18.06"/><polygon class="cls-46" points="1081.54 18.06 1082.23 15.97 1080.86 16.81 1080.68 16.75 1080.07 15.26 1079.38 17.34 1079 17.22 1079.91 14.48 1080.23 14.59 1080.94 16.3 1082.5 15.34 1082.82 15.45 1081.91 18.19 1081.54 18.06"/><polygon class="cls-11" points="1085.19 20 1084.97 20.29 1083.3 19.03 1085.04 16.73 1086.66 17.95 1086.45 18.24 1085.15 17.26 1084.62 17.97 1085.77 18.84 1085.56 19.12 1084.41 18.25 1083.85 18.99 1085.19 20"/><polygon class="cls-46" points="1085.19 20 1084.97 20.29 1083.3 19.03 1085.04 16.73 1086.66 17.95 1086.45 18.24 1085.15 17.26 1084.62 17.97 1085.77 18.84 1085.56 19.12 1084.41 18.25 1083.85 18.99 1085.19 20"/><path class="cls-11" d="M1089.52,24.28a1.12,1.12,0,1,0-1.5-.52h0a1.08,1.08,0,0,0,1.43.53l.06,0m-1.18-2.38a1.53,1.53,0,1,1,1.47,2.69,1.52,1.52,0,0,1-2.08-.61l0-.05a1.46,1.46,0,0,1,.57-2l.07,0" transform="translate(0 0.11)"/><path class="cls-46" d="M1089.52,24.28a1.12,1.12,0,1,0-1.5-.52h0a1.08,1.08,0,0,0,1.43.53Zm-1.18-2.38a1.53,1.53,0,1,1,1.47,2.69,1.52,1.52,0,0,1-2.08-.61l0-.05a1.46,1.46,0,0,1,.57-2Z" transform="translate(0 0.11)"/><polygon class="cls-11" points="1091.3 26.8 1090.31 26.95 1090.53 28.38 1090.18 28.44 1089.96 27.01 1088.81 27.19 1088.74 26.78 1091.59 26.34 1091.9 28.34 1091.55 28.4 1091.3 26.8"/><polygon class="cls-46" points="1091.3 26.8 1090.31 26.95 1090.53 28.38 1090.18 28.44 1089.96 27.01 1088.81 27.19 1088.74 26.78 1091.59 26.34 1091.9 28.34 1091.55 28.4 1091.3 26.8"/><polygon class="cls-11" points="1065.98 36.37 1063.42 37.69 1063.23 37.32 1064.37 36.73 1063.62 35.26 1062.47 35.84 1062.29 35.48 1064.85 34.16 1065.04 34.53 1063.94 35.09 1064.69 36.57 1065.8 36 1065.98 36.37"/><polygon class="cls-46" points="1065.98 36.37 1063.42 37.69 1063.23 37.32 1064.37 36.73 1063.62 35.26 1062.47 35.84 1062.29 35.48 1064.85 34.16 1065.04 34.53 1063.94 35.09 1064.69 36.57 1065.8 36 1065.98 36.37"/><path class="cls-11" d="M1066.79,40l.57-1.44-1.44.55Zm-.13.33-1.08-1.09-.73.28-.3-.3,3-1.1.29.29-1.13,3-.3-.31Z" transform="translate(0 0.11)"/><path class="cls-46" d="M1066.79,40l.57-1.44-1.44.55Zm-.13.33-1.08-1.09-.73.28-.3-.3,3-1.1.29.29-1.13,3-.3-.31Z" transform="translate(0 0.11)"/><polygon class="cls-11" points="1071.81 41.2 1070.47 43.75 1070.17 43.59 1069.64 40.88 1068.64 42.78 1068.28 42.59 1069.62 40.04 1069.92 40.2 1070.45 42.9 1071.45 41 1071.81 41.2"/><polygon class="cls-46" points="1071.81 41.2 1070.47 43.75 1070.17 43.59 1069.64 40.88 1068.64 42.78 1068.28 42.59 1069.62 40.04 1069.92 40.2 1070.45 42.9 1071.45 41 1071.81 41.2"/><path class="cls-11" d="M1074,44.24a1.09,1.09,0,1,0,.51-2.11l-.16,0-.76-.12-.36,2.14Zm-.76-2.68,1.2.2a1.43,1.43,0,0,1,1.3,1.57,1.45,1.45,0,0,1-1.57,1.31l-.2,0-1.2-.2Z" transform="translate(0 0.11)"/><path class="cls-46" d="M1074,44.24a1.09,1.09,0,1,0,.51-2.11l-.16,0-.76-.12-.36,2.14Zm-.76-2.68,1.2.2a1.43,1.43,0,0,1,1.3,1.57,1.45,1.45,0,0,1-1.57,1.31l-.2,0-1.2-.2Z" transform="translate(0 0.11)"/><polygon class="cls-11" points="1080.33 44.48 1079.94 42.29 1079.13 43.64 1078.94 43.67 1077.7 42.68 1078.09 44.88 1077.7 44.95 1077.2 42.12 1077.53 42.05 1078.96 43.16 1079.88 41.64 1080.21 41.58 1080.72 44.41 1080.33 44.48"/><polygon class="cls-46" points="1080.33 44.48 1079.94 42.29 1079.13 43.64 1078.94 43.67 1077.7 42.68 1078.09 44.88 1077.7 44.95 1077.2 42.12 1077.53 42.05 1078.96 43.16 1079.88 41.64 1080.21 41.58 1080.72 44.41 1080.33 44.48"/><path class="cls-11" d="M1084,41.67l-1.23-.94.14,1.54Zm.28.21-1.34.75.08.78-.37.21-.26-3.16.35-.2,2.55,1.89-.38.21Z" transform="translate(0 0.11)"/><path class="cls-46" d="M1084,41.67l-1.23-.94.14,1.54Zm.28.21-1.34.75.08.78-.37.21-.26-3.16.35-.2,2.55,1.89-.38.21Z" transform="translate(0 0.11)"/><path class="cls-11" d="M1087.34,39.81a1.09,1.09,0,1,0-1.46-1.61l-.11.12-.54.57,1.58,1.48Zm-2.65-.87.83-.88a1.44,1.44,0,1,1,2.25,1.81,1.14,1.14,0,0,1-.15.16l-.83.89Z" transform="translate(0 0.11)"/><path class="cls-46" d="M1087.34,39.81a1.09,1.09,0,1,0-1.46-1.61l-.11.12-.54.57,1.58,1.48Zm-2.65-.87.83-.88a1.44,1.44,0,1,1,2.25,1.81,1.14,1.14,0,0,1-.15.16l-.83.89Z" transform="translate(0 0.11)"/><polygon class="cls-11" points="1090.45 35.16 1090.77 35.32 1089.85 37.2 1087.26 35.92 1088.16 34.1 1088.48 34.26 1087.76 35.71 1088.56 36.1 1089.2 34.8 1089.51 34.96 1088.88 36.26 1089.71 36.67 1090.45 35.16"/><polygon class="cls-46" points="1090.45 35.16 1090.77 35.32 1089.85 37.2 1087.26 35.92 1088.16 34.1 1088.48 34.26 1087.76 35.71 1088.56 36.1 1089.2 34.8 1089.51 34.96 1088.88 36.26 1089.71 36.67 1090.45 35.16"/><path class="cls-11" d="M1076.5,49a19.5,19.5,0,0,1-10.23-36.09l.25.41A19,19,0,1,0,1090,16.09l.35-.35A19.5,19.5,0,0,1,1076.5,49Z" transform="translate(0 0.11)"/><path class="cls-46" d="M1076.5,49a19.5,19.5,0,0,1-10.23-36.09l.25.41A19,19,0,1,0,1090,16.09l.35-.35A19.5,19.5,0,0,1,1076.5,49Z" transform="translate(0 0.11)"/><g class="cls-47"><g class="cls-48"><rect class="cls-49" x="1102.31" y="796.45" width="11.45" height="21.21"/></g></g><g class="cls-50"><g class="cls-51"><rect class="cls-52" x="1115.36" y="796.65" width="18.61" height="21"/></g></g><g class="cls-53"><g class="cls-54"><rect class="cls-55" x="1134.55" y="796.36" width="11.83" height="21.9"/></g></g><g class="cls-56"><g class="cls-57"><rect class="cls-58" x="1147.99" y="796.11" width="12.02" height="21.42"/></g></g><path class="cls-59" d="M1158.16,791.89a1.37,1.37,0,1,1-1.37,1.37,1.37,1.37,0,0,1,1.37-1.37" transform="translate(0 0.11)"/><path class="cls-60" d="M1108.06,819.15a1.37,1.37,0,1,1-1.37,1.37,1.37,1.37,0,0,1,1.37-1.37" transform="translate(0 0.11)"/><path class="cls-61" d="M1112.08,817.46a1,1,0,1,1-1,1,1,1,0,0,1,1-1" transform="translate(0 0.11)"/><path class="cls-62" d="M1150.3,793.26a1,1,0,1,1-1,1,1,1,0,0,1,1-1" transform="translate(0 0.11)"/></g></g></g></g></g></g></g></svg>