<svg xmlns="http://www.w3.org/2000/svg" width="1199" height="330" viewBox="0 0 1199 330">
  <g id="组_64" data-name="组 64" transform="translate(-229 -1)">
    <line id="直线_1" data-name="直线 1" x2="1073" transform="translate(300.5 16.5)" fill="none" stroke="#f46352" stroke-linecap="round" stroke-width="1" opacity="0.6"/>
    <g id="椭圆_5" data-name="椭圆 5" transform="translate(487 1)" fill="#f46352" stroke="#fff" stroke-width="6">
      <circle cx="15" cy="15" r="15" stroke="none"/>
      <circle cx="15" cy="15" r="12" fill="none"/>
    </g>
    <text id="背景调研" transform="translate(229 95)" fill="#333" font-size="26" font-family="MicrosoftYaHei-Bold, Microsoft YaHei" font-weight="700"><tspan x="0" y="0">背景调研</tspan></text>
    <text id="目标用户" transform="translate(248 136)" fill="#666" font-size="18" font-family="MicrosoftYaHei, Microsoft YaHei"><tspan x="0" y="0">目标用户</tspan></text>
    <text id="Top_task_调研" data-name="Top task 调研" transform="translate(445 136)" fill="#666" font-size="18" font-family="MicrosoftYaHei, Microsoft YaHei"><tspan x="0" y="0">Top task 调研</tspan></text>
    <text id="业务分析" transform="translate(248 174)" fill="#666" font-size="18" font-family="MicrosoftYaHei, Microsoft YaHei"><tspan x="0" y="0">业务分析</tspan></text>
    <text id="测试目标及任务" transform="translate(439 174)" fill="#666" font-size="18" font-family="MicrosoftYaHei, Microsoft YaHei"><tspan x="0" y="0">测试目标及任务</tspan></text>
    <text id="网站现状" transform="translate(248 212)" fill="#666" font-size="18" font-family="MicrosoftYaHei, Microsoft YaHei"><tspan x="0" y="0">网站现状</tspan></text>
    <text id="启发式评估" transform="translate(675 136)" fill="#666" font-size="18" font-family="MicrosoftYaHei, Microsoft YaHei"><tspan x="0" y="0">启发式评估</tspan></text>
    <text id="数值统计" transform="translate(902 136)" fill="#666" font-size="18" font-family="MicrosoftYaHei, Microsoft YaHei"><tspan x="0" y="0">数值统计</tspan></text>
    <text id="主题分析" transform="translate(902 174)" fill="#666" font-size="18" font-family="MicrosoftYaHei, Microsoft YaHei"><tspan x="0" y="0">主题分析</tspan></text>
    <text id="可访问性评估" transform="translate(666 174)" fill="#666" font-size="18" font-family="MicrosoftYaHei, Microsoft YaHei"><tspan x="0" y="0">可访问性评估</tspan></text>
    <text id="性能评估" transform="translate(684 212)" fill="#666" font-size="18" font-family="MicrosoftYaHei, Microsoft YaHei"><tspan x="0" y="0">性能评估</tspan></text>
    <text id="性能评估-2" data-name="性能评估" transform="translate(1338 136)" fill="#666" font-size="18" font-family="MicrosoftYaHei, Microsoft YaHei"><tspan x="0" y="0">性能评估</tspan></text>
    <text id="满意度评估" transform="translate(675 250)" fill="#666" font-size="18" font-family="MicrosoftYaHei, Microsoft YaHei"><tspan x="0" y="0">满意度评估</tspan></text>
    <text id="满意度评估-2" data-name="满意度评估" transform="translate(1329 174)" fill="#666" font-size="18" font-family="MicrosoftYaHei, Microsoft YaHei"><tspan x="0" y="0">满意度评估</tspan></text>
    <text id="生物统计测量" transform="translate(666 288)" fill="#666" font-size="18" font-family="MicrosoftYaHei, Microsoft YaHei"><tspan x="0" y="0">生物统计测量</tspan></text>
    <text id="生物统计测量-2" data-name="生物统计测量" transform="translate(1320 212)" fill="#666" font-size="18" font-family="MicrosoftYaHei, Microsoft YaHei"><tspan x="0" y="0">生物统计测量</tspan></text>
    <text id="心理分析" transform="translate(684 326)" fill="#666" font-size="18" font-family="MicrosoftYaHei, Microsoft YaHei"><tspan x="0" y="0">心理分析</tspan></text>
    <text id="目标定义" transform="translate(450 95)" fill="#333" font-size="26" font-family="MicrosoftYaHei-Bold, Microsoft YaHei" font-weight="700"><tspan x="0" y="0">目标定义</tspan></text>
    <text id="评估过程" transform="translate(668 96)" fill="#333" font-size="26" font-family="MicrosoftYaHei-Bold, Microsoft YaHei" font-weight="700"><tspan x="0" y="0">评估过程</tspan></text>
    <text id="数据分析" transform="translate(886 95)" fill="#333" font-size="26" font-family="MicrosoftYaHei-Bold, Microsoft YaHei" font-weight="700"><tspan x="0" y="0">数据分析</tspan></text>
    <text id="重设计" transform="translate(1117 95)" fill="#333" font-size="26" font-family="MicrosoftYaHei-Bold, Microsoft YaHei" font-weight="700"><tspan x="0" y="0">重设计</tspan></text>
    <text id="A_B测试" data-name="A/B测试" transform="translate(1323 95)" fill="#333" font-size="26" font-family="MicrosoftYaHei-Bold, Microsoft YaHei" font-weight="700"><tspan x="0" y="0">A/B测试</tspan></text>
    <g id="组_58" data-name="组 58">
      <g id="组_57" data-name="组 57" transform="translate(-10 421)">
        <rect id="矩形_107" data-name="矩形 107" width="31" height="31" rx="15.5" transform="translate(279 -420)" fill="#fff"/>
        <rect id="矩形_108" data-name="矩形 108" width="13" height="13" rx="6.5" transform="translate(288 -411)" fill="#fff"/>
      </g>
      <circle id="椭圆_4" data-name="椭圆 4" cx="15.5" cy="15.5" r="15.5" transform="translate(269 1)" fill="#fff"/>
      <rect id="矩形_107-2" data-name="矩形 107" width="19" height="19" rx="9.5" transform="translate(275 7)" fill="#f46353"/>
      <g id="矩形_108-2" data-name="矩形 108" transform="translate(278 10)" fill="#f46353" stroke="#fff" stroke-width="2">
        <rect width="13" height="13" rx="6.5" stroke="none"/>
        <rect x="1" y="1" width="11" height="11" rx="5.5" fill="none"/>
      </g>
    </g>
    <g id="组_59" data-name="组 59" transform="translate(218)">
      <g id="组_57-2" data-name="组 57" transform="translate(-10 421)">
        <rect id="矩形_107-3" data-name="矩形 107" width="31" height="31" rx="15.5" transform="translate(279 -420)" fill="#fff"/>
        <rect id="矩形_108-3" data-name="矩形 108" width="13" height="13" rx="6.5" transform="translate(288 -411)" fill="#fff"/>
      </g>
      <circle id="椭圆_4-2" data-name="椭圆 4" cx="15.5" cy="15.5" r="15.5" transform="translate(269 1)" fill="#fff"/>
      <rect id="矩形_107-4" data-name="矩形 107" width="19" height="19" rx="9.5" transform="translate(275 7)" fill="#f46353"/>
      <g id="矩形_108-4" data-name="矩形 108" transform="translate(278 10)" fill="#f46353" stroke="#fff" stroke-width="2">
        <rect width="13" height="13" rx="6.5" stroke="none"/>
        <rect x="1" y="1" width="11" height="11" rx="5.5" fill="none"/>
      </g>
    </g>
    <g id="组_60" data-name="组 60" transform="translate(436)">
      <g id="组_57-3" data-name="组 57" transform="translate(-10 421)">
        <rect id="矩形_107-5" data-name="矩形 107" width="31" height="31" rx="15.5" transform="translate(279 -420)" fill="#fff"/>
        <rect id="矩形_108-5" data-name="矩形 108" width="13" height="13" rx="6.5" transform="translate(288 -411)" fill="#fff"/>
      </g>
      <circle id="椭圆_4-3" data-name="椭圆 4" cx="15.5" cy="15.5" r="15.5" transform="translate(269 1)" fill="#fff"/>
      <rect id="矩形_107-6" data-name="矩形 107" width="19" height="19" rx="9.5" transform="translate(275 7)" fill="#f46353"/>
      <g id="矩形_108-6" data-name="矩形 108" transform="translate(278 10)" fill="#f46353" stroke="#fff" stroke-width="2">
        <rect width="13" height="13" rx="6.5" stroke="none"/>
        <rect x="1" y="1" width="11" height="11" rx="5.5" fill="none"/>
      </g>
    </g>
    <g id="组_61" data-name="组 61" transform="translate(654)">
      <g id="组_57-4" data-name="组 57" transform="translate(-10 421)">
        <rect id="矩形_107-7" data-name="矩形 107" width="31" height="31" rx="15.5" transform="translate(279 -420)" fill="#fff"/>
        <rect id="矩形_108-7" data-name="矩形 108" width="13" height="13" rx="6.5" transform="translate(288 -411)" fill="#fff"/>
      </g>
      <circle id="椭圆_4-4" data-name="椭圆 4" cx="15.5" cy="15.5" r="15.5" transform="translate(269 1)" fill="#fff"/>
      <rect id="矩形_107-8" data-name="矩形 107" width="19" height="19" rx="9.5" transform="translate(275 7)" fill="#f46353"/>
      <g id="矩形_108-8" data-name="矩形 108" transform="translate(278 10)" fill="#f46353" stroke="#fff" stroke-width="2">
        <rect width="13" height="13" rx="6.5" stroke="none"/>
        <rect x="1" y="1" width="11" height="11" rx="5.5" fill="none"/>
      </g>
    </g>
    <g id="组_62" data-name="组 62" transform="translate(872)">
      <g id="组_57-5" data-name="组 57" transform="translate(-10 421)">
        <rect id="矩形_107-9" data-name="矩形 107" width="31" height="31" rx="15.5" transform="translate(279 -420)" fill="#fff"/>
        <rect id="矩形_108-9" data-name="矩形 108" width="13" height="13" rx="6.5" transform="translate(288 -411)" fill="#fff"/>
      </g>
      <circle id="椭圆_4-5" data-name="椭圆 4" cx="15.5" cy="15.5" r="15.5" transform="translate(269 1)" fill="#fff"/>
      <rect id="矩形_107-10" data-name="矩形 107" width="19" height="19" rx="9.5" transform="translate(275 7)" fill="#f46353"/>
      <g id="矩形_108-10" data-name="矩形 108" transform="translate(278 10)" fill="#f46353" stroke="#fff" stroke-width="2">
        <rect width="13" height="13" rx="6.5" stroke="none"/>
        <rect x="1" y="1" width="11" height="11" rx="5.5" fill="none"/>
      </g>
    </g>
    <g id="组_63" data-name="组 63" transform="translate(1085)">
      <g id="组_57-6" data-name="组 57" transform="translate(-10 421)">
        <rect id="矩形_107-11" data-name="矩形 107" width="31" height="31" rx="15.5" transform="translate(279 -420)" fill="#fff"/>
        <rect id="矩形_108-11" data-name="矩形 108" width="13" height="13" rx="6.5" transform="translate(288 -411)" fill="#fff"/>
      </g>
      <circle id="椭圆_4-6" data-name="椭圆 4" cx="15.5" cy="15.5" r="15.5" transform="translate(269 1)" fill="#fff"/>
      <rect id="矩形_107-12" data-name="矩形 107" width="19" height="19" rx="9.5" transform="translate(275 7)" fill="#f46353"/>
      <g id="矩形_108-12" data-name="矩形 108" transform="translate(278 10)" fill="#f46353" stroke="#fff" stroke-width="2">
        <rect width="13" height="13" rx="6.5" stroke="none"/>
        <rect x="1" y="1" width="11" height="11" rx="5.5" fill="none"/>
      </g>
    </g>
  </g>
</svg>
