<?xml version="1.0" standalone="no"?><!DOCTYPE svg PUBLIC "-//W3C//DTD SVG 1.1//EN" "http://www.w3.org/Graphics/SVG/1.1/DTD/svg11.dtd"><svg t="1617459768647" class="icon" viewBox="0 0 1024 1024" version="1.1" xmlns="http://www.w3.org/2000/svg" p-id="1155" xmlns:xlink="http://www.w3.org/1999/xlink" width="200" height="200"><defs><style type="text/css"></style></defs><path d="M63.7 199.4h834.6v20H63.7z" p-id="1156"></path><path d="M899.1 290.3H63.7v-95.9L618.4 88.2l280.7 107.7v94.4z m-815.4-20h795.4v-60.7L616.5 108.9 83.7 211v59.3z" p-id="1157"></path><path d="M209.6 270.3h20v92.9h-20zM607.5 98.5h20v181.8h-20zM657.4 270.9h20v176.6h-20zM188.7 359.5h20v101.4h-20z" p-id="1158"></path><path d="M146.8 231.3l35.6 37.5h-71.2l35.6-37.5m0-29.1l-82.1 86.6H229l-82.2-86.6z" p-id="1159"></path><path d="M280.9 231.3l35.6 37.5h-71.2l35.6-37.5m0-29.1l-82.1 86.6H363l-82.1-86.6zM546.9 231.3l35.6 37.5h-71.2l35.6-37.5m0-29.1l-82.1 86.6h164.3l-82.2-86.6z" p-id="1160"></path><path d="M682.3 231.3l35.6 37.5h-71.2l35.6-37.5m0-29.1l-82.1 86.6h164.3l-82.2-86.6z" p-id="1161"></path><path d="M816 231.3l35.6 37.5h-71.2l35.6-37.5m0-29.1l-82.1 86.6h164.3L816 202.2zM416.4 231.3l35.6 37.5h-71.2l35.6-37.5m0-29.1l-82.1 86.6h164.3l-82.2-86.6zM592.1 477.1l34.7 34.8-34.7 34.8v-69.6m-20-48.4v166.5L655 512l-82.9-83.3z" p-id="1162"></path><path d="M592.1 613l34.7 34.8-34.7 34.8V613m-20-48.4V731l82.9-83.2-82.9-83.2z" p-id="1163"></path><path d="M592.1 750.3l34.7 34.8-34.7 34.8v-69.6m-20-48.4v166.5l82.9-83.2-82.9-83.3zM708.5 447.4H526.4v-86.5h20v66.5h142.1V291H546.4v46.7h-20V271h182.1zM883.3 353.5H760.6v-82.7h122.8v82.7z m-102.7-20h82.8v-42.7h-82.8v42.7z" p-id="1164"></path><path d="M762.7 926.6h-292v-72.9h292v72.9z m-272.1-20h252v-32.9h-252v32.9z" p-id="1165"></path><path d="M665.1 872.8h-94.2V427.4h94.2v445.4z m-74.3-20H645V447.4h-54.2v405.4zM189.5 564.5c-22.1 0-40.1-18.6-40.1-41.5v-17.4h20V523c0 11.9 9 21.5 20.1 21.5s20.1-9.6 20.1-21.5v-67.9h20V523c0 22.9-18 41.5-40.1 41.5z" p-id="1166"></path><path d="M219.6 475.1c-32 0-58-23.3-58-51.9v-73.4l9.9-0.1c0.2 0 19.9-0.1 46-0.1l60.1 0.1v73.5c0 28.6-26 51.9-58 51.9z m-38-105.5v53.5c0 17.6 17.1 31.9 38 31.9 21 0 38-14.3 38-31.9v-53.5l-40.1-0.1c-14.9 0-27.6 0.1-35.9 0.1zM809.7 353.5h-49.2v-82.7h49.2v82.7z m-29.1-20h9.2v-42.7h-9.2v42.7zM74.7 930.7l-14.9-13.4 131.8-146.2 94.4 102L455.7 656l139.2 177.1-15.8 12.4-123.3-157-168.5 215.4-95.5-103.1zM959.6 904.6l-61.5-68.2-50.6 54.7-88.6-113.3-75.5 96.1-15.7-12.4 91.2-116.1 89.9 114.9 49.5-53.5 76.2 84.4z" p-id="1167"></path><path d="M139.3 847.4l-5.2-8.5c-12.9-21-19.6-45.2-19.6-69.9 0-74 60.2-134.2 134.2-134.2 74 0 134.2 60.2 134.2 134.2v10h-20v-10c0-63-51.2-114.2-114.2-114.2S134.5 706 134.5 769c0 21.1 5.8 41.6 16.7 59.5l5.2 8.5-17.1 10.4z" p-id="1168"></path></svg>