<?xml version="1.0" standalone="no"?><!DOCTYPE svg PUBLIC "-//W3C//DTD SVG 1.1//EN" "http://www.w3.org/Graphics/SVG/1.1/DTD/svg11.dtd"><svg t="1557131841014" class="icon" style="" viewBox="0 0 1024 1024" version="1.1" xmlns="http://www.w3.org/2000/svg" p-id="14215" xmlns:xlink="http://www.w3.org/1999/xlink" width="20" height="20"><defs><style type="text/css"></style></defs><path d="M512 0C230.4 0 0 230.4 0 512s230.4 512 512 512 512-230.4 512-512S793.6 0 512 0zM276.48 281.6h486.4v56.32H276.48V281.6zM716.8 394.24v215.04H317.44V394.24H716.8z m56.32 389.12h-512v-56.32H409.6c-15.36-30.72-30.72-61.44-51.2-92.16l51.2-20.48c20.48 30.72 40.96 71.68 56.32 112.64h102.4c20.48-35.84 35.84-71.68 51.2-112.64l56.32 20.48c-15.36 35.84-30.72 66.56-51.2 92.16H768l5.12 56.32z" p-id="14216" fill="#ffffff"></path><path d="M373.76 450.56h286.72v102.4H373.76v-102.4z" p-id="14217" fill="#ffffff"></path></svg>