<?xml version="1.0" standalone="no"?><!DOCTYPE svg PUBLIC "-//W3C//DTD SVG 1.1//EN" "http://www.w3.org/Graphics/SVG/1.1/DTD/svg11.dtd"><svg t="1557131806968" class="icon" style="" viewBox="0 0 1024 1024" version="1.1" xmlns="http://www.w3.org/2000/svg" p-id="13894" xmlns:xlink="http://www.w3.org/1999/xlink" width="20" height="20"><defs><style type="text/css"></style></defs><path d="M773.12 936.96c-5.12-30.72-30.72-179.2-97.28-363.52 153.6-25.6 291.84 15.36 307.2 20.48-20.48 138.24-97.28 266.24-209.92 343.04zM496.64 1024c-112.64 0-220.16-40.96-302.08-107.52 10.24-20.48 107.52-220.16 389.12-317.44h5.12c71.68 184.32 97.28 343.04 107.52 389.12-66.56 20.48-133.12 35.84-199.68 35.84zM0 512v-15.36c20.48 0 261.12 5.12 506.88-71.68 15.36 30.72 25.6 56.32 40.96 87.04-5.12 0-15.36 5.12-20.48 5.12-256 87.04-389.12 317.44-404.48 337.92C51.2 762.88 0 640 0 512zM286.72 46.08c15.36 20.48 102.4 143.36 184.32 296.96C240.64 404.48 35.84 404.48 10.24 404.48c30.72-158.72 138.24-286.72 276.48-358.4zM496.64 0c128 0 240.64 46.08 327.68 128-10.24 15.36-81.92 117.76-261.12 184.32C481.28 158.72 389.12 30.72 378.88 15.36 414.72 5.12 455.68 0 496.64 0z m384 189.44c66.56 87.04 112.64 199.68 112.64 317.44-15.36-5.12-179.2-40.96-343.04-15.36-5.12-10.24-5.12-20.48-10.24-25.6-10.24-25.6-20.48-51.2-30.72-71.68 179.2-81.92 261.12-189.44 271.36-204.8z" p-id="13895" fill="#ffffff"></path></svg>