<svg xmlns="http://www.w3.org/2000/svg" viewBox="0 0 59.98 59.99"><defs><style>.cls-1{fill:#b8db59;}.cls-2{fill:#32c2c2;}</style></defs><g id="图层_2" data-name="图层 2"><g id="Capa_1" data-name="Capa 1"><circle class="cls-1" cx="30" cy="29" r="2"/><path class="cls-1" d="M30,9A21,21,0,1,0,51,30,21,21,0,0,0,30,9ZM14,31H12a1,1,0,0,1,0-2h2a1,1,0,0,1,0,2ZM29,12a1,1,0,0,1,2,0v2a1,1,0,0,1-2,0Zm2,36a1,1,0,0,1-2,0V46a1,1,0,0,1,2,0ZM30,33a4,4,0,0,1-2-.57l-8.27,8.28a1,1,0,0,1-1.42,0,1,1,0,0,1,0-1.42L26.57,31A4,4,0,0,1,29,25.14V20a1,1,0,0,1,2,0v5.14A4,4,0,0,1,30,33Zm18-2H46a1,1,0,0,1,0-2h2a1,1,0,0,1,0,2Z"/><path class="cls-2" d="M1,31a1,1,0,0,1-1-1A30,30,0,0,1,50.69,8.3a1,1,0,0,1-1.38,1.44A28,28,0,0,0,2,30a1,1,0,0,1-1,1"/><path class="cls-2" d="M51,10H42a1,1,0,0,1,0-2h7V1a1,1,0,0,1,2,0Z"/><path class="cls-2" d="M29.42,60a1,1,0,1,1,1-1,1,1,0,0,1-1,1Zm2-1a1,1,0,1,1,2-.16,1,1,0,0,1-.91,1.07h-.08a1,1,0,0,1-1-.92m-5.11.8h0a1,1,0,1,1,.12,0Zm8.09-1.1a1,1,0,1,1,1.17.8h-.18a1,1,0,0,1-1-.81m-11.15.56a1,1,0,1,1,.45-2,1,1,0,0,1-.22,2,.9.9,0,0,1-.23,0m14.09-1.17A1,1,0,0,1,38,56.83a1,1,0,1,1-.67,1.24m-17.07.32a1,1,0,1,1,.33,0,1.26,1.26,0,0,1-.33,0m19.93-1.23a1,1,0,1,1,1.31.54,1.07,1.07,0,0,1-.39.07,1,1,0,0,1-.92-.61m-22.81.07a1,1,0,0,1-.48-1.33,1,1,0,1,1,.9,1.42,1.06,1.06,0,0,1-.42-.09M43,56a1,1,0,1,1,1.35.4.9.9,0,0,1-.47.13A1,1,0,0,1,43,56m-28.3-.17a1,1,0,1,1,.51.14,1,1,0,0,1-.51-.14m30.91-1.31a1,1,0,1,1,.82.43,1,1,0,0,1-.82-.43M12.1,54.06h0a1,1,0,1,1,1.19-1.61,1,1,0,0,1,.21,1.4,1,1,0,0,1-.81.4,1,1,0,0,1-.59-.19M48,52.73a1,1,0,1,1,.76.35,1,1,0,0,1-.76-.35M9.71,52.08h0a1,1,0,0,1,1.35-1.48h0A1,1,0,0,1,11.12,52a1,1,0,0,1-.74.32,1,1,0,0,1-.67-.26m40.56-1.34a1,1,0,1,1,1.41,0,1,1,0,0,1-1.41,0M7.54,49.86a1,1,0,1,1,.75.34,1,1,0,0,1-.75-.34M52.3,48.54a1,1,0,1,1,.62.21,1,1,0,0,1-.62-.21M5.6,47.44a1,1,0,1,1,1.4.23,1,1,0,0,1-.58.19,1,1,0,0,1-.82-.42m48.5-1.3a1,1,0,1,1,1.38-.32,1,1,0,0,1-.85.47,1,1,0,0,1-.53-.15M3.93,44.83a1,1,0,0,1,1.73-1h0a1,1,0,0,1-.38,1.36,1,1,0,0,1-.49.13,1,1,0,0,1-.87-.5m51.71-1.26a1,1,0,1,1,.44.1,1,1,0,0,1-.44-.1M2.53,42.06a1,1,0,1,1,1.32.51,1,1,0,0,1-.4.09,1,1,0,0,1-.92-.6m54.38-1.21a1,1,0,1,1,.34.06,1,1,0,0,1-.34-.06M1.43,39.16a1,1,0,0,1,.65-1.26,1,1,0,0,1,1.25.65,1,1,0,0,1-.64,1.26,1.1,1.1,0,0,1-.31,0,1,1,0,0,1-.95-.69M57.89,38a1,1,0,1,1,.49-2,1,1,0,0,1-.25,2l-.24,0M.64,36.16A1,1,0,0,1,1.41,35a1,1,0,0,1,.41,2,.75.75,0,0,1-.21,0,1,1,0,0,1-1-.79m57.93-1.07A1,1,0,0,1,57.72,34a1,1,0,1,1,1,1.14h-.14m-58.41-2a1,1,0,1,1,1.1.9H1.15a1,1,0,0,1-1-.9m58.78-1a1,1,0,1,1,1-1,1,1,0,0,1-1,1ZM0,30a1,1,0,1,1,1,1,1,1,0,0,1-1-1"/></g></g></svg>