<svg xmlns="http://www.w3.org/2000/svg" viewBox="0 0 95 87.1"><defs><style>.cls-1{fill:#f2f2f2;}.cls-2{fill:#414245;}.cls-3{fill:#f99d4b;}.cls-4{fill:#b8dc59;}.cls-5{opacity:0.1;}.cls-5,.cls-7{isolation:isolate;}.cls-6{fill:#656380;}.cls-7{opacity:0.2;}.cls-8{fill:#ffdabb;}.cls-9{fill:#9298a8;}.cls-10{fill:none;stroke:#414245;stroke-miterlimit:10;stroke-width:0.1px;}.cls-11{fill:#29293a;}.cls-12{fill:#4b4b4c;}.cls-13{fill:#6c63ff;}.cls-14{fill:#535461;}.cls-15{fill:#979db1;}.cls-16{fill:#9096a3;}.cls-17{fill:#2f2e41;}.cls-18{fill:#33c2c2;}.cls-19{fill:#9aa0b2;}.cls-20{font-size:5px;fill:#222;font-family:PingFang-SC-Regular, PingFang SC;}</style></defs><g id="图层_2" data-name="图层 2"><g id="图层_1-2" data-name="图层 1"><ellipse class="cls-1" cx="66" cy="57.08" rx="23.01" ry="2.12"/><path class="cls-1" d="M67.78,33.48c0,10.45-6.21,14.09-13.87,14.09S40,43.93,40,33.48,53.91,9.75,53.91,9.75,67.78,23,67.78,33.48Z"/><polygon class="cls-2" points="53.41 45.98 53.55 37.23 59.46 26.42 53.57 35.86 53.63 31.93 57.71 24.11 53.65 30.89 53.65 30.89 53.77 23.82 58.13 17.59 53.78 22.71 53.86 9.75 53.41 26.91 53.44 26.2 49.01 19.41 53.37 27.56 52.96 35.45 52.95 35.24 47.83 28.1 52.93 35.98 52.88 36.97 52.87 36.99 52.87 37.07 51.83 57.1 53.23 57.1 53.39 46.75 58.48 38.89 53.41 45.98"/><circle class="cls-3" cx="77.29" cy="6" r="6"/><path class="cls-2" d="M77.73,57.27,77.15,57c.8-1.47-.36-3.3-1.13-4.26l-.31-.4c-1-1.2-2.07-2.56-2-4.2,0-2.46,2.37-3.9,4.43-5.18l.4-.25a22,22,0,0,0,4.13-3.32,6,6,0,0,0,1.23-1.63,7,7,0,0,0,.35-2.92c-.09-3.42-.26-6.91-.51-10.36l.66-.05c.25,3.46.42,7,.51,10.39A7.27,7.27,0,0,1,84.45,38a6.77,6.77,0,0,1-1.36,1.83,23.35,23.35,0,0,1-4.25,3.42l-.4.24c-1.92,1.19-4.09,2.53-4.12,4.63,0,1.4,1,2.61,1.9,3.78l.32.4C77.41,53.36,78.71,55.46,77.73,57.27Z"/><path class="cls-4" d="M87.93,24.22A3.77,3.77,0,0,0,86,21.12l-.85,1.67,0-2a3.78,3.78,0,1,0,2.56,4.69A3.7,3.7,0,0,0,87.93,24.22Z"/><path class="cls-4" d="M81.18,49.82a3.77,3.77,0,1,1,.19-3L79,48.7l2.6-.6A3.67,3.67,0,0,1,81.18,49.82Z"/><path class="cls-4" d="M79.31,42.48a3.78,3.78,0,0,1-1.2-7.42l0,1.56.86-1.7h0a3.78,3.78,0,0,1,.51,7.55Z"/><path class="cls-4" d="M88.5,36.37a3.78,3.78,0,0,1-.36-7.56,3.7,3.7,0,0,1,2,.48l-.66,1.83,1.37-1.32a3.78,3.78,0,0,1-2.38,6.57Z"/><path class="cls-5" d="M87.42,25.23c-.87.09-1.72.36-2.6.42a2.84,2.84,0,0,1-2.39-.84,10.57,10.57,0,0,1-.7-1.23,2.82,2.82,0,0,0-1-.9,3.78,3.78,0,1,0,7.07,2.51Z"/><path class="cls-5" d="M88.5,36.37a3.79,3.79,0,0,1-4-3.62A3.72,3.72,0,0,1,84.9,31a2.75,2.75,0,0,1,.76.76A12.92,12.92,0,0,0,86.41,33a3.12,3.12,0,0,0,2.51.88c.91,0,1.8-.3,2.71-.39l.38,0A3.79,3.79,0,0,1,88.5,36.37Z"/><path class="cls-5" d="M79.31,42.48a3.79,3.79,0,0,1-4-3.59,3.73,3.73,0,0,1,.33-1.74,3.25,3.25,0,0,1,.8.77,11.56,11.56,0,0,0,.82,1.28,3.49,3.49,0,0,0,2.68.93c.94,0,1.84-.25,2.77-.32A3.78,3.78,0,0,1,79.31,42.48Z"/><path class="cls-5" d="M81.18,49.82a3.78,3.78,0,0,1-6.89-3.08,3.6,3.6,0,0,1,.82.74,14.35,14.35,0,0,0,1,1.34,4.73,4.73,0,0,0,3.14,1.1A13.51,13.51,0,0,0,81.18,49.82Z"/><path class="cls-6" d="M71.74,55.4s3-.09,3.88-.73,4.59-1.41,4.82-.38,4.48,5.11,1.11,5.14-7.83-.53-8.73-1.07S71.74,55.4,71.74,55.4Z"/><path class="cls-7" d="M81.61,59.07c-3.37,0-7.83-.52-8.73-1.07-.68-.42-.95-1.91-1-2.6h-.1s.18,2.41,1.08,3,5.36,1.1,8.73,1.08c1,0,1.31-.36,1.29-.87C82.71,58.87,82.34,59.06,81.61,59.07Z"/><path class="cls-2" d="M65.94,56.59c-.49-.91-.22-2.11.78-3.38l.23-.28a4,4,0,0,0,1.2-2.38c0-1.3-1.41-2.16-2.63-2.92l-.26-.16a15.61,15.61,0,0,1-2.8-2.25,4.44,4.44,0,0,1-.9-1.21,4.78,4.78,0,0,1-.29-2.16c.06-2.27.17-4.56.33-6.8l.66.05c-.16,2.23-.27,4.5-.33,6.76a4.22,4.22,0,0,0,.22,1.86,3.48,3.48,0,0,0,.77,1,14.38,14.38,0,0,0,2.69,2.17l.25.16c1.31.8,2.93,1.81,3,3.47a4.53,4.53,0,0,1-1.35,2.8l-.22.28c-.47.61-1.21,1.76-.72,2.66Z"/><path class="cls-4" d="M59.38,34.94a2.47,2.47,0,0,1,1.23-2l.55,1.1V32.7a2.47,2.47,0,1,1-1.67,3.07A2.59,2.59,0,0,1,59.38,34.94Z"/><path class="cls-4" d="M63.79,51.67a2.47,2.47,0,0,0,4.66-1,2.3,2.3,0,0,0-.17-1,2.46,2.46,0,0,0-3.19-1.43,2.5,2.5,0,0,0-1.44,1.46l1.55,1.25-1.7-.39A2.38,2.38,0,0,0,63.79,51.67Z"/><path class="cls-4" d="M65,46.88a2.49,2.49,0,0,0,2.59-2.36,2.41,2.41,0,0,0-.22-1.12A2.48,2.48,0,0,0,65.79,42v1l-.56-1.11h0a2.47,2.47,0,0,0-2.58,2.35,2.37,2.37,0,0,0,.1.84A2.5,2.5,0,0,0,65,46.88Z"/><path class="cls-4" d="M59,42.88a2.47,2.47,0,1,0-1.1-4.62l.44,1.19-.9-.86A2.47,2.47,0,0,0,59,42.88Z"/><path class="cls-5" d="M59.71,35.61c.57.06,1.13.24,1.7.27A1.84,1.84,0,0,0,63,35.34a8,8,0,0,0,.46-.81,1.85,1.85,0,0,1,.62-.59,2.48,2.48,0,0,1-1.11,3.33,2.39,2.39,0,0,1-1.2.26,2.48,2.48,0,0,1-2.31-2Z"/><path class="cls-5" d="M59,42.88a2.47,2.47,0,0,0,2.35-3.52,1.8,1.8,0,0,0-.5.49,6.91,6.91,0,0,1-.5.82,2,2,0,0,1-1.63.57c-.6,0-1.18-.19-1.77-.25h-.25A2.47,2.47,0,0,0,59,42.88Z"/><path class="cls-5" d="M65,46.88a2.49,2.49,0,0,0,2.59-2.36,2.41,2.41,0,0,0-.22-1.12,2,2,0,0,0-.52.49,9,9,0,0,1-.53.83,2.29,2.29,0,0,1-1.75.61c-.63,0-1.2-.16-1.81-.21A2.49,2.49,0,0,0,65,46.88Z"/><path class="cls-5" d="M63.79,51.67a2.47,2.47,0,0,0,4.66-1,2.3,2.3,0,0,0-.17-1,2.73,2.73,0,0,0-.54.48,9.17,9.17,0,0,1-.66.88,3.09,3.09,0,0,1-2,.72A8.58,8.58,0,0,1,63.79,51.67Z"/><path class="cls-6" d="M70,55.32a7.34,7.34,0,0,1-2.54-.48c-.59-.42-3-.92-3.14-.25s-2.93,3.34-.73,3.35a18.5,18.5,0,0,0,5.7-.7C69.84,56.89,70,55.32,70,55.32Z"/><path class="cls-7" d="M63.5,57.71c2.2,0,5.13-.34,5.7-.7s.63-1.25.69-1.7H70s-.13,1.57-.72,1.93a18.45,18.45,0,0,1-5.7.7c-.63,0-.85-.23-.84-.56C62.79,57.58,63,57.71,63.5,57.71Z"/><path class="cls-8" d="M38.7,29.7l.46.89a1.5,1.5,0,0,0,.42-.09,1.43,1.43,0,0,0,.8-.9c.41-.9-.5-2.16-.82-2.33s-.06.49-.29,1.06a11.42,11.42,0,0,0-.48,1.27C38.74,29.8,38.7,29.7,38.7,29.7Z"/><path class="cls-9" d="M28.21,31.05a.52.52,0,0,0,.52-.24c.21-.3.71.11.71.11s2.43,1.43,3.09,1.67,3.49-1.68,5.1-2.49c.29-.15,1.11-.65,1.11-.65s.4,1.18.6,1.14a40.35,40.35,0,0,1-4.57,3c-.81.38-1.89,1.07-2.65.91a22.24,22.24,0,0,1-3.36-1.71C28.39,32.54,28.21,31.05,28.21,31.05Z"/><path class="cls-10" d="M32.4,27.4c-.66,1.67-.47,4.52-1.38,4.77"/><path class="cls-8" d="M25.13,63.63l-1.67,1.8s-1.55,0-1.24-.84a2.62,2.62,0,0,0,.12-.57,12.27,12.27,0,0,0,.11-1.82v-.68s2.43-1.07,2.18,0a2,2,0,0,0-.05.43,2.69,2.69,0,0,0,.28,1.18A2.4,2.4,0,0,0,25.13,63.63Z"/><path class="cls-11" d="M25.44,39.92,26,50.81s-1.13,10.32-1.28,10.72-2.28.59-2.38.2-.22-9.46-.22-9.46l-.74-13.13Z"/><path class="cls-2" d="M28.58,66.26a3.07,3.07,0,0,1-2.11.45c-1.36-.21-3.91-.6-4.5-.71-.79-.14-.43-.78-.34-1.25v0a4.76,4.76,0,0,1,.48-1.6c.18-.14.6.8.6.8s1,.45,1.44-.43,1-.89,1-.89c.28-.08.2.62.2.62l2.08,1.46,1.28.38.11.08C29.39,65.54,29.07,66,28.58,66.26Z"/><path class="cls-12" d="M28.59,66.24a3,3,0,0,1-2.12.44c-1.36-.2-3.91-.59-4.5-.7-.78-.14-.43-.78-.34-1.25l4.94,1s2.07,0,2.28-.62C29.39,65.52,29.07,65.93,28.59,66.24Z"/><rect class="cls-13" x="18.47" y="50.89" width="1.36" height="4.31" transform="translate(-32.06 29.42) rotate(-45.38)"/><polygon class="cls-14" points="41.95 50.07 41.95 50.07 41.95 50.07 41.95 50.07"/><path class="cls-2" d="M49.7,55.1A8.44,8.44,0,0,0,42,50a8.11,8.11,0,0,0-3.37.7A8.45,8.45,0,1,0,49.7,55.1Zm-1.6,1.73a6.32,6.32,0,0,1-.8,5l-5-3.18-.15-.09,5.85-2ZM48,56.4l-6,2.08V58.4l.45-.32L45,52.87A6.34,6.34,0,0,1,48,56.4Zm-3.05-3.6L42.33,58l-.33.24.2-6.17A6.46,6.46,0,0,1,44.91,52.8Zm-8,1.65.56-.61a6.28,6.28,0,0,1,1.77-1.22l.2-.08,2,5.57.09.16-5.25-3A5.78,5.78,0,0,1,36.94,54.45Zm2.66-2c.24-.09.47-.17.72-.24a6.44,6.44,0,0,1,1.73-.2l-.2,6.27,0,0-.18-.29ZM35.54,58.4l5.81.1v-.14l-5.8-.11a6.27,6.27,0,0,1,.73-2.8l5.38,3-.34.25h0l-4.6,3.34a6.34,6.34,0,0,1-1.14-3.64Zm1.23,3.79L41.21,59l-1.83,5.31A6.42,6.42,0,0,1,36.77,62.19Zm5.15,2.62h0a6.47,6.47,0,0,1-2.41-.47l1.89-5.5.46-.16h0l.39,6.1Zm1.6-.2a7,7,0,0,1-1.12.17L42,59l3.1,5A6.37,6.37,0,0,1,43.52,64.61Zm1.73-.73L42,58.66l.21.12,5,3.19A6.31,6.31,0,0,1,45.25,63.88Z"/><path class="cls-14" d="M28.44,40.47s8.45-.29,8.62.81-8.45.63-8.45.63A1.16,1.16,0,0,1,28.44,40.47Z"/><path class="cls-2" d="M19.58,56.63a8.49,8.49,0,0,0-1.7-3.49,9.1,9.1,0,0,0-1-1,8.43,8.43,0,1,0,2.83,7.71,9.77,9.77,0,0,0,.1-1.32A8.35,8.35,0,0,0,19.58,56.63Zm-1.89,1.85a6.38,6.38,0,0,1-1,3.39l-5-3.18-.15-.08,5.86-2A6.42,6.42,0,0,1,17.69,58.48Zm-.34-2-6,2.07v-.07l.44-.32,2.6-5.2A6.34,6.34,0,0,1,17.35,56.43ZM14.3,52.84,11.71,58l-.32.23.2-6.14A6.39,6.39,0,0,1,14.3,52.84Zm-5.44-.25,2,5.56.1.15L5.75,55.36A6.41,6.41,0,0,1,8.86,52.59ZM9,52.54a6.48,6.48,0,0,1,2.33-.44h.12l-.2,6.26,0,0L11,58.09Zm-4,5.92v0l5.79.1V58.4L5,58.29a6.43,6.43,0,0,1,.73-2.8l5.37,3-.35.25h0v0L6.08,62.1A6.32,6.32,0,0,1,4.94,58.46Zm1.22,3.76L10.59,59,8.77,64.32A6.46,6.46,0,0,1,6.16,62.22ZM8.9,64.37l1.89-5.5.45-.16h0l.39,6.1c-.11,0-.22,0-.33,0A6.43,6.43,0,0,1,8.9,64.37Zm2.89.43L11.42,59l3.1,5A6.39,6.39,0,0,1,11.79,64.8Zm2.84-.9L11.4,58.69l.21.12,5,3.18A6.3,6.3,0,0,1,14.63,63.9Z"/><path class="cls-15" d="M37.22,42.31l-.33-1L35.57,42l.25.71.36,1L21.6,48.28V44.84H20.1v4l-8.56,8.95.37.7-.2.4s9.2,1.55,12.25,1,2-2.18,1-3.39c-.3-.37-1.66-.33-3.39-.09V50.15l15-5.16.13.37L25.85,56.11l1.15,1L37.18,46.53l4.25,11.88.81-.46ZM20.1,53l-.92-.9.92-.85Zm-7.73,5.34L18.18,53l1.92,1.9v1.72C17.07,57.18,13.56,58.05,12.37,58.36Z"/><circle class="cls-2" cx="11.31" cy="58.46" r="0.92"/><circle class="cls-2" cx="41.92" cy="58.49" r="0.92"/><circle class="cls-15" cx="25.68" cy="57.55" r="1.84"/><rect class="cls-15" x="25.72" y="57.07" width="0.98" height="3.41" rx="0.49" transform="translate(-29.98 27.4) rotate(-36.79)"/><rect class="cls-13" x="23.75" y="59.54" width="4.31" height="1.36"/><rect class="cls-16" x="23.75" y="59.54" width="4.31" height="1.36"/><path class="cls-2" d="M28.44,40.47s8.45-.29,8.62.81-8.45.63-8.45.63A1.16,1.16,0,0,1,28.44,40.47Z"/><path class="cls-2" d="M21.49,43.76a4.52,4.52,0,0,1-.63-.08c-.81-.16-2.85-.48-3.4.07s-.46,1.9,1.38,2.07,5-.29,5.63-1A5.7,5.7,0,0,0,21.49,43.76Z"/><path class="cls-2" d="M28.67,43.52l7.87-2.7s1.38.17.87,1.32L29.47,44.5S28.27,44.61,28.67,43.52Z"/><path class="cls-8" d="M30.93,28.89S30.3,30.26,30,31s-2.39-1.5-2.39-1.5,1.58-1.15,1.58-1.68S30.93,28.89,30.93,28.89Z"/><circle class="cls-8" cx="30.84" cy="26.51" r="2.52"/><path class="cls-8" d="M24.18,54.77C24.05,55,23,58,23,58l-.86-.13s-.79-.63-.82-.64A12.59,12.59,0,0,1,22,54.59l.19-.44S24.63,54.18,24.18,54.77Z"/><path class="cls-17" d="M23.34,40.19s6.39,5.14,6.28,6.51-5.52,8.54-5.52,8.54-2.34.5-2.44.08,4.11-8,4.11-8S20.7,45.57,18.63,43a3.66,3.66,0,0,1-.76-3.1,5,5,0,0,1,1.56-2.39C21.22,36.84,23.34,40.19,23.34,40.19Z"/><path class="cls-2" d="M27.75,59.15a3,3,0,0,1-2.11.44c-1.36-.21-3.91-.6-4.5-.71-.79-.14-.43-.78-.34-1.24v0a4.91,4.91,0,0,1,.48-1.6c.18-.14.6.8.6.8s1,.45,1.44-.43,1-.89,1-.89c.28-.08.2.62.2.62l2.08,1.46,1.28.39L28,58C28.56,58.42,28.24,58.83,27.75,59.15Z"/><path class="cls-12" d="M27.76,59.13a3,3,0,0,1-2.12.44c-1.36-.21-3.91-.6-4.5-.71-.78-.14-.43-.78-.34-1.24l4.93,1s2.08,0,2.29-.62C28.56,58.4,28.24,58.81,27.76,59.13Z"/><path class="cls-8" d="M37.21,39.35s3.67,1,3.36,2.2-3.77-1.11-3.77-1.11Z"/><polygon class="cls-18" points="39.34 26.33 39.65 26.91 40.38 29.39 40.24 29.45 39.81 28.69 39.16 26.36 39.34 26.33"/><path class="cls-15" d="M30.81,33.55a21.21,21.21,0,0,1-.73-2.76c0-.05.41-.67.41-.67s.15-.17-.19-.31a4.51,4.51,0,0,1-1.53-1.09s-.15-.38-.32-.13a.89.89,0,0,1-.73.48,4.78,4.78,0,0,0-.65.15,8,8,0,0,0-1.95,1c-1.59,1.31-4.51,5.26-5.35,6.3-.68.83-1.42,1.65-1,2a13.25,13.25,0,0,0,3.56,2.29c1.35.46,2.84.2,2.95-.22s1-3.17,2.52-4.45a4,4,0,0,1,1.87-.68A1.7,1.7,0,0,0,30.81,33.55Z"/><path class="cls-19" d="M27.07,30.81c.76.28,1.51,1.62,2,3A5.91,5.91,0,0,0,31.32,37a52.11,52.11,0,0,0,6.39,2.39S38.15,41,37.52,41s-6-.71-7.71-1.82S26,34.8,25.17,33C24.86,32.29,24.08,29.72,27.07,30.81Z"/><circle class="cls-2" cx="27.38" cy="28.13" r="1.16"/><path class="cls-2" d="M29.83,22.62a2.9,2.9,0,0,0-2.55,3.13A3.42,3.42,0,0,0,29.85,29c-1-3.14.83-4.3,2.11-4.52.95-.16,1.46.81,1.32.12A3.22,3.22,0,0,0,29.83,22.62Z"/><path class="cls-2" d="M30.58,24.74c1.16-1.14.63-1.48,1.82-.35l-.07-.08c-1.18-1.19-.71-.89-1.9.29a3,3,0,0,0,0,4.27l.08.07A3,3,0,0,1,30.58,24.74Z"/><path class="cls-2" d="M27.13,27a1.36,1.36,0,0,0-.91,2.13,1.35,1.35,0,0,1,1.86-1.95.93.93,0,0,1,.16.18A1.33,1.33,0,0,0,27.13,27Z"/><path class="cls-2" d="M30.08,23.87,30.37,26l.41-.06.42-.73,0,.67L33,25.63,32.8,25l.31.64.34,0a4.27,4.27,0,0,0-.19-1.06C32.89,23.79,30.08,23.87,30.08,23.87Z"/><path class="cls-2" d="M32,24.51a1.8,1.8,0,0,1,1.32.12,3.22,3.22,0,0,0-3.45-2"/><path class="cls-10" d="M29.36,27.31c.25.6-.6,3,.77,3.89.09.07,1,1.38,1.94,1.63,3,.8,8.13-2.29,8-3.73"/><text class="cls-20" transform="translate(0 79.85)">到达公园附近，林馨停下来欣赏了一会落日<tspan x="0" y="6">并且拍照完成了随机任务</tspan></text></g></g></svg>