<svg xmlns="http://www.w3.org/2000/svg" xmlns:xlink="http://www.w3.org/1999/xlink" viewBox="0 0 85.7 86.91"><defs><style>.cls-1,.cls-17,.cls-20,.cls-22,.cls-23,.cls-29{fill:none;}.cls-2{fill:#f99d4b;}.cls-3{fill:#f2f2f2;}.cls-4{fill:#ffdabb;}.cls-5{fill:#9298a8;}.cls-6{fill:#33c2c2;}.cls-21,.cls-7{fill:#414245;}.cls-8{fill:#f9d4b9;}.cls-9{fill:#3c3d3f;}.cls-10{fill:#4b4b4c;}.cls-11{fill:#ccc;}.cls-12{fill:#6c63ff;}.cls-13{fill:#29293a;}.cls-14{fill:#2f2e41;}.cls-15{fill:#979db1;}.cls-16{fill:#9aa0b2;}.cls-17{stroke:#f5ca2e;stroke-width:0.84px;}.cls-17,.cls-20,.cls-22,.cls-23,.cls-29{stroke-miterlimit:10;}.cls-17,.cls-18{opacity:0.99;}.cls-18{fill:#f5ca2e;}.cls-19{fill:#b8dc59;}.cls-20{stroke:#a8a8a8;}.cls-20,.cls-29{stroke-width:0.39px;}.cls-21{font-size:2.95px;font-family:MicrosoftYaHeiUILight, Microsoft YaHei UI;}.cls-22,.cls-23,.cls-29{stroke:#9b9b9b;}.cls-22{stroke-width:0.26px;}.cls-23{stroke-width:0.27px;}.cls-24{clip-path:url(#clip-path);}.cls-25{fill:#8e8e8e;}.cls-26{fill:#afafaf;}.cls-27{fill:#a0a0a0;}.cls-28{fill:#c6c6c6;}.cls-30{font-size:5px;fill:#222;font-family:PingFang-SC-Regular, PingFang SC;}</style><clipPath id="clip-path"><path class="cls-1" d="M26.91,9.77a4.53,4.53,0,0,0,.1-.91,4.7,4.7,0,0,0-4.84-4.54,4.94,4.94,0,0,0-1.45.21A5.28,5.28,0,0,0,15.4.19,5.3,5.3,0,0,0,10.09,4.4a5,5,0,0,0-2.65-.75A4.7,4.7,0,0,0,2.6,8.19a4.29,4.29,0,0,0,.57,2.13,5,5,0,0,0-3,4.52,5.23,5.23,0,0,0,5.39,5.05,5.68,5.68,0,0,0,1.32-.16,4.77,4.77,0,0,0,4.71,3.52,4.93,4.93,0,0,0,3.68-1.6,5.64,5.64,0,0,0,3.18,1,5.45,5.45,0,0,0,5.06-3.23,5.74,5.74,0,0,0,2.28.48,5.28,5.28,0,0,0,5.44-5.1A5.19,5.19,0,0,0,26.91,9.77Z"/></clipPath></defs><g id="图层_2" data-name="图层 2"><g id="图层_1-2" data-name="图层 1"><circle class="cls-2" cx="60.08" cy="14.18" r="2.62"/><path class="cls-3" d="M70,13.58l-.27-.33a.68.68,0,0,0-.43-.15h-.16l-.13,0a.88.88,0,0,1-.42-.31l-.16-.22a1.24,1.24,0,0,0-.95-.49,1.31,1.31,0,0,0-1.09.68.83.83,0,0,1-.73.39h0c-.49,0-.89.55-.89,1.24s.4,1.24.89,1.24A.68.68,0,0,0,66,15.5a1.29,1.29,0,0,1,1.07,0,1.11,1.11,0,0,0,.91,0,1.33,1.33,0,0,1,1.07,0,.61.61,0,0,0,.3.08c.49,0,.89-.56.89-1.24A1.56,1.56,0,0,0,70,13.58Z"/><path class="cls-4" d="M52.17,35.66a.83.83,0,0,1-.34.13c-.46,0-.83-1.21-.83-1.21l.33-.31c.61-.54,1.89-1.54,2.48-1S53,35.24,52.17,35.66Z"/><path class="cls-5" d="M52,36.32l-.88-2s-4.47,1.51-5.89,1.74c-.46.08-2.47-5.81-2.47-5.81,0-.91-.29-1.68-1.17-1.91a2,2,0,0,0-.72-.05s-1.61.74-1.78,1.61c-.57,2.92,3.09,6.39,4.65,8.55C44.54,39.64,52.12,36.68,52,36.32Z"/><path class="cls-4" d="M52,36.67a1,1,0,0,1-.34.13c-.46,0-.83-1.21-.83-1.21l.34-.32c.6-.54,1.88-1.53,2.47-1S52.73,36.25,52,36.67Z"/><path class="cls-6" d="M55.12,32l0-.06a.17.17,0,0,0-.22,0l0,0s-1.86,2.73-2.5,3.64c-.09.13,0,.22.11.25a.35.35,0,0,0,.42-.12l2.32-3.37h0A.35.35,0,0,0,55.12,32Z"/><path class="cls-4" d="M38.42,27.74a3,3,0,0,0,.5-.57,22.64,22.64,0,0,0,.93-3.79,8.39,8.39,0,0,1,2.08.67,1.18,1.18,0,0,1,.19.11c.48.29.74.67.4,1.13a2.35,2.35,0,0,0-.24.37h0a2.09,2.09,0,0,0-.14.3.69.69,0,0,1,0,.13c-.19.57.33,1.56.51,2.14C42.6,28.23,38,28.07,38.42,27.74Z"/><path class="cls-4" d="M44.76,21.8a3.46,3.46,0,0,1-3,3.87h0l-.12,0a3.45,3.45,0,1,1,3.12-3.88Z"/><circle class="cls-7" cx="37.27" cy="24.46" r="1.43"/><path class="cls-7" d="M40.35,17.68a3.59,3.59,0,0,0-3.18,3.85,4.23,4.23,0,0,0,3.14,4.07C39.14,21.72,41.38,20.3,43,20c1.17-.18,1.79,1,1.63.17C44.35,18.89,42.37,17.42,40.35,17.68Z"/><path class="cls-7" d="M41.25,20.31c1.45-1.4.81-1.81,2.25-.41l-.08-.1c-1.44-1.48-.86-1.1-2.34.33A3.73,3.73,0,0,0,41,25.41l.09.09A3.74,3.74,0,0,1,41.25,20.31Z"/><path class="cls-7" d="M37,23a1.68,1.68,0,0,0-1.44,1.87,1.79,1.79,0,0,0,.3.76,1.67,1.67,0,1,1,2.32-2.4,2.11,2.11,0,0,1,.19.23A1.68,1.68,0,0,0,37,23Z"/><path class="cls-7" d="M40.65,19.24,41,21.85l.5-.06.52-.91,0,.84,2.2-.28L44,20.63l.38.79.41-.05a5.15,5.15,0,0,0-.22-1.31C44.12,19.17,40.65,19.24,40.65,19.24Z"/><path class="cls-7" d="M43,20a2.26,2.26,0,0,1,1.63.17c-.24-1.32-2.22-2.79-4.24-2.53"/><polygon class="cls-8" points="47.5 62.13 49.37 62.13 50.26 57.27 47.5 57.27 47.5 62.13"/><path class="cls-9" d="M53.38,64.16a3,3,0,0,1-2,.72l-4.55-.08c-.8,0-.53-.72-.5-1.19v0a4.48,4.48,0,0,1,.26-1.65c.15-.16.7.71.7.71s1.07.31,1.36-.62.89-1,.89-1c.27-.12.29.59.29.59l2.26,1.16,1.32.21.12.06C54.08,63.33,53.82,63.78,53.38,64.16Z"/><path class="cls-10" d="M53.38,64.14a3,3,0,0,1-2,.72l-4.55-.08c-.8,0-.53-.72-.5-1.19l5,.31s2-.31,2.18-.92C54.08,63.31,53.82,63.76,53.38,64.14Z"/><path class="cls-11" d="M33.75,48.73V49a1.91,1.91,0,0,0,1.91,1.91H49.41A1.9,1.9,0,0,0,51.32,49v-.3a2,2,0,0,0-.44-1.23,3,3,0,0,0-.32-.3S43,47,43,46.82H35.66A1.91,1.91,0,0,0,33.75,48.73Z"/><rect class="cls-11" x="41.65" y="50.87" width="1.99" height="12.83"/><path class="cls-11" d="M49.29,63.63c0,.21-3,.08-6.72.08s-6.72.13-6.72-.08,3-1.92,6.72-1.92S49.29,63.41,49.29,63.63Z"/><path class="cls-12" d="M42.72,34.07l-3.58,1a.73.73,0,0,1-.91-.52s0-.07,0-.1l-.43-3.68a2,2,0,0,1,3.95-1.06l1.48,3.39a.74.74,0,0,1-.38,1l-.11,0Z"/><path class="cls-13" d="M49.71,60.29H46.82S49.68,50,49.53,49.92c-1.63-.43-5.81-1.56-9.43-2.89a4.41,4.41,0,0,1-2.91-2.45,3.45,3.45,0,0,1,.27-2.71l0,0,3.41.31,3.7.32,8.1,4.34A3.07,3.07,0,0,1,54,50.74S49.73,60.29,49.71,60.29Z"/><polygon class="cls-4" points="45.22 63.65 47.18 63.65 49.42 58.06 46.68 57.87 45.22 63.65"/><path class="cls-14" d="M48.42,60.87H45.8c-.38,0,3.13-9.15,2.72-9.81-.9-1.42-6.2-2-9.83-3.33a4.24,4.24,0,0,1-2.77-2.52,3.73,3.73,0,0,1,.44-2.88l0,0,3.41.31,3.69.32,8.1,4.34c1.41.76,3.06,2.38.88,5.63C52.47,52.89,48.44,60.88,48.42,60.87Z"/><path class="cls-7" d="M51.49,65.76a3.13,3.13,0,0,1-2.15.23c-1.33-.35-3.83-1-4.4-1.15-.77-.22-.35-.83-.21-1.28v0A4.57,4.57,0,0,1,45.38,62c.19-.12.52.86.52.86s1,.55,1.47-.29,1.1-.78,1.1-.78c.29,0,.14.63.14.63l1.92,1.67,1.24.51.1.08C52.37,65.11,52,65.49,51.49,65.76Z"/><path class="cls-10" d="M51.5,65.74a3.08,3.08,0,0,1-2.15.23c-1.34-.35-3.83-1-4.4-1.15-.77-.22-.36-.83-.22-1.28L49.54,65s2.07.18,2.33-.39C52.38,65.09,52,65.47,51.5,65.74Z"/><path class="cls-15" d="M43.8,34c.26-1.11,1.13-2.46-.12-4.27h0l-.06-.07a4,4,0,0,0-.33-.42,5.34,5.34,0,0,1-.89-1.53c-.06-.23-.17-.94-.17-.94s.05-.26-.38-.19a2.85,2.85,0,0,1-2.14-.26c-.11-.06-.39-.52-.52-.18a3.52,3.52,0,0,1-.39,1s-.77,1.08-.93,1.35c-.71,1.24-.72,2-.5,5.7a13.86,13.86,0,0,1-.51,7.39,8.09,8.09,0,0,1-.4.84,26.23,26.23,0,0,0,8.13.09S43.33,36,43.8,34Z"/><path class="cls-14" d="M43.5,31.18c-.38-1.29-3.19-4.2-3.19-4.2l0,0a1.41,1.41,0,0,0-.66-.2.75.75,0,0,0-.53.22,3.36,3.36,0,0,0-.24.29,1,1,0,0,1,.24,0,1.29,1.29,0,0,1,.66.21h0s2.64,2.32,3,3.62A9.12,9.12,0,0,1,43,33.3a27.14,27.14,0,0,1-.58,4.21c-.22.78-1.07,5.25-1.07,5.25h.63s.82-5,1.05-5.72A26.36,26.36,0,0,0,43.5,31.18Z"/><path class="cls-16" d="M51.79,37.14v0l-.87-1.93A70.78,70.78,0,0,1,44.2,37.5c-.46.07-2-6.51-2-6.51,0-.91-.3-1.68-1.18-1.91a2.18,2.18,0,0,0-.72-.06h0a2,2,0,0,0-1.78,1.62c-.57,2.92,2.19,7.16,3.75,9.32C43.08,41.1,51.94,37.5,51.79,37.14Z"/><path class="cls-17" d="M55.71,28.48H83.94a1.38,1.38,0,0,0,1.33-1.42V11.75a1.38,1.38,0,0,0-1.33-1.42H55.71a1.38,1.38,0,0,0-1.33,1.42V27.06A1.38,1.38,0,0,0,55.71,28.48Z"/><path class="cls-18" d="M56.15,31.43l3.3-3.1-4.23.1v2.64a.55.55,0,0,0,.55.51A.59.59,0,0,0,56.15,31.43Z"/><path class="cls-19" d="M74.74,25a1,1,0,0,1-.69.28,1,1,0,0,1-.49-1.88.46.46,0,0,0-.44-.8,1.91,1.91,0,1,0,2.24,3.07.46.46,0,0,0-.62-.67Z"/><path class="cls-19" d="M79.49,21.67a.46.46,0,0,0-.55.33.45.45,0,0,0,.34.55,1.39,1.39,0,1,1-1.72,1.35,1.42,1.42,0,0,1,.17-.67.46.46,0,1,0-.8-.44,2.37,2.37,0,0,0-.28,1.11,2.3,2.3,0,1,0,2.84-2.23Z"/><path class="cls-19" d="M73.06,21.43h.34l1.24,2.63a.45.45,0,1,0,.82-.38l-.36-.78,2.31-1.36,1.12,2.52a.46.46,0,0,0,.42.27.58.58,0,0,0,.18,0,.46.46,0,0,0,.23-.61l-2.23-5a.48.48,0,0,0-.42-.27H75.32a.46.46,0,1,0,0,.91h1.09L77,20.7l-2.33,1.37-.3-.64h.1a.46.46,0,1,0,0-.91H73.06a.46.46,0,1,0,0,.91Z"/><path class="cls-19" d="M67.72,26s1.38-4.52-.22-6.33a3,3,0,0,0-3.15-1,1.16,1.16,0,0,0-.73.6c-.21.46-.17,1.2,1.33,2.07a4.86,4.86,0,0,1,2.66,3.44Z"/><path class="cls-19" d="M67.77,26.05s-1.61-3.29-2.06-3.22a.5.5,0,0,0-.35.45,1.37,1.37,0,0,0,.09.8A3.53,3.53,0,0,0,67.77,26.05Z"/><path class="cls-19" d="M67.73,26.05s1.61-3.29,2.06-3.22c.21,0,.3.24.35.45a1.37,1.37,0,0,1-.09.8A3.55,3.55,0,0,1,67.73,26.05Z"/><path class="cls-20" d="M26.91,9.77a4.53,4.53,0,0,0,.1-.91,4.7,4.7,0,0,0-4.84-4.54,4.94,4.94,0,0,0-1.45.21A5.28,5.28,0,0,0,15.4.19,5.3,5.3,0,0,0,10.09,4.4a5,5,0,0,0-2.65-.75A4.7,4.7,0,0,0,2.6,8.19a4.29,4.29,0,0,0,.57,2.13,5,5,0,0,0-3,4.52,5.23,5.23,0,0,0,5.39,5.05,5.68,5.68,0,0,0,1.32-.16,4.77,4.77,0,0,0,4.71,3.52,4.93,4.93,0,0,0,3.68-1.6,5.64,5.64,0,0,0,3.18,1,5.45,5.45,0,0,0,5.06-3.23,5.74,5.74,0,0,0,2.28.48,5.28,5.28,0,0,0,5.44-5.1A5.19,5.19,0,0,0,26.91,9.77Z"/><text class="cls-21" transform="translate(9.41 7.32)">地铁车站</text><ellipse class="cls-22" cx="33.7" cy="13.78" rx="1.38" ry="1.15"/><ellipse class="cls-23" cx="36.05" cy="15.75" rx="1.06" ry="0.91"/><g class="cls-24"><path class="cls-25" d="M6.61,13.51a2,2,0,1,0-1.36-.09A3,3,0,0,0,3.61,16.3c0,1.65,1,3,2.22,3s2.22-1.34,2.22-3A3.09,3.09,0,0,0,6.61,13.51Z"/><path class="cls-25" d="M17,12.91A2,2,0,0,0,18.4,11a2,2,0,1,0-2.8,1.82A3,3,0,0,0,14,15.7c0,1.65,1,3,2.23,3s2.22-1.34,2.22-3A3.09,3.09,0,0,0,17,12.91Z"/><path class="cls-25" d="M22.67,12.69a2,2,0,1,0-1.36-.09,3,3,0,0,0-1.65,2.88c0,1.65,1,3,2.23,3s2.22-1.34,2.22-3A3.09,3.09,0,0,0,22.67,12.69Z"/><path class="cls-26" d="M3.2,17.09A2,2,0,1,0,1.84,17,3,3,0,0,0,.19,19.88c0,1.65,1,3,2.23,3s2.22-1.34,2.22-3A3.07,3.07,0,0,0,3.2,17.09Z"/><path class="cls-26" d="M10.22,16.41a2,2,0,1,0-1.36-.08A3,3,0,0,0,7.21,19.2c0,1.65,1,3,2.23,3s2.22-1.34,2.22-3A3.09,3.09,0,0,0,10.22,16.41Z"/><path class="cls-26" d="M15.92,15.82a2,2,0,1,0-1.36-.09,3,3,0,0,0-1.65,2.88c0,1.65,1,3,2.22,3s2.23-1.34,2.23-3A3.09,3.09,0,0,0,15.92,15.82Z"/><path class="cls-26" d="M21.92,15.26a2,2,0,1,0-1.36-.09,3,3,0,0,0-1.65,2.88c0,1.65,1,3,2.23,3s2.22-1.34,2.22-3A3.07,3.07,0,0,0,21.92,15.26Z"/><path class="cls-27" d="M26.47,17.38a2,2,0,1,0-1.36-.09,3,3,0,0,0-1.65,2.88c0,1.65,1,3,2.22,3s2.23-1.34,2.23-3A3.07,3.07,0,0,0,26.47,17.38Z"/><path class="cls-28" d="M6,18.94A2,2,0,0,0,7.44,17a2,2,0,1,0-2.8,1.82A3,3,0,0,0,3,21.73c0,1.65,1,3,2.23,3s2.22-1.34,2.22-3A3.09,3.09,0,0,0,6,18.94Z"/><path class="cls-28" d="M12.45,18.94A2,2,0,0,0,13.89,17a2,2,0,1,0-2.8,1.82,3,3,0,0,0-1.65,2.87c0,1.65,1,3,2.22,3s2.23-1.34,2.23-3A3.09,3.09,0,0,0,12.45,18.94Z"/><path class="cls-28" d="M19.1,20.1A2,2,0,1,0,17.74,20a3,3,0,0,0-1.65,2.87c0,1.66,1,3,2.23,3s2.22-1.33,2.22-3A3.07,3.07,0,0,0,19.1,20.1Z"/><path class="cls-28" d="M28.15,19.58a2,2,0,1,0-1.36-.09,3,3,0,0,0-1.65,2.88c0,1.65,1,3,2.23,3s2.22-1.34,2.22-3A3.07,3.07,0,0,0,28.15,19.58Z"/><path class="cls-28" d="M23.7,21.25a2,2,0,1,0-1.36-.09A3,3,0,0,0,20.7,24c0,1.65,1,3,2.22,3s2.22-1.34,2.22-3A3.09,3.09,0,0,0,23.7,21.25Z"/></g><path class="cls-29" d="M26.91,9.77a4.53,4.53,0,0,0,.1-.91,4.7,4.7,0,0,0-4.84-4.54,4.94,4.94,0,0,0-1.45.21A5.28,5.28,0,0,0,15.4.19,5.3,5.3,0,0,0,10.09,4.4a5,5,0,0,0-2.65-.75A4.7,4.7,0,0,0,2.6,8.19a4.29,4.29,0,0,0,.57,2.13,5,5,0,0,0-3,4.52,5.23,5.23,0,0,0,5.39,5.05,5.68,5.68,0,0,0,1.32-.16,4.77,4.77,0,0,0,4.71,3.52,4.93,4.93,0,0,0,3.68-1.6,5.64,5.64,0,0,0,3.18,1,5.45,5.45,0,0,0,5.06-3.23,5.74,5.74,0,0,0,2.28.48,5.28,5.28,0,0,0,5.44-5.1A5.19,5.19,0,0,0,26.91,9.77Z"/><text class="cls-30" transform="translate(0.74 79.67)">App给出建议，对比挤地铁，骑行可以<tspan x="0" y="6">节省15分钟，还可以经过附近的公园</tspan></text></g></g></svg>