<svg xmlns="http://www.w3.org/2000/svg" viewBox="0 0 82.63 97.7"><defs><style>.cls-1{fill:#222;}.cls-2{fill:#32c2c2;}.cls-3{fill:#b8db59;}.cls-4{fill:#f6ba32;}.cls-5{fill:#ccc;}</style></defs><g id="图层_2" data-name="图层 2"><g id="图层_1-2" data-name="图层 1"><path class="cls-1" d="M32.31,90.06h.84v1.86h1.28v.82H33.15v1.72l1.62-.36v.8c-.38.1-.92.23-1.62.38V97.7h-.84V95.45c-.84.14-1.6.26-2.26.35L29.94,95c.67-.08,1.46-.2,2.37-.34V92.74h-2L30.11,92a17.62,17.62,0,0,0,1.08-2.88H29.91v-.84H31.4c.09-.36.2-.86.34-1.5l.81.12c-.09.42-.2.88-.32,1.38H34.5v.84H32a21.24,21.24,0,0,1-1,2.84h1.33Zm4.79,3.71H34.94v-.84h5.27v.84H38v2.75h2.8v.82H34.27v-.82H37.1ZM35,92.39l-.54-.71a7.74,7.74,0,0,0,4.16-3.48H35v-.83h4.67V88a7.15,7.15,0,0,1-1.19,2,18.37,18.37,0,0,1,2.35,1.79l-.6.61a14,14,0,0,0-2.3-1.83A10,10,0,0,1,35,92.39Z"/><path class="cls-1" d="M42,90.53H52.71v.65H42Zm1.21,1.25h8.36v3.06H47.76v.67h4.07v.57H47.76v.71H52.7v.67H42v-.67h4.92v-.71h-4v-.57h4v-.67H43.17Zm.27-4.84h7.83v3H43.44ZM44,93.06h2.89v-.74H44Zm2.89,1.24v-.74H44v.74Zm-2.61-6.14h6.15v-.69H44.28Zm6.15,1.23v-.71H44.28v.71Zm-2.67,2.93v.74H50.7v-.74Zm2.94,2v-.74H47.76v.74Z"/><path class="cls-2" d="M66.39,44.83a15.73,15.73,0,0,1-10.17-3.72c-.48-.46-12.63-10.44-14.83-12.26C39.27,30.58,27.29,40.35,27,40.64a15.86,15.86,0,0,1-10.75,4.19A16.47,16.47,0,0,1,0,28.14a16.48,16.48,0,0,1,16.21-16.7h0a15.89,15.89,0,0,1,10.19,3.71l.08.08c.36.35,9.71,8.05,14.87,12.29,2.75-2.27,15.07-12.47,15.46-12.83a15.77,15.77,0,0,1,19.8.47A17.07,17.07,0,0,1,79,38.63a15.8,15.8,0,0,1-12.65,6.2ZM42.14,28.18c2.46,2,14.57,12,14.79,12.23a14.79,14.79,0,0,0,11,3.34A15,15,0,0,0,78.25,38,16.06,16.06,0,0,0,76,15.92h0a14.76,14.76,0,0,0-18.51-.47h0C56.39,16.39,44.62,26.13,42.14,28.18ZM16.22,12.44h0A15.48,15.48,0,0,0,1,28.14,15.48,15.48,0,0,0,16.21,43.83a14.88,14.88,0,0,0,10.07-3.92c.27-.25,11.85-9.69,14.33-11.71-9.18-7.55-14.16-11.67-14.84-12.28h0A14.88,14.88,0,0,0,16.22,12.44Z"/><path class="cls-3" d="M25.12,38.62a10.49,10.49,0,1,1,0-21h0A10.75,10.75,0,0,1,31.81,20l.07.07c.29.26,7.6,6,9.47,7.47l.31-.25c7.66-6.05,9.42-7.46,9.55-7.57a10.71,10.71,0,0,1,13,.28h0a10.38,10.38,0,0,1,1.59,14.75,10.77,10.77,0,0,1-15,1.56c-.14-.12-1.26-1-9.47-7.47-5.61,4.37-9,7-9.2,7.18A10.65,10.65,0,0,1,25.12,38.62Zm17-10.46c9.23,7.25,9.31,7.35,9.37,7.42A9.75,9.75,0,0,0,65,34.1a9.29,9.29,0,0,0,2.09-7,9.38,9.38,0,0,0-3.52-6.39h0a9.71,9.71,0,0,0-11.74-.29c-.26.22-1.64,1.32-9.56,7.58Zm-17-9.51h0A9.49,9.49,0,1,0,31.5,35.24l9.06-7.07c-2.22-1.74-8.59-6.74-9.38-7.42h0A9.7,9.7,0,0,0,25.12,18.65Z"/><path class="cls-4" d="M41.32,9.12A4.31,4.31,0,1,0,37,4.81a4.31,4.31,0,0,0,4.31,4.31"/><path class="cls-5" d="M41.32,9.62a4.81,4.81,0,1,1,4.81-4.81A4.82,4.82,0,0,1,41.32,9.62Zm0-8.62a3.81,3.81,0,1,0,3.81,3.81A3.82,3.82,0,0,0,41.32,1Z"/><path class="cls-4" d="M41.32,55.77A4.31,4.31,0,1,0,37,51.46a4.31,4.31,0,0,0,4.31,4.31"/><path class="cls-5" d="M41.32,56.27a4.81,4.81,0,1,1,4.81-4.81A4.82,4.82,0,0,1,41.32,56.27Zm0-8.62a3.81,3.81,0,1,0,3.81,3.81A3.82,3.82,0,0,0,41.32,47.65Z"/></g></g></svg>