<svg id="Capa_1" data-name="Capa 1" xmlns="http://www.w3.org/2000/svg" viewBox="0 0 59.99 59.99"><defs><style>.cls-1{fill:#b8db59;}.cls-2{fill:#32c2c2;}</style></defs><path class="cls-1" d="M29.93,35.76c3.45,0,3.57-4.24,3.57-6.95H24.73c.06,2.18.07,7,3.51,7,0,0,1-.07,1.69-.07ZM37,28.81s2.78,10.53-7.89,10.53c-11,0-7.89-10.53-7.89-10.53H.18V53.37a5.41,5.41,0,0,0,5.26,5.26H54.55a5.38,5.38,0,0,0,5.26-5.26V28.81Z"/><path class="cls-2" d="M54.55,11.27H42.27v-7A4,4,0,0,0,38.76.75H19.47A3.9,3.9,0,0,0,16,4.26v7H5.44A5.81,5.81,0,0,0,.18,16.54V25.3H59.81V16.54A5.7,5.7,0,0,0,54.55,11.27Zm-33.32,0V7.77A1.65,1.65,0,0,1,23,6H35.26A1.65,1.65,0,0,1,37,7.77v3.5Z"/></svg>