<svg xmlns="http://www.w3.org/2000/svg" viewBox="0 0 72.71 97.7"><defs><style>.cls-1{fill:#222;}.cls-2{fill:#32c2c2;}.cls-3{fill:#ccc;}.cls-4{fill:#b8db59;}.cls-5{fill:#f6ba32;}</style></defs><g id="图层_2" data-name="图层 2"><g id="图层_1-2" data-name="图层 1"><path class="cls-1" d="M24.63,89.76a14.11,14.11,0,0,1,2,1.82l-.62.6a13.59,13.59,0,0,0-2-1.82Zm.28-2.8a15.48,15.48,0,0,1,1.95,1.78l-.61.61a14.76,14.76,0,0,0-1.95-1.8Zm1.88,6.39a39.21,39.21,0,0,1-1.62,4.21l-.84-.37A38.64,38.64,0,0,0,26,93ZM28.88,90h3.86v6.22c0,.27.12.42.34.43h.52c.23,0,.37-.17.42-.53s0-1.07,0-1.93l.78.23a15.11,15.11,0,0,1-.12,2.14,1,1,0,0,1-1.1.84H33q-1,0-1-1.08V90.79H29.67v2.35a5.49,5.49,0,0,1-2.15,4.56l-.69-.62a4.58,4.58,0,0,0,2.05-4Zm5.48-2.85v2.61h-.84V88H28.18v1.81h-.84V87.17Z"/><path class="cls-1" d="M36.56,89.82a16.53,16.53,0,0,1,2.12,1.82l-.6.62A14.53,14.53,0,0,0,36,90.41Zm2,3.84a39.4,39.4,0,0,1-1.64,4l-.86-.38a30.71,30.71,0,0,0,1.74-3.91Zm-1.82-6.77A18.13,18.13,0,0,1,39,88.76l-.6.6a15.53,15.53,0,0,0-2.26-1.88Zm9.68,4.8v2h-.82V92.42h-5.7v1h5.44v.69a5.79,5.79,0,0,1-1.76,1.85,17.61,17.61,0,0,0,3.16,1l-.44.71a16,16,0,0,1-3.49-1.25,15.87,15.87,0,0,1-3.73,1.3l-.33-.76a16.38,16.38,0,0,0,3.28-1,5.27,5.27,0,0,1-1.72-1.82h-.47v-.48h-.75V91.69Zm-.77-.75h-5.9v-.72H44.9v-.83H40.11v-.7H44.9v-.86H39.76v-.7h5.93ZM41.2,94.1a5.24,5.24,0,0,0,1.64,1.41,6.14,6.14,0,0,0,1.62-1.41Z"/><path class="cls-2" d="M35.81,61.59v-.5C32.72,59.42,15,49.5,6.15,37.55-.08,29.12-.48,21.78.29,17.11A20.16,20.16,0,0,1,9,3.5c14.19-9.59,24.59,3.14,27.39,7.18,2.8-4,13.2-16.77,27.38-7.18a20.17,20.17,0,0,1,8.69,13.61c.76,4.67.36,12-5.86,20.44C57.74,49.49,40,59.41,36.91,61.09v.49l-.55-.22ZM19.41,1a17.62,17.62,0,0,0-9.9,3.37A19.16,19.16,0,0,0,1.27,17.29C.54,21.75.93,28.78,6.94,36.91c8.82,11.92,27.29,22.14,29.42,23.3,2.12-1.16,20.6-11.38,29.42-23.3,6-8.13,6.39-15.16,5.66-19.62A19.13,19.13,0,0,0,63.2,4.38h0C49.32-5,39.46,7.75,36.77,11.89l-.41.63-.42-.63C34,8.82,28,1,19.41,1Z"/><path class="cls-3" d="M35.86,52.25l0-.55c-2.34-1.26-14.47-8-20.55-16.2-4.35-5.83-4.63-10.92-4.1-14.16a14,14,0,0,1,6.1-9.5C27,5.31,34.23,13.67,36.36,16.65c2.13-3,9.31-11.35,19.08-4.81a14,14,0,0,1,6.09,9.5c.53,3.24.25,8.33-4.1,14.16-6.06,8.13-18.16,14.91-20.54,16.19v.55L36.36,52ZM24.59,10.44a12,12,0,0,0-6.77,2.29,12.94,12.94,0,0,0-5.65,8.78c-.71,4.35.64,9,3.9,13.35,6,8.06,18.53,15,20.29,15.94,1.76-.95,14.28-7.89,20.28-15.94,3.27-4.38,4.62-9,3.91-13.35a13,13,0,0,0-5.65-8.78h0C45.38,6.35,38.62,15,36.77,17.84l-.41.63L36,17.84C34.58,15.76,30.5,10.44,24.59,10.44Z"/><path class="cls-4" d="M36.88,43.46l-.54-.34-.48.28,0-.56c-1.47-.8-8.37-4.7-11.81-9.27a10.65,10.65,0,0,1-2.41-8.27,8.22,8.22,0,0,1,3.61-5.59c5.55-3.68,9.69.68,11.13,2.58,1.44-1.9,5.58-6.26,11.12-2.58h0A8.24,8.24,0,0,1,51.1,25.3c.31,1.9.14,4.88-2.41,8.27C45.25,38.14,38.37,42,36.88,42.83ZM29.56,19.33a6.79,6.79,0,0,0-3.79,1.26,7.21,7.21,0,0,0-3.17,4.89,9.78,9.78,0,0,0,2.21,7.44c3.37,4.47,10.25,8.32,11.55,9,1.29-.69,8.18-4.54,11.54-9a9.74,9.74,0,0,0,2.21-7.44A7.23,7.23,0,0,0,47,20.59h0c-5.34-3.54-9.14,1.3-10.18,2.87l-.41.62L36,23.46C35.18,22.3,32.88,19.33,29.56,19.33Z"/><path class="cls-5" d="M40.84,27.22c-2.39-1.49-4.1.63-4.48,1.18-.39-.55-2.09-2.67-4.49-1.18-1.54,1-2.09,3-.44,5.1a17.39,17.39,0,0,0,4.92,3.61h0a17.39,17.39,0,0,0,4.92-3.61c1.64-2.06,1.1-4.13-.45-5.1"/></g></g></svg>