<svg xmlns="http://www.w3.org/2000/svg" viewBox="0 0 85 87.48"><defs><style>.cls-1{fill:#e6e6e6;}.cls-2{fill:#f7d2b7;}.cls-3{fill:#ffdabb;}.cls-4{fill:#414245;}.cls-5{fill:#6c63ff;}.cls-6{fill:#4b4b4c;}.cls-7{fill:#979db1;}.cls-8{fill:#3c3d3f;}.cls-9{fill:#9298a8;}.cls-10{fill:#2f2e41;}.cls-11{fill:#33c2c2;}.cls-12{fill:#9aa0b2;}.cls-13{fill:#fff;stroke:#f5ca2e;stroke-miterlimit:10;stroke-width:0.77px;}.cls-13,.cls-14{opacity:0.99;}.cls-14{fill:#f5ca2e;}.cls-15{opacity:0.6;}.cls-16{fill:#b8dc59;}.cls-17{opacity:0.3;}.cls-18{font-size:5px;fill:#222;font-family:PingFang-SC-Regular, PingFang SC;}</style></defs><g id="图层_2" data-name="图层 2"><g id="图层_1-2" data-name="图层 1"><polygon class="cls-1" points="77.06 36.39 70.56 36.39 69.27 36.39 69.27 21.19 55.18 12.62 41.09 21.19 41.09 52.49 59.66 52.49 69.27 52.49 80.69 52.49 80.69 36.39 77.06 36.39"/><path class="cls-2" d="M22.33,30.19a.83.83,0,0,1-.34.13c-.46,0-.83-1.21-.83-1.21s.13-.13.34-.31c.6-.54,1.88-1.54,2.47-1S23.11,29.77,22.33,30.19Z"/><path class="cls-3" d="M15.45,59.42l-1.67,1.8s-1.54,0-1.24-.83a3.9,3.9,0,0,0,.13-.57A15.74,15.74,0,0,0,12.78,58c0-.4,0-.68,0-.68s2.43-1.07,2.19,0a1.51,1.51,0,0,0-.05.42A2.73,2.73,0,0,0,15.18,59,3.35,3.35,0,0,0,15.45,59.42Z"/><path class="cls-4" d="M19.33,62.14a3.1,3.1,0,0,1-2,.73c-1.37,0-3.95-.06-4.55-.09-.8,0-.53-.72-.5-1.19v0a4.54,4.54,0,0,1,.26-1.66c.15-.16.7.71.7.71s1.07.32,1.36-.62.89-1,.89-1c.27-.12.29.59.29.59L18,60.71l1.32.21.12.06C20,61.31,19.77,61.76,19.33,62.14Z"/><path class="cls-5" d="M19.33,62.14a3.1,3.1,0,0,1-2,.73c-1.37,0-3.95-.06-4.55-.09-.8,0-.53-.72-.5-1.19l5,.31s2-.31,2.18-.92C20,61.31,19.77,61.76,19.33,62.14Z"/><path class="cls-6" d="M19.33,62.12a3.1,3.1,0,0,1-2,.73c-1.37,0-3.95-.06-4.55-.09-.8,0-.53-.72-.5-1.19l5,.31s2-.31,2.18-.92C20,61.29,19.77,61.74,19.33,62.12Z"/><path class="cls-3" d="M10,54.89a3.45,3.45,0,0,0-.5.51C9,56,8.36,56.84,8.06,57.28l-.19.28-.67-.1s-.72-1.11-.71-1.13l.57-1.21.21-.26L8,54.07l.31-.37S10.59,54.46,10,54.89Z"/><path class="cls-4" d="M7.31,58.68s-.45,1-.69,1.51a1.66,1.66,0,0,0-.15,1,.68.68,0,0,1-.07.2,1,1,0,0,1-.91.58h0c-.81,0-1.07-2.37-1.07-2.37a36.59,36.59,0,0,1,.35-4.77.27.27,0,0,1,.12-.06,2.43,2.43,0,0,1,.71,0c.74.06,1.68.24,1.68.24h.17c-.6.62,0,2,0,2s.28,0,.51.42S7.31,58.68,7.31,58.68Z"/><path class="cls-5" d="M6.33,61.33a1,1,0,0,1-.91.57h0c-.81,0-1.07-2.37-1.07-2.37a36.44,36.44,0,0,1,.36-4.76.19.19,0,0,1,.12-.07,2.8,2.8,0,0,1,.71,0c0,.81,0,3.35,0,3.61A23.77,23.77,0,0,0,6.33,61.33Z"/><path class="cls-6" d="M6.39,61.34a1,1,0,0,1-.91.58h0c-.81,0-1.07-2.37-1.07-2.37a36.71,36.71,0,0,1,.36-4.77.24.24,0,0,1,.11-.06,2.48,2.48,0,0,1,.72,0c0,.81,0,3.35,0,3.6A21.47,21.47,0,0,0,6.39,61.34Z"/><path class="cls-5" d="M5.38,61.9c-.81,0-1.07-2.37-1.07-2.37a36.44,36.44,0,0,1,.36-4.76.19.19,0,0,1,.12-.07,3.34,3.34,0,0,1,.18,2c-.25,2.33.06,2.48.06,2.48A21.3,21.3,0,0,1,5.38,61.9Z"/><path class="cls-7" d="M13.74,23.56a1.26,1.26,0,0,1-.26.13A.64.64,0,0,1,13.74,23.56Z"/><path class="cls-8" d="M5.37,61.9c-.81,0-1.06-2.37-1.06-2.37a36.32,36.32,0,0,1,.35-4.76.19.19,0,0,1,.12-.07,3.31,3.31,0,0,1,.19,2c-.26,2.33,0,2.48,0,2.48A21.3,21.3,0,0,1,5.37,61.9Z"/><path class="cls-9" d="M18.53,29.7A10.66,10.66,0,0,0,20,29.59a4.38,4.38,0,0,0,1.46-.82s.45,1.42.8,1.47a7.77,7.77,0,0,1-1.15,1.11,15.35,15.35,0,0,1-3,.72Z"/><path class="cls-10" d="M13.78,47.33,8,53.82a3.44,3.44,0,0,0,2.17,1.63,2.09,2.09,0,0,0,1-1,15.51,15.51,0,0,1,2.52-2.58Z"/><path class="cls-10" d="M18.46,34.16l-.1.86-.44,11.07a41.58,41.58,0,0,1-1.56,5.23c-.36.34-.93,4-1.11,4.26a8.3,8.3,0,0,0-.16,1.9c-1.15,1.37-2.84.13-2.84.13l0-4.28a28.32,28.32,0,0,1,.83-4.5,5.4,5.4,0,0,0,.36-2.06l-.16-3.52a.92.92,0,0,1,0-.58c.11-.21-.3-.8-.3-.8a6.12,6.12,0,0,1-.85-4.46c.29-.54,1.15-2.67,1.15-2.67l1.19-.69,2.15.06Z"/><path class="cls-3" d="M19,27.83V29l-.78-.33-.77-.34-1.68-1.65a13,13,0,0,1-2-1.65c-.4-.45-.61-.87-.25-1.09a2.31,2.31,0,0,0,.47-.41,18.79,18.79,0,0,0,1.14-2.95,7.15,7.15,0,0,1,1.6.75l.14.11c.35.29.52.62.2.95a3.11,3.11,0,0,0-.23.28h0a1.64,1.64,0,0,0-.14.22.47.47,0,0,0,0,.1c-.22.44.1,1.29.18,1.77Z"/><path class="cls-3" d="M19.18,19.84a2.79,2.79,0,0,1-2.79,2.79h-.11a2.8,2.8,0,1,1,2.9-2.79Z"/><path class="cls-7" d="M18.62,35.94a4.44,4.44,0,0,1-1.16.29c-1.08.19-4.5-.71-4.5-.71s-.7-7.83-.81-8.44a3.46,3.46,0,0,1,.3-1.47c.09-.24.16-.4.16-.4A5.08,5.08,0,0,1,13.22,24c.06-.08.24-.27.26-.29a1.26,1.26,0,0,0,.26-.13.85.85,0,0,0,.44-.75c.05-.3.35,0,.35,0a3.8,3.8,0,0,0,1.85.3c1-.1.31.2.31.2s-.05.26-.09.65.71,1.51.71,1.51l1.55,2a2.42,2.42,0,0,1,.13,3.3Z"/><path class="cls-10" d="M17.76,28.39c-.38-1.3-3.14-4.64-3.14-4.64h0a1.32,1.32,0,0,0-.66-.21.75.75,0,0,0-.53.22,3.25,3.25,0,0,0-.23.29.85.85,0,0,1,.23,0,1.26,1.26,0,0,1,.66.21h0s2.75,3.07,3.13,4.36a26.18,26.18,0,0,1-.54,5.7,9.77,9.77,0,0,0-.25,1.94l.53,0a14.09,14.09,0,0,1,.34-2.45A23.08,23.08,0,0,0,17.76,28.39Z"/><path class="cls-11" d="M25.5,25.55l-.05-.06a.16.16,0,0,0-.22.05l0,0s-1.86,2.73-2.5,3.63c-.09.13,0,.22.11.26a.34.34,0,0,0,.42-.13L25.54,26h0A.35.35,0,0,0,25.5,25.55Z"/><path class="cls-3" d="M21.53,31.31a.82.82,0,0,1-.35.13c-.45,0-.82-1.21-.82-1.21l.33-.32c.61-.54,1.89-1.53,2.48-1S22.31,30.89,21.53,31.31Z"/><circle class="cls-4" cx="12.89" cy="21.19" r="1.16"/><path class="cls-4" d="M16.06,16.07a2.92,2.92,0,0,0-2.95,2.76,3.42,3.42,0,0,0,2.11,3.59c-.54-3.23,1.4-4.14,2.7-4.18,1,0,1.34,1,1.3.29A3.25,3.25,0,0,0,16.06,16.07Z"/><path class="cls-4" d="M16.52,18.28c1.31-1,.83-1.38,1.85-.11l-.06-.08c-1-1.34-.58-1-1.91,0a3,3,0,0,0-.62,4.23l.07.08A3,3,0,0,1,16.52,18.28Z"/><path class="cls-4" d="M12.8,20a1.36,1.36,0,0,0-1.35,1.35,1.38,1.38,0,0,0,.16.64,1.35,1.35,0,0,1,2.11-1.68,1.43,1.43,0,0,1,.14.2A1.37,1.37,0,0,0,12.8,20Z"/><path class="cls-4" d="M16.15,17.35v2.14h.4l.52-.68-.07.68h1.8l-.11-.68.22.68h.34a3.83,3.83,0,0,0-.05-1.07C18.94,17.65,16.15,17.35,16.15,17.35Z"/><path class="cls-4" d="M17.92,18.24a1.88,1.88,0,0,1,1.3.29,3.25,3.25,0,0,0-3.16-2.46"/><path class="cls-12" d="M15.2,27.15c-.07-1.91-2.4-2.54-3-.73-.07.87-.53,3.44-.59,4.6a9.64,9.64,0,0,0,.25,2.78c1.06,3.13,9.55-2.36,9.55-2.36s-.93-1-.9-1.33-6.13,3.29-6.43,2.19a8.17,8.17,0,0,1,.3-3.25,18.86,18.86,0,0,1,.85-1.81A.21.21,0,0,0,15.2,27.15Z"/><path class="cls-11" d="M15.67,9.91a1.67,1.67,0,0,0-1.35.68L11.11,8.9a1.44,1.44,0,0,0,.05-.46A1.53,1.53,0,0,0,11.09,8l2.66-1.89a1.47,1.47,0,0,0,.8.26A1.34,1.34,0,0,0,15.9,5a1.31,1.31,0,0,0-1.35-1.32A1.33,1.33,0,0,0,13.21,5a.9.9,0,0,0,.08.38L10.67,7.25a1.68,1.68,0,1,0,0,2.41L14,11.39c0,.08,0,.16,0,.23a1.68,1.68,0,1,0,3.36,0A1.7,1.7,0,0,0,15.67,9.91Z"/><path class="cls-13" d="M45.89,18.54H22.28a1.3,1.3,0,0,1-1.12-1.43V1.81A1.3,1.3,0,0,1,22.28.39H45.89A1.3,1.3,0,0,1,47,1.81v15.3A1.3,1.3,0,0,1,45.89,18.54Z"/><path class="cls-14" d="M25.8,21.88l3.31-3.1-4.24.1v2.64a.5.5,0,0,0,.33.47.58.58,0,0,0,.6-.11Z"/><g class="cls-15"><path class="cls-16" d="M28.6,11.92h3a.78.78,0,0,0,.63-.38v0c0-.07.69-1.73.82-2.22A1.07,1.07,0,0,0,32.29,8,1.12,1.12,0,0,0,32,8h-.71a8.31,8.31,0,0,0,.1-1.38.76.76,0,0,0-.76-.76.77.77,0,0,0-.77.76v.16a1.51,1.51,0,0,1-1.3,1.5.31.31,0,0,1,0,.08v3.6Z"/><path class="cls-16" d="M27.6,11.92h.64V8.32a.14.14,0,0,1,0-.06H27.6a.61.61,0,0,0-.61.61v2.44a.61.61,0,0,0,.61.61Z"/></g><g class="cls-17"><path class="cls-16" d="M36.31,9.22h3a.75.75,0,0,0,.63-.38v0c0-.07.69-1.72.82-2.22A1.07,1.07,0,0,0,40,5.29a1.1,1.1,0,0,0-.27,0H39a7.29,7.29,0,0,0,.11-1.37.77.77,0,0,0-.77-.76.76.76,0,0,0-.76.76V4a1.52,1.52,0,0,1-1.3,1.51.19.19,0,0,1,0,.08v3.6Z"/><path class="cls-16" d="M35.31,9.22H36V5.62s0,0,0-.06h-.65a.61.61,0,0,0-.61.61V8.61a.61.61,0,0,0,.61.61Z"/></g><path class="cls-16" d="M33.9,15h3a.75.75,0,0,0,.63-.37v0c0-.07.69-1.73.82-2.22A1.07,1.07,0,0,0,37.59,11a1.2,1.2,0,0,0-.28,0H36.6a7.42,7.42,0,0,0,.1-1.38.76.76,0,1,0-1.52,0v.15a1.52,1.52,0,0,1-1.31,1.51.16.16,0,0,1,0,.08V15Z"/><path class="cls-16" d="M32.89,15h.65v-3.6a.13.13,0,0,1,0-.06h-.66a.61.61,0,0,0-.61.61v2.44a.61.61,0,0,0,.61.61Z"/><text class="cls-18" transform="translate(0 80.24)">回到家时，她把当天的骑行记录和照片<tspan x="0" y="6">分享到朋友圈，获得了许多点赞</tspan></text></g></g></svg>