<svg id="图层_1" data-name="图层 1" xmlns="http://www.w3.org/2000/svg" viewBox="0 0 54.76 41.5"><defs><style>.cls-1{fill:#b8db59;}.cls-2{fill:#32c2c2;}</style></defs><path class="cls-1" d="M57.08,35.82C55.3,20.34,52.15,9.24,42.15,9.24c-5.07,0-7.67,5.21-12.19,5.62h0c-4.66-.41-7.12-5.62-12.19-5.62C7.77,9.24,4.62,20.34,3,35.68,2,43.9,2.84,50.74,7.91,50.74c7.12,0,7.39-6.43,12.46-9.45h0c1.92-1,6.17-1.37,9.73-1.5h0c3.56.13,7.8.54,9.72,1.5h0c5.07,3,5.34,9.45,12.46,9.45,4.94.14,5.62-6.71,4.8-14.93ZM17.91,34.45a7.19,7.19,0,0,1-6.25-10.71,6.56,6.56,0,0,1,5.88-3.54h.09a7.3,7.3,0,0,1,7.26,5.69A7.62,7.62,0,0,1,25,27.32,7.16,7.16,0,0,1,17.91,34.45Zm30.54-5.76H44.24v4.22a1.37,1.37,0,0,1-1.37,1.37h0a1.37,1.37,0,0,1-1.37-1.37h0V28.69H37.24a1.37,1.37,0,0,1-1.37-1.37h0A1.37,1.37,0,0,1,37.24,26h4.2V21.87a1.37,1.37,0,0,1,1.37-1.37h0a1.37,1.37,0,0,1,1.42,1.31v4.12h4.22a1.38,1.38,0,0,1,1.37,1.37h0a1.37,1.37,0,0,1-1.35,1.39Z" transform="translate(-2.61 -9.24)"/><path class="cls-2" d="M13.8,27.32A3.87,3.87,0,0,0,15,30.2a4.25,4.25,0,0,0,2.88,1.23,3.88,3.88,0,0,0,2.87-1.23A4.35,4.35,0,0,0,22,27.32a4,4,0,0,0-1.24-2.87,4.32,4.32,0,0,0-2.87-1.24A4.05,4.05,0,0,0,15,24.45,3.73,3.73,0,0,0,13.8,27.32Z" transform="translate(-2.61 -9.24)"/></svg>