<svg id="Capa_1" data-name="Capa 1" xmlns="http://www.w3.org/2000/svg" viewBox="0 0 59.99 59.99"><defs><style>.cls-1{fill:#b8db59;}</style></defs><path class="cls-1" d="M42.92,3.66h-.77A17.8,17.8,0,0,0,33.36,6a7.72,7.72,0,0,1-6.73,0,21,21,0,0,0-9.82-2.33C5.69,3.66,0,13.48,0,22.79,0,35.46,9.57,47.1,28.19,57.18a4.38,4.38,0,0,0,3.62,0c13.44-7.24,22-15.25,25.85-24A25,25,0,0,0,60,22.79C60,13.48,53.78,3.66,42.92,3.66Zm-2.5,29H32.91v7.51a2.92,2.92,0,1,1-5.83,0V32.64H19.57a2.92,2.92,0,1,1,0-5.83h7.51V19.3a2.92,2.92,0,0,1,5.83,0v7.51h7.51a2.92,2.92,0,1,1,0,5.83Z"/></svg>