<svg id="图层_1" data-name="图层 1" xmlns="http://www.w3.org/2000/svg" viewBox="0 0 59.98 59.99"><defs><style>.cls-1{fill:#b8db59;}.cls-2{fill:#32c2c2;}</style></defs><path class="cls-1" d="M19.94,7.6a3.54,3.54,0,0,1,2.57,1,3.47,3.47,0,0,1,1.07,2.55V25.66a3.65,3.65,0,0,1-3.64,3.65H5.46a3.45,3.45,0,0,1-2.54-1.07,3.54,3.54,0,0,1-1-2.58V11.19A3.53,3.53,0,0,1,5.43,7.6H19.94Zm0,28.94a3.54,3.54,0,0,1,2.57,1,3.47,3.47,0,0,1,1.07,2.55V54.66a3.51,3.51,0,0,1-1.07,2.55,3.62,3.62,0,0,1-2.57,1H5.46a3.54,3.54,0,0,1-3.58-3.52V40.13a3.53,3.53,0,0,1,3.51-3.59H19.94Zm29,0A3.54,3.54,0,0,1,52.53,40V54.66A3.56,3.56,0,0,1,49,58.25H34.46a3.59,3.59,0,0,1-2.57-1,3.39,3.39,0,0,1-1.07-2.55V40.13a3.36,3.36,0,0,1,1.07-2.55,3.5,3.5,0,0,1,2.57-1Z"/><path class="cls-2" d="M57,14a3.75,3.75,0,0,1,1.16,2.72A3.58,3.58,0,0,1,57,19.35L46.21,30.12a3.73,3.73,0,0,1-5.26.12.68.68,0,0,1-.12-.12L30.06,19.35A3.61,3.61,0,0,1,29,16.69,3.78,3.78,0,0,1,30.06,14L40.83,3.2a3.83,3.83,0,0,1,5.38,0Z"/></svg>