<svg xmlns="http://www.w3.org/2000/svg" viewBox="0 0 68.98 86.72"><defs><style>.cls-1{fill:#f2f2f2;}.cls-2{fill:#ffdabb;}.cls-3{fill:#414245;}.cls-4{fill:#6c63ff;}.cls-5{fill:#4b4b4c;}.cls-6{fill:#979db1;}.cls-7{fill:#3c3d3f;}.cls-8{fill:#9298a8;}.cls-9{fill:#2f2e41;}.cls-10{fill:#9aa0b2;}.cls-11{fill:#33c2c2;}.cls-12{fill:#535461;}.cls-13{fill:#f99d4b;}.cls-14{font-size:5px;fill:#222;font-family:PingFang-SC-Regular, PingFang SC;}</style></defs><g id="图层_2" data-name="图层 2"><g id="图层_1-2" data-name="图层 1"><path class="cls-1" d="M14.13,6.53l-.34-.4a.87.87,0,0,0-.52-.19h-.19l-.16,0a1,1,0,0,1-.51-.38l-.19-.27a1.53,1.53,0,0,0-1.17-.59,1.59,1.59,0,0,0-1.33.82,1,1,0,0,1-.88.47h0c-.6,0-1.08.68-1.08,1.51S8.21,9,8.81,9a.78.78,0,0,0,.37-.09,1.58,1.58,0,0,1,1.31,0,1.37,1.37,0,0,0,1.12,0,1.53,1.53,0,0,1,1.29,0,.81.81,0,0,0,.37.09c.6,0,1.09-.68,1.09-1.51A2,2,0,0,0,14.13,6.53Z"/><path class="cls-1" d="M23.5,10.73l.54-.65a1.34,1.34,0,0,1,.84-.29h0a1.33,1.33,0,0,0,.28,0l.27-.06a1.72,1.72,0,0,0,.81-.62l.32-.43a2.43,2.43,0,0,1,1.87-.94A2.57,2.57,0,0,1,30.59,9,1.59,1.59,0,0,0,32,9.79h0c1,0,1.74,1.09,1.74,2.43s-.78,2.43-1.74,2.43a1.31,1.31,0,0,1-.61-.15,2.49,2.49,0,0,0-2.1,0,2.23,2.23,0,0,1-1.79,0,2.52,2.52,0,0,0-2.08,0,1.27,1.27,0,0,1-.6.15c-1,0-1.74-1.09-1.74-2.43A3.1,3.1,0,0,1,23.5,10.73Z"/><path class="cls-2" d="M19.21,27.85a1.05,1.05,0,0,1-.35.13c-.45,0-.82-1.22-.82-1.22l.33-.31c.61-.54,1.88-1.54,2.48-1S20,27.42,19.21,27.85Z"/><path class="cls-2" d="M12.33,57.07l-1.67,1.8s-1.55,0-1.25-.83a2.63,2.63,0,0,0,.13-.57,12.27,12.27,0,0,0,.11-1.82V55s2.43-1.07,2.18,0a2,2,0,0,0-.05.43,2.69,2.69,0,0,0,.28,1.18A2.07,2.07,0,0,0,12.33,57.07Z"/><path class="cls-3" d="M16.2,59.79a3.07,3.07,0,0,1-2,.73c-1.38,0-4-.06-4.55-.09-.8,0-.54-.71-.51-1.18v0a4.94,4.94,0,0,1,.26-1.65c.16-.16.71.71.71.71s1.07.31,1.36-.63.89-1,.89-1c.27-.11.28.59.28.59l2.26,1.16,1.33.21.11.06C16.91,59,16.64,59.41,16.2,59.79Z"/><path class="cls-4" d="M16.2,59.79a3.07,3.07,0,0,1-2,.73c-1.38,0-4-.06-4.55-.09-.8,0-.54-.71-.51-1.18l5,.3s2.06-.31,2.18-.92C16.91,59,16.64,59.41,16.2,59.79Z"/><path class="cls-5" d="M16.2,59.77a3.07,3.07,0,0,1-2,.73c-1.38,0-4-.06-4.55-.09-.8,0-.54-.71-.51-1.19l5,.31s2.06-.31,2.18-.92C16.91,58.94,16.64,59.39,16.2,59.77Z"/><path class="cls-2" d="M6.86,52.54a3.08,3.08,0,0,0-.51.51c-.5.58-1.11,1.45-1.42,1.88l-.19.28-.66-.1S3.36,54,3.36,54l.57-1.21.22-.25.68-.8.31-.36S7.46,52.11,6.86,52.54Z"/><path class="cls-3" d="M4.18,56.33s-.44,1-.68,1.51a1.66,1.66,0,0,0-.15.95.9.9,0,0,1-.08.21,1.05,1.05,0,0,1-.91.57h0c-.81,0-1.07-2.37-1.07-2.37a36.44,36.44,0,0,1,.36-4.76.19.19,0,0,1,.12-.07,2.41,2.41,0,0,1,.71,0c.73,0,1.67.23,1.67.23h.17c-.59.62,0,2,0,2s.28,0,.5.42S4.18,56.33,4.18,56.33Z"/><path class="cls-4" d="M3.21,59a1.06,1.06,0,0,1-.91.57h0c-.81,0-1.07-2.37-1.07-2.37a36.32,36.32,0,0,1,.35-4.76.23.23,0,0,1,.12-.06,2.43,2.43,0,0,1,.71,0c0,.8-.05,3.34,0,3.6A23.77,23.77,0,0,0,3.21,59Z"/><path class="cls-5" d="M3.27,59a1.06,1.06,0,0,1-.91.58h0c-.81,0-1.06-2.37-1.06-2.37a36.32,36.32,0,0,1,.35-4.76.19.19,0,0,1,.12-.07,2.8,2.8,0,0,1,.71,0c0,.81-.05,3.35,0,3.61A20.66,20.66,0,0,0,3.27,59Z"/><path class="cls-4" d="M2.26,59.55c-.81,0-1.07-2.37-1.07-2.37a36.32,36.32,0,0,1,.35-4.76.23.23,0,0,1,.12-.06,3.25,3.25,0,0,1,.19,2c-.25,2.33,0,2.48,0,2.48A20.84,20.84,0,0,1,2.26,59.55Z"/><path class="cls-6" d="M10.61,21.22l-.25.13A.5.5,0,0,1,10.61,21.22Z"/><path class="cls-7" d="M2.25,59.55c-.81,0-1.07-2.37-1.07-2.37a36.44,36.44,0,0,1,.36-4.76.17.17,0,0,1,.11-.06,3.25,3.25,0,0,1,.19,2c-.25,2.33,0,2.48,0,2.48A20.84,20.84,0,0,1,2.25,59.55Z"/><path class="cls-8" d="M15.4,27.35a9.31,9.31,0,0,0,1.45-.11,4.33,4.33,0,0,0,1.45-.82s.46,1.42.8,1.48A8.17,8.17,0,0,1,18,29a15.35,15.35,0,0,1-3,.72Z"/><path class="cls-9" d="M10.66,45,4.85,51.47A3.41,3.41,0,0,0,7,53.1a2.06,2.06,0,0,0,1.05-1,15.9,15.9,0,0,1,2.53-2.58Z"/><path class="cls-9" d="M15.33,31.81l-.09.86L14.8,43.74S13.59,48.63,13.23,49s-.93,4-1.1,4.26A7.88,7.88,0,0,0,12,55.14c-1.16,1.36-2.85.12-2.85.12l0-4.28a27.39,27.39,0,0,1,.84-4.5,5.54,5.54,0,0,0,.35-2.06l-.16-3.52a.94.94,0,0,1,0-.58c.11-.21-.31-.8-.31-.8A6.15,6.15,0,0,1,9,35.06c.28-.54,1.15-2.67,1.15-2.67l1.19-.69,2.14.06Z"/><path class="cls-2" d="M15.86,25.48v1.18l-.77-.33L14.32,26l-1.68-1.66a12.49,12.49,0,0,1-2-1.65c-.41-.44-.61-.87-.25-1.09a2.25,2.25,0,0,0,.46-.41,17.84,17.84,0,0,0,1.14-3,6.72,6.72,0,0,1,1.6.76l.15.1c.35.29.52.62.2.95a2,2,0,0,0-.23.28h0a1.64,1.64,0,0,0-.14.22l-.06.11c-.21.44.11,1.28.18,1.76Z"/><path class="cls-2" d="M16.06,17.49a2.81,2.81,0,0,1-2.8,2.8h-.11a2.8,2.8,0,1,1,2.9-2.8Z"/><path class="cls-6" d="M15.5,33.6a5.22,5.22,0,0,1-1.17.28c-1.07.19-4.49-.71-4.49-.71S9.13,25.35,9,24.73a3.37,3.37,0,0,1,.29-1.46,4.16,4.16,0,0,1,.17-.41,4.71,4.71,0,0,1,.6-1.22,1.58,1.58,0,0,1,.27-.29l.25-.13a.85.85,0,0,0,.44-.75c0-.31.35,0,.35,0a3.9,3.9,0,0,0,1.86.31c1-.11.3.19.3.19s0,.26-.09.65.71,1.52.71,1.52l1.56,2a2.41,2.41,0,0,1,.12,3.3Z"/><path class="cls-9" d="M14.64,26c-.39-1.29-3.14-4.64-3.14-4.64h0a1.26,1.26,0,0,0-.66-.21.74.74,0,0,0-.52.22,3.36,3.36,0,0,0-.24.29,1,1,0,0,1,.24,0,1.32,1.32,0,0,1,.66.21h0s2.75,3.07,3.14,4.36a26.36,26.36,0,0,1-.55,5.71,10.6,10.6,0,0,0-.25,1.93l.53,0a15,15,0,0,1,.34-2.44A23.18,23.18,0,0,0,14.64,26Z"/><path class="cls-2" d="M11,38.37s-.73,3.18.74,3.38,1-3.62,1-3.62Z"/><path class="cls-10" d="M12.08,24.8c-.08-1.91-2.41-2.54-3-.73-.08.87-.53,3.44-.6,4.6a11.84,11.84,0,0,0,.25,2.78c.2.69,1.8,5.42,1.85,5.54s.21,1.74.21,1.74,2-.12,2.05-.44a12,12,0,0,0-.45-1.89A58.58,58.58,0,0,1,10.93,30a11.83,11.83,0,0,1,.3-3.25,16.66,16.66,0,0,1,.85-1.81Z"/><path class="cls-11" d="M22.38,23.2l-.06-.06a.17.17,0,0,0-.22.05s0,0,0,0S20.2,26,19.57,26.86c-.09.13,0,.23.1.26a.34.34,0,0,0,.42-.13l2.32-3.36h0A.36.36,0,0,0,22.38,23.2Z"/><circle class="cls-3" cx="9.77" cy="18.84" r="1.16"/><path class="cls-3" d="M12.94,13.72A2.9,2.9,0,0,0,10,16.48a3.42,3.42,0,0,0,2.1,3.59c-.54-3.23,1.41-4.14,2.71-4.18,1,0,1.33,1,1.29.3A3.22,3.22,0,0,0,12.94,13.72Z"/><path class="cls-3" d="M13.4,15.93c1.3-1,.83-1.38,1.85-.11l-.06-.08c-1-1.34-.58-1-1.92,0A3,3,0,0,0,12.66,20l.06.08A3,3,0,0,1,13.4,15.93Z"/><path class="cls-3" d="M9.68,17.65A1.34,1.34,0,0,0,8.33,19a1.27,1.27,0,0,0,.16.64A1.35,1.35,0,0,1,10.6,18a1.37,1.37,0,0,1,.13.2A1.34,1.34,0,0,0,9.68,17.65Z"/><path class="cls-3" d="M13,15v2.14h.41l.52-.68-.07.68h1.8l-.12-.68.23.68h.33a4.13,4.13,0,0,0,0-1.07C15.82,15.3,13,15,13,15Z"/><path class="cls-3" d="M14.8,15.89a1.8,1.8,0,0,1,1.29.3,3.22,3.22,0,0,0-3.15-2.47"/><rect class="cls-4" x="35.87" y="43.74" width="1.36" height="4.31" transform="translate(-21.79 39.67) rotate(-45.38)"/><polygon class="cls-12" points="59.34 42.92 59.34 42.92 59.35 42.92 59.34 42.92"/><path class="cls-3" d="M67.1,48a8.45,8.45,0,0,0-7.75-5.09,8.16,8.16,0,0,0-2.26.31,7.31,7.31,0,0,0-1.11.39A8.45,8.45,0,1,0,67.1,48Zm-1.61,1.73a6.34,6.34,0,0,1-.79,5l-5-3.19-.15-.08,5.85-2A2.46,2.46,0,0,1,65.49,49.74Zm-.13-.43-6,2.08v-.08l.44-.32,2.61-5.21A6.34,6.34,0,0,1,65.36,49.31Zm-3-3.59-2.59,5.17-.32.24L59.6,45A6.21,6.21,0,0,1,62.31,45.72Zm-8,1.64.55-.61a6.3,6.3,0,0,1,1.78-1.21l.2-.08,2,5.57.09.15-5.25-3A7,7,0,0,1,54.34,47.36Zm2.66-2a5.88,5.88,0,0,1,.71-.23,6.51,6.51,0,0,1,1.74-.2l-.2,6.27,0,0L59,51Zm-4.06,5.91,5.8.1v-.14l-5.8-.1a6.42,6.42,0,0,1,.74-2.81l5.38,3-.34.25h0v0L54.08,55a6.34,6.34,0,0,1-1.14-3.64Zm1.23,3.79,4.43-3.22L56.78,57.2A6.4,6.4,0,0,1,54.17,55.1Zm5.15,2.63h0a6.64,6.64,0,0,1-2.41-.48l1.89-5.5.45-.16h0l.39,6.1Zm1.6-.21a5.32,5.32,0,0,1-1.12.17l-.38-5.83,3.1,5A6.49,6.49,0,0,1,60.92,57.52Zm1.72-.73-3.23-5.21.21.12,5,3.18A6.45,6.45,0,0,1,62.64,56.79Z"/><path class="cls-12" d="M45.84,33.32s8.45-.29,8.62.81-8.45.63-8.45.63A1.16,1.16,0,0,1,45.84,33.32Z"/><path class="cls-3" d="M37,49.48A8.49,8.49,0,0,0,35.28,46a9.1,9.1,0,0,0-1-1,8.5,8.5,0,1,0,2.92,6.39A8.34,8.34,0,0,0,37,49.48Zm-1.89,1.85a6.31,6.31,0,0,1-1,3.39l-5-3.18-.15-.08,5.85-2.05A6.43,6.43,0,0,1,35.09,51.33Zm-.35-2-6,2.08v-.08l.44-.32,2.6-5.2A6.37,6.37,0,0,1,34.74,49.28Zm-3-3.59-2.59,5.18-.33.23L29,45A6.4,6.4,0,0,1,31.7,45.69Zm-5.44-.25,2,5.56.1.15-5.24-2.94A6.36,6.36,0,0,1,26.26,45.44Zm.13,0A6.44,6.44,0,0,1,28.72,45h.12l-.2,6.26,0,0-.18-.29Zm-4.05,5.93v0l5.79.1v-.14l-5.78-.11a6.17,6.17,0,0,1,.73-2.8l5.36,3-.34.24h0v0L23.47,55A6.3,6.3,0,0,1,22.34,51.32Zm1.22,3.75L28,51.85l-1.82,5.32A6.4,6.4,0,0,1,23.56,55.07Zm2.74,2.15,1.89-5.5.45-.16h0l.39,6.1c-.11,0-.22,0-.34,0A6.38,6.38,0,0,1,26.3,57.22Zm2.88.43-.37-5.82,3.1,5A6.31,6.31,0,0,1,29.18,57.65Zm2.85-.9L28.8,51.54l.21.12,5,3.18A6.3,6.3,0,0,1,32,56.75Z"/><path class="cls-6" d="M54.62,35.16l-.33-1L53,34.87l.26.71.36,1L39,41.13V37.69H37.5v4.05l-8.57,8.94.38.7-.2.4s9.2,1.55,12.24,1,2-2.18,1-3.39c-.3-.37-1.66-.32-3.4-.09V43l15-5.16.13.37L43.25,49l1.15,1L54.58,39.38l4.25,11.88.8-.46ZM37.5,45.87l-.92-.9.92-.85Zm-7.74,5.34,5.81-5.32,1.93,1.9v1.72C34.47,50,31,50.91,29.76,51.21Z"/><circle class="cls-3" cx="28.7" cy="51.32" r="0.92"/><circle class="cls-3" cx="59.32" cy="51.34" r="0.92"/><circle class="cls-3" cx="43.08" cy="50.4" r="1.84"/><rect class="cls-6" x="43.12" y="49.92" width="0.98" height="3.41" rx="0.49" transform="translate(-22.23 36.4) rotate(-36.79)"/><rect class="cls-4" x="41.15" y="52.39" width="4.31" height="1.36"/><rect class="cls-8" x="41.15" y="52.39" width="4.31" height="1.36"/><path class="cls-3" d="M45.84,33.32s8.45-.29,8.62.81-8.45.63-8.45.63A1.16,1.16,0,0,1,45.84,33.32Z"/><path class="cls-3" d="M38.88,36.61a4.2,4.2,0,0,1-.62-.08c-.81-.16-2.86-.48-3.4.07s-.46,1.9,1.38,2.07,5-.29,5.63-1A5.81,5.81,0,0,0,38.88,36.61Z"/><path class="cls-3" d="M46.07,36.37l7.87-2.7s1.38.17.86,1.32l-7.93,2.36S45.66,37.46,46.07,36.37Z"/><circle class="cls-13" cx="45.46" cy="6" r="6"/><path class="cls-1" d="M59.31,7.08l-.67-.81a1.78,1.78,0,0,0-1-.37h0a1.35,1.35,0,0,1-.35,0l-.34-.09a2.05,2.05,0,0,1-1-.77l-.38-.54A3.06,3.06,0,0,0,53.14,3.3,3.19,3.19,0,0,0,50.47,5a2,2,0,0,1-1.77,1h-.06c-1.19,0-2.16,1.36-2.16,3s1,3,2.16,3a1.78,1.78,0,0,0,.76-.19,3.08,3.08,0,0,1,2.62,0,2.75,2.75,0,0,0,2.23,0,3.14,3.14,0,0,1,2.6,0,1.64,1.64,0,0,0,.75.19c1.2,0,2.17-1.36,2.17-3A3.88,3.88,0,0,0,59.31,7.08Z"/><text class="cls-14" transform="translate(0 79.47)">林馨决定骑车回家，<tspan x="0" y="6">她通过App找到最近的共享单车</tspan></text></g></g></svg>