<svg xmlns="http://www.w3.org/2000/svg" viewBox="0 0 91.58 24.56"><defs><style>.cls-1{fill:#33c2c2;}</style></defs><g id="图层_2" data-name="图层 2"><g id="图层_1-2" data-name="图层 1"><path class="cls-1" d="M0,16.82V2.19A2.19,2.19,0,0,1,2.19,0h9.45V1.49A2.19,2.19,0,0,1,9.45,3.68H4v4H9.8A1.85,1.85,0,0,1,11.64,9.5h0A1.84,1.84,0,0,1,9.8,11.34H4v4h7.65v1.49A2.18,2.18,0,0,1,9.45,19H2.19A2.18,2.18,0,0,1,0,16.82Z"/><path class="cls-1" d="M24.49,6.46H23.2v1a5.22,5.22,0,0,0-3.43-1.3c-3.15,0-5.7,2.88-5.7,6.43S16.62,19,19.77,19a5.27,5.27,0,0,0,3.57-1.42A2.23,2.23,0,0,0,25.42,19H26.7V8.67A2.21,2.21,0,0,0,24.49,6.46Zm-4.08,9.16a2.94,2.94,0,0,1-2.8-3.06,2.93,2.93,0,0,1,2.8-3.05,2.93,2.93,0,0,1,2.79,3.05A2.93,2.93,0,0,1,20.41,15.62Z"/><path class="cls-1" d="M40.76,14.94c0,2.23-2.45,4-5.47,4a4.91,4.91,0,0,1-1.44-.18,5.23,5.23,0,0,1-3.52-2.16,3.05,3.05,0,0,1-.53-1.71V14.4h1.86a2.3,2.3,0,0,1,1.8.91.15.15,0,0,0,0,.09,2.33,2.33,0,0,0,1.79.66c1,0,2-.53,2-1.12,0-.74-1.29-.89-2.07-.94-3.18-.13-5.39-1.77-5.39-4s2.34-4.11,5.32-4.11a5.22,5.22,0,0,1,1.33.15A5.13,5.13,0,0,1,40,8.4a3.26,3.26,0,0,1,.45,1.69v.59H38.64a2.23,2.23,0,0,1-1.81-1,.75.75,0,0,1-.09-.15,2,2,0,0,0-1.62-.72c-1,0-1.79.52-1.79,1.18,0,.92,1.86,1.05,2.05,1.05C39.36,11.27,40.76,13.19,40.76,14.94Z"/><path class="cls-1" d="M54.11,5.9,48.27,23.08a2.19,2.19,0,0,1-2.07,1.48H44.29l1.9-5.6L41.77,5.9h1.91a2.18,2.18,0,0,1,2.07,1.49l2.17,6.43,2.19-6.44A2.19,2.19,0,0,1,52.18,5.9Z"/><path class="cls-1" d="M78.68,9.06c.25,5.48-3.58,10-8.32,10S62,14.83,62,9.58,65.76.08,70.36.08A8.38,8.38,0,0,1,78,5.9H74.16a4.51,4.51,0,0,0-3.8-2.32c-2.67,0-4.84,2.69-4.84,6s2.17,6,4.84,6a4.86,4.86,0,0,0,4.31-3.32H72.85a2.19,2.19,0,0,1-2.19-2.19v-1h8Z"/><path class="cls-1" d="M85.85,9.19c1.33,0,2.45,1.49,2.45,3.26s-1.12,3.26-2.45,3.26-2.45-1.49-2.45-3.26,1.12-3.26,2.45-3.26m0-3.28c-3.17,0-5.73,2.93-5.73,6.54S82.68,19,85.85,19s5.73-2.93,5.73-6.54S89,5.91,85.85,5.91Z"/></g></g></svg>