<svg xmlns="http://www.w3.org/2000/svg" viewBox="0 0 59.69 59.69"><defs><style>.cls-1{fill:#b8db59;}.cls-2{fill:#32c2c2;}</style></defs><g id="图层_2" data-name="图层 2"><g id="Capa_1" data-name="Capa 1"><path class="cls-1" d="M54.74,46.3a29.85,29.85,0,1,0-8.44,8.44l5,4.95,0-8.4,8.49,0ZM11.94,29.84A17.91,17.91,0,1,1,43.82,41L41,38.17A14,14,0,1,0,38.17,41L41,43.82a17.88,17.88,0,0,1-29.07-14Zm21.32.61a4.07,4.07,0,0,0,.07-.61,3.49,3.49,0,1,0-3.49,3.49,3.08,3.08,0,0,0,.61-.07l3.79,3.79a8.32,8.32,0,0,1-4.4,1.25,8.46,8.46,0,1,1,8.46-8.46,8.32,8.32,0,0,1-1.25,4.4Z"/><path class="cls-2" d="M51.2,51.29l8.49,0L48.78,40.36l-4.49,1.16-11-11a3.41,3.41,0,0,0,.07-.65,3.54,3.54,0,1,0-3.54,3.54,4.48,4.48,0,0,0,.64-.06l11,11.08-1.6,4L51.25,59.69l0-8.4Z"/></g></g></svg>