<svg xmlns="http://www.w3.org/2000/svg" xmlns:xlink="http://www.w3.org/1999/xlink" width="94.948" height="94.948" viewBox="0 0 94.948 94.948">
  <defs>
    <linearGradient id="linear-gradient" x1="0.5" y1="1" x2="0.5" gradientUnits="objectBoundingBox">
      <stop offset="0" stop-color="#33c2c2"/>
      <stop offset="1" stop-color="#b8dc59"/>
    </linearGradient>
  </defs>
  <g id="组_1253" data-name="组 1253" transform="translate(115 -3765.432)">
    <g id="App_Icon" data-name="App Icon" transform="translate(-115 3765.432)">
      <path id="App_Icon-2" data-name="App Icon" d="M0,65.246c0,1.135,0,2.268.006,3.4.006.954.017,1.91.043,2.864A41.639,41.639,0,0,0,.6,77.749a21,21,0,0,0,1.954,5.929A19.938,19.938,0,0,0,11.269,92.4a21.031,21.031,0,0,0,5.926,1.953,41.68,41.68,0,0,0,6.238.549c.956.025,1.91.036,2.866.043,1.133.006,2.268.006,3.4.006H65.246c1.133,0,2.268,0,3.4-.006.956-.006,1.912-.017,2.866-.043a41.662,41.662,0,0,0,6.238-.549A21.031,21.031,0,0,0,83.677,92.4,19.938,19.938,0,0,0,92.4,83.679a21,21,0,0,0,1.954-5.929,41.638,41.638,0,0,0,.548-6.236q.038-1.431.043-2.864c.008-1.135.008-2.268.008-3.4V29.7c0-1.135,0-2.268-.008-3.4q-.007-1.431-.043-2.864a41.638,41.638,0,0,0-.548-6.236A21.014,21.014,0,0,0,92.4,11.267a19.968,19.968,0,0,0-8.718-8.716A21.031,21.031,0,0,0,77.751.6,41.663,41.663,0,0,0,71.513.049C70.559.024,69.6.013,68.647.006,67.514,0,66.379,0,65.246,0H29.7c-1.135,0-2.269,0-3.4.006-.956.006-1.91.017-2.866.043A41.681,41.681,0,0,0,17.195.6a21.031,21.031,0,0,0-5.926,1.953,19.967,19.967,0,0,0-8.718,8.716A21.014,21.014,0,0,0,.6,17.2a41.639,41.639,0,0,0-.548,6.236c-.025.954-.036,1.91-.043,2.864C0,27.434,0,28.567,0,29.7Z" fill="url(#linear-gradient)"/>
    </g>
    <g id="组_1186" data-name="组 1186" transform="translate(-104.91 3790.21)">
      <path id="路径_1" data-name="路径 1" d="M194.451,193.19a22.714,22.714,0,0,1-22.7,22.7,22.334,22.334,0,0,1-10.364-2.534c.416-.378.794-.794,1.173-1.21a20.834,20.834,0,0,0,2.572-3.329c.3-.416.53-.87.908-1.513l.038-.114h.038a14.7,14.7,0,0,0,5.636,1.135,15.126,15.126,0,1,0-11.8-24.587h-8.776a7.144,7.144,0,0,1,.416-.946l.114-.151.189-.378.265-.378a25.234,25.234,0,0,1,1.7-2.572,18.757,18.757,0,0,1,1.967-2.194l.832-.832.227-.189a25.556,25.556,0,0,1,2.8-2.08,22.321,22.321,0,0,1,12.067-3.518A22.714,22.714,0,0,1,194.451,193.19Z" transform="translate(-118.799 -170.494)" fill="#fff"/>
      <path id="路径_2" data-name="路径 2" d="M188.009,193.19a22.01,22.01,0,0,1-.87,6.128,8.659,8.659,0,0,1-.3,1.059c-.227.643-.454,1.248-.719,1.853-.038.076-.076.189-.113.265l-1.135,2.08c-.189.34-.378.719-.605,1.059a16.5,16.5,0,0,1-2.156,2.761,8.956,8.956,0,0,1-1.021,1.059c-.189.189-.378.378-.605.567a20.857,20.857,0,0,1-3.1,2.345,20.287,20.287,0,0,1-2.345,1.286,22.105,22.105,0,0,1-9.721,2.232,22.7,22.7,0,1,1,0-45.391,22.373,22.373,0,0,1,10.4,2.534,27.165,27.165,0,0,0-4.653,6.014l-.076.113a14.865,14.865,0,0,0-5.674-1.1,15.155,15.155,0,1,0,14.639,18.913H169.1a3.794,3.794,0,0,1-3.783-3.783,3.742,3.742,0,0,1,3.783-3.783h15.13a3.84,3.84,0,0,1,2.156.681A3.764,3.764,0,0,1,188.009,193.19Z" transform="translate(-142.618 -170.494)" fill="#fff"/>
    </g>
  </g>
</svg>
