<svg xmlns="http://www.w3.org/2000/svg" viewBox="0 0 65 87.52"><defs><style>.cls-1,.cls-17{fill:#414245;}.cls-2{fill:#ffdabb;}.cls-3{fill:#29293a;}.cls-4{fill:#4b4b4c;}.cls-5{fill:#979db1;}.cls-6{fill:#9298a8;}.cls-13,.cls-14,.cls-15,.cls-7{fill:none;stroke-miterlimit:10;}.cls-7{stroke:#414245;stroke-width:0.1px;}.cls-8{fill:#535461;}.cls-9{fill:#6c63ff;}.cls-10{fill:#9096a3;}.cls-11{fill:#2f2e41;}.cls-12{fill:#9aa0b2;}.cls-13,.cls-14,.cls-15{stroke:#f5ca2e;}.cls-13{stroke-width:0.32px;}.cls-13,.cls-14,.cls-15,.cls-16{opacity:0.99;}.cls-14{stroke-width:0.52px;}.cls-15{stroke-width:0.84px;}.cls-16{fill:#f5ca2e;}.cls-17{font-size:2.95px;font-family:MicrosoftYaHeiUILight, Microsoft YaHei UI;}.cls-18{fill:#b8dc59;}.cls-19{font-size:5px;fill:#222;font-family:PingFang-SC-Regular, PingFang SC;}</style></defs><g id="图层_2" data-name="图层 2"><g id="图层_1-2" data-name="图层 1"><path class="cls-1" d="M39.46,39.11s8.45-.29,8.62.8-8.45.64-8.45.64A1.16,1.16,0,0,1,39.46,39.11Z"/><path class="cls-2" d="M33.19,58.67l-1.67,1.8s-1.54,0-1.24-.83a3.9,3.9,0,0,0,.13-.57,15.74,15.74,0,0,0,.11-1.82c0-.4,0-.68,0-.68s2.43-1.07,2.18,0a3,3,0,0,0,0,.42,2.74,2.74,0,0,0,.28,1.19A3.35,3.35,0,0,0,33.19,58.67Z"/><path class="cls-3" d="M32.77,38.86l1.26,7s-1.14,10.32-1.28,10.72-2.28.59-2.39.2-.22-9.46-.22-9.46l-.73-7.69Z"/><path class="cls-1" d="M36.65,61.31a3,3,0,0,1-2.12.44l-4.5-.7c-.78-.15-.43-.79-.34-1.25v0a4.66,4.66,0,0,1,.49-1.6c.17-.13.6.8.6.8s1,.46,1.43-.43,1-.89,1-.89c.29-.08.2.62.2.62l2.08,1.46,1.28.39.11.08C37.46,60.58,37.13,61,36.65,61.31Z"/><path class="cls-4" d="M36.65,61.29a3,3,0,0,1-2.12.44L30,61c-.79-.15-.43-.79-.34-1.25l4.93,1s2.08,0,2.28-.62C37.46,60.56,37.13,61,36.65,61.29Z"/><path class="cls-5" d="M45.53,43.19l-.19-.58,2-2.38-1.54-.6L43.5,42.15l.7,1.69,0,.08.25.7L29.89,49.16V45.72H28.4v4l-8.57,9,.37.7L20,59.8s9.21,1.56,12.24,1,2-2.18,1-3.39c-.3-.37-1.65-.33-3.39-.09V51l15-5.15.13.37L34.15,57l1.15,1L45.48,47.41l4.25,11.88.8-.46ZM28.4,57.54c-3,.52-6.55,1.39-7.74,1.7l5.81-5.32,1.93,1.9Zm0-3.64L27.48,53l.92-.84Z"/><path class="cls-2" d="M44.24,38.79s3.82,0,3.85,1.15-3.93,0-3.93,0Z"/><path class="cls-6" d="M37.61,30.77c.66.25,1,1.27,1.18,2.55.25,1.61.14,2.92.87,3.35a44.15,44.15,0,0,0,5.53,2.07s.38,1.33-.16,1.33-5.22-.62-6.68-1.58S36.64,34.23,36,32.68C35.7,32.06,35,29.83,37.61,30.77Z"/><path class="cls-7" d="M40.7,28.28c-.66,1.67-1.36,3.55-2.27,3.8"/><polygon class="cls-8" points="50.25 50.95 50.25 50.95 50.25 50.95 50.25 50.95"/><path class="cls-1" d="M58,56a8.44,8.44,0,0,0-7.75-5.09,8.11,8.11,0,0,0-3.37.7A8.45,8.45,0,1,0,58,56Zm-1.6,1.73a6.32,6.32,0,0,1-.8,5l-5-3.18-.15-.09,5.85-2Zm-.14-.43-6,2.08v-.08l.45-.32,2.6-5.21A6.34,6.34,0,0,1,56.26,57.28Zm-3-3.6-2.58,5.18-.33.24.2-6.16A6.3,6.3,0,0,1,53.21,53.68Zm-8,1.65.56-.61a6,6,0,0,1,1.77-1.21l.2-.09,2,5.58.09.15L44.65,56.2A5.78,5.78,0,0,1,45.24,55.33Zm2.66-2c.24-.09.47-.17.72-.24a6,6,0,0,1,1.73-.19l-.2,6.26,0,0-.18-.29Zm-4.06,5.91,5.81.1v-.14l-5.8-.1a6.27,6.27,0,0,1,.73-2.81l5.38,3-.34.25h0v0L45,63a6.34,6.34,0,0,1-1.14-3.64Zm1.23,3.79,4.44-3.22-1.83,5.32A6.46,6.46,0,0,1,45.07,63.07Zm5.15,2.62h0a6.47,6.47,0,0,1-2.41-.47l1.89-5.5.46-.16h0l.39,6.1Zm1.6-.2a7,7,0,0,1-1.12.17l-.37-5.83,3.1,5A6.37,6.37,0,0,1,51.82,65.49Zm1.73-.73-3.24-5.21.21.11,5,3.19A6.31,6.31,0,0,1,53.55,64.76Z"/><path class="cls-1" d="M27.88,57.51A8.49,8.49,0,0,0,26.18,54a9.1,9.1,0,0,0-1-1A8.43,8.43,0,1,0,28,60.69a9.77,9.77,0,0,0,.1-1.32A8.35,8.35,0,0,0,27.88,57.51ZM26,59.36a6.38,6.38,0,0,1-1,3.39l-5-3.18-.15-.08,5.86-2.05A6.42,6.42,0,0,1,26,59.36Zm-.34-2-6,2.08v-.08l.44-.32,2.6-5.2A6.34,6.34,0,0,1,25.65,57.31Zm-3-3.59L20,58.9l-.32.23.2-6.14A6.39,6.39,0,0,1,22.6,53.72Zm-5.44-.25,2,5.56.1.15-5.24-2.94A6.41,6.41,0,0,1,17.16,53.47Zm.13,0A6.48,6.48,0,0,1,19.62,53h.12l-.2,6.26,0,0L19.33,59Zm-4,5.93v0l5.79.1v-.14l-5.78-.11a6.43,6.43,0,0,1,.73-2.8l5.37,3-.35.24h0v0L14.38,63A6.31,6.31,0,0,1,13.24,59.35Zm1.22,3.75,4.43-3.22L17.07,65.2A6.46,6.46,0,0,1,14.46,63.1Zm2.74,2.15,1.89-5.5.45-.16h0l.39,6.1c-.11,0-.22,0-.33,0A6.43,6.43,0,0,1,17.2,65.25Zm2.89.43-.38-5.82,3.11,5A6.26,6.26,0,0,1,20.09,65.68Zm2.84-.9L19.7,59.57l.21.12,5,3.18A6.19,6.19,0,0,1,22.93,64.78Z"/><circle class="cls-1" cx="19.61" cy="59.35" r="0.92"/><circle class="cls-1" cx="50.22" cy="59.37" r="0.92"/><circle class="cls-5" cx="33.98" cy="58.43" r="1.84"/><rect class="cls-5" x="34.02" y="57.95" width="0.98" height="3.41" rx="0.49" transform="translate(-28.85 32.55) rotate(-36.79)"/><rect class="cls-9" x="32.05" y="60.43" width="4.31" height="1.36"/><rect class="cls-10" x="32.05" y="60.43" width="4.31" height="1.36"/><path class="cls-1" d="M29.79,44.64a4.52,4.52,0,0,1-.63-.08c-.81-.16-2.85-.48-3.4.07s-.46,1.9,1.38,2.07,5-.29,5.63-1A5.8,5.8,0,0,0,29.79,44.64Z"/><path class="cls-1" d="M37,44.4l7.87-2.7s1.38.17.87,1.32l-7.94,2.36S36.57,45.49,37,44.4Z"/><path class="cls-2" d="M39.23,29.77s-.63,1.37-.95,2.11-2.39-1.51-2.39-1.51,1.58-1.15,1.58-1.68S39.23,29.77,39.23,29.77Z"/><circle class="cls-2" cx="39.14" cy="27.39" r="2.52"/><path class="cls-2" d="M21.89,57.38c-.13.19-1.23,3.17-1.23,3.17l-.87-.13s-.78-.63-.81-.64a12.59,12.59,0,0,1,.73-2.59l.18-.44S22.34,56.78,21.89,57.38Z"/><path class="cls-11" d="M31.64,41.07s6.39,5.14,6.28,6.51-5.52,8.54-5.52,8.54-2.34.5-2.44.08,4.11-8,4.11-8S29,46.45,26.93,43.85a3.64,3.64,0,0,1-.76-3.09,5,5,0,0,1,1.56-2.4C29.52,37.72,31.64,41.07,31.64,41.07Z"/><path class="cls-1" d="M25.46,61.75a3,3,0,0,1-2.12.44l-4.49-.7c-.79-.15-.43-.79-.34-1.25v-.05a4.89,4.89,0,0,1,.49-1.6c.18-.14.6.8.6.8s1,.46,1.43-.43,1-.89,1-.89c.29-.08.2.62.2.62l2.08,1.46,1.29.39.11.07C26.27,61,26,61.43,25.46,61.75Z"/><path class="cls-4" d="M25.46,61.73a3,3,0,0,1-2.11.44l-4.5-.7c-.79-.15-.43-.79-.34-1.25l4.93,1s2.08,0,2.29-.62C26.27,61,26,61.41,25.46,61.73Z"/><path class="cls-5" d="M39.11,34.43a21.21,21.21,0,0,1-.73-2.76c0-.05.41-.67.41-.67s.15-.17-.19-.31a4.51,4.51,0,0,1-1.53-1.09s-.15-.38-.32-.13A.89.89,0,0,1,36,30a4.78,4.78,0,0,0-.65.15,8,8,0,0,0-1.95,1c-1.59,1.31-4.51,5.26-5.35,6.3-.68.83-1.42,1.65-1,2A13,13,0,0,0,30.6,41.7c1.35.46,2.84.2,2.95-.22s1-3.17,2.52-4.45a4,4,0,0,1,1.87-.68A1.7,1.7,0,0,0,39.11,34.43Z"/><circle class="cls-1" cx="35.68" cy="29.01" r="1.16"/><path class="cls-1" d="M38.13,23.5a2.9,2.9,0,0,0-2.55,3.13,3.42,3.42,0,0,0,2.57,3.28c-1-3.14.83-4.3,2.11-4.52,1-.16,1.46.81,1.32.12A3.22,3.22,0,0,0,38.13,23.5Z"/><path class="cls-1" d="M38.88,25.62c1.16-1.14.63-1.47,1.82-.35l-.07-.08c-1.18-1.19-.71-.89-1.9.29a3,3,0,0,0,0,4.27l.08.07A3,3,0,0,1,38.88,25.62Z"/><path class="cls-1" d="M35.43,27.83A1.36,1.36,0,0,0,34.52,30,1.35,1.35,0,0,1,36.38,28a.93.93,0,0,1,.16.18A1.36,1.36,0,0,0,35.43,27.83Z"/><path class="cls-1" d="M38.38,24.75l.29,2.12.41-.05.42-.74,0,.67,1.78-.24-.2-.65.31.63.33,0a4,4,0,0,0-.18-1.05C41.19,24.67,38.38,24.75,38.38,24.75Z"/><path class="cls-1" d="M40.26,25.39a1.8,1.8,0,0,1,1.32.12,3.22,3.22,0,0,0-3.45-2"/><path class="cls-7" d="M37.66,28.19c.25.6-.6,2.95.77,3.89.09.07-.31,3.18,0,4.09,1,3.35-4.92,7.43-5.08,6"/><path class="cls-2" d="M43.5,41.17s3.68,1,3.36,2.2-3.77-1.11-3.77-1.11Z"/><path class="cls-12" d="M35.26,32.05c.76.28,1.12,1.46,1.36,3,.29,1.85.16,3.36,1,3.86A52.12,52.12,0,0,0,44,41.25s.45,1.53-.18,1.53-6-.71-7.71-1.82-2-4.92-2.75-6.71C33.05,33.54,32.27,31,35.26,32.05Z"/><path class="cls-13" d="M42.94,23.58a5,5,0,0,1,2.44,6.69"/><path class="cls-14" d="M44.56,20.73a8,8,0,0,1,3.89,10.7"/><path class="cls-15" d="M7.64,18.58H35.86a1.39,1.39,0,0,0,1.34-1.43V1.85A1.39,1.39,0,0,0,35.86.42H7.64A1.39,1.39,0,0,0,6.3,1.85v15.3A1.39,1.39,0,0,0,7.64,18.58Z"/><path class="cls-16" d="M32.56,21.92l-3.31-3.1,4.24.1v2.64a.51.51,0,0,1-.34.47.49.49,0,0,1-.21,0A.58.58,0,0,1,32.56,21.92Z"/><text class="cls-17" transform="translate(9.15 6.09)">任务</text><path class="cls-5" d="M27.37,13.18H19.22a1.12,1.12,0,0,1-1.11-1.12V7.21A1.11,1.11,0,0,1,19.22,6.1H20.8V5.66a1.14,1.14,0,0,1,1.14-1.13h2.72A1.14,1.14,0,0,1,25.8,5.66V6.1h1.57a1.12,1.12,0,0,1,1.12,1.11v4.85A1.12,1.12,0,0,1,27.37,13.18Zm-8.15-6.4a.43.43,0,0,0-.43.43v4.85a.44.44,0,0,0,.43.44h8.15a.44.44,0,0,0,.44-.44V7.21a.44.44,0,0,0-.44-.43H25.11V5.66a.45.45,0,0,0-.45-.45H21.94a.45.45,0,0,0-.45.45V6.78Z"/><path class="cls-18" d="M21.85,9.28a1.45,1.45,0,0,0,2.9,0h0a1.45,1.45,0,1,0-2.9,0Z"/><path class="cls-5" d="M23.3,11.59a2.31,2.31,0,1,1,2.31-2.31A2.31,2.31,0,0,1,23.3,11.59Zm0-4.07a1.77,1.77,0,1,0,1.76,1.76A1.76,1.76,0,0,0,23.3,7.52Z"/><text class="cls-19" transform="translate(0 80.27)">快到公园时，语音导航<tspan x="0" y="6">提醒林馨她获得一个拍照任务</tspan></text></g></g></svg>