<svg xmlns="http://www.w3.org/2000/svg" viewBox="0 0 57.69 86.72"><defs><style>.cls-1{fill:#3f3d56;}.cls-2{fill:#ffdabb;}.cls-3{fill:#2f2e41;}.cls-4{fill:#414245;}.cls-5{fill:#4b4b4c;}.cls-6{fill:#ccc;}.cls-7{fill:#979db1;}.cls-8{fill:#6c63ff;}.cls-9{fill:#ffb8b8;}.cls-10{fill:#ebeced;}.cls-11{fill:#f4f6fb;}.cls-12,.cls-15{fill:none;stroke-miterlimit:10;stroke-width:0.32px;}.cls-12{stroke:#ccc;}.cls-13{fill:#e6e6e6;}.cls-14{fill:#33c2c2;}.cls-15{stroke:#f5ca2e;fill-rule:evenodd;opacity:0.99;}.cls-16{font-size:5px;fill:#222;font-family:PingFang-SC-Regular, PingFang SC;}</style></defs><g id="图层_2" data-name="图层 2"><g id="图层_1-2" data-name="图层 1"><path class="cls-1" d="M27.72,40.42H34c0,.18,6.41.32,6.41.32a1.76,1.76,0,0,1,.28.26A1.58,1.58,0,0,1,41,42v.26a1.61,1.61,0,0,1-1.62,1.62H27.72A1.61,1.61,0,0,1,26.1,42.3V42A1.62,1.62,0,0,1,27.72,40.42Z"/><rect class="cls-1" x="32.81" y="41.95" width="1.69" height="17.48"/><path class="cls-1" d="M39.29,59.37c0,.18-2.55.07-5.7.07s-5.71.11-5.71-.07a9.86,9.86,0,0,1,5.71-1.63A9.85,9.85,0,0,1,39.29,59.37Z"/><polygon class="cls-2" points="34.86 59.26 36.75 59.19 37.48 55.03 34.7 55.14 34.86 59.26"/><polygon class="cls-2" points="32.98 59.2 31.2 59.14 30.5 54.99 33.11 55.08 32.98 59.2"/><path class="cls-3" d="M33.39,57.06l.39-13.74-.28-6.16-2.67.45L28,37.17l0,0a6,6,0,0,0-.51,3.4,8.46,8.46,0,0,0,1.68,2.76s.82,9.9,1.46,13.4C30.68,57.5,33.39,57.06,33.39,57.06Z"/><path class="cls-3" d="M34.61,56.91,33.74,42.8l-.27-6.37,3.57,1L39.91,37l0,.05a6.16,6.16,0,0,1,.3,3.27,10.71,10.71,0,0,1-1.3,2.75s-.38,9.38-1.09,13.72C37.73,57.5,34.61,56.91,34.61,56.91Z"/><path class="cls-4" d="M31,59.63s0-.64.07-.72.08-.73.15-.74c.34-.07,1.86-.39,1.85,0a4.26,4.26,0,0,0,0,.89c.07.22.16.43.16.43a4,4,0,0,1,.44,1,3.91,3.91,0,0,1-.06,1.56c-.15.7-.51,1.52-1.41,1.49a1.84,1.84,0,0,1-1.54-1.26,3,3,0,0,1,0-1.84C30.76,60.33,31,59.63,31,59.63Z"/><path class="cls-5" d="M33.64,61.6c-.15.7-.51,1.52-1.41,1.49a1.84,1.84,0,0,1-1.54-1.26,2.71,2.71,0,0,1-.13-.69,3.22,3.22,0,0,0,.13,1.18,1.84,1.84,0,0,0,1.54,1.26c.9,0,1.26-.79,1.41-1.49a2.45,2.45,0,0,0,.06-.84C33.68,61.37,33.67,61.48,33.64,61.6Z"/><path class="cls-4" d="M34.8,59.49a5.62,5.62,0,0,1,.08-.72C35,58.56,35,58,35,58c.34-.06,1.86-.38,1.85,0a3.6,3.6,0,0,0,.05.88,3.76,3.76,0,0,0,.15.43,3.78,3.78,0,0,1,.44,1,4.11,4.11,0,0,1,0,1.56c-.16.69-.52,1.51-1.42,1.49a1.84,1.84,0,0,1-1.54-1.26,3,3,0,0,1,0-1.84C34.57,60.18,34.8,59.49,34.8,59.49Z"/><path class="cls-5" d="M37.45,61.46c-.15.69-.51,1.51-1.41,1.48a1.81,1.81,0,0,1-1.54-1.25,2.78,2.78,0,0,1-.12-.69,3,3,0,0,0,.12,1.18A1.84,1.84,0,0,0,36,63.44c.9,0,1.26-.8,1.41-1.49a2.45,2.45,0,0,0,.06-.84A2.33,2.33,0,0,1,37.45,61.46Z"/><path class="cls-6" d="M54.27,36.38H11.51a.69.69,0,0,0-.68.69.68.68,0,0,0,.68.68h1.22V60a.68.68,0,0,0,.68.69A.69.69,0,0,0,14.1,60V37.75H51.59V60A.69.69,0,1,0,53,60V38.11l.2-.36h1.11a.68.68,0,0,0,.69-.68A.69.69,0,0,0,54.27,36.38Z"/><path class="cls-6" d="M10.43,47.47V43.72c0-.35-.19-.63-.42-.63H.42c-.23,0-.42.28-.42.63v3.75Z"/><rect class="cls-6" y="48.88" width="10.43" height="4.85"/><path class="cls-6" d="M0,54.52v3.75c0,.34.19.62.42.62H10c.23,0,.42-.28.42-.62V54.52Z"/><path class="cls-7" d="M17.83,11.66a3.86,3.86,0,0,0-1,0,3.75,3.75,0,0,0-3.1,2.62,3.45,3.45,0,0,0-.16,1v.14a3.73,3.73,0,0,0,3.74,3.74h.24a3.47,3.47,0,0,0,.55-.08,3.75,3.75,0,0,0-.31-7.38Zm.69,7.16h0a3.28,3.28,0,0,1-.93.19h-.24a3.64,3.64,0,0,1-3.64-3.64v-.14a3.64,3.64,0,1,1,4.81,3.58Z"/><rect class="cls-7" x="17.3" y="11.95" width="0.11" height="0.75"/><rect class="cls-7" x="15.14" y="12.85" width="0.11" height="0.75" transform="translate(-4.9 14.62) rotate(-45)"/><rect class="cls-7" x="13.93" y="15.33" width="0.75" height="0.11"/><rect class="cls-7" x="14.82" y="17.48" width="0.75" height="0.11" transform="translate(-7.95 15.88) rotate(-45)"/><rect class="cls-7" x="19.13" y="13.17" width="0.75" height="0.11" transform="translate(-3.64 17.67) rotate(-45)"/><rect class="cls-7" x="20.03" y="15.33" width="0.75" height="0.11"/><rect class="cls-7" x="19.45" y="17.16" width="0.11" height="0.75" transform="translate(-6.69 18.93) rotate(-45)"/><rect class="cls-7" x="17.3" y="18.05" width="0.11" height="0.75"/><path class="cls-7" d="M17.51,15.17a.24.24,0,0,0-.32,0,.3.3,0,0,0-.08.08.29.29,0,0,0,.12.37.28.28,0,0,0,.36-.12.25.25,0,0,0-.08-.33Zm-.16.37a.16.16,0,0,1-.16-.16.14.14,0,0,1,0-.09.16.16,0,0,1,.26.18.17.17,0,0,1-.13.07Z"/><rect class="cls-7" x="16.87" y="10.72" width="0.96" height="0.96"/><rect class="cls-7" x="17.19" y="13.35" width="0.32" height="1.82"/><circle class="cls-4" cx="37.01" cy="20.7" r="1.37"/><path class="cls-4" d="M37.39,19.38a1.36,1.36,0,0,1,1.36,1.36,1.33,1.33,0,0,1-.16.65,1.37,1.37,0,0,0-2.13-1.71,1.28,1.28,0,0,0-.14.21A1.35,1.35,0,0,1,37.39,19.38Z"/><circle class="cls-4" cx="34.45" cy="16.69" r="4.01"/><path class="cls-4" d="M31.3,14.2a4,4,0,0,1,5.57-.42l-.1-.1a4,4,0,0,0-5.34,6l.1.09A4,4,0,0,1,31.3,14.2Z"/><circle class="cls-2" cx="34.42" cy="18.08" r="2.59"/><path class="cls-2" d="M32.58,18.9s.34,3.13-.2,3.47,3.13.82,3.13.82-.55-3.41.81-4.29Z"/><path class="cls-7" d="M35.85,21.82s1-.47-.45-.3A5.26,5.26,0,0,1,32.68,21s-.44-.44-.51,0,.21,1.36-1.29,1.49-2.86-.27-3.4.75-.27,5.45-.27,5.45,1,3.67,1.83,4.21,8-.2,8-.2l2-3.67V24.82s-.28-1.5-2.18-1.09c0,0-1.23-.27-1.16-.88S35.85,21.82,35.85,21.82Z"/><path class="cls-3" d="M29.31,35.58c0-.18.07-.28.07-.28l0-.15-.22-1.52L29,33c.82-.34,1-1.9,1-1.9l0,0,.14-.08h0l.5-.3h0l.21.14.41.27a4.82,4.82,0,0,0,3.8.87,3.94,3.94,0,0,0,.89-.26l1-.33h.06l.58.08h.06l-.13.93-.2,1.35a4,4,0,0,1,1.37,1.42c.09.14.18.28.26.43s.21.4.31.61c0,0,0,.05,0,.08l.11.24H29.13a2,2,0,0,0,0-.24h0s0-.05,0-.08C29.23,35.94,29.28,35.74,29.31,35.58Z"/><path class="cls-3" d="M28.91,22.51a5.26,5.26,0,0,1,.47,3.06c-.27,1.7.82,5.92.82,5.92l.82-.21a29,29,0,0,1-.41-4.35c.13-.82.13-4-.55-4.42A1,1,0,0,0,28.91,22.51Z"/><path class="cls-3" d="M36.82,23.92l.29,7.53.54.34s.78-8.26.37-8.26h-.83a.37.37,0,0,0-.37.37Z"/><circle class="cls-8" cx="30.57" cy="30.98" r="0.34"/><circle class="cls-8" cx="37.38" cy="31.32" r="0.34"/><polygon class="cls-4" points="32.21 14.85 32.21 17.43 32.8 17.43 33.57 16.62 33.47 17.43 36.11 17.43 35.95 16.62 36.28 17.43 36.7 17.43 36.7 14.85 32.21 14.85"/><ellipse class="cls-2" cx="31.8" cy="17.54" rx="0.2" ry="0.37"/><ellipse class="cls-2" cx="37.04" cy="17.54" rx="0.2" ry="0.37"/><path class="cls-9" d="M38.43,31.28s-3.09-.58-3.3.45,3.44.57,3.44.57Z"/><path class="cls-7" d="M38.36,24.27s7.42,5.92,6.06,7.35-6.53,1-6.53,1l.34-1.7,3-.34-1.49-1.49-1.37.13Z"/><path class="cls-9" d="M27.41,34.14l.95.75s.68,2.11,1.7,1.5-.95-2.79-.95-2.79L28,33.19Z"/><path class="cls-7" d="M28.36,23.19l-.95.28s-6.6,4.89-6.87,6.25,1.29,2.11,1.29,2.11l5.92,2.79L28.36,33l-2.79-1.42s.21-.41-.61-.48a1.12,1.12,0,0,1-.95-.95s1.63-2.52,2.51-2a3.9,3.9,0,0,1,1.16,1Z"/><path class="cls-10" d="M41.91,35.82v.23a.57.57,0,0,1,0,.18.25.25,0,0,1,0,.07.48.48,0,0,1-.43.25H24.64a.48.48,0,0,1-.43-.25.25.25,0,0,1,0-.07.57.57,0,0,1,0-.18v-.23a.5.5,0,0,1,.5-.51h1v-.1l0,0h.5a0,0,0,0,1,0,0h0v.1h.32v-.1l0,0H27a0,0,0,0,1,0,0h0v.1h.32v-.1a0,0,0,0,1,0,0h.51a0,0,0,0,1,0,0h0v.1h.31v-.1a0,0,0,0,1,0,0h.51a0,0,0,0,1,0,0h0v.1h.31v-.1a0,0,0,0,1,0,0h.51a0,0,0,0,1,0,0h0v.1h.31v-.1s0,0,0,0h.5l0,0h0v.1h.32v-.1a0,0,0,0,1,0,0h3.95l0,0h0v.1h.31v-.1l0,0h.51l0,0v.1H36v-.1s0,0,0,0h.5l0,0h0v.1h.32v-.1a0,0,0,0,1,0,0h.5a0,0,0,0,1,0,0h0v.1h.32v-.1a0,0,0,0,1,0,0h.5s0,0,0,0v.1h.32v-.1a0,0,0,0,1,0,0h.51a0,0,0,0,1,0,0h0v.1h.31v-.1a0,0,0,0,1,0,0h.51a0,0,0,0,1,0,0h0v.1h1.47a.5.5,0,0,1,.5.51Z"/><path class="cls-11" d="M40.56,26.22H34.31v-.13H31.48v.13H25.2a.42.42,0,0,0-.42.42V35.2a.42.42,0,0,0,.42.42H40.56A.42.42,0,0,0,41,35.2V26.64a.42.42,0,0,0-.43-.42Z"/><circle class="cls-12" cx="32.89" cy="29.21" r="0.94"/><path class="cls-13" d="M42.55,20.48V.84A.8.8,0,0,1,43.29,0H57a.8.8,0,0,1,.74.84V20.48a.8.8,0,0,1-.74.84H43.29A.8.8,0,0,1,42.55,20.48ZM43.29.19a.62.62,0,0,0-.57.65V20.48a.62.62,0,0,0,.57.65H57a.62.62,0,0,0,.58-.65V.84A.62.62,0,0,0,57,.19Z"/><path class="cls-12" d="M51.3,7V4a.31.31,0,0,1,.32-.31h2.56A.32.32,0,0,1,54.5,4V7a.32.32,0,0,1-.32.31H51.62A.31.31,0,0,1,51.3,7Z"/><path class="cls-12" d="M44.11,9.55v-3a.31.31,0,0,1,.31-.32H47a.31.31,0,0,1,.31.32v3a.32.32,0,0,1-.31.32H44.42A.32.32,0,0,1,44.11,9.55Z"/><path class="cls-6" d="M48.9,15.05V12a.31.31,0,0,1,.32-.31h2.56a.31.31,0,0,1,.31.31v3a.31.31,0,0,1-.31.31H49.22A.31.31,0,0,1,48.9,15.05Z"/><rect class="cls-14" x="14.44" y="35.46" width="4.77" height="0.93" rx="0.46"/><polyline class="cls-15" points="13.45 35.87 13.41 35.14 14.09 35.09 14.28 34.49 14.89 34.59"/><polyline class="cls-15" points="11.95 35.32 11.89 34.09 13.04 33.99 13.36 32.98 14.4 33.16"/><polyline class="cls-15" points="10.52 34.88 10.43 33.23 11.96 33.12 12.39 31.77 13.77 32"/><text class="cls-16" transform="translate(1.86 79.47)">下班时间，App提醒林馨<tspan x="0" y="6">当前高峰期交通拥堵</tspan></text></g></g></svg>