<svg xmlns="http://www.w3.org/2000/svg" viewBox="0 0 64.9 97.7"><defs><style>.cls-1{fill:#222;}.cls-2{fill:#ccc;}.cls-3{fill:#32c2c2;}.cls-4{fill:#f6ba32;}.cls-5{fill:#b8db59;}.cls-6{fill:#f99d4a;}</style></defs><g id="图层_2" data-name="图层 2"><g id="图层_1-2" data-name="图层 1"><path class="cls-1" d="M22.14,89.72a14.51,14.51,0,0,1,2.09,1.78l-.6.6a12,12,0,0,0-2.09-1.79Zm2.22,3.47a46,46,0,0,1-1.74,4.36l-.86-.37a39.18,39.18,0,0,0,1.82-4.3Zm-1.95-6.33a15.52,15.52,0,0,1,2.1,1.58l-.6.59a13.09,13.09,0,0,0-2.09-1.61Zm2.19,3.32H28V88.3c-1,.08-1.92.13-2.91.13l-.27-.78a20.55,20.55,0,0,0,6.53-.89l.42.74a13.77,13.77,0,0,1-2.89.69v2h3.45V91H28.91v1.86h2.7v4.81h-.85V97h-4.5v.66h-.85V92.87H28V91H24.6Zm1.66,6h4.5V93.68h-4.5Z"/><path class="cls-1" d="M37.91,86.72h.89v1.11c0,.51,0,.9,0,1.16h4.61c0,2.22-.13,3.92-.24,5.11a7.67,7.67,0,0,1-.61,2.7,1.58,1.58,0,0,1-1.34.81H39.55l-.24-.84,1.43,0c.66,0,1.09-.42,1.31-1.28a34.34,34.34,0,0,0,.42-5.7H38.69a14.3,14.3,0,0,1-1,4.4,7.55,7.55,0,0,1-3.47,3.46l-.47-.76A7.12,7.12,0,0,0,37,93.55a13.47,13.47,0,0,0,.81-3.73H34.3V89h3.56c0-.25,0-.63,0-1.16Z"/><path class="cls-2" d="M32.87,51A19.84,19.84,0,1,1,52.71,31.18,19.87,19.87,0,0,1,32.87,51Zm0-38.68A18.84,18.84,0,1,0,51.71,31.18,18.87,18.87,0,0,0,32.87,12.34Z"/><path class="cls-2" d="M59.5,15a6.85,6.85,0,0,1-.94.38,30.08,30.08,0,0,1-1.11,33.29,3,3,0,0,1,.89.47A31.07,31.07,0,0,0,59.5,15Z"/><path class="cls-2" d="M11.6,9.79A30.12,30.12,0,0,1,49.84,6.24a7,7,0,0,1,.42-.92A31.1,31.1,0,0,0,10.94,9,5.9,5.9,0,0,1,11.6,9.79Z"/><path class="cls-2" d="M11.31,52.28A30.12,30.12,0,0,1,5.52,18.44a5.46,5.46,0,0,1-.93-.37,31.1,31.1,0,0,0,5.89,34.78A3.6,3.6,0,0,1,11.31,52.28Z"/><path class="cls-2" d="M53.5,53.17A30.11,30.11,0,0,1,17.25,57a5.1,5.1,0,0,1-.37.94A31.12,31.12,0,0,0,54.09,54,3.29,3.29,0,0,1,53.5,53.17Z"/><path class="cls-3" d="M56.39,17.21A8.51,8.51,0,1,1,64.9,8.7,8.52,8.52,0,0,1,56.39,17.21Zm0-14A5.51,5.51,0,1,0,61.9,8.7,5.51,5.51,0,0,0,56.39,3.2Z"/><path class="cls-4" d="M7.09,20.17a7.09,7.09,0,1,1,7.08-7.09A7.1,7.1,0,0,1,7.09,20.17ZM7.09,9a4.09,4.09,0,1,0,4.08,4.09A4.09,4.09,0,0,0,7.09,9Z"/><path class="cls-5" d="M13.22,61.63A5.67,5.67,0,1,1,18.89,56,5.67,5.67,0,0,1,13.22,61.63Zm0-8.34A2.67,2.67,0,1,0,15.89,56,2.67,2.67,0,0,0,13.22,53.29Z"/><path class="cls-6" d="M56.39,56a4.25,4.25,0,1,1,4.26-4.25A4.26,4.26,0,0,1,56.39,56Zm0-6.5a2.25,2.25,0,1,0,2.26,2.25A2.25,2.25,0,0,0,56.39,49.46Z"/></g></g></svg>