<?xml version="1.0" standalone="no"?><!DOCTYPE svg PUBLIC "-//W3C//DTD SVG 1.1//EN" "http://www.w3.org/Graphics/SVG/1.1/DTD/svg11.dtd"><svg t="1557125123132" class="icon" style="" viewBox="0 0 1024 1024" version="1.1" xmlns="http://www.w3.org/2000/svg" p-id="6828" xmlns:xlink="http://www.w3.org/1999/xlink" width="20" height="20"><defs><style type="text/css"></style></defs><path d="M1021.636923 706.56V297.747692l-221.735385 213.464616 221.735385 195.347692m-374.153846-48.836923c-36.233846 35.052308-85.464615 54.744615-136.664615 54.350769-51.593846 0-100.036923-19.298462-136.664616-54.350769l-118.547692-114.215385-255.212308 224.886154v37.809231c0 49.230769 41.747692 89.403077 92.947692 89.403077h835.347693c51.2 0 92.947692-40.172308 92.947692-89.403077v-38.990769l-254.424615-224.492308-119.729231 115.003077" p-id="6829" fill="#ffffff"></path><path d="M930.658462 128.393846h-835.347693c-51.2 0-92.553846 40.172308-92.553846 89.403077v18.510769l406.843077 391.876923c27.569231 26.781538 64.590769 41.353846 103.975385 41.353847s76.012308-14.572308 103.975384-41.353847L1023.606154 236.307692v-18.510769c0-49.230769-41.747692-89.403077-92.947692-89.403077m-930.264616 169.353846v409.993846l222.129231-196.135384-222.129231-213.858462" p-id="6830" fill="#ffffff"></path></svg>