<svg xmlns="http://www.w3.org/2000/svg" viewBox="0 0 72.55 46.58"><defs><style>.cls-1{fill:#e5e5e5;}.cls-2{fill:#fff;}.cls-3{fill:#cbcbcb;}.cls-4{fill:#f6d6c0;}.cls-5{fill:#7c7c7c;}.cls-6{fill:#a9a9a9;}.cls-7{fill:#ecc9b1;}.cls-8{fill:#3f3f3f;}.cls-9{fill:#67a4a4;}.cls-10{opacity:0.99;}.cls-11{fill:#ff8d12;}.cls-12{fill:#8d8d8d;}.cls-13{fill:#d7d7d7;}.cls-14{fill:#b1b1b1;}.cls-15{fill:#757575;}</style></defs><g id="图层_2" data-name="图层 2"><g id="图层_1-2" data-name="图层 1"><path class="cls-1" d="M25.41,9.31H.4a.4.4,0,1,0,0,.8h.71v9.58a.4.4,0,0,0,.8,0V10.11H23.84v9.58a.4.4,0,0,0,.4.4.39.39,0,0,0,.4-.4V10.32l.12-.21h.65a.4.4,0,1,0,0-.8Z"/><path class="cls-1" d="M14.27,9.52H6.69A.56.56,0,0,1,6.14,9V4.79a.55.55,0,0,1,.55-.55h7.58a.55.55,0,0,1,.55.55V9A.56.56,0,0,1,14.27,9.52Z"/><path class="cls-2" d="M14.27,4.67H6.69a.12.12,0,0,0-.13.12V9a.13.13,0,0,0,.13.13h7.58A.13.13,0,0,0,14.4,9V4.79A.12.12,0,0,0,14.27,4.67Z"/><path class="cls-1" d="M14.91,9H14.1A.09.09,0,0,0,14,8.92h-.25a.09.09,0,0,0-.09.09h-.25a.09.09,0,0,0-.09-.09h-.25A.09.09,0,0,0,13,9h-.25a.09.09,0,0,0-.09-.09H12.4a.09.09,0,0,0-.09.09h-.25A.09.09,0,0,0,12,8.92h-.26a.09.09,0,0,0-.08.09h-.26a.08.08,0,0,0-.08-.09H11A.09.09,0,0,0,11,9h-.26a.09.09,0,0,0-.08-.09h-.26a.09.09,0,0,0-.08.09H10a.09.09,0,0,0-.08-.09H9.67A.08.08,0,0,0,9.59,9H9.33a.09.09,0,0,0-.08-.09H9A.09.09,0,0,0,8.9,9H8.65a.09.09,0,0,0-.09-.09H8.31A.09.09,0,0,0,8.22,9H8a.09.09,0,0,0-.09-.09H7.63A.09.09,0,0,0,7.54,9H7.29a.09.09,0,0,0-.09-.09H7A.09.09,0,0,0,6.86,9H6.05a.25.25,0,0,0-.25.25.26.26,0,0,0,.25.26h8.86a.26.26,0,0,0,.25-.26A.25.25,0,0,0,14.91,9Z"/><path class="cls-1" d="M23.25,15.54h-6.6V13.81a.49.49,0,0,1,.49-.5h5.61a.5.5,0,0,1,.5.5Zm-6.1-.5h5.6V13.81H17.14Z"/><path class="cls-1" d="M23.25,18h-6.6V15.59h6.6Zm-6.1-.5h5.6V16.09h-5.6Z"/><path class="cls-1" d="M22.75,20.28H17.14a.49.49,0,0,1-.49-.5V18.06h6.6v1.72A.5.5,0,0,1,22.75,20.28Zm-5.6-1.72v1.22h5.6V18.56Z"/><path class="cls-1" d="M19.92,14.8a.31.31,0,0,1-.31-.31.31.31,0,0,1,.62,0A.31.31,0,0,1,19.92,14.8Zm0-.37a.05.05,0,0,0-.06.06c0,.06.12.06.12,0A.06.06,0,0,0,19.92,14.43Z"/><path class="cls-1" d="M19.92,17.26a.31.31,0,1,1,.31-.31A.31.31,0,0,1,19.92,17.26Zm0-.37a.06.06,0,0,0-.06.06c0,.07.12.07.12,0A.06.06,0,0,0,19.92,16.89Z"/><path class="cls-1" d="M19.93,19.67a.31.31,0,1,1,.31-.31A.31.31,0,0,1,19.93,19.67Zm0-.37a.06.06,0,0,0-.06.06c0,.07.12.07.12,0A.06.06,0,0,0,19.93,19.3Z"/><path class="cls-3" d="M22.41,13.56a.07.07,0,0,1-.07.06H18a.89.89,0,1,1,0-1.78h4.36a.07.07,0,0,1,.07.06.07.07,0,0,1-.07.07H18a.76.76,0,1,0,0,1.52h4.36A.07.07,0,0,1,22.41,13.56Z"/><path class="cls-3" d="M22.31,12.27H17.74s0,0,0,0h4.59v0Z"/><path class="cls-3" d="M22.31,12.58H17.73s0,0,0,0h4.57v0Z"/><path class="cls-3" d="M22.31,12.89H17.73s0,0,0,0h4.57a0,0,0,0,1,0,0Z"/><path class="cls-3" d="M22.31,13.21H17.74s0,0,0,0h4.59v0Z"/><path class="cls-4" d="M13.82,7.48a5.3,5.3,0,0,1,.83,1.42c0,.36-.68.2-.68.2Z"/><path class="cls-3" d="M14.41,8.34a1.17,1.17,0,0,1-.08.29c-.07.15-.28.48-.28.48l-1.47,0h0l-.29-.41-.1-.16h0l-.21-.3L12,7.76l.13-.65v0l0-.12V6.88l.07-.31-.18-1.48a3.56,3.56,0,0,1,.37.23,17.41,17.41,0,0,1,1.66,2.42C14.11,7.83,14.4,8.14,14.41,8.34Z"/><polygon class="cls-4" points="9.57 21.91 8.71 21.91 8.3 19.53 9.57 19.53 9.57 21.91"/><path class="cls-5" d="M8.49,21.75h1.2a1.08,1.08,0,0,1,.3.85c-.08.45-1.23.41-1.5.26S8.49,21.75,8.49,21.75Z"/><polygon class="cls-4" points="11.02 21.86 11.88 21.86 12.29 19.49 11.02 19.49 11.02 21.86"/><path class="cls-5" d="M12.1,21.7H10.9a1.11,1.11,0,0,0-.31.85c.09.46,1.24.41,1.51.26S12.1,21.7,12.1,21.7Z"/><polygon class="cls-6" points="8 15.18 8.38 20.91 10.01 20.91 10.3 14.43 8 15.18"/><polygon class="cls-6" points="12.75 15.18 12.38 20.91 10.74 20.91 10.45 14.43 12.75 15.18"/><path class="cls-7" d="M11.32,5.11s-1.9.28-1.72,0a1.76,1.76,0,0,0,.08-.76V4c0-.52-.08-1-.08-1s1.66-1,1.47-.21a3.24,3.24,0,0,0,0,1.16c0,.12,0,.24.05.35A7.33,7.33,0,0,0,11.32,5.11Z"/><path class="cls-8" d="M9.94.71a.28.28,0,0,1-.22,0l.06.07A.23.23,0,0,1,9.6.69a1.09,1.09,0,0,0,0,.18A.42.42,0,0,1,9.37.8a.1.1,0,0,0,.07.1.36.36,0,0,0-.4.25l.13,0a.43.43,0,0,0-.26.15s-.08.11-.06.16.11.1.15.06a.63.63,0,0,0-.15.54.49.49,0,0,1,0,.12,1.17,1.17,0,0,1,0,.11.42.42,0,0,0,0,.22l.06.32c0,.13.15.31.2.44A6,6,0,0,0,9.7,4a.79.79,0,0,0,.62.08A3,3,0,0,0,11,3.93c.28-.06.65-.89.75-1.11a2,2,0,0,0,.12-.59c0-.19-.17-.34-.21-.52a.37.37,0,0,1,0-.18.52.52,0,0,0,0-.11c0-.08-.07-.14-.14-.19a3.19,3.19,0,0,0-.42-.3c0-.05.06-.07.09-.11s0-.13-.07-.16a.38.38,0,0,0-.21,0,.16.16,0,0,0-.14-.18.19.19,0,0,0-.15.06A.27.27,0,0,0,10.46.4c-.17,0-.17.11-.28.18S10,.56,9.9.49A.2.2,0,0,0,9.94.71Z"/><path class="cls-6" d="M8.08,12.21c-.63.24-.73,1-.68,1.68s.37.93,1.4,1a19.81,19.81,0,0,0,4.29-.13c.21-.22.65-1.87-.18-2.45S9.33,11.74,8.08,12.21Z"/><path class="cls-1" d="M13.52,14.59l-6.37,0a.76.76,0,0,0-.49.22.71.71,0,0,0-.15.15,1,1,0,0,0-.2.63v.16a.93.93,0,0,0,.87,1h6.34a.94.94,0,0,0,.88-1v-.16A.93.93,0,0,0,13.52,14.59Z"/><rect class="cls-1" x="9.84" y="16.67" width="0.91" height="6.58"/><path class="cls-1" d="M7.24,23.21a20.15,20.15,0,0,0,3.1,0,20,20,0,0,0,3.09,0,5,5,0,0,0-3.09-1A5,5,0,0,0,7.24,23.21Z"/><path class="cls-4" d="M7,7.43a8.44,8.44,0,0,0-.6,1.62c0,.35.68.19.68.19Z"/><path class="cls-3" d="M6.74,8.77A4.54,4.54,0,0,0,7,9.25l1.47,0h0l.29-.41.11-.16h0v0h0l.21-.3-.07-.39-.14-.66h0l0-.13L8.9,7l-.06-.3L9,5.23a3.79,3.79,0,0,0-.71.32A9.85,9.85,0,0,0,6.57,8.4,1.22,1.22,0,0,0,6.74,8.77Z"/><path class="cls-1" d="M7.66,12.54C7.58,12.45,7.93,7.92,8,6A2.47,2.47,0,0,1,9.62,4.85a10.43,10.43,0,0,1,1.86,0c1.26.29,1.45,1.22,1.59,2.35.17,1.36,0,2.93.18,4.58a3.07,3.07,0,0,1,0,1.09C13.24,13.11,8.38,13.22,7.66,12.54Z"/><path class="cls-8" d="M9.11,1,8.83.88A1.91,1.91,0,0,1,10.22.29L10,0A1,1,0,0,1,11.06.4a5,5,0,0,1,.77,1.08h.3L12,1.76l.44.27L12,2a3.84,3.84,0,0,1-.2.84A6.1,6.1,0,0,1,11.44,2v.27s-.28-.25-.28-.41L11,2.05l-.08-.31L10,2.05l.15-.25-.58.08.22-.3s-.66.36-.68.67a1.62,1.62,0,0,1-.22.6S8.37,1.41,9.11,1Z"/><rect class="cls-1" x="19.27" y="8.92" width="0.83" height="0.39"/><path class="cls-9" d="M20.22,6.51h-1a.16.16,0,0,0-.16.16v.26A.06.06,0,0,0,19,7v.11a.06.06,0,0,0,.06,0v.11a.06.06,0,0,0-.06,0v.11a0,0,0,0,0,.05,0V8.89a.15.15,0,0,0,.15.16h1a.16.16,0,0,0,.16-.16l0-2.23A.16.16,0,0,0,20.22,6.51Z"/><path class="cls-2" d="M20.26,8.72V6.85a.15.15,0,0,0-.15-.15h-.81a.16.16,0,0,0-.16.15V8.72a.15.15,0,0,0,.15.15h.81A.15.15,0,0,0,20.26,8.72Z"/><g class="cls-10"><path class="cls-11" d="M21.37,7h0a.13.13,0,0,1-.12-.13V6.42l-.43-.07a.13.13,0,0,1-.1-.1l-.1-.45-.5.1A.13.13,0,0,1,20,5.8a.12.12,0,0,1,.1-.14l.62-.13a.13.13,0,0,1,.15.1l.11.49.45.07a.12.12,0,0,1,.1.13v.53A.13.13,0,0,1,21.37,7Z"/></g><g class="cls-10"><path class="cls-11" d="M22.53,6.38h0a.12.12,0,0,1-.12-.13l0-.8-.8-.13a.16.16,0,0,1-.11-.1l-.19-.85-.93.18a.12.12,0,0,1-.15-.1.12.12,0,0,1,.1-.14l1-.21a.12.12,0,0,1,.15.09l.2.89.82.14a.13.13,0,0,1,.11.12l0,.92A.13.13,0,0,1,22.53,6.38Z"/></g><g class="cls-10"><path class="cls-11" d="M23.45,5.7h0a.12.12,0,0,1-.12-.13l0-1.11-1.1-.18a.11.11,0,0,1-.1-.09L21.88,3l-1.28.26a.12.12,0,0,1-.15-.1.13.13,0,0,1,.1-.15L22,2.74a.12.12,0,0,1,.14.1l.28,1.21,1.12.19a.13.13,0,0,1,.11.12l0,1.22A.13.13,0,0,1,23.45,5.7Z"/></g><circle class="cls-1" cx="36.91" cy="42.1" r="0.47"/><circle class="cls-1" cx="66.75" cy="42.1" r="0.47"/><path class="cls-1" d="M45.57,37h-7.4a1.81,1.81,0,0,1-1.8-1.8v-5a1.81,1.81,0,0,1,1.8-1.8h7.4a1.81,1.81,0,0,1,1.8,1.8v5A1.81,1.81,0,0,1,45.57,37Zm-7.4-7.64a.8.8,0,0,0-.8.8v5a.8.8,0,0,0,.8.8h7.4a.8.8,0,0,0,.8-.8v-5a.8.8,0,0,0-.8-.8Z"/><path class="cls-1" d="M55.53,37.07h-7.4a1.81,1.81,0,0,1-1.8-1.8v-5a1.81,1.81,0,0,1,1.8-1.8h7.4a1.81,1.81,0,0,1,1.8,1.8v5A1.81,1.81,0,0,1,55.53,37.07Zm-7.4-7.64a.8.8,0,0,0-.8.8v5a.8.8,0,0,0,.8.8h7.4a.8.8,0,0,0,.8-.8v-5a.8.8,0,0,0-.8-.8Z"/><path class="cls-1" d="M65.49,37.11h-7.4a1.81,1.81,0,0,1-1.8-1.8v-5a1.81,1.81,0,0,1,1.8-1.8h7.4a1.81,1.81,0,0,1,1.8,1.8v5A1.81,1.81,0,0,1,65.49,37.11Zm-7.4-7.64a.8.8,0,0,0-.8.8v5a.8.8,0,0,0,.8.8h7.4a.8.8,0,0,0,.8-.8v-5a.8.8,0,0,0-.8-.8Z"/><rect class="cls-1" x="35.73" y="41.24" width="32.6" height="1"/><path class="cls-1" d="M37.41,42.28H35.49a1.9,1.9,0,0,1-1.8-2v-5h1v5a.91.91,0,0,0,.8,1h.92V33.2h1Z"/><path class="cls-1" d="M68.17,42.28H66.25V32.1h1v9.18h.92c.43,0,.79-.53.79-1.16l0-5.23h1l0,5.23A2,2,0,0,1,68.17,42.28Z"/><path class="cls-1" d="M47.41,37.17h-11V34.25l.25-.14a9.94,9.94,0,0,1,10.5,0l.25.14Zm-10-1h9V34.84a8.8,8.8,0,0,0-9,0Z"/><path class="cls-1" d="M57.37,37.21h-11V34.29l.25-.14a9.94,9.94,0,0,1,10.5,0l.25.14Zm-10-1h9V34.88a8.8,8.8,0,0,0-9,0Z"/><path class="cls-1" d="M67.33,37.25h-11V34.33l.25-.14a9.94,9.94,0,0,1,10.5,0l.25.14Zm-10-1h9V34.91a8.85,8.85,0,0,0-9,0Z"/><path class="cls-1" d="M34.58,35.83A2.82,2.82,0,1,1,37.41,33,2.83,2.83,0,0,1,34.58,35.83Zm0-4.64A1.82,1.82,0,1,0,36.41,33,1.82,1.82,0,0,0,34.58,31.19Z"/><path class="cls-1" d="M69.15,35.43A2.83,2.83,0,1,1,72,32.61,2.82,2.82,0,0,1,69.15,35.43Zm0-4.65A1.83,1.83,0,1,0,71,32.61,1.82,1.82,0,0,0,69.15,30.78Z"/><path class="cls-8" d="M46.18,16.39a.43.43,0,0,1-.33-.06l.09.1a.36.36,0,0,1-.27-.08,1.31,1.31,0,0,0,0,.28.56.56,0,0,1-.37-.11.17.17,0,0,0,.11.16.56.56,0,0,0-.61.38l.2,0a.68.68,0,0,0-.4.23.29.29,0,0,0-.09.26c0,.08.16.14.23.08a1,1,0,0,0-.23.82.62.62,0,0,1,0,.19c0,.06-.06.11-.08.17a.54.54,0,0,0,0,.33l.19.56a4,4,0,0,0,.12.6,8.64,8.64,0,0,0,.41.89.67.67,0,0,0,.27.23,2.2,2.2,0,0,0,1.29.2A6.47,6.47,0,0,0,48,21.5a2.46,2.46,0,0,0,.34-.22,1.22,1.22,0,0,0,.5-.84A5.13,5.13,0,0,1,49,19.32a1.37,1.37,0,0,0,.17-.62c0-.28-.26-.51-.32-.79a.66.66,0,0,1,0-.28.47.47,0,0,0,0-.17c0-.11-.1-.2-.2-.28s-.43-.31-.65-.46c0-.07.1-.1.14-.16s0-.21-.1-.25a.58.58,0,0,0-.32,0,.26.26,0,0,0-.45-.19.41.41,0,0,0-.33-.22c-.26,0-.26.17-.43.27s-.3,0-.43-.13A.34.34,0,0,0,46.18,16.39Z"/><rect class="cls-4" x="44.71" y="44" width="0.95" height="1.37"/><rect class="cls-4" x="47.98" y="44" width="0.95" height="1.37"/><path class="cls-12" d="M43.39,32.06c1.11-1.1,5.53-1.16,6.52.06.35.43.82,3.37.38,3.73-1.21,1-6,.81-7.07-.28C42.82,35.17,43,32.46,43.39,32.06Z"/><path class="cls-6" d="M45.72,44.58l-.91.12a.76.76,0,0,1-.88-.64c-.36-2-.73-6.92-.83-9a1.86,1.86,0,0,1,1.54-2,1.69,1.69,0,0,1,1.54,1c.61,2.77.28,7.9.15,9.67A.86.86,0,0,1,45.72,44.58Z"/><path class="cls-6" d="M47.64,44.46a3.48,3.48,0,0,0,1.5.07c.16,0,.31-.08.34-.25,0,0,.84-6.81,1-9.79a2,2,0,0,0-1.29-1.41c-.26-.07-1.86.14-2,.78-.75,3.12.24,10.25.24,10.25A.31.31,0,0,0,47.64,44.46Z"/><path class="cls-5" d="M45,45.29h.38c.44,0,.8.11.8.58a1.64,1.64,0,0,1-.07.44c-.35.34-1.54.4-1.85,0a1.27,1.27,0,0,1,0-.4c0-.47.35-.58.79-.58Z"/><path class="cls-5" d="M48.26,45.29h.39c.43,0,.79.11.79.58a1.64,1.64,0,0,1-.07.44c-.35.34-1.54.4-1.85,0a1.66,1.66,0,0,1-.05-.4c0-.47.35-.58.79-.58Z"/><path class="cls-7" d="M45.48,20.61s.36,2.68-.19,3,3.26.33,3.26.33-.85-2.33-.47-3Z"/><ellipse class="cls-4" cx="46.86" cy="19.7" rx="1.98" ry="2.14"/><path class="cls-13" d="M51.32,23.93c.18.33,1,1.45.85,2s-1.33.88-1.63,1.38a4.79,4.79,0,0,0-.22,1.32l-.23,1.93-.15,1.29-.11.86c-.62.32-6,.35-6,.46l-.52-.4,0-.92.09-1.57.11-1.95c0-.09,0-.85,0-.93-.16-.57-1.48-.8-1.63-1.75a5.57,5.57,0,0,1,.83-1.81c.61-.74,2.89-1.28,2.89-1.28.21.48,1.16.62,1.16.62a3.16,3.16,0,0,0,1.42-.47S50.93,23.18,51.32,23.93Z"/><path class="cls-4" d="M52.36,30.62a26.59,26.59,0,0,1-2.64,2,3.37,3.37,0,0,1-1.68.31c-.24,0-.77,0-.86-.14s.17-.45.3-.54A5.62,5.62,0,0,1,48.69,32s2.07-1.76,2.22-1.94a1.12,1.12,0,0,0,.19-.59,9.72,9.72,0,0,0-.61-2.19S52,26,52,26.15C52.76,27.94,52.78,30.17,52.36,30.62Z"/><path class="cls-9" d="M45,29.48l1.18.42a.2.2,0,0,1,.12.25l-.11.31a.07.07,0,0,1,0,.08l0,.12a.07.07,0,0,1-.09.05l0,.12a.07.07,0,0,1,0,.08L46,31a.08.08,0,0,1-.09,0l-.58,1.67a.2.2,0,0,1-.25.12l-1.18-.41a.2.2,0,0,1-.12-.25l.91-2.61A.21.21,0,0,1,45,29.48Z"/><circle class="cls-2" cx="45.23" cy="30.55" r="0.26"/><path class="cls-4" d="M43.85,32.07c-.07,0,1.31.44,1.56.84.11.17.36.79,0,.8A9.67,9.67,0,0,1,43.69,33a6.54,6.54,0,0,1-3-3,.89.89,0,0,1,0-.68c.16-.36.41-1.13.58-1.48.24-.52.8-1.89.8-1.89a5.55,5.55,0,0,0,.84.77,2.6,2.6,0,0,1,.58.52s-1.23,1.92-1.12,2.56C42.38,30,43.85,32.07,43.85,32.07Z"/><path class="cls-8" d="M44.76,20.24a2.35,2.35,0,0,1,.56-1.45A3.16,3.16,0,0,1,47,18.32c.89,0,1.79.35,1.8,1,0,1.16.11.83.11.83l.15-1.38-.71-1.14L46,17l-1,.87-.42,1Z"/><path class="cls-4" d="M56.21,42.81s.15.3.36.66l.26.43c.32.52,0,2.16,0,2.16l.7.1.71-.35.19-.67.11-.4-1-1.9-.35-.39Z"/><path class="cls-6" d="M52.77,36.78a33.85,33.85,0,0,1,1.64,4,18.34,18.34,0,0,0,1,2.9,1.58,1.58,0,0,0,1.11-.27,8.64,8.64,0,0,0,.91-.57l.07,0,0,0L54.73,35l2.48-1.82.18-.14,1.11-.81-3.38.61s-.12,0-.74.33c-.3.17-.72.42-1.29.8A1.83,1.83,0,0,0,52.77,36.78Z"/><path class="cls-4" d="M58.53,43.2a.81.81,0,0,1,.22.3,1.23,1.23,0,0,1,.13.41c0,.11,0,.22,0,.33.08.46.18,1.48.18,1.48h.72l.55.06.14-.51a3.43,3.43,0,0,0-.21-.95c-.07-.25-.28-1-.42-1.35a1,1,0,0,0-.21-.41S58.28,43,58.53,43.2Z"/><path class="cls-14" d="M54.57,35.82s.81,1.51,1.32,2.77c.34.82,1,2.79,1.48,4l.07.18.32.93a1.15,1.15,0,0,0,.26,0l.25-.09.1,0,.32-.13c.51-.23,1.06-.53,1.25-.63l.08,0a9.91,9.91,0,0,1-.84-2.38,17.8,17.8,0,0,0-1.29-3.32l-.13-.64,2.42-.32c1.82-.91.93-2.71.41-3.5a4,4,0,0,0-.28-.4l-1.94.42s-.3.1-1,.4l-.31.14c-.38.17-.85.4-1.41.68C53.77,34.82,54.57,35.82,54.57,35.82Z"/><path class="cls-8" d="M54.66,17.12a.75.75,0,0,0-.34.21c-.13.14-.14.36-.23.53a1.82,1.82,0,0,1-.68.64,1,1,0,0,0-.51.74c0,.45.49.73.65,1.15a2.26,2.26,0,0,1-.08,1.23.78.78,0,0,0,0,.4.72.72,0,0,0,.15.27,7.4,7.4,0,0,1,.9,1.28,4.21,4.21,0,0,1,.25,1.17,5.83,5.83,0,0,1,0,1.72.17.17,0,0,0,0,.1.11.11,0,0,0,.08.07,1.69,1.69,0,0,0,2.26-.78l0-.06c.14-.32.2-.71.48-.92l.11-.05a.35.35,0,0,1,.18.06,1.81,1.81,0,0,0,1.21.13,1.19,1.19,0,0,0,.66-.33c.31-.38.14-.94.16-1.44s.17-.81,0-1.16-.75-.62-.8-1.06c0-.27.15-.51.22-.77a2.16,2.16,0,0,0-.56-1.77,2.26,2.26,0,0,0-.44-.53,1.86,1.86,0,0,0-.53-.3,13.28,13.28,0,0,0-1.63-.49A2.46,2.46,0,0,0,54.66,17.12Z"/><path class="cls-7" d="M56.72,27.09l-1.86-.22.35-3a6.82,6.82,0,0,0,.2-.87l0-.3a1.52,1.52,0,0,0-.18-1c-.44-.64,1.72-.29,1.72-.29a7.27,7.27,0,0,0,.17.81,5,5,0,0,0,.5,1.17,2.7,2.7,0,0,0,.76.82C59.62,25,56.72,27.09,56.72,27.09Z"/><circle class="cls-4" cx="55.87" cy="20.32" r="1.71"/><path class="cls-13" d="M55.67,24.57c-.1-.16-.44-.38-.48-.56a1.77,1.77,0,0,1,.13-.56s-1.77.5-2.17.63-.74,1.2-.49,1.58,1,0,.94.72.74,6.86.74,6.86,2-.16,3.39-.19a12.16,12.16,0,0,0,2.9-.55l-.79-1.67a4.13,4.13,0,0,1-.41-1.92l.07-2.69s0-1.27,1-1.5a2.27,2.27,0,0,0-1.4-1.18s-1.18-.37-1.53-.18a3.07,3.07,0,0,1-.19.66c-.13.22-.44.29-.56.49a12,12,0,0,0-.72,2.06A9.12,9.12,0,0,0,55.67,24.57Z"/><path class="cls-8" d="M54.64,19.92c.26,0,.46-.28.72-.26a.75.75,0,0,1,.36.17,4.32,4.32,0,0,0,1.38.63,1.15,1.15,0,0,0,.58,0,.5.5,0,0,0,.4-.39.78.78,0,0,0,0-.26A3.22,3.22,0,0,0,56.66,18a1.06,1.06,0,0,0-.89-.18,1.66,1.66,0,0,0-.63.55,2.74,2.74,0,0,1-.5.4c-.14.08-.35.14-.43.3A.61.61,0,0,0,54.64,19.92Z"/><path class="cls-4" d="M59.8,25.08c-.18.23-.39.72-.28,1,.38.82,1.75,2.91,1.24,3.37A11.5,11.5,0,0,1,58.61,31s-.68.26-1,.45-1.42.75-1.07,1.37c.14.25,2-.6,2-.6a9.68,9.68,0,0,0,3.94-2.28c.59-.59-1.6-4.82-1.87-5.19-.14-.19,0,0,0,0A1.87,1.87,0,0,0,59.8,25.08Z"/><path class="cls-15" d="M57.5,45.22c.44,0,.89-.69,1.17-.38a.84.84,0,0,1,.11.86,2.82,2.82,0,0,1-2.36.46c-.07,0-.21-.29-.21-.29,0-.47.29-.58.73-.58Z"/><path class="cls-5" d="M59.26,44.94l.38,0c.44,0,.57-.53,1.07-.4,0,0,.71.17.42.73s-2.19,1.15-2.53.73a1.41,1.41,0,0,1-.08-.39c0-.47.31-.6.74-.64Z"/><path class="cls-4" d="M53.77,26.28c-.07.73.39,2.72.16,3.75a26,26,0,0,1-1.35,3.08,9.44,9.44,0,0,1-1.08.42c-.69.21-1.65.08-1.3-.28s1.06-.36,1.29-.63a7.16,7.16,0,0,0,1.43-3.15c0-1.61-.35-4.16-.35-4.16S53.8,25.93,53.77,26.28Z"/><g class="cls-10"><path class="cls-11" d="M47.08,30.39h0a.12.12,0,0,1-.12-.13v-.43l-.43-.07a.11.11,0,0,1-.1-.09l-.1-.46-.5.1a.13.13,0,0,1-.15-.09.13.13,0,0,1,.1-.15l.62-.12a.11.11,0,0,1,.14.09l.11.49.45.07a.14.14,0,0,1,.11.13v.54A.13.13,0,0,1,47.08,30.39Z"/></g><g class="cls-10"><path class="cls-11" d="M48.25,29.79h0a.13.13,0,0,1-.13-.13l0-.8-.8-.13a.13.13,0,0,1-.1-.1l-.19-.85-.93.19a.15.15,0,0,1-.15-.1.13.13,0,0,1,.1-.15l1-.21a.13.13,0,0,1,.15.09l.2.9.82.13a.13.13,0,0,1,.1.13l0,.91A.12.12,0,0,1,48.25,29.79Z"/></g><g class="cls-10"><path class="cls-11" d="M49.16,29.11h0A.12.12,0,0,1,49,29l0-1.1L48,27.7a.13.13,0,0,1-.1-.1l-.27-1.18-1.28.26a.12.12,0,0,1-.14-.1.12.12,0,0,1,.09-.14l1.4-.28a.13.13,0,0,1,.15.09l.27,1.21,1.13.19a.12.12,0,0,1,.1.13l0,1.21A.12.12,0,0,1,49.16,29.11Z"/></g><path class="cls-9" d="M66.24.39a6.93,6.93,0,0,0-1.82,0,7.05,7.05,0,0,0-6.17,6.77,2.44,2.44,0,0,0,0,.27,7.1,7.1,0,0,0,7.09,7.09l.45,0a7.22,7.22,0,0,0,1-.14,7.09,7.09,0,0,0-.58-14ZM67.55,14h0a7,7,0,0,1-1.77.35h-.45a6.89,6.89,0,0,1-6.89-6.88,2.44,2.44,0,0,1,0-.27A6.89,6.89,0,1,1,67.55,14Z"/><path class="cls-9" d="M65.33,14.64a7.23,7.23,0,0,1-7.21-7.21V7.16a7.39,7.39,0,0,1,.31-1.86,7.22,7.22,0,0,1,7.83-5h0a7.21,7.21,0,0,1,5.13,11.07,7.13,7.13,0,0,1-4.54,3.14,6.29,6.29,0,0,1-1.06.15Zm0-14a6.77,6.77,0,0,0-6.76,6.51v.26a6.78,6.78,0,0,0,6.76,6.76l.44,0a6.39,6.39,0,0,0,1.74-.34h0A6.76,6.76,0,0,0,65.33.66Z"/><rect class="cls-9" x="65.23" y="0.94" width="0.2" height="1.42"/><rect class="cls-9" x="65.23" y="12.39" width="0.2" height="1.42"/><rect class="cls-9" x="61.15" y="2.63" width="0.2" height="1.42" transform="translate(15.58 44.29) rotate(-45)"/><rect class="cls-9" x="58.85" y="7.32" width="1.42" height="0.2"/><rect class="cls-9" x="60.54" y="11.41" width="1.42" height="0.2" transform="translate(9.8 46.68) rotate(-45)"/><rect class="cls-9" x="68.71" y="3.24" width="1.42" height="0.2" transform="translate(17.97 50.06) rotate(-45)"/><rect class="cls-9" x="70.4" y="7.32" width="1.42" height="0.2"/><rect class="cls-9" x="69.31" y="10.8" width="0.2" height="1.42" transform="translate(12.19 52.46) rotate(-45)"/><g class="cls-10"><rect class="cls-11" x="65.03" y="3.58" width="0.61" height="3.44"/></g><g class="cls-10"><rect class="cls-11" x="63.95" y="5.1" width="0.61" height="2.47" transform="translate(13.96 46.81) rotate(-44.46)"/></g><path class="cls-9" d="M65.64,7A.53.53,0,0,0,65,7a.61.61,0,0,0-.15.17.51.51,0,0,0,.9.47A.51.51,0,0,0,65.64,7Zm-.31.71a.3.3,0,0,1-.3-.3.35.35,0,0,1,0-.18.3.3,0,0,1,.42-.07.29.29,0,0,1,.08.42.31.31,0,0,1-.25.13Z"/></g></g></svg>