<svg xmlns="http://www.w3.org/2000/svg" xmlns:xlink="http://www.w3.org/1999/xlink" width="111" height="111" viewBox="0 0 111 111">
  <defs>
    <linearGradient id="linear-gradient" x1="0.5" x2="0.5" y2="1" gradientUnits="objectBoundingBox">
      <stop offset="0" stop-color="#98d9d5" stop-opacity="0.6"/>
      <stop offset="1" stop-color="#98d9d5" stop-opacity="0.102"/>
    </linearGradient>
    <filter id="椭圆_112" x="0" y="0" width="111" height="111" filterUnits="userSpaceOnUse">
      <feOffset dy="3" input="SourceAlpha"/>
      <feGaussianBlur stdDeviation="3" result="blur"/>
      <feFlood flood-color="#809baf" flood-opacity="0.2"/>
      <feComposite operator="in" in2="blur"/>
      <feComposite in="SourceGraphic"/>
    </filter>
    <linearGradient id="linear-gradient-2" x1="11.158" y1="0.5" x2="11.068" y2="1.616" gradientUnits="objectBoundingBox">
      <stop offset="0" stop-color="#72b2b1"/>
      <stop offset="1" stop-color="#498083"/>
    </linearGradient>
    <clipPath id="clip-path">
      <path id="路径_205" data-name="路径 205" d="M587,1643.472s4.343,12.089,31.312,11.691c30.751-.453,51.948-21.691,66.53-14.664.614.9,0,52.882,0,52.882H587Z" transform="translate(-587 -1639.075)" fill="none"/>
    </clipPath>
    <linearGradient id="linear-gradient-3" x1="0.5" y1="0.564" x2="0.5" y2="1" gradientUnits="objectBoundingBox">
      <stop offset="0" stop-color="#98d9d5" stop-opacity="0.502"/>
      <stop offset="1" stop-color="#72b2b1" stop-opacity="0.8"/>
    </linearGradient>
  </defs>
  <g id="组_1229" data-name="组 1229" transform="translate(-11 -496)">
    <g transform="matrix(1, 0, 0, 1, 11, 496)" filter="url(#椭圆_112)">
      <circle id="椭圆_112-2" data-name="椭圆 112" cx="46.5" cy="46.5" r="46.5" transform="translate(9 6)" fill="url(#linear-gradient)"/>
    </g>
    <path id="电" d="M251.488,42.022h-7.135c-1.531,0-5.864.749-7.33-.163-.293-1.043.652-2.932.912-3.844.749-2.639,1.466-5.245,2.215-7.917l3.193-11.5A1.292,1.292,0,0,0,241,17.587L215.195,53a1.321,1.321,0,0,0,1.14,1.955h10.458c.717,0,3.486-.456,3.942.228.424.554-.391,2.281-.554,2.9-1.955,6.776-3.844,13.553-5.734,20.329a1.292,1.292,0,0,0,2.346,1.01l25.77-35.414A1.3,1.3,0,0,0,251.488,42.022Z" transform="translate(-167.191 499.821)" fill="url(#linear-gradient-2)"/>
    <g id="蒙版组_4" data-name="蒙版组 4" transform="translate(20 541.065)" clip-path="url(#clip-path)">
      <g id="组_412" data-name="组 412" transform="translate(0 -39.065)">
        <circle id="椭圆_27" data-name="椭圆 27" cx="46.5" cy="46.5" r="46.5" transform="translate(0 0)" fill="url(#linear-gradient-3)"/>
      </g>
    </g>
  </g>
</svg>
