<svg xmlns="http://www.w3.org/2000/svg" viewBox="0 0 62.68 50.13"><defs><style>.cls-1{fill:#f6d6c0;}.cls-2{fill:#7c7c7c;}.cls-3{fill:#a9a9a9;}.cls-4{fill:#d7d7d7;}.cls-5{fill:#3f3f3f;}.cls-6{fill:#ecc9b1;}.cls-7{fill:#e5e5e5;}.cls-8{fill:#cbcbcb;}.cls-11,.cls-9{fill:#67a4a4;}.cls-10{fill:#fff;}.cls-11{font-size:3.69px;font-family:PingFang-SC-Heavy, PingFang SC;font-weight:800;}.cls-12{fill:#ff8d12;opacity:0.99;}</style></defs><g id="图层_2" data-name="图层 2"><g id="图层_1-2" data-name="图层 1"><polygon class="cls-1" points="19.51 45.89 18.06 45.89 17.37 40.29 19.51 40.29 19.51 45.89"/><path class="cls-2" d="M19.88,47.29a41.07,41.07,0,0,1-4.67,0v-.06A1.82,1.82,0,0,1,17,45.41a8.25,8.25,0,0,1,2.85,0C20.33,45.56,20.35,47.23,19.88,47.29Z"/><polygon class="cls-1" points="26.74 45.49 25.31 45.73 23.71 40.32 25.83 39.97 26.74 45.49"/><path class="cls-2" d="M22.94,47.51v-.06a1.83,1.83,0,0,1,1.55-2.06,17.28,17.28,0,0,1,2.83-.4c.47,0,.7,1.7.26,1.86A22.82,22.82,0,0,1,22.94,47.51Z"/><path class="cls-3" d="M20.34,44.08h-.06c-1.26-.12-3.19-.25-3.19-.25,0-2.19.11-10.8.4-12.87.12-.55.69-11.24,2.58-15.45l0,0h0a10.32,10.32,0,0,1,4.79,1.82l0,0v0a5.4,5.4,0,0,0,.32,2c.7,2,.56,11,.8,12.67.44,3.22.43,7,1,11.1l0,.06-.07,0a30.09,30.09,0,0,1-3.51.65S21.86,33.11,22,26.92c-.36,1.07-.7,5.57-1.05,6.48-.22,1.79-.44,9.05-.61,10.63Z"/><path class="cls-1" d="M9,19.87a5,5,0,0,1,1.36-1.59,48.42,48.42,0,0,0,5.3-3.49c1.32-1.18.63-.7,2.9-4.61,0,0,2.85,0,2.34.71-1.07,1.47-2.73,4-3.83,5.24-.76.82-4.49,2.45-4.49,2.45-.39.53-1.85,1.87-2.39,1.48S8.8,20.38,9,19.87Z"/><path class="cls-4" d="M22,8.36a1.6,1.6,0,0,1,1.54,1.8A2.6,2.6,0,0,1,21.58,12a27.58,27.58,0,0,0-.66-3A1,1,0,0,1,22,8.36Z"/><path class="cls-4" d="M25.53,7.65a2,2,0,0,1,1.58,2.19,2.35,2.35,0,0,1-1.94,1.61,21.91,21.91,0,0,0-.45-3.09A.71.71,0,0,1,25.53,7.65Z"/><path class="cls-5" d="M21.76.07a1.05,1.05,0,0,0-.47.21,3.69,3.69,0,0,0-.37.68,2.41,2.41,0,0,1-1,.73,1.36,1.36,0,0,0-.78.91c-.06.59.55,1,.7,1.59a2.85,2.85,0,0,1-.28,1.6,1.13,1.13,0,0,0-.07.52,1.18,1.18,0,0,0,.16.38,9.48,9.48,0,0,1,1,1.81,5.08,5.08,0,0,1,.16,1.56,7.69,7.69,0,0,1-.23,2.25.22.22,0,0,0,0,.14.19.19,0,0,0,.1.1,2.23,2.23,0,0,0,3.07-.71l.05-.08c.23-.4.35-.9.74-1.13a.3.3,0,0,1,.16-.05.44.44,0,0,1,.23.1,2.37,2.37,0,0,0,1.57.33,1.47,1.47,0,0,0,.9-.34c.47-.45.31-1.21.41-1.85A3.26,3.26,0,0,0,28,7.29c-.19-.56-.89-.91-.89-1.5a2.79,2.79,0,0,1,.39-1A2.89,2.89,0,0,0,27,2.42a3.26,3.26,0,0,0-.51-.76,2.7,2.7,0,0,0-.66-.46A17.5,17.5,0,0,0,23.79.33,3.23,3.23,0,0,0,21.76.07Z"/><path class="cls-6" d="M22.54,12.63l-2.09-.48.79-3.39a7.76,7.76,0,0,0,.33-1l.08-.34a1.8,1.8,0,0,0-.08-1.12c-.43-.79,2-.11,2-.11a5,5,0,0,0,.09.94,5.17,5.17,0,0,0,.41,1.39,2.91,2.91,0,0,0,.77,1C26.11,10.65,22.54,12.63,22.54,12.63Z"/><ellipse class="cls-1" cx="22.51" cy="4.62" rx="2.48" ry="2.25" transform="translate(13.9 25.92) rotate(-79.58)"/><path class="cls-5" d="M21.35,3.73c.34,0,.65-.3,1-.25a.93.93,0,0,1,.45.28,6,6,0,0,0,1.72,1,1.66,1.66,0,0,0,.76.14.67.67,0,0,0,.57-.47,1,1,0,0,0,0-.34,4.15,4.15,0,0,0-1.55-2.57,1.46,1.46,0,0,0-1.15-.37,2.31,2.31,0,0,0-.9.63,3,3,0,0,1-.71.46c-.19.09-.48.13-.61.33A.81.81,0,0,0,21.35,3.73Z"/><path class="cls-1" d="M25.15,9.64,24.08,9.4l0,0a2.79,2.79,0,0,1,2.67.52c.63.57.44,1.16.52,2.27l.75,5.51c.13,1.78-1.2,5.45-1.2,5.45a3.51,3.51,0,0,1-.8,2.25c-.33.45-.74,1.16-1,.69s-.06-.69.31-1.72a5.71,5.71,0,0,0,.45-1.11,45.1,45.1,0,0,0,.59-5.64C26.31,15,25.5,12.27,25.15,9.64Z"/><path class="cls-4" d="M21.65,9.53a3.29,3.29,0,0,1-.19-.7,1.87,1.87,0,0,1,.24-.63s-2.28.71-2.76.79a2,2,0,0,0-1,1.92c.22.45,1.2-.4,1.06.36s-.52,10.47-.52,10.47a31.26,31.26,0,0,1,4,0,15.76,15.76,0,0,0,3,0L25.76,12s.17-1.44,1.42-1.54a2.55,2.55,0,0,0-1.42-1.55s-1.27-.6-1.7-.44a3.62,3.62,0,0,1-.32.72c-.19.23-.55.26-.71.47a13.44,13.44,0,0,0-1.13,2.24A10,10,0,0,0,21.65,9.53Z"/><ellipse class="cls-5" cx="21.21" cy="4.8" rx="0.11" ry="0.26"/><ellipse class="cls-5" cx="22.79" cy="4.92" rx="0.11" ry="0.26"/><path class="cls-5" d="M21.88,6.54l-.08,0a.43.43,0,0,1-.27-.32.09.09,0,0,1,.18,0h0a.27.27,0,0,0,.15.19c.08,0,.3-.09.42-.18a.09.09,0,1,1,.11.14A1.05,1.05,0,0,1,21.88,6.54Z"/><polygon class="cls-1" points="17.62 47 18.95 47 19.59 41.86 17.62 41.86 17.62 47"/><path class="cls-2" d="M17.3,46.58c.46-.46,2.61,0,2.61,0h0a1.65,1.65,0,0,1,1.65,1.66v0s-3.13.11-4.26,0C16.88,48.23,17,46.88,17.3,46.58Z"/><polygon class="cls-1" points="13.7 47 15.03 47 15.66 41.86 13.7 41.86 13.7 47"/><path class="cls-2" d="M13.37,46.58c.47-.46,2.61,0,2.61,0h0a1.66,1.66,0,0,1,1.66,1.66v0s-3.13.11-4.27,0C13,48.23,13.08,46.88,13.37,46.58Z"/><path class="cls-6" d="M17.54,9.83s-.35,2.59.18,2.88-3.15.31-3.15.31.82-2.24.45-2.93Z"/><path class="cls-1" d="M15.36,19.26l1.05-5a2,2,0,0,1,.92-1.3,1.11,1.11,0,0,1,1.16.12,1.59,1.59,0,0,1,.79,1.82s-1.16,3-1.16,3.07c-.06.38-.66,1.27-.28,1.33l4.37.64c.61-.11,1.88.37,2,1s-2.26.41-2.63.27c-1-.37-3.22.11-4.37-.12S15.12,20.67,15.36,19.26Z"/><path class="cls-3" d="M20.32,25.37l-.06-.6h-.05l-7.62.38,0,.61-.45,18.42c1.23.93,2.41.18,3.86.7,0,0,.8-16.41.87-16.4S16.77,45,16.77,45c1.26.41,2.32-.06,3.65,0Z"/><circle class="cls-1" cx="16.42" cy="8.64" r="2.33"/><ellipse class="cls-5" cx="16.19" cy="8.38" rx="0.11" ry="0.26"/><ellipse class="cls-5" cx="17.77" cy="8.31" rx="0.11" ry="0.26"/><path class="cls-5" d="M16.6,9.77a.39.39,0,0,0,.22.25c.16.06.5-.19.5-.19"/><path class="cls-7" d="M19.76,19.2c-.28-2.7.15-4.71-1.33-6.7a3.22,3.22,0,0,0-1.89-.89h-.12a4,4,0,0,0-3.18,1.29,4.08,4.08,0,0,0-.55.76,4,4,0,0,0-.46,2.54s.52,2.76.55,3.69c.05,1.37-.44,5.45-.44,5.45a.44.44,0,0,0,.27.43c.05,0,7.4,0,7.4,0a.43.43,0,0,0,.41-.45S20,21.8,19.76,19.2Z"/><path class="cls-5" d="M18.63,5.78l.49-.19a3.36,3.36,0,0,0-2.44-1l.4-.44a1.69,1.69,0,0,0-1.86.64,3.67,3.67,0,0,0-1.13,1.07h-.52l.22.48L13,6.79l.78-.09a3.51,3.51,0,0,0,.38,2.62l2-2.42,1.14.49.11-.57.85.76L18,6.87A2.18,2.18,0,0,1,18.63,8,2.69,2.69,0,0,0,19,9S19.92,6.51,18.63,5.78Z"/><path class="cls-1" d="M16.77,25.18s-1.88-5.72-1.93-6.09c0-.18,0-3.06-.2-3.73s-.48-1-1.23-1.12-.77,4.43-.25,6.12c.36,1.17,2.5,5.26,2.5,5.26a4,4,0,0,0,.4,1.6c.25.28.79,1.31,1.1,1.07S16.77,25.18,16.77,25.18Z"/><path class="cls-8" d="M15.24,16.58c.27-.34,0-1.74,0-1.74,0-.74-.43-1.8-1.15-2-1.22-.37-2,1.49-2,2L12,16.22C12,17.39,14.94,17,15.24,16.58Z"/><path class="cls-6" d="M7.09,8.17s.27,2-.15,2.25,2.47.25,2.47.25-.65-1.76-.36-2.3Z"/><polygon class="cls-1" points="0.85 47.43 2.44 47.81 4.67 41.88 2.33 41.31 0.85 47.43"/><path class="cls-2" d="M.1,48.85a2.07,2.07,0,0,1,.49-2c.68-.42,3.1.75,3.1.75A2,2,0,0,1,5.18,50v0S.78,50,.1,48.85Z"/><polygon class="cls-1" points="7.87 48.51 9.5 48.51 10.28 42.21 7.87 42.21 7.87 48.51"/><path class="cls-2" d="M7.47,48c.57-.56,3.2,0,3.2,0h0a2,2,0,0,1,2,2v0s-3.83.14-5.22,0C7,50,7.11,48.36,7.47,48Z"/><path class="cls-3" d="M7.49,46.33c.2-3.65.34-7.34.26-9.79,0-1-.36-4-.36-4s-.5,2.3-.7,3.06a68.67,68.67,0,0,1-3.08,10C3.34,46.3.74,45.62,1,45A45.33,45.33,0,0,0,3,35.44c.16-1.74.36-8.24.36-8.24L5.28,26h0l6.55,1.2S11.45,41,10.28,46.05C10.12,46.73,7.45,47,7.49,46.33Z"/><path class="cls-4" d="M10.08,28.54a3.13,3.13,0,0,1-1.83-.66C6.05,26.33,3.43,28,3.4,28l-.11.07V28c0-.09.26-9.08.26-12a8.6,8.6,0,0,1,2.55-5.77,2,2,0,0,1,1.71-.56h.33a2.4,2.4,0,0,1,1.88,1c1.89,3.86,2.05,16.9,2.05,16.9l0,0A2.68,2.68,0,0,1,10.08,28.54Z"/><path class="cls-1" d="M5.69,3.9c.94-1.87,4.14-1.24,4-1.3A3.87,3.87,0,0,1,11,7.36a2.8,2.8,0,0,1-4.08,1A3.44,3.44,0,0,1,5.69,3.9Z"/><path class="cls-1" d="M14.92,28s-2.92-8.92-3-9.49c0-.29,0-4.78-.3-5.82-.31-1.22-.76-1.63-1.92-1.74s-1.2,6.91-.39,9.53c.56,1.83,3.89,8.2,3.89,8.2a6.24,6.24,0,0,0,.62,2.49c.4.45,1.23,2,1.72,1.67S14.92,28,14.92,28Z"/><path class="cls-5" d="M7.73,1.69a.52.52,0,0,1-.42-.09l.1.14a.45.45,0,0,1-.35-.1,1.56,1.56,0,0,0,0,.37c-.18,0-.57-.32-.71-.42A.76.76,0,0,0,6.6,2C6.23,2,5.37,2,5.28,2.3l.25.3c-.21,0-.38,0-.52.12a.38.38,0,0,0-.11.34c0,.11.19.38.29.29a3.18,3.18,0,0,0-.43,1.71c.18,2,.65,2.48,1,2.85A5.14,5.14,0,0,0,8,8.74c-.67-1.39-.85-4,.48-4.76a9,9,0,0,1,2.17-.65,1.38,1.38,0,0,0-.37-.6c-.27-.21.21-.17-.08-.37,0-.09.12-.13.19-.21s0-.27-.14-.32a.79.79,0,0,0-.43,0,.32.32,0,0,0-.3-.35.38.38,0,0,0-.3.11c-.07-.17-.21-.52-.4-.53s-.34.22-.56.35-.4,0-.57-.17A.44.44,0,0,0,7.73,1.69Z"/><path class="cls-4" d="M11.28,11.35c-.61-.66-2-.89-2.52-.16S7.68,14,8.15,14.66a30.38,30.38,0,0,0,3.93-.15S11.84,12,11.28,11.35Z"/><ellipse class="cls-5" cx="9.6" cy="5.73" rx="0.11" ry="0.26"/><ellipse class="cls-5" cx="11.12" cy="5.19" rx="0.11" ry="0.26"/><path class="cls-5" d="M10.4,7.72h0c-.23,0-.4-.27-.41-.3a.09.09,0,0,1,0-.13.1.1,0,0,1,.13,0s.15.2.25.2h0c.19,0,.26-.3.26-.3a.1.1,0,0,1,.12-.07.09.09,0,0,1,.07.11S10.74,7.72,10.4,7.72Z"/><path class="cls-9" d="M24.65,17.58l1.87.85a.32.32,0,0,1,.17.43l-.23.49a.11.11,0,0,1,.06.14l-.09.2a.11.11,0,0,1-.14.06l-.09.19a.11.11,0,0,1,.05.15l-.09.19a.11.11,0,0,1-.14.06L24.82,23a.33.33,0,0,1-.43.16l-1.88-.85a.33.33,0,0,1-.16-.43l1.87-4.14A.32.32,0,0,1,24.65,17.58Z"/><path class="cls-10" d="M22.7,21.65l.26-.59.7-1.54.6-1.35a.32.32,0,0,1,.42-.16l1,.47.47.21a.31.31,0,0,1,.16.41l-.63,1.4-.24.54-.7,1.54a.31.31,0,0,1-.41.16l-1.51-.68A.31.31,0,0,1,22.7,21.65Z"/><path class="cls-8" d="M61.31,2.21H32.39A1.37,1.37,0,0,0,31,3.58v9.88L29,15.3a.49.49,0,0,0-.13.56A.52.52,0,0,0,29,16a.58.58,0,0,0,.37.17l1.64.06v2a1.37,1.37,0,0,0,1.37,1.37H61.31a1.37,1.37,0,0,0,1.37-1.37V3.58A1.37,1.37,0,0,0,61.31,2.21Z"/><path class="cls-10" d="M61.34,19h-29a.73.73,0,0,1-.72-.74V3.53a.73.73,0,0,1,.72-.74h29a.74.74,0,0,1,.73.74V18.29A.74.74,0,0,1,61.34,19Z"/><text class="cls-11" transform="translate(34.7 9.66)">社区捐赠排名：<tspan class="cls-12"><tspan x="0" y="5.17">第1</tspan></tspan></text></g></g></svg>