<svg xmlns="http://www.w3.org/2000/svg" viewBox="0 0 72.26 44.55"><defs><style>.cls-1{fill:#ecc9b1;}.cls-2{fill:#cbcbcb;}.cls-3{fill:#67a4a4;}.cls-4{fill:#f6d6c0;}.cls-5{fill:#7c7c7c;}.cls-6{fill:#a9a9a9;}.cls-7{fill:#d7d7d7;}.cls-8{fill:#3f3f3f;}.cls-9{fill:#e5e5e5;}</style></defs><g id="图层_2" data-name="图层 2"><g id="图层_1-2" data-name="图层 1"><path class="cls-1" d="M40.71,5.37s.21,1.53-.11,1.7,1.87.19,1.87.19S42,5.93,42.2,5.52Z"/><path class="cls-1" d="M51.47,6.75s.21,1.54-.11,1.71,1.87.19,1.87.19S52.74,7.32,53,6.91Z"/><rect class="cls-2" x="67.26" y="9" width="0.86" height="29.83"/><path class="cls-2" d="M63.73,11.34h7.92a.61.61,0,0,0,.61-.61v-.07l-1-8.07a.62.62,0,0,0-.61-.54h-5.9a.62.62,0,0,0-.61.54l-1,8.07a.62.62,0,0,0,.54.68Z"/><path class="cls-3" d="M65.89,15.42V9.79h-.14v5.63a.49.49,0,0,0-.44.49.5.5,0,0,0,.51.5.5.5,0,0,0,.5-.5A.49.49,0,0,0,65.89,15.42Z"/><polygon class="cls-4" points="36 35.05 37.2 35.34 38.88 30.85 37.12 30.43 36 35.05"/><path class="cls-5" d="M35.43,36.13a1.59,1.59,0,0,1,.37-1.53c.51-.31,2.34.57,2.34.57A1.53,1.53,0,0,1,39.27,37v0S35.94,37,35.43,36.13Z"/><polygon class="cls-4" points="41.3 35.87 42.54 35.87 43.12 31.11 41.3 31.11 41.3 35.87"/><path class="cls-5" d="M41,35.48c.42-.43,2.41,0,2.41,0h0A1.53,1.53,0,0,1,45,37v0s-2.89.11-3.94,0C40.62,37,40.73,35.76,41,35.48Z"/><path class="cls-6" d="M41,34.22c.15-2.76.26-5.55.2-7.4,0-.75-.28-3-.28-3s-.37,1.74-.53,2.31a50.34,50.34,0,0,1-2.33,7.59c-.2.48-2.17,0-2-.53A34.29,34.29,0,0,0,37.62,26c.12-1.32.28-6.24.28-6.24l1.45-.93h0l5,.91S44,30.17,43.13,34C43,34.53,41,34.75,41,34.22Z"/><path class="cls-7" d="M43,20.77a2.39,2.39,0,0,1-1.39-.5c-1.66-1.17-3.64.09-3.66.11l-.08.05v-.1c0-.07.2-6.86.2-9A6.46,6.46,0,0,1,40,6.92a1.46,1.46,0,0,1,1.28-.42h.26a1.81,1.81,0,0,1,1.42.77c1.43,2.92,1.55,12.78,1.55,12.78h0A2.06,2.06,0,0,1,43,20.77Z"/><ellipse class="cls-4" cx="41.63" cy="3.33" rx="2.25" ry="2.47"/><path class="cls-4" d="M46.64,20.37s-2.21-6.74-2.28-7.18c0-.22,0-3.61-.22-4.39s-.57-1.24-1.45-1.32-.91,5.22-.3,7.21c.43,1.38,3,6.19,3,6.19a4.72,4.72,0,0,0,.46,1.89c.3.34.93,1.55,1.3,1.26S46.64,20.37,46.64,20.37Z"/><path class="cls-4" d="M51.73,9l.81-.18h0a2.1,2.1,0,0,0-2,.38c-.48.44-.33.88-.39,1.71l0,4.27a24.81,24.81,0,0,0,.31,4A2.72,2.72,0,0,0,50.66,21c.24.34.56.87.77.52s.2-.61-.08-1.4a6.38,6.38,0,0,1-.1-.87A98.76,98.76,0,0,1,51.73,9Z"/><polygon class="cls-4" points="56.16 37.46 57.25 37.46 57.77 33.24 56.16 33.24 56.16 37.46"/><path class="cls-5" d="M55.88,38.52a30.5,30.5,0,0,0,3.52,0v-.05A1.37,1.37,0,0,0,58,37.1a6.07,6.07,0,0,0-2.15,0C55.54,37.21,55.53,38.47,55.88,38.52Z"/><polygon class="cls-4" points="50.44 37.13 51.52 37.3 52.72 33.23 51.13 32.96 50.44 37.13"/><path class="cls-5" d="M53.3,38.65v0a1.38,1.38,0,0,0-1.17-1.55,13.29,13.29,0,0,0-2.13-.3c-.35,0-.53,1.27-.2,1.4A17.23,17.23,0,0,0,53.3,38.65Z"/><circle class="cls-4" cx="52.28" cy="5.4" r="2.19"/><path class="cls-6" d="M55.53,36.1h0c1-.09,1.93-.19,2.86-.2h.05v0c-.23-1.59-.32-3.25-.41-4.85s-.18-3.23-.39-4.78c-.1-.42-.18-.83-.27-1.24-.73-3.39-.53-7.27-2-10.44l0,0h0a7.79,7.79,0,0,0-3.61,1.37l0,0v0a14.45,14.45,0,0,1,0,1.47,5,5,0,0,0-.71,4.39A49,49,0,0,1,51.57,27a21.88,21.88,0,0,1-1.38,8.32l0,0h0a23.79,23.79,0,0,0,2.65.5A98.23,98.23,0,0,0,54,23.12c.26.82.79,4.24,1.06,4.93.16,1.35.21,2.81.25,4.22s.08,2.6.21,3.78Z"/><path class="cls-7" d="M51.59,17.05c1.28-.37,3.52.2,4.68,0l-.54-2.54a4.8,4.8,0,0,1-.11-1.14A6.16,6.16,0,0,0,54.41,9.2a5.22,5.22,0,0,0-1.57-.89h0c-1,.07-1.43-.27-1.79.82C50.74,10,51.59,17.05,51.59,17.05Z"/><path class="cls-4" d="M65.31,16.28c-.24-.43-2.23-.55-2.27-.52l-.94-.57s-4.44-3.42-7.37-5.57l-.89-.45,0,0c-.51.44-.82.73-.67,1.4s.54.83,1.18.9L58,14c1.13.73,4.73,2.45,4.73,2.45a1.61,1.61,0,0,0,1.76.13C64.74,16.26,65.52,16.65,65.31,16.28Z"/><path class="cls-7" d="M54.05,9.13a1.21,1.21,0,0,0-1.16,1.36,1.92,1.92,0,0,0,1.44,1.39s.32-1.83.49-2.26A.76.76,0,0,0,54.05,9.13Z"/><path class="cls-7" d="M51.35,8.6a1.5,1.5,0,0,0-1.19,1.65,1.75,1.75,0,0,0,1.46,1.21A17,17,0,0,1,52,9.14.53.53,0,0,0,51.35,8.6Z"/><path class="cls-8" d="M54.16,3.14a6,6,0,0,0-1.55-.94A3.75,3.75,0,0,0,51.23,2,2.53,2.53,0,0,0,48.9,5.17,3.75,3.75,0,0,1,49,7.06c-.12.37-.6.85-.59,1.25a2,2,0,0,0,.38,1.1.8.8,0,0,0,.49.33c.29.09.63,0,.86.11s.25.79.43,1a1.72,1.72,0,0,0,2.19.15c.52-.55.61-.67.66-1.26,0-.4-.9-.84-.79-1.22s.72-.85.86-1.57c.09-.4-.4-1.14-.28-1.54s.32-.81.58-.89C54.22,4.38,54.82,3.9,54.16,3.14Z"/><path class="cls-8" d="M41.2.47a.4.4,0,0,1-.32-.06l.08.1A.34.34,0,0,1,40.7.43a.88.88,0,0,0,0,.28c-.14,0-.44-.24-.54-.31a.57.57,0,0,0,.18.33c-.28,0-.94,0-1,.21l.19.22c-.16,0-.28,0-.39.09a.27.27,0,0,0-.08.25c0,.09.14.29.22.23A2.41,2.41,0,0,0,39,3c.14,1.51.49,1.87.78,2.16a3.9,3.9,0,0,0,1.65.62c-.51-1-.64-3,.36-3.59a6.84,6.84,0,0,1,1.65-.5,1.35,1.35,0,0,0-.28-.45c-.21-.16.15-.13-.07-.28,0-.07.1-.1.14-.16s0-.21-.1-.25a.63.63,0,0,0-.33,0,.25.25,0,0,0-.22-.27.25.25,0,0,0-.22.08C42.25.28,42.15,0,42,0s-.26.17-.42.27-.3,0-.43-.13A.31.31,0,0,0,41.2.47Z"/><path class="cls-7" d="M43.89,7.78c-.46-.5-1.5-.68-1.91-.12s-.82,2.08-.46,2.62a22,22,0,0,0,3-.12A6.85,6.85,0,0,0,43.89,7.78Z"/><path class="cls-1" d="M10,20.86s.4,3-.22,3.38,3.69.37,3.69.37-1-2.63-.53-3.44Z"/><path class="cls-4" d="M12.56,31.91,11.33,26a2.34,2.34,0,0,0-1.09-1.52,1.26,1.26,0,0,0-1.35.15A1.85,1.85,0,0,0,8,26.79s1.35,3.57,1.35,3.6c.07.44.78,1.48.34,1.55l-5.13.75c-.72-.13-2.2.43-2.33,1.15s2.65.48,3.08.32c1.21-.44,3.77.13,5.13-.14S12.83,33.56,12.56,31.91Z"/><path class="cls-6" d="M6.75,39.07l.07-.7h0l8.93.45,0,.71-.2,4c-1.44,1.1-2.82.22-4.52.83L11,42.86a.17.17,0,0,0-.19-.14.19.19,0,0,0-.14.12l-.15,1.51c-1.48.48-2.72-.07-4.28,0Z"/><circle class="cls-4" cx="11.31" cy="19.47" r="2.73"/><path class="cls-9" d="M7.4,31.85C7.73,28.68,7.23,26.32,9,24A3.79,3.79,0,0,1,11.18,23h.13A4.65,4.65,0,0,1,15,24.45a4.49,4.49,0,0,1,.65.9,4.71,4.71,0,0,1,.54,3s-.61,3.23-.65,4.33c-.05,1.6.51,6.38.51,6.38a.49.49,0,0,1-.31.5c-.06,0-8.67,0-8.67,0A.5.5,0,0,1,6.63,39S7.08,34.89,7.4,31.85Z"/><path class="cls-8" d="M8.72,16.12l-.57-.22A3.89,3.89,0,0,1,11,14.7l-.47-.52a2,2,0,0,1,2.18.74A4.12,4.12,0,0,1,14,16.18h.62l-.26.56.89.56-.91-.1c.55,1.3-.45,3.07-.45,3.07l-2.28-2.83L10.31,18l-.12-.67-1,.89.3-.83a2.67,2.67,0,0,0-.76,1.3,3,3,0,0,1-.44,1.22S7.22,17,8.72,16.12Z"/><path class="cls-4" d="M10.91,38.86s2.2-6.71,2.26-7.14c0-.22,0-3.59.23-4.37S14,26.12,14.84,26s.9,5.19.29,7.16c-.42,1.38-2.92,6.17-2.92,6.17a4.7,4.7,0,0,1-.47,1.87c-.3.34-.92,1.54-1.29,1.25S10.91,38.86,10.91,38.86Z"/><path class="cls-2" d="M12.7,28.78c-.32-.4,0-2,0-2,0-.87.5-2.11,1.35-2.32,1.42-.43,2.37,1.75,2.35,2.32l.12,1.61C16.45,29.73,13.05,29.21,12.7,28.78Z"/><path class="cls-3" d="M9.18,37C8,36.69,4.81,35.67,4.29,34.63a2.43,2.43,0,0,0-1.5-1.32,1.2,1.2,0,0,0-1.43-.78l-.68.17.13.51L0,33.42l.08.29.81-.21.19.73-.81.21.07.29.82-.21.13.51L2,34.85a1.21,1.21,0,0,0,.88-1,2.14,2.14,0,0,1,1,1c.72,1.43,4.75,2.51,5.2,2.62h.07a.24.24,0,0,0,.23-.18A.24.24,0,0,0,9.18,37Z"/></g></g></svg>