<svg xmlns="http://www.w3.org/2000/svg" viewBox="0 0 80.05 44.64"><defs><style>.cls-1,.cls-3{fill:#e5e5e5;}.cls-2{fill:#9d9c9d;}.cls-2,.cls-3,.cls-4,.cls-5,.cls-7{fill-rule:evenodd;}.cls-4{fill:#a9a9a9;}.cls-5{fill:#b1b1b1;}.cls-6{opacity:0.99;}.cls-14,.cls-7,.cls-8{fill:#ff8d12;}.cls-13,.cls-8{font-size:3.17px;font-family:PingFang-SC-Bold, PingFang SC;font-weight:700;}.cls-13,.cls-9{fill:#67a4a4;}.cls-10{fill:#cbcbcb;}.cls-11{fill:#fff;}.cls-12{fill:#f6d6c0;}</style></defs><g id="图层_2" data-name="图层 2"><g id="图层_1-2" data-name="图层 1"><path class="cls-1" d="M74.62,24.33c-.14,0,0-.11-.2-.14v0l0,0a1.5,1.5,0,0,0-.24,0s0-.05-.07-.1-.06,0-.1-.09l-.17-.08c0-.08.12-.17.1-.25s0-.08-.08-.11a.8.8,0,0,1,.27-.41.18.18,0,0,1,.06-.18l.12,0s0-.09.06-.14.23-.07.27-.16a.56.56,0,0,0,.23-.06c.07,0,.18,0,.26,0a.32.32,0,0,0,.22.09c.15.29,0,.63,0,.95-.16.14-.05.33-.28.47-.07.07,0,.16-.05.25a.16.16,0,0,1-.15.12c-.07,0-.11,0-.19,0ZM64.7,26.59a.91.91,0,0,0-.25-.06l0,0a1.36,1.36,0,0,1-.27,0l-.06,0s0-.09-.06-.13l-.06,0c0-.06-.06-.12,0-.2S64.06,26,64,26a5.25,5.25,0,0,1,.64-.26,1.74,1.74,0,0,0,.39-.05c.09,0,.09,0,.19,0h.13l.06-.06,0,0-.25-.05a1,1,0,0,1-.18-.1c0-.07-.1-.12-.12-.21l-.07,0s0-.1,0-.14l0,0-.31,0c-.06,0-.14,0-.18-.08a2.32,2.32,0,0,0-.46,0c-.14,0-.1.07-.23.09a2.42,2.42,0,0,1-.39,0,4.35,4.35,0,0,1-.46-.11,1.2,1.2,0,0,1-.32,0c-.09-.07-.23-.12-.35-.2s0-.06-.08-.11.06-.17,0-.26l-.06,0h-.26q-.37-.08-.72-.18c0,.06-.18.09-.23.16s-.22.06-.28.14a1.64,1.64,0,0,1-.45,0c-.07,0-.09,0-.2.06-.31-.06-.64,0-1-.07a.6.6,0,0,0-.2,0l-.06.07H58.2a.75.75,0,0,0-.26,0c0,.17.14.36-.06.52-.11,0-.13,0-.25.05l-.2,0c-.11,0-.07-.1-.22-.12l-.11-.17,0,0c-.13,0-.09.08-.22.1a1.2,1.2,0,0,1-.32,0,.77.77,0,0,0-.18-.1s0-.08-.1-.1-.1,0-.12-.08l-.21,0-.16-.06s-.1,0-.12-.11,0-.12,0-.21,0-.08.1-.13A.92.92,0,0,0,55.5,24c0-.06-.14-.08-.2-.16s0-.13,0-.2l-.06-.08a5.35,5.35,0,0,0-.71,0l-.09,0a.86.86,0,0,1,0-.45c0-.06.17-.05.21-.11v-.07a.9.9,0,0,1,.37-.2,1,1,0,0,1,.28-.14c.06,0,.06-.08.06-.14a.37.37,0,0,0,.14-.14c0-.07,0-.13,0-.2s0-.17,0-.24l-.08-.06-.14,0c-.11-.12-.21-.25-.3-.37h-.19a1,1,0,0,0-.22.16,1.74,1.74,0,0,1-.52,0,3,3,0,0,1-.58-.22h-.26l-.16.06c-.08,0-.12,0-.25.05h-.07l-.13,0-.32.12a1.84,1.84,0,0,1-.56.11l0,0a1.43,1.43,0,0,1-.2.05h-.13a.5.5,0,0,1-.2.07,3.31,3.31,0,0,1-.77,0l-.15-.09c0-.06,0-.1,0-.17a1.25,1.25,0,0,0-.37-.16.42.42,0,0,0-.22-.12l-.06-.07-.13,0-.06-.06a2.79,2.79,0,0,0-.46-.07L48.76,21h-.38a2.73,2.73,0,0,0-.29.13c0,.06-.07.1-.11.17a1.34,1.34,0,0,1-.2.05l-.25,0c-.16-.09,0-.26-.16-.37a1.39,1.39,0,0,1-.32,0c-.08,0-.1-.08-.21-.1h-.32l-.21,0c-.18,0-.42-.09-.64-.11s-.11,0-.19-.06a2.48,2.48,0,0,1-.46,0,.87.87,0,0,1-.12-.14l-.33-.07a.41.41,0,0,1-.1-.09.16.16,0,0,0,0-.1l-.3-.06-.07-.07L44,20c-.06,0-.05-.12-.06-.18l-.11-.05-.14-.05c-.08,0-.23,0-.33-.07a3.16,3.16,0,0,0-1-.65h-.2a.82.82,0,0,1-.25.11,1.85,1.85,0,0,0-.25-.06,1.79,1.79,0,0,0-.36-.3c-.06-.05-.09-.13-.17-.18a2.55,2.55,0,0,1-.39-.24h-.14a.41.41,0,0,0-.22-.13c-.1-.21,0-.41-.06-.63.06,0,0-.09.06-.14s.12-.05.25-.08h.06a.5.5,0,0,0,.22.1l.06,0a1.82,1.82,0,0,0-.12-.51l.19-.18a.73.73,0,0,1-.25-.56c0-.09-.18,0-.24-.08h-.13a2.25,2.25,0,0,1-.53-.28c-.1,0-.12-.05-.25-.07l0,0c-.11-.16,0-.34-.11-.52-.1,0-.12-.11-.23-.15s-.2-.08-.35-.14a.17.17,0,0,1,0-.14,3.09,3.09,0,0,1,.37-.1l0,0V14.5c0-.06.1-.09.14-.17s0-.1,0-.14,0-.08-.08-.1-.28,0-.46-.05a.3.3,0,0,0-.15-.09l0-.08,0-.06a.82.82,0,0,0,.2-.12.23.23,0,0,1,0-.28c.09,0,.11,0,.19-.05l0,0a1.12,1.12,0,0,0,.37-.14,4.52,4.52,0,0,1,.53,0l.12,0c.18,0,.33.05.52,0a.32.32,0,0,1,.22.09,3.11,3.11,0,0,0,.32,0,1.43,1.43,0,0,1,.33-.1l.06-.07s.11,0,.19-.05a.91.91,0,0,0,.44-.06,5.74,5.74,0,0,1,1.17,0,2.47,2.47,0,0,1,.57-.07l.12,0c.08-.09.25-.21.21-.35l.13-.06c.07,0,.07-.05.15-.08h.06l.05,0c0-.24,0-.51,0-.77.11,0,0-.08.09-.13s.11-.08.23-.09a2.52,2.52,0,0,1,1,.08h.51l.06-.06c0-.07,0-.14.07-.24l.12,0,0-.07A.53.53,0,0,1,47,11a.83.83,0,0,1,.16-.18c.11,0,.06-.08.15-.12s.12-.07.24-.09.27.09.49.11.13.08.26.09h.06l.24,0a1.58,1.58,0,0,0,.38,0c.08,0,.06-.1.14-.13a.28.28,0,0,1,.08-.31s.18,0,.18-.07h.25a.75.75,0,0,0,.25-.07l0,0c.06,0,.06-.07.14-.1A3,3,0,0,1,51,10c.1.12,0,.29.08.44a.63.63,0,0,1,.23.12.22.22,0,0,1,.18.11l.27.06c.06,0,.1,0,.18,0s.12.09.25.1,0,.08.08.1a.89.89,0,0,0,.06.31l.08,0c.14.11,0,.26.16.39-.06.09-.08.2-.26.29a.54.54,0,0,0,0,.28,1.78,1.78,0,0,0,.53.08l.1,0a3.5,3.5,0,0,1,.78.14h.14c.19,0,.29.13.51.17a.58.58,0,0,0,.06.15c.13,0,.13.1.27.14h.06A.53.53,0,0,1,55,13c.07.06,0,.17.07.25l.13.09s.08.07.06.14.06.06.14.09v.07s.08,0,.1.1l.23.06c.12,0,.12.05.24.06a7.11,7.11,0,0,1,.91.07L57,14c.52,0,1,0,1.49,0,.09,0,.11.06.23.07h.26c.09,0,.19.06.27.1s0,.05.06.1a5.19,5.19,0,0,1,.52.06c0,.07.19.1.28.17.26,0,.49,0,.78,0a1.36,1.36,0,0,0,.24.06,2.25,2.25,0,0,0,.62-.17l.2,0,.08-.06.33,0,.1-.06c.33-.05.67-.06,1-.11.16,0,.38,0,.57,0a5.19,5.19,0,0,0,.83,0c.07,0,.09-.07.13-.12a2.55,2.55,0,0,1,.33-.17h.19c.07,0,.07-.1.13-.14a.21.21,0,0,0,.15-.07v0l-.11-.06c-.06-.07-.2-.14-.26-.24s0-.18,0-.28.14,0,.16-.08a1.3,1.3,0,0,1,.25-.06c.39,0,.76.09,1.17,0,.09,0,.11,0,.19-.05l0,0,.12,0a3.6,3.6,0,0,0,.39-.2c.12,0,.2,0,.33,0l.08-.05a1.2,1.2,0,0,0,.33-.06c0-.09.11-.15.11-.25l0,0a.38.38,0,0,1,.17-.06h.2c.17,0,.25-.15.45-.22h.33l.15-.06c.2,0,.4,0,.65,0l.08-.05c0-.05-.06-.06-.11-.1s-.08-.05-.15-.08-.17-.08-.26-.13l-.13,0-.07-.08a.6.6,0,0,0-.32,0l-.08.07c-.13,0-.17.05-.29.09a.74.74,0,0,1-.23,0l-.12,0h-.25l-.17.07-.33,0L68,11.41l0,0s-.08,0-.1-.1a1.34,1.34,0,0,1,.1-.38l.07,0c0-.1.1-.17.15-.28l.07,0c0-.11.16-.19.25-.29l.05,0c.25,0,.49,0,.78,0a1.05,1.05,0,0,0,.19,0,3,3,0,0,1,.41-.23c.08-.09,0-.18.08-.28s.14-.18.24-.28l.07,0c.06,0,.06-.08.06-.14l.15-.08.07-.07c0-.07,0-.13,0-.21l-.05,0-.32,0L70,8.77V8.7a.7.7,0,0,0,.17-.13h.17a.37.37,0,0,0,.18-.05s0-.07.08-.1h.13l0,0,0,0a2.38,2.38,0,0,1,.39,0c.1,0,.12-.06.25-.07s.14,0,.26-.05a1.76,1.76,0,0,0,.39,0,2.36,2.36,0,0,0,.39,0,1.3,1.3,0,0,1,.41.11.39.39,0,0,0,.17-.06,3.08,3.08,0,0,1,.33,0s.19,0,.25.09,0,.08.12.1a1.22,1.22,0,0,0,.31.17c0,.05,0,.11.09.14l.07,0c.06,0,0,.11.12.14a.28.28,0,0,1,.22.16l.17.14a2,2,0,0,1,.2,0s0,.09.11.1a1.32,1.32,0,0,0,.13.27s.09.05.11.09l.1.05a6.7,6.7,0,0,0,.91,0,3,3,0,0,1,.32.12,1.27,1.27,0,0,1,.33,0,.8.8,0,0,0,.28.14.17.17,0,0,0,.13.08.49.49,0,0,1,.1.13l0,.07h.08a1.3,1.3,0,0,1,.25.1,5,5,0,0,0,.63-.09c.1,0,.1-.12.26-.14,0-.05.11-.07.09-.14a.69.69,0,0,1,.34-.09,3.16,3.16,0,0,1,.45-.21h.13l.12,0h.05l.13.06a.11.11,0,0,1,0,.11.34.34,0,0,0-.13.1c0,.06,0,.11,0,.17a.18.18,0,0,1,0,.28l-.07,0c-.15.33,0,.72-.08,1.08,0,0,0,.1-.12.14s-.08,0-.12.09a2.54,2.54,0,0,0-.78,0l0,.08c-.06,0-.22,0-.28.12s.06.1.06.14.22.15.22.28c.17.12.11.29.19.46-.08,0-.15.11-.25.16s0,.19-.11.29l0,0a.6.6,0,0,1-.19,0l0-.07a.54.54,0,0,0-.2,0c-.1.06-.14.16-.26.25a3.77,3.77,0,0,0-.47.27s.06.05.1.1-.06.07-.1.13l-.13,0a4,4,0,0,1-.91,0,.53.53,0,0,0-.19,0L76,14.2v0l-.1.06s-.08,0-.11.1v0c0,.07-.17.09-.2.17l0,.07c-.19.05-.13.12-.19.16a.47.47,0,0,0-.28.16v0a2.05,2.05,0,0,1-.89.16,1.34,1.34,0,0,0-.26.09s0,.07-.06.11a.49.49,0,0,1-.16.1s0,.06-.06.11l-.13.07s0,.07-.08.09h-.07a1.46,1.46,0,0,1-.13.09,3,3,0,0,1-.45.09s-.08-.07-.13-.13a.13.13,0,0,0,.07-.11l.08,0c.17-.16,0-.37.08-.55l.11,0c.07,0,.05-.1.13-.13a.41.41,0,0,0-.05-.18c-.12,0-.14.05-.27.06l-.2,0c-.11.05-.12.11-.19.18s-.08,0-.14.09-.06.06-.08.11l-.45.11a2.53,2.53,0,0,0-.35.28s-.06,0,0,.1a2.1,2.1,0,0,0-.26.13c-.08,0-.12,0-.25,0l-.2,0a.38.38,0,0,0-.19,0c-.12,0,0,.08,0,.14a1,1,0,0,0,.21.16c.12,0,.3,0,.45,0a.87.87,0,0,1,.46.17v.16l-.11,0,.06.07.2,0a1.07,1.07,0,0,0,.37-.22h.12a1.51,1.51,0,0,1,.78-.21l.14.09a1.09,1.09,0,0,1,.32.07l.07,0c.1,0,.16.06.32.06H74a.56.56,0,0,1,.2.06l0,.07a2.45,2.45,0,0,1-.71.3l0,0c-.06,0-.21,0-.32,0l0,0s0,.12-.11.16l-.07,0a.53.53,0,0,0-.12.14,1.08,1.08,0,0,0-.48.27c-.06,0-.16,0-.18.11s-.08.06-.14.11.12.05.16.11a1.63,1.63,0,0,0,.39,0c.09.07.22,0,.28.1L73,18c.07,0,.05.12.07.18l.15.09c0,.16.17.31.13.49l0,0c.09.06.26.06.37.16a.71.71,0,0,1,.19.2l.13.07c0,.06.14.13.14.21a.71.71,0,0,0,.29.14l.08.08a2.14,2.14,0,0,1-.37.17,1,1,0,0,1-.2.06H73.8l-.07.06,0,0c.12,0,.29,0,.45,0a1.41,1.41,0,0,0,.41.18c0,.14.13.27.1.42l-.06.1c-.1.09,0,.21,0,.32l0,0-.26.07c-.09.05-.11.13-.24.18s-.15.21-.23.32-.09.09-.11.18-.07.06-.09.13a.17.17,0,0,1,0,.14.41.41,0,0,0-.17.05.08.08,0,0,1-.08.09c0,.09,0,.18,0,.28a2,2,0,0,0-.18.21l0,0h-.06l0,0s0,.06,0,.11l-.12,0c-.11,0-.11.15-.21.19l-.12.05a2.91,2.91,0,0,1-.31,0l-.09.06s0,.09,0,.14l-.11,0c-.15,0-.19.14-.37.22l-.19,0,0,0c0,.05.11,0,.14.08l0,0h-.21c0,.08-.22.08-.3.14s-.15.16-.27.2h-.07a1.22,1.22,0,0,1-.67.12l-.17.08a1.76,1.76,0,0,0-.39,0l-.06,0c-.17,0-.31.13-.52.16l-.07,0a2.61,2.61,0,0,1-.26.06l-.06,0s0-.05,0-.1l-.11,0s0,.06-.09.09l-.1,0H68a.41.41,0,0,0-.25.09c0,.05-.08.05-.1.1a2.52,2.52,0,0,1-.58.06l-.06.06a.64.64,0,0,1-.2,0,3.43,3.43,0,0,0-.33.12,2.17,2.17,0,0,0-.36,0l-.06,0a1.43,1.43,0,0,1-.2.05,1.48,1.48,0,0,0-.19,0l-.07.06.07,0a.6.6,0,0,1,.12.14c0,.06-.11.1-.11.17s-.16,0-.2.08v0c.25.06.49,0,.77.05l.09,0a.17.17,0,0,1-.05.14l-.13,0a2,2,0,0,0-.25.16c0,.08.06.19,0,.27l-.13,0-.06.07a1.43,1.43,0,0,1-.37.08s-.15,0-.19.07Z" transform="translate(0 -0.33)"/><polygon class="cls-2" points="59.21 14.22 52.98 17.59 60.9 20.86 67.04 17.81 59.21 14.22"/><polygon class="cls-3" points="56.39 6.73 52.66 12.87 60.9 16.28 64.63 10.13 56.39 6.73"/><polygon class="cls-4" points="60.9 20.86 52.98 17.59 52.98 13.01 60.9 16.28 60.9 20.86"/><polygon class="cls-3" points="64.63 10.13 60.9 16.28 61.28 16.09 67 13.26 67.44 13.04 64.63 10.13"/><polygon class="cls-5" points="64.54 10.72 67.03 13.23 67.04 13.23 67.04 13.24 67.04 17.81 60.9 20.86 60.9 16.28 61.28 16.09 64.54 10.72"/><g class="cls-6"><polygon class="cls-7" points="64.81 15.18 64.81 18.77 63.24 19.55 63.23 15.96 64.81 15.18"/></g><g class="cls-6"><polygon class="cls-7" points="64.28 12.95 64.28 13.98 63.55 14.33 63.55 13.3 64.28 12.95"/></g><g class="cls-6"><polygon class="cls-7" points="57.91 16.3 57.91 17.47 58.98 17.92 58.98 16.75 57.91 16.3"/></g><g class="cls-6"><polygon class="cls-7" points="54.75 15.12 54.75 16.29 55.81 16.74 55.81 15.57 54.75 15.12"/></g><g class="cls-6"><polygon class="cls-7" points="62.42 16.34 62.42 18.12 61.66 18.5 61.66 16.72 62.42 16.34"/></g><g class="cls-6"><polygon class="cls-7" points="66.33 14.41 66.33 16.19 65.57 16.58 65.57 14.79 66.33 14.41"/></g><text class="cls-8" transform="translate(56.23 2.73)">贫困家庭</text><text class="cls-8" transform="translate(0.11 2.73)">家庭能源基金</text><path class="cls-9" d="M51.27,10.5l-1.14.07,1,.89a29.35,29.35,0,0,0-16.78,6.69.4.4,0,0,0,0,.56.44.44,0,0,0,.34.12.39.39,0,0,0,.22-.11,28.53,28.53,0,0,1,16.29-6.47l-.89,1,1.14-.07,1.26-1.42Z" transform="translate(0 -0.33)"/><rect class="cls-10" x="29.15" y="22.58" width="7.16" height="13.58" rx="1.46"/><rect class="cls-11" x="29.49" y="23.04" width="6.48" height="12.65" rx="0.81"/><path class="cls-9" d="M35.12,28.89,32.3,31.66l-.92.9a.19.19,0,0,1-.12,0c-.1,0-.22-.09-.15-.21l.37-.73c.26-.54.56-1.07.82-1.58,0-.08.17-.27.15-.34s-.39-.12-.46-.12l-1-.22a.18.18,0,0,1-.1-.27l3.06-3,.7-.68c0-.05.08-.05.13-.05a.15.15,0,0,1,.14.22l-.36.68-.32.61c-.17.32-.31.61-.46.9,0,.1-.22.31-.22.44a2.25,2.25,0,0,0,.88.19l.6.12C35.17,28.64,35.22,28.79,35.12,28.89Z" transform="translate(0 -0.33)"/><path class="cls-12" d="M47,42.15c.58,1.26-2.17,3.51-3.56,2.61-.72-.47-3.35-2-3.35-2l-5.2-3L33.67,39v0a.31.31,0,0,1,.09-.18l.05,0h0l0,0h0a1.28,1.28,0,0,1,.65-.17,3,3,0,0,1,1.56.34c1,.49,1.18,1,1.51.37.43-.77-4.08-7.8-4.08-7.8-.4-1-.11-1.37.08-1.47h0l.06,0h.05l.64.86h0l0,.05h0l3.78,4.08c6-3.22,6.63,4.48,6.63,4.48A11.51,11.51,0,0,1,47,42.15Z" transform="translate(0 -0.33)"/><rect class="cls-10" x="31.75" y="22.69" width="2.51" height="0.7" rx="0.32"/><path class="cls-9" d="M33,18.28a29.46,29.46,0,0,0-16.81-6.64l1-.89-1.14-.07L14.65,12l1.27,1.42,1.14.06-.89-1a28.5,28.5,0,0,1,16.3,6.43.4.4,0,0,0,.22.1.37.37,0,0,0,.34-.12A.4.4,0,0,0,33,18.28Z" transform="translate(0 -0.33)"/><text class="cls-13" transform="translate(40.18 18.43) rotate(-7.43)">全部</text><text class="cls-13" transform="translate(17.41 17.34) rotate(7.26)">最多1/3</text><text class="cls-13" transform="translate(18 10.09) rotate(7.26)">转化</text><text class="cls-13" transform="translate(36.37 11.61) rotate(-7.43)">捐赠</text><path class="cls-14" d="M16.83,16.73c0-1.35-1.84-2.4-4.08-2.4h-.48V10.41a1.06,1.06,0,0,0,0-.31c0-1.32-1.71-2.36-3.95-2.36s-4,1-4,2.36a1.55,1.55,0,0,0,0,.31v1.08H4c-2.25,0-4,1-4,2.36a1.6,1.6,0,0,0,0,.31v5.51H0C.11,20.91,1.81,21.88,4,21.88s4-1,4-2.22h0v-.23c.13,0,.14,0,.28,0l.44,0v.06h0v.15c0,1.3,1.76,2.43,4,2.43s4-1,4-2.35v-.15h0V17a1.61,1.61,0,0,0,0-.31Zm-4-1.64c2,0,3.35.86,3.35,1.64s-1.38,1.64-3.35,1.64-3.36-.87-3.36-1.64,1.38-1.64,3.36-1.64Zm3.39,3v.42C16,19.32,14.51,20,12.81,20s-3.2-.69-3.39-1.52v-.42a5.16,5.16,0,0,0,3.39,1.06,5.18,5.18,0,0,0,3.39-1.06ZM8.34,14.73H8.06v-.57l0-.19h.25a4.86,4.86,0,0,0,3.28-1.06v.32c-.18.82-1.61,1.5-3.28,1.5Zm3.34-.32-.18,0,.18-.14v.11ZM8.34,8.49c1.94,0,3.25.85,3.25,1.61s-1.31,1.62-3.25,1.62S5,10.87,5,10.1,6.39,8.49,8.34,8.49ZM5,11.43l.19.15-.19,0v-.12Zm-1,.8c1.95,0,3.36.85,3.36,1.61S5.93,15.46,4,15.46s-3.3-.85-3.3-1.62S2,12.23,4,12.23ZM.64,15.17a5.14,5.14,0,0,0,3.34,1,5.29,5.29,0,0,0,3.39-1v.41c-.18.81-1.72,1.5-3.39,1.5S.83,16.39.64,15.58v-.41Zm0,1.48A5,5,0,0,0,4,17.71a5.18,5.18,0,0,0,3.39-1.06V17c-.18.81-1.72,1.5-3.39,1.5S.83,17.79.64,17v-.32ZM.64,18A5,5,0,0,0,4,19.1,5.18,5.18,0,0,0,7.37,18v.32c-.18.82-1.72,1.5-3.39,1.5S.83,19.18.64,18.36V18ZM4,21.25c-1.74,0-3.26-.74-3.35-1.59h0v-.23A5,5,0,0,0,4,20.49a5.18,5.18,0,0,0,3.39-1.06v.23h0c-.09.85-1.67,1.59-3.41,1.59Zm4-7.93a2.48,2.48,0,0,0-.88-1,6.75,6.75,0,0,0,1.22.11,5,5,0,0,0,3.28-1v.41c-.18.81-1.61,1.5-3.28,1.5l-.34,0Zm.78,5.47-.44,0H8.06v-.67h.72v.66Zm0-1.3-.44,0H8.06v-.76h.69a1.15,1.15,0,0,0,0,.26v.49Zm.09-1.39-.53,0H8.06v-.76h.28a6.83,6.83,0,0,0,1.22-.11,2.2,2.2,0,0,0-.69.85Zm3.94,5.32c-1.81,0-3.39-.78-3.41-1.68v-.17h0a5.08,5.08,0,0,0,3.4,1.08,5.05,5.05,0,0,0,3.39-1.08h0v.15c0,.91-1.6,1.7-3.41,1.7Z" transform="translate(0 -0.33)"/></g></g></svg>