<svg xmlns="http://www.w3.org/2000/svg" viewBox="0 0 72.34 52.53"><defs><style>.cls-1{fill:#e5e5e5;}.cls-2,.cls-3,.cls-4{fill:none;stroke:#e5e5e5;stroke-miterlimit:10;}.cls-2{stroke-width:0.98px;}.cls-4{stroke-width:0.99px;}.cls-5{fill:#ecc9b1;}.cls-6{fill:#f6d6c0;}.cls-7{fill:#6c63ff;}.cls-14,.cls-8{fill:#67a4a4;}.cls-9{fill:#fff;}.cls-10{fill:#a9a9a9;}.cls-11{fill:#b1b1b1;}.cls-12{fill:#cbcbcb;}.cls-13{fill:#3f3f3f;}.cls-14{font-size:3.53px;font-family:PingFang-SC-Heavy, PingFang SC;font-weight:800;}</style></defs><g id="图层_2" data-name="图层 2"><g id="图层_1-2" data-name="图层 1"><circle class="cls-1" cx="15.5" cy="51.71" r="0.82"/><circle class="cls-1" cx="67.14" cy="51.71" r="0.82"/><rect class="cls-2" x="13.46" y="39.86" width="53.68" height="11.78"/><path class="cls-3" d="M69.59,51.71H67.14V27.6a2.35,2.35,0,0,1,2.35-2.35h0a2.35,2.35,0,0,1,2.35,2.35V48.83C71.84,50.42,70.83,51.71,69.59,51.71Z"/><path class="cls-4" d="M67.14,42.48H13.46V38.8a146.33,146.33,0,0,1,53.68,0Z"/><path class="cls-5" d="M64.55,26.16s.32,2.37-.16,2.64,2.87.29,2.87.29-.75-2.06-.41-2.68Z"/><path class="cls-6" d="M57.8,27.18a1.34,1.34,0,0,1,0,.2l4.82,3.32,1.28-.61,1.18,1.82-2.17,1.3a1,1,0,0,1-1.13-.12l-4.88-4.53A1.24,1.24,0,1,1,57.77,27l0,.15Z"/><path class="cls-7" d="M62.72,30.41a.5.5,0,0,1,.29-.33L65.43,29a1.47,1.47,0,0,1,1.62,2.46l-2,1.77a.53.53,0,0,1-.75,0l0-.06-1.46-2.25A.53.53,0,0,1,62.72,30.41Z"/><path class="cls-8" d="M57.74,27.4h0l-.06-.91c0-.3-.21-.52-.42-.5h0l-1.41.1c-.21,0-.6.28-.58.57l0,.24.34,4.77c0,.3.45.5.66.49h0l1.41-.1c.21,0,.36-.27.34-.56h0l-.25-3.45h0Z"/><path class="cls-9" d="M57.57,26.5l.36,5c0,.22-.1.41-.26.42l-1.41.1c-.16,0-.3-.16-.32-.37l-.36-5c0-.22.1-.4.26-.42H56a.22.22,0,0,0,.09.24h.06l.8-.06c.08,0,.13-.09.12-.19a.15.15,0,0,0,0-.07l.18,0C57.41,26.11,57.55,26.28,57.57,26.5Z"/><path class="cls-5" d="M43.48,36.51l-.68-2-4.64,2.24s-3.51-.17-4,.3c-.82.83,2,1.11,3.11,1.52.44.17,1.34-.39,1.34-.39Z"/><path class="cls-10" d="M57.85,39a6.22,6.22,0,0,1-3.14-.65l-6-4.05L41.81,36.9a.76.76,0,0,1-1-.43l-.34-.82a.75.75,0,0,1,.39-1l6.64-3a3.83,3.83,0,0,1,2.54-.22L59.3,33.8l2.44,2.9,0,0A5.1,5.1,0,0,1,57.85,39Z"/><circle class="cls-6" cx="65.38" cy="24.05" r="2.9"/><path class="cls-1" d="M62.4,38l-4.66-3.47a58.8,58.8,0,0,1,4.89-5.37c.35-.28,1.2-.67,1.5-.93A2.24,2.24,0,0,1,67.83,30a1.87,1.87,0,0,1-.1.62A13.08,13.08,0,0,1,65.66,35a27.36,27.36,0,0,1-3.22,3Z"/><path class="cls-6" d="M43.79,37.47l-.69-2-4.63,2.24s-3.51-.17-4,.3c-.82.83,2,1.11,3.11,1.52.45.17,1.34-.39,1.34-.39Z"/><path class="cls-11" d="M58.59,40.25a6.2,6.2,0,0,1-3.14-.66l-6-4.05-7,2.57a.75.75,0,0,1-.95-.43l-.34-.82a.75.75,0,0,1,.39-1l6.64-3a3.83,3.83,0,0,1,2.54-.22L60,35l2.44,2.89,0,0A5.11,5.11,0,0,1,58.59,40.25Z"/><path class="cls-6" d="M57.35,30.83c1.37.38,5.35,1.19,5.77.94a5,5,0,0,0,.9-1.1l1.84,1.14s-1.66,2.43-2.47,2.48c-1.66.1-6.35-2-6.35-2a3.27,3.27,0,0,1-1.59-.88c-.45-.52-.73-1.67-.21-2.11S56.79,30.68,57.35,30.83Z"/><path class="cls-12" d="M63.08,31.47A.56.56,0,0,1,63.2,31l1.72-2a1.47,1.47,0,0,1,2.51,1.54L66.38,33a.54.54,0,0,1-.7.28l-.07,0-2.28-1.4A.57.57,0,0,1,63.08,31.47Z"/><path class="cls-13" d="M62.9,21l-.59-.24a4,4,0,0,1,2.94-1.23L64.77,19a2,2,0,0,1,2.24.76,4.25,4.25,0,0,1,1.36,1.29H69l-.26.58.92.58-1-.11c.58,1.34-.46,3.16-.46,3.16l-2.34-2.91L64.53,23l-.13-.69-1,.91.31-.85a2.66,2.66,0,0,0-.78,1.33,3.19,3.19,0,0,1-.46,1.26S61.35,21.91,62.9,21Z"/><circle class="cls-1" cx="6.47" cy="9.68" r="3.17"/><rect class="cls-1" x="6.16" y="3.49" width="0.53" height="2.56" transform="translate(12.85 9.54) rotate(180)"/><rect class="cls-1" x="8.62" y="4.12" width="0.53" height="2.56" transform="translate(13.87 14.52) rotate(-150)"/><rect class="cls-1" x="10.43" y="5.9" width="0.53" height="2.56" transform="matrix(-0.5, -0.87, 0.87, -0.5, 9.83, 20.04)"/><rect class="cls-1" x="11.12" y="8.35" width="0.53" height="2.56" transform="translate(1.75 21.01) rotate(-90)"/><rect class="cls-1" x="10.48" y="10.81" width="0.53" height="2.56" transform="translate(-5.1 15.35) rotate(-60)"/><rect class="cls-1" x="8.7" y="12.62" width="0.53" height="2.56" transform="translate(-5.75 6.35) rotate(-30)"/><rect class="cls-1" x="6.25" y="13.3" width="0.53" height="2.56"/><rect class="cls-1" x="3.79" y="12.67" width="0.53" height="2.56" transform="translate(7.52 -0.16) rotate(30)"/><rect class="cls-1" x="1.98" y="10.89" width="0.53" height="2.56" transform="translate(11.66 4.14) rotate(60)"/><rect class="cls-1" x="1.3" y="8.44" width="0.53" height="2.56" transform="translate(11.29 8.16) rotate(90)"/><rect class="cls-1" x="1.93" y="5.98" width="0.53" height="2.56" transform="translate(9.58 8.99) rotate(120)"/><rect class="cls-1" x="3.71" y="4.17" width="0.53" height="2.56" transform="translate(10.14 8.18) rotate(150)"/><rect class="cls-3" x="0.5" y="0.5" width="25.36" height="24.27" transform="translate(26.36 25.27) rotate(180)"/><line class="cls-3" x1="16.78" y1="0.5" x2="16.78" y2="24.77"/><line class="cls-3" x1="15.19" y1="0.5" x2="15.19" y2="24.77"/><path class="cls-12" d="M25.29,21.11H55.77a1.44,1.44,0,0,0,1.44-1.44V4.16a1.44,1.44,0,0,0-1.44-1.44H25.29a1.44,1.44,0,0,0-1.44,1.44V19.67A1.44,1.44,0,0,0,25.29,21.11Z"/><path class="cls-9" d="M25.26,20.45h30.6a.78.78,0,0,0,.77-.78V4.11a.78.78,0,0,0-.77-.78H25.26a.77.77,0,0,0-.76.78V19.67A.77.77,0,0,0,25.26,20.45Z"/><path class="cls-12" d="M53.94,24a.54.54,0,0,0,.22,0,.55.55,0,0,0,.34-.51V20.56l-4.29-.11,3.34,3.35A.59.59,0,0,0,53.94,24Z"/><text class="cls-14" transform="translate(29.42 9.99)">你昨天节省了<tspan x="0" y="6.17">1.3kW•h 电</tspan></text></g></g></svg>