<svg xmlns="http://www.w3.org/2000/svg" viewBox="0 0 72.1 37.58"><defs><style>.cls-1{fill:#f6d6c0;}.cls-2{fill:none;stroke:#e9ccb8;stroke-miterlimit:10;stroke-width:0.45px;}.cls-3{fill:#cbcbcb;}.cls-4{fill:#fff;}.cls-5{fill:#67a4a4;}.cls-6{fill:#f1f1f1;}.cls-7{fill:#e5e5e5;}.cls-8,.cls-9{fill:#ff8d12;opacity:0.99;}.cls-9{font-size:5px;font-family:PingFang-SC-Heavy, PingFang SC;font-weight:800;}</style></defs><g id="图层_2" data-name="图层 2"><g id="图层_1-2" data-name="图层 1"><path class="cls-1" d="M16.78,11.27c-.37,0-.65.38-.74.49C14.76,13.43,8.59,18,7.75,17.33c-.59-.48.63-4.25.13-4.95-.06-.08-.62-.87-1-.74-.53.18.58,2.08-.5,3.95A15.34,15.34,0,0,1,5,17.33a11.42,11.42,0,0,0-1.36,3.46,9.81,9.81,0,0,1-.49,2.72,12.06,12.06,0,0,1-1.86,2.6c-.74,1-1.84,2.06-1,4.1s3.65,1.63,5.37.6c.58-.35.78-1.61,1.11-2.48A36.19,36.19,0,0,0,10.23,27c2.69-1.36,3.93-2.43,4.57-3.46,1.2-1.9,1.07-5.11-.24-5.81a1.11,1.11,0,0,0-.5-.14c-.21-.12-.45-.23-.74-.36a4.88,4.88,0,0,0-1-.32,23.87,23.87,0,0,1,3.08-2.15,9.14,9.14,0,0,0,2-1.61,1.06,1.06,0,0,0,.37-.62A1.18,1.18,0,0,0,16.78,11.27Z"/><path class="cls-2" d="M6.33,23.94A7.94,7.94,0,0,0,10,19a7.36,7.36,0,0,0-.12-3.59"/><path class="cls-1" d="M17.15,16.09c.37.3.56.45.62.62a1.15,1.15,0,0,1-.62,1.36,1.18,1.18,0,0,1-1.48-.5,1.35,1.35,0,0,1,.12-1.36c.06-.08.35-.51.75-.49C16.7,15.73,16.86,15.85,17.15,16.09Z"/><path class="cls-1" d="M16.54,18.44a.86.86,0,0,0-.38.62.89.89,0,0,0,.87.74.87.87,0,0,0,.74-.37.9.9,0,0,0-.25-1.24C17.1,18,16.59,18.39,16.54,18.44Z"/><path class="cls-1" d="M16.41,21.53a1,1,0,0,0-.12,1.11c.05.12.19.44.49.5s.7-.32.74-.37a1,1,0,0,0,.13-1.12,1,1,0,0,0-.74-.24A.76.76,0,0,0,16.41,21.53Z"/><rect class="cls-3" x="7.76" y="9.76" width="9.03" height="17.13" rx="1.83"/><rect class="cls-4" x="8.19" y="10.35" width="8.17" height="15.96" rx="1.02"/><circle class="cls-5" cx="12.62" cy="16.85" r="3.4"/><path class="cls-6" d="M9.94,17.1a.36.36,0,0,0,.4.28c.22,0,.31-.09.31-.23s-.09-.22-.41-.29c-.51-.12-.64-.31-.64-.56s.24-.55.69-.55.7.26.73.54h-.41c0-.12-.09-.24-.33-.24s-.27.07-.27.2.09.18.39.25c.55.13.67.34.67.6s-.26.58-.76.58-.73-.23-.78-.58Z"/><path class="cls-6" d="M12.58,17.2a.58.58,0,0,1-.63.49.65.65,0,0,1-.67-.73.69.69,0,0,1,.69-.75.55.55,0,0,1,.61.5H12.2a.22.22,0,0,0-.24-.19c-.18,0-.28.15-.28.43s.11.43.28.43a.23.23,0,0,0,.24-.18Z"/><path class="cls-6" d="M14,17.29a2.86,2.86,0,0,0,0,.37h-.37a.68.68,0,0,1,0-.14.42.42,0,0,1-.4.17.44.44,0,0,1-.48-.44c0-.33.25-.48.67-.48h.2v-.08c0-.1,0-.2-.22-.2s-.2.07-.22.17h-.37c0-.25.18-.45.61-.45s.58.15.58.49ZM13.62,17h-.16c-.23,0-.32.07-.32.21a.18.18,0,0,0,.2.19c.25,0,.28-.17.28-.36Z"/><path class="cls-6" d="M14.35,16.6v-.36h.38s0,.14,0,.18a.42.42,0,0,1,.41-.21c.28,0,.46.19.46.55v.9h-.39V16.8c0-.16-.05-.27-.22-.27s-.26.09-.26.34v.79h-.4Z"/><path class="cls-1" d="M30.3,34c.72,1.58-2.75,4.42-4.5,3.28-.91-.59-4.22-2.53-4.22-2.53L15,31,13.45,30s0,0,0-.06a.43.43,0,0,1,.11-.21l.06-.07h0l0,0,0,0a1.61,1.61,0,0,1,.82-.21,3.83,3.83,0,0,1,2,.42c1.23.62,1.49,1.23,1.91.48.54-1-5.14-9.85-5.14-9.85-.51-1.29-.14-1.72.09-1.85h0l.08,0,0,0h0l.81,1.08,0,0,0,.06h0l4.78,5.15c7.55-4.07,8.36,5.65,8.36,5.65A14.43,14.43,0,0,1,30.3,34Z"/><rect class="cls-3" x="11.03" y="9.9" width="3.17" height="0.88" rx="0.4"/><path class="cls-3" d="M70,26.34H26.39a2.08,2.08,0,0,1-2.07-2.07V2.07A2.07,2.07,0,0,1,26.39,0H70A2.07,2.07,0,0,1,72.1,2.07v22.2A2.07,2.07,0,0,1,70,26.34Z"/><path class="cls-4" d="M70.09,25.3H26.41a1.1,1.1,0,0,1-1.09-1.12V2A1.1,1.1,0,0,1,26.41.84H70.09A1.11,1.11,0,0,1,71.19,2V24.18A1.11,1.11,0,0,1,70.09,25.3Z"/><path class="cls-3" d="M20.29,15a.85.85,0,0,0,.06.31.8.8,0,0,0,.73.49h4.08l.16-6.15-4.8,4.79A.79.79,0,0,0,20.29,15Z"/><path class="cls-7" d="M36.24,18.13a7.32,7.32,0,1,1,7.33-7.32A7.33,7.33,0,0,1,36.24,18.13Zm0-13.54a6.22,6.22,0,1,0,6.22,6.22A6.22,6.22,0,0,0,36.24,4.59Z"/><path class="cls-8" d="M36.13,21a.9.9,0,0,1-.93,1,.88.88,0,0,1-.9-1,.9.9,0,0,1,.93-1A.88.88,0,0,1,36.13,21Zm-1.41,0c0,.37.17.65.5.65s.49-.3.49-.64-.15-.63-.5-.63S34.72,20.65,34.72,21Z"/><path class="cls-8" d="M36.48,22V20.08H37c.23.42.67,1.19.75,1.39h0c0-.19,0-.52,0-.83v-.56h.37V22h-.48c-.21-.36-.69-1.24-.78-1.46h0c0,.17,0,.55,0,.89V22Z"/><path class="cls-7" d="M58,18.13a7.32,7.32,0,1,1,7.33-7.32A7.33,7.33,0,0,1,58,18.13ZM58,4.59a6.22,6.22,0,1,0,6.22,6.22A6.22,6.22,0,0,0,58,4.59Z"/><path class="cls-8" d="M57.89,21A.9.9,0,0,1,57,22a.88.88,0,0,1-.9-1,.9.9,0,0,1,.93-1A.88.88,0,0,1,57.89,21Zm-1.4,0c0,.37.16.65.49.65s.49-.3.49-.64-.14-.63-.5-.63S56.49,20.65,56.49,21Z"/><path class="cls-8" d="M58.24,22V20.08h.51c.23.42.67,1.19.75,1.39h0c0-.19,0-.52,0-.83v-.56h.37V22h-.48c-.21-.36-.69-1.24-.78-1.46h0c0,.17,0,.55,0,.89V22Z"/><text class="cls-9" transform="translate(31.16 12.71)">电视</text><text class="cls-9" transform="translate(52.62 12.71)">台灯</text></g></g></svg>