<?xml version="1.0" standalone="no"?><!DOCTYPE svg PUBLIC "-//W3C//DTD SVG 1.1//EN" "http://www.w3.org/Graphics/SVG/1.1/DTD/svg11.dtd"><svg t="1563038141941" class="icon" viewBox="0 0 1024 1024" version="1.1" xmlns="http://www.w3.org/2000/svg" p-id="3998" width="20" height="20" xmlns:xlink="http://www.w3.org/1999/xlink"><defs><style type="text/css"></style></defs><path d="M468.531809 1024a93.694688 93.694688 0 0 1-94.001884-93.029098l-0.358395-66.559068c-184.624615 40.140238-223.58727-78.334903-223.58727-78.334903C120.325483 709.329205 76.806093 689.00309 76.806093 689.00309c-60.210357-41.215423 4.556736-40.447434 4.556736-40.447434 66.559068 4.710334 101.681776 68.504641 101.681776 68.504641 59.186371 101.374581 155.287426 72.088591 193.174896 55.141628 5.939117-42.904999 23.142076-72.190989 42.13701-88.779557-147.453936-16.793365-302.434166-73.726968-302.434166-328.033807 0-72.498185 25.906837-131.684556 68.402242-178.173506-6.911903-16.793365-29.593186-84.27402 6.45111-175.664741 0 0 55.756019-17.86855 182.576644 68.095047A635.946297 635.946297 0 0 1 539.545214 47.168876c56.370411 0.255996 113.252814 7.628693 166.244073 22.374086C832.558712-16.318236 888.314732 1.550314 888.314732 1.550314c36.095495 91.44192 13.363013 158.922575 6.502309 175.613542 42.546604 46.488949 68.351043 105.72652 68.351043 178.173505 0 254.97243-155.338625 311.086845-303.099757 327.573014 23.756467 20.582112 44.952971 60.927147 44.952971 122.87828 0 88.933155-0.358395 125.182247-0.358395 125.182247A93.694688 93.694688 0 0 1 610.814617 1024H468.480609z" p-id="3999" fill="#ffffff"></path></svg>