<?xml version="1.0" standalone="no"?><!DOCTYPE svg PUBLIC "-//W3C//DTD SVG 1.1//EN" "http://www.w3.org/Graphics/SVG/1.1/DTD/svg11.dtd"><svg t="1557131792831" class="icon" style="" viewBox="0 0 1070 1024" version="1.1" xmlns="http://www.w3.org/2000/svg" p-id="13737" xmlns:xlink="http://www.w3.org/1999/xlink" width="20.8984375" height="20"><defs><style type="text/css"></style></defs><path d="M256 353.28c40.96-138.24 143.36-250.88 276.48-307.2C450.56 20.48 363.52 5.12 276.48 0 184.32 0 92.16 5.12 5.12 20.48c0 0-40.96 424.96 204.8 716.8l10.24 10.24c-10.24-133.12 0-266.24 35.84-394.24z m768 368.64c-10.24-81.92-25.6-158.72-46.08-240.64-56.32 117.76-153.6 209.92-276.48 256-133.12 46.08-276.48 66.56-419.84 66.56 286.72 240.64 721.92 215.04 721.92 215.04 15.36-97.28 25.6-194.56 20.48-296.96z m-768 35.84s363.52 56.32 593.92-163.84S1013.76 15.36 1013.76 15.36s-394.24-51.2-599.04 153.6S250.88 757.76 256 757.76z" p-id="13738" fill="#ffffff"></path></svg>