<svg xmlns="http://www.w3.org/2000/svg" viewBox="0 0 238.84 161.85"><defs><style>.cls-1{fill:#040000;}.cls-2{fill:#050101;}</style></defs><title>资源 1</title><g id="图层_2" data-name="图层 2"><g id="v3.0"><path class="cls-1" d="M137.93,8.41l10.42,41.94-19.16,6.73-3.85-4.36,13.79-4.27.92-.29-.25-.93L134,25.75l-.15-.55L130,11l8-2.55m.72-1.28-9.91,3.17,4.11,15.16L133,26l5.83,21.48-15.26,4.74,5.32,6L149.54,51,138.65,7.13Z"/><path class="cls-1" d="M141.4,1l12.52,51.33-29.77,9h-5.91l-7.18-30.24,17.3-4.6h5L126.6,38l-.19.33.08.38,2.94,13.72.23,1.07,1.05-.33L146,48.45l.92-.29-.25-.93L136.54,10l-.27-1-1,.29-33.83,10-.91.27.23.92,27.56,112.53.61,2.5,1.24-2.26L187.35,29.24h6l44.19,27.59-25.24,46.54h-6L180,87.08,195.1,59.25h5.35l1.4,12.47-6.77,12-.47.84.82.51,8.84,5.39.91.55.5-.93L222,59.66l.45-.85-.83-.49-27-15.83L193.7,42l-.49.92-62.86,118h-6L1.34,84.94l26.5-48.08h6L78.34,64.64,62.62,93.29H56.67L30.19,75.94,39,59.56h5.44l3.35,15.18.08.4.34.23,6.15,4,.9.59.52-.94L61.9,67.89l.46-.84-.81-.5-25.87-16L34.79,50l-.51.91-16.66,30-.47.84.82.5,96.8,58.95,2.08,1.27-.59-2.36L85,15.14,135.49,1h5.91m.79-1h-6.84L83.79,14.44l31.5,125.94-96.8-59,16.67-30L61,67.4,54.85,78.54l-6.14-4-3.52-16H38.35L28.87,76.27l27.51,18h6.84l16.45-30L34.09,35.86H27.25L0,85.29l124.11,76.56H131l63.14-118.5,27,15.83L204.8,89.59,196,84.2l6.93-12.27-1.53-13.68h-6.84l-15.8,29.19L206,104.37h6.84l26-47.89L193.6,28.24h-6.84L129.31,132.82,101.75,20.3l33.83-10,10.09,37.19-15.26,4.74-2.94-13.72,7.6-13h-6.84l-18.37,4.89,7.59,31.95h6.84L155.11,53,142.19,0Z"/><polygon class="cls-2" points="193.6 28.24 238.84 56.48 212.87 104.37 185.55 87.44 201.35 58.25 217.56 67.81 202.88 71.93 195.95 84.2 209.95 92.74 227.96 59.18 195.72 40.29 130.95 161.85 6.84 85.29 34.09 35.86 79.67 64.3 63.22 94.29 35.71 76.28 45.19 58.56 48.71 74.53 59.88 81.83 67.87 67.4 36.91 48.29 18.5 81.42 123.36 145.3 90.63 14.44 142.19 0 155.11 53.02 124.29 62.3 116.7 30.35 135.07 25.46 127.47 38.51 130.41 52.23 145.67 47.49 135.58 10.3 101.75 20.3 131.42 141.44 193.6 28.24"/></g></g></svg>