<?xml version="1.0" standalone="no"?><!DOCTYPE svg PUBLIC "-//W3C//DTD SVG 1.1//EN" "http://www.w3.org/Graphics/SVG/1.1/DTD/svg11.dtd"><svg t="1557125457840" class="icon" style="" viewBox="0 0 1024 1024" version="1.1" xmlns="http://www.w3.org/2000/svg" p-id="3978" xmlns:xlink="http://www.w3.org/1999/xlink" width="20" height="20"><defs><style type="text/css"></style></defs><path d="M658.203183 0c39.012685 86.333626 30.885042 163.817153 1.986757 246.719108C797.276179 223.961709 904.741677 158.759953 1002.634617 52.378142c9.391943 158.759953-32.149342 290.24715-119.566654 421.91496l140.879139-31.065656c-33.413642 104.575669-93.738812 180.072438-187.477624 226.670923-27.453371 13.546071-40.09637 30.343199-48.404627 59.06087C727.920296 937.026891 521.478172 1060.928288 315.93912 1014.149189 113.83174 968.092547-27.589243 756.954452 4.560099 550.1511c29.078899-186.03271 148.645553-287.899164 319.687278-342.444677 14.268528-4.695971 29.078899-8.488871 43.88927-11.198085C492.038044 176.279538 602.573984 135.641325 658.203183 0zM422.320932 510.235344c-46.237256 49.127084-86.694855 97.351098-135.82194 143.40774-48.224013 50.21077-59.602713 65.562984-58.338412 131.848425 0 42.805585 25.105385 60.686398 56.53227 60.867013 101.68584 0.180614 205.539052 0.903071 307.044278 0 27.453371-0.541843 30.343199-26.008456 32.51057-36.6647 7.5858-39.012685-2.347986-93.738812-35.761628-126.971839-1.2643-1.2643-3.431671-0.180614-3.251057 1.625528 1.625529 12.462385 6.863343 27.453371-18.422656 27.633985-67.549741 0.361229-91.752055 0.361229-146.658797-0.722457-3.7929 0-5.779657-4.515357-3.251057-7.405185 49.488313-54.545513 89.945912-103.311369 134.196411-148.826168 17.7002-16.4359 37.025928-29.981971 42.986199-49.307699 5.237814-16.797128 6.3215-118.482968 6.502114-140.156682 0-1.625529-1.806143-2.5286-3.070442-1.444914-3.612286 2.889828-9.753171 7.405186-13.184843 8.127642-7.5858 1.625529-14.268528 1.444914-22.034942 1.444915-50.030156 0.361229-281.035821 1.986757-281.39705 1.986757-12.462385-0.722457-13.184843-15.532828-8.8501-26.369685 0.722457-1.625529-0.903071-3.070443-2.5286-2.5286-10.1144 4.154128-34.677942 20.590028-38.109613 85.069326-3.070443 72.787555 10.295014 73.329398 64.659912 73.510013 40.999442 0.180614 81.457041-0.903071 122.456483-0.903072 3.431671 0.361229 6.140886 3.251057 3.7929 5.779657z" p-id="3979" fill="#ffffff"></path></svg>